<svg width="18" height="18" viewBox="0 0 18 18" fill="none" xmlns="http://www.w3.org/2000/svg">
<path fill-rule="evenodd" clip-rule="evenodd" d="M9.00016 16.5C4.86476 16.5 1.5 13.1356 1.5 9.00016C1.5 4.86444 4.86476 1.5 9.00016 1.5C13.1356 1.5 16.5003 4.86444 16.5003 9.00016C16.5003 13.1356 13.1356 16.5 9.00016 16.5ZM9.00016 2.12501C5.20914 2.12501 2.12501 5.20883 2.12501 9.00016C2.12501 12.7912 5.20914 15.875 9.00016 15.875C12.7912 15.875 15.8753 12.7912 15.8753 9.00016C15.8753 5.20883 12.7912 2.12501 9.00016 2.12501ZM12.4377 9.31266H5.56258C5.39008 9.31266 5.25008 9.17266 5.25008 9.00016C5.25008 8.82734 5.39008 8.68734 5.56258 8.68734H12.4377C12.6102 8.68734 12.7502 8.82734 12.7502 9.00016C12.7502 9.17266 12.6102 9.31266 12.4377 9.31266Z" fill="#E65000"/>
</svg>
