<svg width="18" height="18" viewBox="0 0 18 18" fill="none" xmlns="http://www.w3.org/2000/svg">
<path fill-rule="evenodd" clip-rule="evenodd" d="M16.424 2.01639L8.6115 11.0791C8.55668 11.143 8.47806 11.1818 8.39379 11.1871C8.38753 11.1874 8.38126 11.1878 8.375 11.1878C8.29763 11.1878 8.22245 11.1589 8.16481 11.1066L4.727 7.98143C4.59951 7.86522 4.59012 7.66756 4.70633 7.53976C4.82223 7.41227 5.01957 7.40287 5.14768 7.51846L8.34775 10.4278L15.9507 1.60824C16.0638 1.47762 16.2611 1.46321 16.3914 1.57598C16.5224 1.68874 16.5368 1.88546 16.424 2.01639ZM10.7475 3.83225C10.0104 3.50334 9.34542 3.37492 8.375 3.37492C4.92873 3.37492 2.12491 6.17873 2.12491 9.62531C2.12491 13.0713 4.92873 15.8754 8.375 15.8754C11.8213 15.8754 14.6251 13.0713 14.6251 9.62531C14.6251 8.93305 14.5139 8.46664 14.3087 7.84861C14.2545 7.68448 14.3432 7.50781 14.507 7.45362C14.6718 7.3988 14.8478 7.48776 14.902 7.6519C15.1225 8.31597 15.25 8.85192 15.25 9.62531C15.25 13.4161 12.1658 16.5 8.375 16.5C4.58416 16.5 1.5 13.4161 1.5 9.62531C1.5 5.83417 4.58416 2.75 8.375 2.75C9.42749 2.75 10.1887 2.89816 11.0025 3.26121C11.16 3.33169 11.2305 3.51681 11.1603 3.67437C11.0902 3.83193 10.9054 3.90241 10.7475 3.83225Z" fill="#2B39D4"/>
</svg>
