<svg width="18" height="18" viewBox="0 0 18 18" fill="currentColor" xmlns="http://www.w3.org/2000/svg">
<path fill-rule="evenodd" clip-rule="evenodd" d="M13.1501 6.4161C13.09 6.47183 13.0138 6.49969 12.9377 6.49969C12.8536 6.49969 12.7702 6.46619 12.7085 6.39983L9.1876 2.6085V16.1876C9.1876 16.3601 9.04753 16.5 8.87504 16.5C8.70255 16.5 8.57255 16.361 8.57255 16.1882V2.59755L5.04156 6.39983C4.92384 6.5263 4.72649 6.5335 4.59964 6.4161C4.47342 6.29871 4.46618 6.10086 4.58327 5.97439L8.64149 1.60456C8.69594 1.54038 8.77683 1.5 8.87504 1.5C8.96349 1.5 9.04249 1.53757 9.09915 1.59642C9.10072 1.59798 9.10261 1.5983 9.10418 1.59986L13.1665 5.97439C13.2839 6.10086 13.2767 6.29871 13.1501 6.4161Z" fill="currentColor"/>
</svg>
