<svg width="18" height="18" viewBox="0 0 18 18" fill="none" xmlns="http://www.w3.org/2000/svg">
<path fill-rule="evenodd" clip-rule="evenodd" d="M9.00016 16.5C4.86476 16.5 1.5 13.1356 1.5 9.00016C1.5 4.86444 4.86476 1.5 9.00016 1.5C13.1356 1.5 16.5003 4.86444 16.5003 9.00016C16.5003 13.1356 13.1356 16.5 9.00016 16.5ZM9.00016 2.12501C5.20914 2.12501 2.12501 5.20883 2.12501 9.00016C2.12501 12.7912 5.20914 15.875 9.00016 15.875C12.7912 15.875 15.8753 12.7912 15.8753 9.00016C15.8753 5.20883 12.7912 2.12501 9.00016 2.12501ZM11.7212 11.7212C11.6602 11.7821 11.5802 11.8127 11.5002 11.8127C11.4202 11.8127 11.3402 11.7821 11.2793 11.7212L9.00016 9.44173L6.72105 11.7212C6.66011 11.7821 6.58011 11.8127 6.5001 11.8127C6.4201 11.8127 6.3401 11.7821 6.27916 11.7212C6.15697 11.599 6.15697 11.4015 6.27916 11.2793L8.55827 9.00016L6.27916 6.72073C6.15697 6.59886 6.15697 6.40104 6.27916 6.27885C6.40135 6.15697 6.59886 6.15697 6.72105 6.27885L9.00016 8.55827L11.2793 6.27885C11.4015 6.15697 11.599 6.15697 11.7212 6.27885C11.8433 6.40104 11.8433 6.59886 11.7212 6.72073L9.44204 9.00016L11.7212 11.2793C11.8433 11.4015 11.8433 11.599 11.7212 11.7212Z" fill="#BFBFBF"/>
</svg>
