<svg width="16" height="16" viewBox="0 0 16 16" fill="currentColor" xmlns="http://www.w3.org/2000/svg">
<path fill-rule="evenodd" clip-rule="evenodd" d="M13.663 8.26742C13.6625 8.26797 13.6625 8.26881 13.6622 8.26909L8.77685 13.6469C8.57236 13.8741 8.29644 13.9999 8.00063 13.9999C8.00035 13.9999 8.00035 13.9999 8.00007 13.9999C7.70454 13.9999 7.42862 13.8738 7.22385 13.6458L2.34019 8.26909C2.33963 8.26853 2.33935 8.26797 2.33907 8.26742C0.995882 6.90853 0.998683 4.70742 2.34916 3.35297C3.0052 2.69547 3.87751 2.33325 4.80555 2.33325C5.73332 2.33325 6.6059 2.69547 7.26195 3.35297C7.26307 3.35409 7.26335 3.35547 7.26419 3.35631C7.26531 3.35742 7.26671 3.3577 7.26783 3.35881L8.00063 4.1377L8.73428 3.35881C8.7354 3.3577 8.7368 3.35742 8.73792 3.35631C8.73876 3.3552 8.73904 3.35409 8.74016 3.35297C9.39621 2.69547 10.2688 2.33325 11.1966 2.33325C12.1246 2.33325 12.9969 2.69547 13.6532 3.35297C15.0023 4.70742 15.0051 6.90881 13.663 8.26742ZM13.2594 3.7452C12.7087 3.19297 11.9759 2.88881 11.1966 2.88881C10.4195 2.88881 9.68865 3.19159 9.13793 3.74131L8.20316 4.73353C8.2012 4.73547 8.1984 4.73631 8.19644 4.73825C8.1942 4.74047 8.19336 4.74325 8.19112 4.74547C8.17431 4.76131 8.15386 4.7702 8.13453 4.78103C8.12445 4.78686 8.11576 4.79547 8.10512 4.79964C8.0715 4.81325 8.03621 4.82075 8.00063 4.82075C7.96506 4.82075 7.92976 4.81325 7.89615 4.79964C7.8855 4.79547 7.8771 4.78686 7.86673 4.78131C7.84741 4.77047 7.82724 4.76131 7.81015 4.74547C7.80791 4.74325 7.80707 4.74047 7.80511 4.73825C7.80287 4.73631 7.80035 4.73547 7.7981 4.73353L6.8667 3.74353C6.31569 3.19242 5.58401 2.88881 4.80555 2.88881C4.02625 2.88881 3.29373 3.19297 2.74245 3.7452C1.60431 4.88714 1.60431 6.74464 2.74245 7.88603C2.74413 7.8877 2.74469 7.8902 2.74637 7.89186C2.74777 7.89353 2.75001 7.89381 2.75141 7.89575L7.63619 13.2735C7.73564 13.3841 7.86449 13.4441 8.00035 13.4441H8.00063C8.13677 13.4441 8.26591 13.3841 8.36451 13.2744L13.2507 7.89575C13.2521 7.89409 13.2541 7.89353 13.2555 7.89214C13.2571 7.8902 13.2577 7.88797 13.2594 7.88631C14.3967 6.74464 14.3967 4.88714 13.2594 3.7452Z" fill="currentColor"/>
</svg>
