<svg width="16" height="16" viewBox="0 0 16 16" fill="none" xmlns="http://www.w3.org/2000/svg">
<path fill-rule="evenodd" clip-rule="evenodd" d="M1.61119 7.61131L13.6815 7.61131L10.3109 4.4815C10.1987 4.37724 10.1923 4.20133 10.2965 4.08898C10.3512 4.03016 10.4256 4.00005 10.5001 4.00005C10.5679 4.00005 10.6356 4.02459 10.6892 4.07449L14.5781 7.68546C14.5792 7.68658 14.5798 7.68825 14.5809 7.68965C14.6012 7.70888 14.6156 7.73286 14.6292 7.75767C14.6334 7.76547 14.6404 7.77133 14.644 7.77941C14.6584 7.81314 14.6667 7.84994 14.6667 7.88897C14.6667 7.928 14.6584 7.9648 14.644 7.99853C14.6404 8.00689 14.6331 8.01303 14.629 8.02083C14.6154 8.04508 14.6012 8.06906 14.5812 8.08829C14.5798 8.08941 14.5795 8.09136 14.5781 8.09276L10.6892 11.7035C10.5765 11.808 10.4012 11.8016 10.2965 11.689C10.1923 11.5766 10.1987 11.401 10.3109 11.2964L13.6815 8.16691L1.61119 8.16691C1.45786 8.16691 1.33341 8.0423 1.33341 7.88897C1.33341 7.73564 1.45786 7.61131 1.61119 7.61131Z" fill="black"/>
</svg>
