<svg width="18" height="18" viewBox="0 0 18 18" fill="currentColor" xmlns="http://www.w3.org/2000/svg">
<path fill-rule="evenodd" clip-rule="evenodd" d="M1.8125 8.56266L15.3916 8.56266L11.5997 5.04163C11.4734 4.92433 11.4662 4.72644 11.5834 4.60005C11.645 4.53387 11.7288 4.5 11.8125 4.5C11.8888 4.5 11.965 4.5276 12.0253 4.58374L16.4003 8.64609C16.4016 8.64734 16.4022 8.64922 16.4034 8.65079C16.4263 8.67243 16.4425 8.6994 16.4578 8.72731C16.4625 8.7361 16.4703 8.74268 16.4744 8.75178C16.4906 8.78973 16.5 8.83112 16.5 8.87503C16.5 8.91894 16.4906 8.96034 16.4744 8.99828C16.4703 9.00769 16.4622 9.01459 16.4575 9.02337C16.4422 9.05066 16.4262 9.07763 16.4038 9.09927C16.4022 9.10053 16.4019 9.10272 16.4003 9.10429L12.0253 13.1663C11.8984 13.2839 11.7013 13.2767 11.5834 13.15C11.4662 13.0236 11.4734 12.826 11.5997 12.7084L15.3916 9.18771L1.8125 9.18771C1.64 9.18771 1.5 9.04752 1.5 8.87503C1.5 8.70254 1.64 8.56266 1.8125 8.56266Z" fill="currentColor"/>
</svg>
