<svg width="16" height="16" viewBox="0 0 16 16" fill="currentColor" xmlns="http://www.w3.org/2000/svg">
<path fill-rule="evenodd" clip-rule="evenodd" d="M13.6924 4.11149H13.0443L11.7309 14.1457C11.6925 14.4379 11.408 14.6668 11.0828 14.6668H5.24961C4.92449 14.6668 4.63989 14.4379 4.60151 14.146L3.28812 4.11149H2.64002C2.47055 4.11149 2.33301 3.98705 2.33301 3.83344C2.33301 3.68011 2.47055 3.55567 2.64002 3.55567H6.01714V2.16709C6.01714 1.70738 6.43038 1.3335 6.93818 1.3335H9.39426C9.90206 1.3335 10.3153 1.70738 10.3153 2.16709V3.55567H13.6924C13.8619 3.55567 13.9994 3.68011 13.9994 3.83344C13.9994 3.98705 13.8619 4.11149 13.6924 4.11149ZM9.70128 2.16709C9.70128 2.01376 9.56343 1.88904 9.39426 1.88904H6.93818C6.76901 1.88904 6.63116 2.01376 6.63116 2.16709V3.55567H9.70128V2.16709ZM3.90675 4.11149L5.21154 14.0802C5.21277 14.0921 5.23672 14.111 5.24961 14.111H11.0828C11.096 14.111 11.1197 14.0921 11.1212 14.0802L12.4257 4.11149H3.90675Z" fill="currentColor"/>
</svg>
