<svg width="24" height="24" viewBox="0 0 24 24" fill="none" xmlns="http://www.w3.org/2000/svg">
<path fill-rule="evenodd" clip-rule="evenodd" d="M19.072 5.51818L12.5901 12.0001L19.072 18.4821C19.2347 18.6447 19.2344 18.9084 19.0717 19.071C18.9091 19.2337 18.6454 19.234 18.4828 19.0713L12.0008 12.5894L5.51888 19.0713C5.35624 19.234 5.09225 19.234 4.92961 19.0713C4.76668 18.9084 4.76668 18.6444 4.92932 18.4818L11.4113 11.9998L4.92932 5.51788C4.76668 5.35524 4.76698 5.09154 4.92961 4.92891C5.09225 4.76627 5.35595 4.76597 5.51859 4.92861L12.0005 11.4106L18.4825 4.92861C18.6451 4.76598 18.9091 4.76598 19.072 4.92891C19.2347 5.09154 19.2347 5.35554 19.072 5.51818Z" fill="black"/>
</svg>
