<svg width="18" height="18" viewBox="0 0 18 18" fill="currentColor" xmlns="http://www.w3.org/2000/svg">
<path fill-rule="evenodd" clip-rule="evenodd" d="M4.59988 11.5839C4.66 11.5282 4.73617 11.5003 4.81234 11.5003C4.89638 11.5003 4.97979 11.5338 5.04149 11.6002L8.5624 15.3915L8.5624 1.81242C8.5624 1.63993 8.70247 1.5 8.87496 1.5C9.04745 1.5 9.17745 1.63899 9.17745 1.8118L9.17745 15.4025L12.7084 11.6002C12.8262 11.4737 13.0235 11.4665 13.1504 11.5839C13.2766 11.7013 13.2838 11.8991 13.1667 12.0256L9.10851 16.3954C9.05406 16.4596 8.97317 16.5 8.87496 16.5C8.78651 16.5 8.70751 16.4624 8.65085 16.4036C8.64928 16.402 8.64739 16.4017 8.64581 16.4001L4.58351 12.0256C4.4661 11.8991 4.47334 11.7013 4.59988 11.5839Z" fill="currentColor"/>
</svg>
