<svg width="16" height="16" viewBox="0 0 16 16" fill="currentColor" xmlns="http://www.w3.org/2000/svg">
<path fill-rule="evenodd" clip-rule="evenodd" d="M14.325 3.73244C14.3231 3.73466 14.3201 3.73549 14.3181 3.73772C14.3156 3.7405 14.3148 3.74383 14.3121 3.74661L8.7545 9.30485C8.75229 9.3068 8.74953 9.30736 8.74732 9.3093C8.73406 9.32209 8.71722 9.33015 8.7012 9.34016C8.68519 9.34989 8.67028 9.36129 8.65315 9.36768C8.65039 9.36879 8.64874 9.37102 8.64598 9.37185L6.14499 10.2058C6.116 10.2153 6.08645 10.22 6.0569 10.22C5.98456 10.22 5.91359 10.1917 5.86057 10.1386C5.78601 10.0638 5.76006 9.95397 5.79347 9.85389L6.62713 7.35305C6.62796 7.34999 6.63017 7.34832 6.63127 7.34526C6.63762 7.32831 6.64894 7.31357 6.65861 7.29773C6.66855 7.28188 6.67683 7.26492 6.68954 7.2513C6.69147 7.24936 6.69202 7.2463 6.69423 7.24435L12.2518 1.68583C12.2526 1.685 12.2537 1.68472 12.2548 1.68417C12.2557 1.68333 12.2557 1.68194 12.2568 1.68139C12.4992 1.45009 12.8449 1.32305 13.2 1.33417C13.5844 1.34529 13.9489 1.51514 14.2259 1.81204C14.8602 2.48924 14.7329 3.26457 14.325 3.73244ZM13.82 2.19179C13.5952 1.95076 13.35 1.89461 13.1838 1.8896C12.9786 1.88432 12.774 1.95605 12.64 2.08392H12.6398L7.13357 7.59073L6.49652 9.50251L8.40822 8.86507L13.9094 3.36326C14.1326 3.10333 14.2425 2.64269 13.82 2.19179ZM8.55789 3.55035H1.88887V14.1111L12.3838 14.1108V7.43895C12.3838 7.28549 12.5064 7.16095 12.6599 7.16095C12.8135 7.16095 12.9361 7.28549 12.9361 7.43895V14.3888C12.9361 14.5423 12.8803 14.6668 12.7267 14.6668H1.6108C1.45755 14.6668 1.33301 14.5423 1.33301 14.3888V3.27235C1.33301 3.1189 1.45755 2.99464 1.6108 2.99464H8.55789C8.71142 2.99464 8.83596 3.1189 8.83596 3.27235C8.83596 3.42581 8.71142 3.55035 8.55789 3.55035Z" fill="currentColor"/>
</svg>
