<svg width="16" height="16" viewBox="0 0 16 16" fill="none" xmlns="http://www.w3.org/2000/svg">
<path fill-rule="evenodd" clip-rule="evenodd" d="M14.3888 8.16652H2.31853L5.68909 11.2963C5.80131 11.4006 5.8077 11.5765 5.70353 11.6888C5.64881 11.7477 5.57436 11.7778 5.49992 11.7778C5.43214 11.7778 5.36436 11.7532 5.31075 11.7033L1.42186 8.09237C1.42075 8.09125 1.4202 8.08958 1.41909 8.08819C1.39881 8.06895 1.38436 8.04498 1.37075 8.02016C1.36659 8.01236 1.35964 8.00651 1.35603 7.99842C1.34159 7.96469 1.33325 7.92789 1.33325 7.88886C1.33325 7.84983 1.34159 7.81303 1.35603 7.7793C1.35964 7.77094 1.36686 7.76481 1.37103 7.757C1.38464 7.73275 1.39881 7.70877 1.41881 7.68954C1.4202 7.68842 1.42047 7.68647 1.42186 7.68508L5.31075 4.07438C5.42353 3.96984 5.59881 3.97625 5.70353 4.08887C5.8077 4.20122 5.80131 4.37685 5.68909 4.48139L2.31853 7.61092H14.3888C14.5421 7.61092 14.6666 7.73554 14.6666 7.88886C14.6666 8.04219 14.5421 8.16652 14.3888 8.16652Z" fill="#EB008D"/>
</svg>
