<svg width="16" height="16" viewBox="0 0 16 16" fill="currentColor" xmlns="http://www.w3.org/2000/svg">
<path fill-rule="evenodd" clip-rule="evenodd" d="M10.6182 5.77773H12.7257C12.8791 5.77773 13.0034 5.90213 13.0034 6.05549C13.0034 6.20912 12.9016 6.31794 12.748 6.31794H10.0272C10.001 6.32574 9.9745 6.33325 9.94745 6.33325C9.87634 6.33325 9.80522 6.30626 9.75084 6.25226C9.69702 6.19799 9.66996 6.1273 9.66969 6.05632C9.66969 6.05605 9.66969 6.05605 9.66969 6.05549V3.27786C9.66969 3.1245 9.79379 3.00009 9.94745 3.00009C10.1008 3.00009 10.2252 3.1245 10.2252 3.27786V5.38502L14.1959 1.41478C14.3044 1.30624 14.4804 1.30624 14.5889 1.41478C14.6974 1.52305 14.6974 1.69923 14.5889 1.80749L10.6182 5.77773ZM6.05873 13.0001C5.90534 13.0001 5.78096 12.8757 5.78096 12.7221L5.77678 10.6194L1.81025 14.5852C1.75586 14.6394 1.68475 14.6667 1.61391 14.6667C1.5428 14.6667 1.47168 14.6394 1.4173 14.5852C1.30882 14.4769 1.30882 14.301 1.4173 14.1927L5.3961 10.2144H3.26601C3.11234 10.2144 3.00274 10.0978 3.00274 9.94445C3.00274 9.79138 3.12712 9.66669 3.28051 9.66669H6.05845C6.0947 9.66669 6.13096 9.6742 6.16498 9.68812C6.23303 9.71651 6.28713 9.7705 6.3153 9.83841C6.32868 9.87125 6.33538 9.90604 6.33594 9.94083C6.33594 9.94223 6.33649 9.94334 6.33649 9.94445V12.7221C6.33649 12.8757 6.21239 13.0001 6.05873 13.0001ZM6.25506 6.25226C6.20096 6.30626 6.12984 6.33325 6.05873 6.33325C6.03168 6.33325 6.00518 6.32574 5.97897 6.31794H3.26601C3.11234 6.31794 3.00274 6.20912 3.00274 6.05549C3.00274 5.90213 3.12712 5.77773 3.28051 5.77773H5.38802L1.4173 1.80749C1.30882 1.69923 1.30882 1.52305 1.4173 1.41478C1.52579 1.30624 1.70176 1.30624 1.81025 1.41478L5.78096 5.38502V3.27786C5.78096 3.1245 5.90534 3.00009 6.05873 3.00009C6.21239 3.00009 6.33649 3.1245 6.33649 3.27786V6.05549C6.33649 6.05632 6.33621 6.05688 6.33621 6.05772C6.33566 6.12813 6.30888 6.19827 6.25506 6.25226ZM9.84203 9.68756C9.87578 9.67393 9.91175 9.66669 9.94773 9.66669H12.7257C12.8791 9.66669 13.0034 9.79138 13.0034 9.94445C13.0034 10.0978 12.9016 10.2144 12.748 10.2144H10.6101L14.5889 14.1927C14.6974 14.301 14.6974 14.4769 14.5889 14.5852C14.5345 14.6394 14.4634 14.6667 14.3923 14.6667C14.3214 14.6667 14.2503 14.6394 14.1959 14.5852L10.2361 10.6258L10.2255 12.7221C10.2255 12.8757 10.1011 13.0001 9.94773 13.0001C9.79435 13.0001 9.68028 12.8727 9.68028 12.719V9.99928C9.66243 9.91105 9.68251 9.81643 9.75084 9.74824C9.77733 9.7218 9.80829 9.70148 9.84203 9.68756Z" fill="currentColor"/>
</svg>
