<svg width="19" height="18" viewBox="0 0 19 18" fill="none" xmlns="http://www.w3.org/2000/svg">
<path fill-rule="evenodd" clip-rule="evenodd" d="M16.924 2.01639L9.1115 11.0791C9.05668 11.143 8.97806 11.1818 8.89379 11.1871C8.88753 11.1874 8.88126 11.1878 8.875 11.1878C8.79763 11.1878 8.72245 11.1589 8.66481 11.1066L5.227 7.98143C5.09951 7.86522 5.09012 7.66756 5.20633 7.53976C5.32223 7.41227 5.51957 7.40287 5.64768 7.51846L8.84775 10.4278L16.4507 1.60824C16.5638 1.47762 16.7611 1.46321 16.8914 1.57598C17.0224 1.68874 17.0368 1.88546 16.924 2.01639ZM11.2475 3.83225C10.5104 3.50334 9.84542 3.37492 8.875 3.37492C5.42873 3.37492 2.62491 6.17873 2.62491 9.62531C2.62491 13.0713 5.42873 15.8754 8.875 15.8754C12.3213 15.8754 15.1251 13.0713 15.1251 9.62531C15.1251 8.93305 15.0139 8.46664 14.8087 7.84861C14.7545 7.68448 14.8432 7.50781 15.007 7.45362C15.1718 7.3988 15.3478 7.48776 15.402 7.6519C15.6225 8.31597 15.75 8.85192 15.75 9.62531C15.75 13.4161 12.6658 16.5 8.875 16.5C5.08416 16.5 2 13.4161 2 9.62531C2 5.83417 5.08416 2.75 8.875 2.75C9.92749 2.75 10.6887 2.89816 11.5025 3.26121C11.66 3.33169 11.7305 3.51681 11.6603 3.67437C11.5902 3.83193 11.4054 3.90241 11.2475 3.83225Z" fill="#BFBFBF"/>
</svg>
