<svg width="12" height="12" viewBox="0 0 12 12" fill="currentColor" xmlns="http://www.w3.org/2000/svg">
<path fill-rule="evenodd" clip-rule="evenodd" d="M10.5833 11H1.41667C1.18687 11 1 10.813 1 10.5832V7.6666C1 7.5516 1.09313 7.45831 1.20833 7.45831C1.32354 7.45831 1.41667 7.5516 1.41667 7.6666V10.5832H10.5833V7.6666C10.5833 7.5516 10.6765 7.45831 10.7917 7.45831C10.9069 7.45831 11 7.5516 11 7.6666V10.5832C11 10.813 10.8129 11 10.5833 11ZM8.08333 3.70834C8.02667 3.70834 7.97021 3.68538 7.92917 3.6403L6.20833 1.74737V8.29166C6.20833 8.40687 6.11521 8.49995 6 8.49995C5.88479 8.49995 5.79167 8.40687 5.79167 8.29166V1.74737L4.07083 3.6403C3.99354 3.72545 3.86146 3.7313 3.77646 3.65428C3.69146 3.57685 3.68521 3.44516 3.7625 3.36001L5.84583 1.06825C5.84687 1.06699 5.84854 1.06658 5.84958 1.06553C5.8875 1.02546 5.94042 1 6 1C6.05958 1 6.1125 1.02546 6.15042 1.06553C6.15146 1.06658 6.15312 1.06699 6.15417 1.06825L8.2375 3.36001C8.31479 3.44516 8.30854 3.57685 8.22354 3.65428C8.18354 3.6906 8.13333 3.70834 8.08333 3.70834Z" fill="currentColor"/>
</svg>
