<svg width="16" height="16" viewBox="0 0 16 16" fill="none" xmlns="http://www.w3.org/2000/svg">
<path fill-rule="evenodd" clip-rule="evenodd" d="M13.663 8.26766C13.6625 8.26822 13.6625 8.26905 13.6622 8.26933L8.77685 13.6471C8.57236 13.8743 8.29644 14.0002 8.00063 14.0002C8.00035 14.0002 8.00035 14.0002 8.00007 14.0002C7.70454 14.0002 7.42862 13.8741 7.22385 13.646L2.34019 8.26933C2.33963 8.26877 2.33935 8.26822 2.33907 8.26766C0.995882 6.90877 0.998683 4.70766 2.34916 3.35322C3.0052 2.69572 3.87751 2.3335 4.80555 2.3335C5.73332 2.3335 6.6059 2.69572 7.26195 3.35322C7.26307 3.35433 7.26335 3.35572 7.26419 3.35655C7.26531 3.35766 7.26671 3.35794 7.26783 3.35905L8.00063 4.13794L8.73427 3.35905C8.7354 3.35794 8.7368 3.35766 8.73792 3.35655C8.73876 3.35544 8.73904 3.35433 8.74016 3.35322C9.3962 2.69572 10.2688 2.3335 11.1966 2.3335C12.1246 2.3335 12.9969 2.69572 13.6532 3.35322C15.0023 4.70766 15.0051 6.90905 13.663 8.26766ZM13.2594 3.74544C12.7087 3.19322 11.9759 2.88905 11.1966 2.88905C10.4195 2.88905 9.68865 3.19183 9.13793 3.74155L8.20316 4.73377C8.2012 4.73572 8.1984 4.73655 8.19644 4.7385C8.1942 4.74072 8.19336 4.7435 8.19112 4.74572C8.17431 4.76155 8.15386 4.77044 8.13453 4.78127C8.12445 4.78711 8.11576 4.79572 8.10512 4.79989C8.0715 4.8135 8.03621 4.821 8.00063 4.821C7.96506 4.821 7.92976 4.8135 7.89615 4.79989C7.8855 4.79572 7.8771 4.78711 7.86673 4.78155C7.84741 4.77072 7.82724 4.76155 7.81015 4.74572C7.80791 4.7435 7.80707 4.74072 7.80511 4.7385C7.80287 4.73655 7.80035 4.73572 7.7981 4.73377L6.8667 3.74377C6.31569 3.19266 5.58401 2.88905 4.80555 2.88905C4.02625 2.88905 3.29373 3.19322 2.74245 3.74544C1.60431 4.88738 1.60431 6.74488 2.74245 7.88627C2.74413 7.88794 2.74469 7.89044 2.74637 7.89211C2.74777 7.89377 2.75001 7.89405 2.75141 7.896L7.63619 13.2738C7.73564 13.3843 7.86449 13.4443 8.00035 13.4443H8.00063C8.13677 13.4443 8.26591 13.3843 8.36451 13.2746L13.2507 7.896C13.2521 7.89433 13.2541 7.89377 13.2555 7.89239C13.2571 7.89044 13.2577 7.88822 13.2594 7.88655C14.3967 6.74488 14.3967 4.88738 13.2594 3.74544Z" fill="black" stroke="#E65000"/>
</svg>
