<svg width="20" height="20" viewBox="0 0 20 20" fill="none" xmlns="http://www.w3.org/2000/svg">
<path fill-rule="evenodd" clip-rule="evenodd" d="M16.1113 10.5556H10.5557V16.1112C10.5557 16.4178 10.3068 16.6667 10.0002 16.6667C9.6935 16.6667 9.44461 16.4178 9.44461 16.1112V10.5556H3.88905C3.58238 10.5556 3.3335 10.3067 3.3335 10C3.3335 9.69337 3.58238 9.44448 3.88905 9.44448H9.44461V3.88893C9.44461 3.58226 9.6935 3.33337 10.0002 3.33337C10.3068 3.33337 10.5557 3.58226 10.5557 3.88893V9.44448H16.1113C16.4179 9.44448 16.6668 9.69337 16.6668 10C16.6668 10.3067 16.4179 10.5556 16.1113 10.5556Z" fill="black"/>
</svg>
