<svg width="20" height="20" viewBox="0 0 20 20" fill="currentColor" xmlns="http://www.w3.org/2000/svg">
<path fill-rule="evenodd" clip-rule="evenodd" d="M17.4309 11.736C17.2388 11.736 17.0836 11.5808 17.0836 11.3887V9.60293C15.9009 10.6762 13.3067 11.3887 10.1389 11.3887C6.97103 11.3887 4.37716 10.6762 3.19447 9.60293V11.736C3.19447 12.8856 6.04633 14.1666 10.1389 14.1666C10.3309 14.1666 10.4861 14.3221 10.4861 14.5138C10.4861 14.7058 10.3309 14.861 10.1389 14.861C6.97103 14.861 4.37716 14.1485 3.19447 13.0752V15.134C3.19447 15.1471 3.18822 15.1583 3.18684 15.1711C3.18822 15.184 3.19447 15.1951 3.19447 15.2086C3.19447 16.3579 6.04633 17.6392 10.1389 17.6392C10.3309 17.6392 10.4861 17.7944 10.4861 17.9864C10.4861 18.1781 10.3309 18.3333 10.1389 18.3333C5.78417 18.3333 2.5 16.9902 2.5 15.2086C2.5 15.1951 2.5059 15.184 2.50764 15.1711C2.5059 15.1583 2.5 15.1471 2.5 15.134V4.86603C2.5 4.85631 2.50451 4.84832 2.50556 4.83894C2.50486 4.82297 2.5 4.80735 2.5 4.79137C2.5 3.01009 5.78417 1.66666 10.1389 1.66666C14.4939 1.66666 17.7781 3.01009 17.7781 4.79137C17.7781 4.80735 17.7732 4.82297 17.7725 4.83894C17.7732 4.84832 17.7781 4.85631 17.7781 4.86603V11.3887C17.7781 11.5808 17.6229 11.736 17.4309 11.736ZM3.19447 8.26402C3.19447 9.41335 6.04633 10.6946 10.1389 10.6946C14.2314 10.6946 17.0836 9.41335 17.0836 8.26402V6.13064C15.9009 7.20393 13.3067 7.91644 10.1389 7.91644C6.97103 7.91644 4.37716 7.20393 3.19447 6.13064V8.26402ZM10.1389 2.36077C6.04633 2.36077 3.19447 3.64204 3.19447 4.79137C3.19447 5.94105 6.04633 7.22198 10.1389 7.22198C14.2314 7.22198 17.0836 5.94105 17.0836 4.79137C17.0836 3.64204 14.2314 2.36077 10.1389 2.36077ZM12.5251 14.6617L12.6206 14.6475C12.6782 14.6388 12.7279 14.619 12.7557 14.6034L12.814 14.4593C12.8157 14.4555 12.8171 14.452 12.8189 14.4485L12.6904 14.2839C12.4647 13.9957 12.4879 13.5683 12.7432 13.312C12.9859 13.0665 13.4352 13.0377 13.7147 13.2502L13.7869 13.3047C13.8297 13.337 13.8748 13.3572 13.9067 13.3672C13.9724 13.3141 14.0693 13.2152 14.0877 13.1662L14.0956 13.0919C14.1422 12.7287 14.4613 12.444 14.8221 12.4426C15.1825 12.4426 15.5037 12.7235 15.5561 13.0822L15.5697 13.1759C15.578 13.2332 15.5981 13.2825 15.6134 13.3096L15.735 13.3596C15.7641 13.3523 15.8148 13.3318 15.8617 13.2961L15.9346 13.2402C16.2155 13.0263 16.6621 13.0547 16.9076 13.2978C17.1628 13.552 17.1913 13.9787 16.9722 14.27L16.9159 14.344C16.8843 14.3864 16.8638 14.4315 16.8541 14.4635C16.9072 14.5291 17.0055 14.6249 17.0545 14.643L17.1308 14.6517C17.4916 14.6989 17.7757 15.0176 17.7771 15.3777C17.7784 15.7354 17.4986 16.0586 17.1406 16.1138L17.044 16.1288C16.9864 16.1374 16.936 16.1579 16.9079 16.1732L16.86 16.2913C16.8676 16.3204 16.8878 16.3704 16.9228 16.4166L16.9801 16.492C17.2006 16.7809 17.1753 17.2073 16.9218 17.4628C16.678 17.708 16.2322 17.7392 15.9506 17.5326L15.8742 17.4764C15.8297 17.4437 15.7829 17.4229 15.7499 17.4128C15.6874 17.4646 15.5954 17.5604 15.578 17.608L15.5697 17.684C15.5214 18.0469 15.2019 18.3305 14.8422 18.3323H14.8394C14.4832 18.3323 14.1609 18.0528 14.1064 17.6955L14.0918 17.5986C14.0831 17.5413 14.0627 17.4916 14.0474 17.4635L13.9085 17.4073C13.9067 17.4066 13.9054 17.4059 13.9036 17.4055C13.8727 17.4288 13.839 17.4538 13.8043 17.4802L13.7272 17.5382C13.4501 17.7469 13.0015 17.7201 12.7567 17.4764C12.5032 17.2257 12.4716 16.7993 12.6852 16.5065L12.7428 16.4274C12.7758 16.3826 12.7963 16.3347 12.806 16.3013C12.7536 16.2364 12.6574 16.1461 12.6109 16.1298L12.5372 16.1215C12.174 16.0767 11.8883 15.7579 11.8876 15.3961C11.8862 15.0388 12.1664 14.7159 12.5251 14.6617ZM12.623 15.4326L12.7126 15.4437C13.0709 15.4878 13.3855 15.8923 13.4533 16.0267C13.5776 16.2749 13.4678 16.6125 13.3039 16.8371L13.246 16.9163C13.2331 16.9336 13.2369 16.9732 13.246 16.9836L13.3109 16.9826L13.3869 16.9257C13.7554 16.6472 13.7554 16.6472 13.8727 16.6472C13.937 16.6472 13.997 16.6645 14.0488 16.6951L14.3314 16.8298C14.5832 16.9166 14.7366 17.2222 14.778 17.4941L14.7925 17.5909C14.7957 17.6111 14.8248 17.6357 14.8394 17.6375C14.8523 17.635 14.8787 17.6128 14.8807 17.5934L14.8926 17.5031C14.9401 17.1434 15.3426 16.8316 15.4759 16.7642C15.6929 16.6566 16.0249 16.7253 16.285 16.9163L16.3957 16.9812C16.4135 16.9812 16.4263 16.9757 16.4294 16.9732C16.4367 16.9639 16.4391 16.9277 16.4273 16.9125L16.37 16.8371C16.203 16.618 16.0926 16.2899 16.2131 16.0388L16.2739 15.8888C16.3652 15.6215 16.685 15.4812 16.9381 15.4423L17.0347 15.4274C17.0562 15.4242 17.0812 15.3944 17.0826 15.3801C17.0812 15.369 17.0586 15.3426 17.0395 15.3402L16.9472 15.3277C16.5923 15.2815 16.2763 14.8749 16.2075 14.7405C16.0791 14.4895 16.1926 14.1506 16.3614 13.9263L16.4173 13.852C16.4291 13.836 16.426 13.8006 16.418 13.7902L16.1461 13.5159L16.3572 13.7909L16.2829 13.8482C16.0294 14.0409 15.6995 14.1103 15.4842 14.0068L15.3301 13.9443C15.0755 13.8558 14.9221 13.5488 14.8825 13.2756L14.8689 13.1822C14.8658 13.162 14.8377 13.1381 14.8241 13.137C14.8127 13.1381 14.787 13.1606 14.7846 13.1797L14.7731 13.2704C14.7269 13.6273 14.3189 13.9443 14.1838 14.0134C13.9627 14.1259 13.6251 14.0544 13.3675 13.8582L13.2953 13.8037L13.2352 13.802C13.2289 13.8103 13.2269 13.843 13.238 13.8568L13.3717 14.0284C13.5685 14.2805 13.5803 14.2954 13.5803 14.4152C13.5803 14.4766 13.564 14.5364 13.5338 14.5888L13.3894 14.8885C13.3019 15.1402 12.9959 15.2937 12.7241 15.3343L12.6286 15.3489C12.6084 15.352 12.5834 15.3808 12.582 15.3947C12.5838 15.4062 12.6053 15.4301 12.623 15.4326ZM14.8141 14.5214C15.2915 14.5214 15.6801 14.91 15.6801 15.3874C15.6801 15.8649 15.2915 16.2534 14.8141 16.2534C14.3363 16.2534 13.9477 15.8649 13.9477 15.3874C13.9477 14.91 14.3363 14.5214 14.8141 14.5214ZM14.8141 15.559C14.9085 15.559 14.9856 15.4822 14.9856 15.3874C14.9856 15.2926 14.9085 15.2159 14.8141 15.2159C14.7189 15.2159 14.6422 15.2926 14.6422 15.3874C14.6422 15.4822 14.7189 15.559 14.8141 15.559Z" fill="currentColor"/>
</svg>
