<svg width="20" height="20" viewBox="0 0 20 20" fill="none" xmlns="http://www.w3.org/2000/svg">
<path fill-rule="evenodd" clip-rule="evenodd" d="M17.9861 17.5C17.7944 17.5 17.6388 17.3441 17.6388 17.1524V3.26384C17.6388 3.07218 17.7944 2.91663 17.9861 2.91663C18.1777 2.91663 18.3333 3.07218 18.3333 3.26384V17.1524C18.3333 17.3441 18.1777 17.5 17.9861 17.5ZM16.2232 10.3411C16.2062 10.3821 16.1812 10.4185 16.1507 10.4501C16.1496 10.4512 16.1493 10.4526 16.1482 10.4536L13.3704 13.2313C13.3027 13.299 13.2138 13.333 13.125 13.333C13.0361 13.333 12.9472 13.299 12.8795 13.2313C12.7437 13.0959 12.7437 12.8761 12.8795 12.7404L15.0642 10.5557H2.01385C1.82218 10.5557 1.66663 10.3998 1.66663 10.2081C1.66663 10.0165 1.82218 9.86091 2.01385 9.86091H15.0645L12.8795 7.67589C12.7437 7.54047 12.7437 7.32069 12.8795 7.18493C13.0152 7.04951 13.2347 7.04951 13.3704 7.18493L16.1475 9.96229C16.1798 9.99424 16.2055 10.0328 16.2232 10.0755C16.2402 10.1171 16.2493 10.1612 16.2496 10.2057C16.2496 10.2064 16.25 10.2071 16.25 10.2081C16.25 10.2533 16.2406 10.2984 16.2232 10.3411Z" fill="currentColor"/>
</svg>
