<svg width="20" height="20" viewBox="0 0 20 20" fill="none" xmlns="http://www.w3.org/2000/svg">
<path fill-rule="evenodd" clip-rule="evenodd" d="M17.9861 10.5559H4.93572L7.12045 12.7406C7.25621 12.8763 7.25621 13.0961 7.12045 13.2316C7.05274 13.2993 6.96385 13.3333 6.87496 13.3333C6.78607 13.3333 6.69718 13.2993 6.62947 13.2316L3.8517 10.4541C3.81975 10.4218 3.7944 10.3836 3.7767 10.3409C3.75899 10.2986 3.74996 10.2534 3.74996 10.2083C3.74996 10.2076 3.75031 10.2073 3.75031 10.2066C3.75065 10.1621 3.75933 10.1177 3.7767 10.0757C3.7944 10.0329 3.8201 9.9944 3.85239 9.96246L6.62947 7.18503C6.76524 7.04961 6.98468 7.04961 7.12045 7.18503C7.25621 7.32079 7.25621 7.54058 7.12045 7.676L4.93503 9.86107H17.9861C18.1781 9.86107 18.3333 10.0166 18.3333 10.2083C18.3333 10.4 18.1781 10.5559 17.9861 10.5559ZM2.01385 17.5C1.82183 17.5 1.66663 17.3448 1.66663 17.1527V3.26385C1.66663 3.07218 1.82183 2.91663 2.01385 2.91663C2.20586 2.91663 2.36107 3.07218 2.36107 3.26385V17.1527C2.36107 17.3448 2.20586 17.5 2.01385 17.5Z" fill="black"/>
</svg>
