<svg width="20" height="20" viewBox="0 0 20 20" fill="currentColor" xmlns="http://www.w3.org/2000/svg">
<path fill-rule="evenodd" clip-rule="evenodd" d="M17.5668 10.5881L10.3134 18.0681C10.141 18.2404 9.91656 18.3334 9.67712 18.3334C9.43768 18.3334 9.21325 18.2404 9.04466 18.072L3.38639 12.4135C3.0384 12.0649 3.03805 11.4972 3.38604 11.1478L10.874 3.88902C11.1504 3.61366 11.6576 3.40359 12.0509 3.40359H17.1609C17.6541 3.40359 18.0558 3.80533 18.0558 4.29875V9.40788C18.0558 9.80164 17.8453 10.3089 17.5668 10.5881ZM17.3612 4.29875C17.3612 4.19006 17.2694 4.09874 17.1609 4.09874H12.0509C11.8436 4.09874 11.5085 4.23729 11.3605 4.38451L3.87365 11.643C3.80105 11.7152 3.8007 11.8454 3.87749 11.9222L9.53576 17.5806C9.61046 17.6553 9.74379 17.6546 9.81918 17.5803L17.0722 10.1003C17.2227 9.94991 17.3612 9.61518 17.3612 9.40788V4.29875ZM14.9316 7.91028C14.1651 7.91028 13.542 7.28666 13.542 6.52032C13.542 5.75399 14.1651 5.13071 14.9316 5.13071C15.6977 5.13071 16.3214 5.75399 16.3214 6.52032C16.3214 7.28666 15.6977 7.91028 14.9316 7.91028ZM14.9316 5.82552C14.5483 5.82552 14.2363 6.13698 14.2363 6.52032C14.2363 6.90332 14.5483 7.21513 14.9316 7.21513C15.3148 7.21513 15.6268 6.90332 15.6268 6.52032C15.6268 6.13698 15.3148 5.82552 14.9316 5.82552ZM16.7501 2.71503C16.5682 2.77649 16.3713 2.67996 16.3092 2.49836C16.2816 2.41781 16.2038 2.36155 16.1193 2.36155H11.0094C10.8017 2.36155 10.4663 2.50045 10.3194 2.64732L2.83212 9.90546C2.75917 9.97838 2.75917 10.1082 2.8363 10.185C2.97138 10.3207 2.97138 10.5409 2.83596 10.6763C2.76789 10.744 2.67924 10.778 2.59023 10.778C2.50158 10.778 2.41222 10.744 2.34451 10.676C1.99617 10.3273 1.99617 9.75963 2.34451 9.41066L9.83245 2.15148C10.1082 1.87647 10.6157 1.66675 11.0094 1.66675H16.1193C16.5019 1.66675 16.8426 1.91085 16.9661 2.27405C17.0282 2.45565 16.9312 2.65323 16.7501 2.71503Z" fill="currentColor"/>
</svg>
