<svg width="18" height="18" viewBox="0 0 18 18" fill="none" xmlns="http://www.w3.org/2000/svg">
<path fill-rule="evenodd" clip-rule="evenodd" d="M14.4998 16.5H3.24999C2.90531 16.5 2.625 16.2194 2.625 15.8747V4.62525C2.625 4.28025 2.90531 3.99995 3.24999 3.99995H6.68742V2.74997C6.68742 2.06093 7.24803 1.5 7.93739 1.5H9.81235C10.5017 1.5 11.0623 2.06093 11.0623 2.74997V3.99995H14.4998C14.8441 3.99995 15.1247 4.28025 15.1247 4.62525V15.8747C15.1247 16.2194 14.8441 16.5 14.4998 16.5ZM10.4373 2.74997C10.4373 2.40529 10.157 2.12499 9.81235 2.12499H7.93739C7.59302 2.12499 7.3124 2.40529 7.3124 2.74997V3.99995H10.4373V2.74997ZM11.0623 4.62525V5.56242C11.0623 5.73491 10.9226 5.87491 10.7498 5.87491C10.577 5.87491 10.4373 5.73491 10.4373 5.56242V4.62525H7.3124V5.56242C7.3124 5.73491 7.17272 5.87491 6.99991 5.87491C6.8271 5.87491 6.68742 5.73491 6.68742 5.56242V4.62525H3.24999V15.8747H14.4988L14.4998 4.62525H11.0623ZM8.89362 12.0035C8.84237 12.0698 8.76675 12.1126 8.68362 12.1226L8.64644 12.1248C8.57581 12.1248 8.50706 12.101 8.45144 12.0567L6.49242 10.4939C6.35742 10.3867 6.33555 10.1901 6.44305 10.0551C6.55117 9.92014 6.7471 9.89795 6.88241 10.0058L8.59331 11.3701L10.8151 8.49642C10.9205 8.35986 11.117 8.33454 11.2533 8.44017C11.3901 8.54548 11.4151 8.74204 11.3095 8.87828L8.89362 12.0035Z" fill="#1A227F"/>
</svg>
