<svg width="18" height="18" viewBox="0 0 18 18" fill="none" xmlns="http://www.w3.org/2000/svg">
<path fill-rule="evenodd" clip-rule="evenodd" d="M14.4998 16.5H3.24999C2.90531 16.5 2.625 16.2194 2.625 15.8747V4.62525C2.625 4.28025 2.90531 3.99995 3.24999 3.99995H6.68742V2.74997C6.68742 2.06093 7.24803 1.5 7.93739 1.5H9.81235C10.5017 1.5 11.0623 2.06093 11.0623 2.74997V3.99995H14.4998C14.8444 3.99995 15.1247 4.28025 15.1247 4.62525V15.8747C15.1247 16.2194 14.8444 16.5 14.4998 16.5ZM10.4373 2.74997C10.4373 2.40529 10.1567 2.12499 9.81235 2.12499H7.93739C7.59271 2.12499 7.3124 2.40529 7.3124 2.74997V3.99995H10.4373V2.74997ZM11.0623 4.62525V5.56242C11.0623 5.73491 10.9226 5.87491 10.7498 5.87491C10.577 5.87491 10.4373 5.73491 10.4373 5.56242V4.62525H7.3124V5.56242C7.3124 5.73491 7.17272 5.87491 6.99991 5.87491C6.8271 5.87491 6.68742 5.73491 6.68742 5.56242V4.62525H3.24999V15.8747H14.4988L14.4998 4.62525H11.0623Z" fill="#E65000"/>
</svg>
