<svg width="18" height="18" viewBox="0 0 18 18" fill="none" xmlns="http://www.w3.org/2000/svg">
<path fill-rule="evenodd" clip-rule="evenodd" d="M14.4998 16.5H3.24999C2.90531 16.5 2.625 16.2194 2.625 15.8747V4.62525C2.625 4.28025 2.90531 3.99995 3.24999 3.99995H6.68742V2.74997C6.68742 2.06093 7.24803 1.5 7.93739 1.5H9.81235C10.5017 1.5 11.0623 2.06093 11.0623 2.74997V3.99995H14.4998C14.8444 3.99995 15.1247 4.28025 15.1247 4.62525V15.8747C15.1247 16.2194 14.8444 16.5 14.4998 16.5ZM10.4373 2.74997C10.4373 2.40529 10.1567 2.12499 9.81235 2.12499H7.93739C7.59302 2.12499 7.3124 2.40529 7.3124 2.74997V3.99995H10.4373V2.74997ZM11.0623 4.62525V5.56242C11.0623 5.73491 10.9226 5.87491 10.7498 5.87491C10.577 5.87491 10.4373 5.73491 10.4373 5.56242V4.62525H7.3124V5.56242C7.3124 5.73491 7.17272 5.87491 6.99991 5.87491C6.8271 5.87491 6.68742 5.73491 6.68742 5.56242V4.62525H3.24999V15.8747H14.4988L14.4998 4.62525H11.0623ZM11.2833 12.6582C11.2223 12.7191 11.1423 12.7498 11.0623 12.7498C10.9823 12.7498 10.9023 12.7191 10.8414 12.6582L8.87487 10.6917L6.90835 12.6582C6.84741 12.7191 6.76741 12.7498 6.68742 12.7498C6.60742 12.7498 6.52742 12.7191 6.46648 12.6582C6.3443 12.5363 6.3443 12.3385 6.46648 12.2163L8.433 10.2498L6.46648 8.2833C6.3443 8.16142 6.3443 7.96361 6.46648 7.84143C6.58867 7.71956 6.78616 7.71956 6.90835 7.84143L8.87487 9.80795L10.8414 7.84143C10.9636 7.71956 11.1611 7.71956 11.2833 7.84143C11.4054 7.96361 11.4054 8.16142 11.2833 8.2833L9.31674 10.2498L11.2833 12.2163C11.4054 12.3385 11.4054 12.5363 11.2833 12.6582Z" fill="#E65000"/>
</svg>
