<svg width="72" height="72" viewBox="0 0 72 72" fill="none" xmlns="http://www.w3.org/2000/svg">
<rect x="0.25" y="0.25" width="71.5" height="71.5" rx="35.75" fill="#E6E6E6"/>
<path d="M12.0215 31H10.4102L10.4199 30.4873H12.0215C12.5326 30.4873 12.972 30.3734 13.3398 30.1455C13.7109 29.9144 13.9974 29.5954 14.1992 29.1885C14.401 28.7816 14.502 28.3096 14.502 27.7725V27.1084C14.502 26.6982 14.4434 26.3271 14.3262 25.9951C14.2122 25.6631 14.0479 25.3799 13.833 25.1455C13.6182 24.9079 13.361 24.7256 13.0615 24.5986C12.7653 24.4717 12.4333 24.4082 12.0654 24.4082H10.3809V23.8906H12.0654C12.5081 23.8906 12.9134 23.9671 13.2812 24.1201C13.6523 24.2699 13.973 24.488 14.2432 24.7744C14.5166 25.0576 14.7266 25.3978 14.873 25.7949C15.0228 26.1921 15.0977 26.6348 15.0977 27.123V27.7725C15.0977 28.2607 15.0228 28.7035 14.873 29.1006C14.7266 29.4977 14.5166 29.8379 14.2432 30.1211C13.9697 30.4043 13.6458 30.6224 13.2715 30.7754C12.8971 30.9251 12.4805 31 12.0215 31ZM10.6787 23.8906V31H10.0781V23.8906H10.6787ZM17.2752 26.5908V31H16.6941V25.7168H17.2605L17.2752 26.5908ZM19.1453 25.6777L19.1307 26.2148C19.0656 26.2051 19.0021 26.1969 18.9402 26.1904C18.8784 26.1839 18.8117 26.1807 18.74 26.1807C18.4861 26.1807 18.2632 26.2279 18.0711 26.3223C17.8823 26.4134 17.7228 26.542 17.5926 26.708C17.4624 26.8708 17.3631 27.0628 17.2947 27.2842C17.2264 27.5023 17.1873 27.7367 17.1775 27.9873L16.9627 28.0703C16.9627 27.7253 16.9985 27.4046 17.0701 27.1084C17.1417 26.8122 17.2508 26.5534 17.3973 26.332C17.547 26.1074 17.7342 25.9333 17.9588 25.8096C18.1867 25.6826 18.4536 25.6191 18.7596 25.6191C18.8344 25.6191 18.9077 25.6257 18.9793 25.6387C19.0542 25.6484 19.1095 25.6615 19.1453 25.6777ZM23.2809 30.0527V27.3281C23.2809 27.0775 23.2288 26.861 23.1246 26.6787C23.0204 26.4964 22.8674 26.3564 22.6656 26.2588C22.4638 26.1611 22.2148 26.1123 21.9186 26.1123C21.6451 26.1123 21.401 26.1611 21.1861 26.2588C20.9745 26.3532 20.8069 26.4818 20.6832 26.6445C20.5628 26.804 20.5025 26.9814 20.5025 27.1768L19.9166 27.1719C19.9166 26.9733 19.9654 26.7812 20.0631 26.5957C20.1607 26.4102 20.2991 26.2441 20.4781 26.0977C20.6572 25.9512 20.8704 25.8356 21.1178 25.751C21.3684 25.6631 21.6435 25.6191 21.943 25.6191C22.3206 25.6191 22.6526 25.6826 22.9391 25.8096C23.2288 25.9365 23.455 26.127 23.6178 26.3809C23.7805 26.6348 23.8619 26.9538 23.8619 27.3379V29.8916C23.8619 30.0739 23.8749 30.2627 23.901 30.458C23.9303 30.6533 23.971 30.8145 24.023 30.9414V31H23.4029C23.3639 30.8828 23.3329 30.7363 23.3102 30.5605C23.2906 30.3815 23.2809 30.2122 23.2809 30.0527ZM23.4176 27.9238L23.4273 28.373H22.2799C21.9804 28.373 21.7118 28.4007 21.4742 28.4561C21.2398 28.5081 21.0413 28.5863 20.8785 28.6904C20.7158 28.7913 20.5904 28.9134 20.5025 29.0566C20.4179 29.1999 20.3756 29.3626 20.3756 29.5449C20.3756 29.7337 20.4228 29.9062 20.5172 30.0625C20.6148 30.2188 20.7516 30.3441 20.9273 30.4385C21.1064 30.5296 21.318 30.5752 21.5621 30.5752C21.8876 30.5752 22.1741 30.515 22.4215 30.3945C22.6721 30.2741 22.8788 30.1162 23.0416 29.9209C23.2044 29.7256 23.3134 29.5124 23.3687 29.2812L23.6227 29.6182C23.5803 29.7809 23.5022 29.9486 23.3883 30.1211C23.2776 30.2904 23.1327 30.4499 22.9537 30.5996C22.7747 30.7461 22.5631 30.8665 22.3189 30.9609C22.0781 31.0521 21.8046 31.0977 21.4986 31.0977C21.1536 31.0977 20.8525 31.0326 20.5953 30.9023C20.3414 30.7721 20.1428 30.5947 19.9996 30.3701C19.8596 30.1423 19.7896 29.8851 19.7896 29.5986C19.7896 29.3382 19.845 29.1055 19.9557 28.9004C20.0663 28.6921 20.2258 28.5163 20.4342 28.373C20.6458 28.2266 20.8997 28.1159 21.1959 28.041C21.4954 27.9629 21.8307 27.9238 22.2018 27.9238H23.4176ZM29.1059 25.7168H29.6479V30.9072C29.6479 31.3662 29.56 31.7601 29.3842 32.0889C29.2117 32.4176 28.9659 32.6699 28.6469 32.8457C28.3311 33.0215 27.9584 33.1094 27.5287 33.1094C27.3106 33.1094 27.086 33.0752 26.8549 33.0068C26.627 32.9417 26.4105 32.8408 26.2055 32.7041C26.0036 32.5706 25.8311 32.4046 25.6879 32.2061L26.015 31.8496C26.2299 32.11 26.4594 32.3005 26.7035 32.4209C26.9477 32.5446 27.2113 32.6064 27.4945 32.6064C27.8298 32.6064 28.113 32.5397 28.3441 32.4062C28.5785 32.2728 28.7559 32.0807 28.8764 31.8301C29.0001 31.5794 29.0619 31.2783 29.0619 30.9268V26.8789L29.1059 25.7168ZM25.3949 28.4121V28.3096C25.3949 27.8994 25.4405 27.5299 25.5316 27.2012C25.626 26.8691 25.7611 26.5859 25.9369 26.3516C26.1127 26.1139 26.3259 25.9333 26.5766 25.8096C26.8305 25.6826 27.1169 25.6191 27.4359 25.6191C27.7419 25.6191 28.0137 25.6696 28.2514 25.7705C28.489 25.8714 28.6941 26.0163 28.8666 26.2051C29.0391 26.3939 29.1775 26.6185 29.2816 26.8789C29.3891 27.1393 29.4672 27.429 29.516 27.748V29.0518C29.477 29.3512 29.4053 29.6263 29.3012 29.877C29.197 30.1243 29.0587 30.3408 28.8861 30.5264C28.7136 30.7087 28.5053 30.8503 28.2611 30.9512C28.0202 31.0488 27.7419 31.0977 27.4262 31.0977C27.1104 31.0977 26.8272 31.0326 26.5766 30.9023C26.3259 30.7721 26.1127 30.5882 25.9369 30.3506C25.7611 30.1097 25.626 29.8249 25.5316 29.4961C25.4405 29.1673 25.3949 28.806 25.3949 28.4121ZM25.9809 28.3096V28.4121C25.9809 28.7214 26.0118 29.0078 26.0736 29.2715C26.1355 29.5352 26.2299 29.7646 26.3568 29.96C26.4838 30.1553 26.6449 30.3083 26.8402 30.4189C27.0355 30.5296 27.265 30.585 27.5287 30.585C27.864 30.585 28.1456 30.5215 28.3734 30.3945C28.6013 30.2643 28.782 30.0934 28.9154 29.8818C29.0489 29.667 29.1465 29.4326 29.2084 29.1787V27.6602C29.1726 27.4876 29.1173 27.3118 29.0424 27.1328C28.9708 26.9538 28.8699 26.7894 28.7396 26.6396C28.6127 26.4867 28.4499 26.3646 28.2514 26.2734C28.0561 26.179 27.8184 26.1318 27.5385 26.1318C27.2715 26.1318 27.0388 26.1872 26.8402 26.2979C26.6449 26.4085 26.4838 26.5632 26.3568 26.7617C26.2299 26.957 26.1355 27.1865 26.0736 27.4502C26.0118 27.7139 25.9809 28.0003 25.9809 28.3096ZM35.1553 27.167L36.2979 26.3076C36.5062 26.1546 36.6771 25.9902 36.8105 25.8145C36.9473 25.6354 37.0156 25.4255 37.0156 25.1846C37.0156 24.9535 36.9326 24.7467 36.7666 24.5645C36.6006 24.3822 36.3613 24.291 36.0488 24.291C35.821 24.291 35.6289 24.3415 35.4727 24.4424C35.3164 24.54 35.1992 24.6735 35.1211 24.8428C35.043 25.0088 35.0039 25.1911 35.0039 25.3896C35.0039 25.5459 35.0348 25.7087 35.0967 25.8779C35.1618 26.0439 35.2529 26.2181 35.3701 26.4004C35.4906 26.5794 35.6354 26.7682 35.8047 26.9668L39.2617 31H38.5586L35.6143 27.5771C35.3734 27.2972 35.1618 27.0384 34.9795 26.8008C34.8005 26.5632 34.6621 26.332 34.5645 26.1074C34.4668 25.8828 34.418 25.6501 34.418 25.4092C34.418 25.0739 34.4847 24.7858 34.6182 24.5449C34.7516 24.304 34.9404 24.1185 35.1846 23.9883C35.4287 23.8548 35.7168 23.7881 36.0488 23.7881C36.3678 23.7881 36.6396 23.8532 36.8643 23.9834C37.0921 24.1104 37.2663 24.2796 37.3867 24.4912C37.5072 24.6995 37.5674 24.9307 37.5674 25.1846C37.5674 25.3962 37.5202 25.5931 37.4258 25.7754C37.3346 25.9577 37.2158 26.1237 37.0693 26.2734C36.9261 26.4199 36.7747 26.555 36.6152 26.6787L35.3164 27.6797C35.0365 27.9043 34.8281 28.111 34.6914 28.2998C34.5579 28.4886 34.4701 28.6562 34.4277 28.8027C34.3854 28.9492 34.3643 29.0762 34.3643 29.1836C34.3643 29.4342 34.4229 29.667 34.54 29.8818C34.6572 30.0967 34.8363 30.2692 35.0771 30.3994C35.318 30.5296 35.6208 30.5947 35.9854 30.5947C36.2913 30.5947 36.5876 30.5296 36.874 30.3994C37.1605 30.266 37.416 30.0771 37.6406 29.833C37.8685 29.5856 38.0475 29.2926 38.1777 28.9541C38.3112 28.6123 38.3779 28.2331 38.3779 27.8164H38.915C38.915 28.1257 38.8841 28.4154 38.8223 28.6855C38.7637 28.9557 38.6758 29.2048 38.5586 29.4326C38.4414 29.6605 38.2965 29.8704 38.124 30.0625C38.098 30.0951 38.0801 30.1211 38.0703 30.1406C38.0638 30.1602 38.0475 30.1829 38.0215 30.209C37.7611 30.4824 37.4551 30.6989 37.1035 30.8584C36.752 31.0179 36.3792 31.0977 35.9854 31.0977C35.5329 31.0977 35.1406 31.0179 34.8086 30.8584C34.4798 30.6989 34.2259 30.4759 34.0469 30.1895C33.8711 29.8997 33.7832 29.5645 33.7832 29.1836C33.7832 28.9004 33.8434 28.6432 33.9639 28.4121C34.0843 28.181 34.2487 27.9645 34.457 27.7627C34.6654 27.5609 34.8981 27.3623 35.1553 27.167ZM46.4439 29.9746V23.5H47.0299V31H46.483L46.4439 29.9746ZM42.777 28.4121V28.3096C42.777 27.8994 42.8242 27.5299 42.9186 27.2012C43.013 26.8691 43.148 26.5859 43.3238 26.3516C43.5029 26.1139 43.7177 25.9333 43.9684 25.8096C44.219 25.6826 44.5022 25.6191 44.818 25.6191C45.1272 25.6191 45.4007 25.6696 45.6383 25.7705C45.8759 25.8714 46.0794 26.0163 46.2486 26.2051C46.4212 26.3939 46.5595 26.6185 46.6637 26.8789C46.7711 27.1393 46.8492 27.429 46.898 27.748V29.0518C46.859 29.3512 46.7874 29.6263 46.6832 29.877C46.579 30.1243 46.4407 30.3408 46.2682 30.5264C46.0956 30.7087 45.8873 30.8503 45.6432 30.9512C45.4023 31.0488 45.124 31.0977 44.8082 31.0977C44.4957 31.0977 44.2141 31.0326 43.9635 30.9023C43.7128 30.7721 43.4996 30.5882 43.3238 30.3506C43.148 30.1097 43.013 29.8249 42.9186 29.4961C42.8242 29.1673 42.777 28.806 42.777 28.4121ZM43.3629 28.3096V28.4121C43.3629 28.7214 43.3938 29.0078 43.4557 29.2715C43.5175 29.5352 43.6119 29.7646 43.7389 29.96C43.8658 30.1553 44.027 30.3083 44.2223 30.4189C44.4176 30.5296 44.6487 30.585 44.9156 30.585C45.2509 30.585 45.5325 30.5215 45.7604 30.3945C45.9882 30.2643 46.1705 30.0934 46.3072 29.8818C46.4439 29.667 46.5432 29.4326 46.6051 29.1787V27.6602C46.566 27.4876 46.5091 27.3118 46.4342 27.1328C46.3593 26.9538 46.2568 26.7894 46.1266 26.6396C45.9996 26.4867 45.8369 26.3646 45.6383 26.2734C45.443 26.179 45.2053 26.1318 44.9254 26.1318C44.6552 26.1318 44.4225 26.1872 44.2271 26.2979C44.0318 26.4085 43.8691 26.5632 43.7389 26.7617C43.6119 26.957 43.5175 27.1865 43.4557 27.4502C43.3938 27.7139 43.3629 28.0003 43.3629 28.3096ZM49.349 26.5908V31H48.768V25.7168H49.3344L49.349 26.5908ZM51.2191 25.6777L51.2045 26.2148C51.1394 26.2051 51.0759 26.1969 51.0141 26.1904C50.9522 26.1839 50.8855 26.1807 50.8139 26.1807C50.56 26.1807 50.337 26.2279 50.1449 26.3223C49.9561 26.4134 49.7966 26.542 49.6664 26.708C49.5362 26.8708 49.4369 27.0628 49.3686 27.2842C49.3002 27.5023 49.2611 27.7367 49.2514 27.9873L49.0365 28.0703C49.0365 27.7253 49.0723 27.4046 49.1439 27.1084C49.2156 26.8122 49.3246 26.5534 49.4711 26.332C49.6208 26.1074 49.808 25.9333 50.0326 25.8096C50.2605 25.6826 50.5274 25.6191 50.8334 25.6191C50.9083 25.6191 50.9815 25.6257 51.0531 25.6387C51.128 25.6484 51.1833 25.6615 51.2191 25.6777ZM51.9172 28.4414V28.2803C51.9172 27.8962 51.9725 27.5413 52.0832 27.2158C52.1939 26.8903 52.3518 26.6087 52.5568 26.3711C52.7652 26.1335 53.0142 25.9495 53.3039 25.8193C53.5936 25.6859 53.9159 25.6191 54.2707 25.6191C54.6288 25.6191 54.9527 25.6859 55.2424 25.8193C55.5321 25.9495 55.7811 26.1335 55.9895 26.3711C56.1978 26.6087 56.3573 26.8903 56.468 27.2158C56.5786 27.5413 56.634 27.8962 56.634 28.2803V28.4414C56.634 28.8255 56.5786 29.1803 56.468 29.5059C56.3573 29.8281 56.1978 30.1081 55.9895 30.3457C55.7844 30.5833 55.537 30.7689 55.2473 30.9023C54.9576 31.0326 54.6353 31.0977 54.2805 31.0977C53.9224 31.0977 53.5985 31.0326 53.3088 30.9023C53.0191 30.7689 52.7701 30.5833 52.5617 30.3457C52.3534 30.1081 52.1939 29.8281 52.0832 29.5059C51.9725 29.1803 51.9172 28.8255 51.9172 28.4414ZM52.4982 28.2803V28.4414C52.4982 28.7311 52.5373 29.0062 52.6154 29.2666C52.6936 29.5238 52.8075 29.7533 52.9572 29.9551C53.107 30.1536 53.2925 30.3099 53.5139 30.4238C53.7352 30.5378 53.9908 30.5947 54.2805 30.5947C54.5669 30.5947 54.8192 30.5378 55.0373 30.4238C55.2587 30.3099 55.4442 30.1536 55.5939 29.9551C55.7437 29.7533 55.856 29.5238 55.9309 29.2666C56.009 29.0062 56.048 28.7311 56.048 28.4414V28.2803C56.048 27.9938 56.009 27.722 55.9309 27.4648C55.856 27.2077 55.7421 26.9782 55.5891 26.7764C55.4393 26.5745 55.2538 26.415 55.0324 26.2979C54.8111 26.1807 54.5572 26.1221 54.2707 26.1221C53.9842 26.1221 53.7303 26.1807 53.509 26.2979C53.2909 26.415 53.1053 26.5745 52.9523 26.7764C52.8026 26.9782 52.6887 27.2077 52.6105 27.4648C52.5357 27.722 52.4982 27.9938 52.4982 28.2803ZM58.6211 26.7324V33.0312H58.0352V25.7168H58.582L58.6211 26.7324ZM62.293 28.3096V28.4121C62.293 28.806 62.2474 29.1673 62.1562 29.4961C62.0651 29.8249 61.9333 30.1097 61.7607 30.3506C61.5915 30.5882 61.3815 30.7721 61.1309 30.9023C60.8802 31.0326 60.5954 31.0977 60.2764 31.0977C59.9606 31.0977 59.679 31.0488 59.4316 30.9512C59.1842 30.8535 58.971 30.7152 58.792 30.5361C58.6162 30.3538 58.4746 30.1423 58.3672 29.9014C58.263 29.6572 58.1898 29.3903 58.1475 29.1006V27.748C58.1963 27.429 58.276 27.1393 58.3867 26.8789C58.4974 26.6185 58.639 26.3939 58.8115 26.2051C58.9873 26.0163 59.1956 25.8714 59.4365 25.7705C59.6774 25.6696 59.9525 25.6191 60.2617 25.6191C60.584 25.6191 60.8704 25.6826 61.1211 25.8096C61.375 25.9333 61.5882 26.1139 61.7607 26.3516C61.9365 26.5859 62.0684 26.8691 62.1562 27.2012C62.2474 27.5299 62.293 27.8994 62.293 28.3096ZM61.707 28.4121V28.3096C61.707 28.0003 61.6745 27.7139 61.6094 27.4502C61.5475 27.1865 61.4515 26.957 61.3213 26.7617C61.1943 26.5632 61.0316 26.4085 60.833 26.2979C60.6377 26.1872 60.4049 26.1318 60.1348 26.1318C59.8548 26.1318 59.6156 26.179 59.417 26.2734C59.2217 26.3646 59.0589 26.4867 58.9287 26.6396C58.7985 26.7894 58.696 26.9538 58.6211 27.1328C58.5462 27.3118 58.4909 27.4876 58.4551 27.6602V29.2178C58.5169 29.4652 58.6162 29.6947 58.7529 29.9062C58.8896 30.1146 59.0719 30.2822 59.2998 30.4092C59.5309 30.5329 59.8125 30.5947 60.1445 30.5947C60.4115 30.5947 60.6426 30.5394 60.8379 30.4287C61.0332 30.318 61.1943 30.1634 61.3213 29.9648C61.4515 29.7663 61.5475 29.5352 61.6094 29.2715C61.6745 29.0078 61.707 28.7214 61.707 28.4121ZM8.72324 42.7324V49.0312H8.1373V41.7168H8.68418L8.72324 42.7324ZM12.3951 44.3096V44.4121C12.3951 44.806 12.3495 45.1673 12.2584 45.4961C12.1673 45.8249 12.0354 46.1097 11.8629 46.3506C11.6936 46.5882 11.4837 46.7721 11.233 46.9023C10.9824 47.0326 10.6975 47.0977 10.3785 47.0977C10.0628 47.0977 9.78118 47.0488 9.53379 46.9512C9.28639 46.8535 9.07318 46.7152 8.89414 46.5361C8.71836 46.3538 8.57676 46.1423 8.46934 45.9014C8.36517 45.6572 8.29193 45.3903 8.24961 45.1006V43.748C8.29844 43.429 8.37819 43.1393 8.48887 42.8789C8.59954 42.6185 8.74115 42.3939 8.91367 42.2051C9.08945 42.0163 9.29779 41.8714 9.53867 41.7705C9.77956 41.6696 10.0546 41.6191 10.3639 41.6191C10.6861 41.6191 10.9726 41.6826 11.2232 41.8096C11.4771 41.9333 11.6904 42.1139 11.8629 42.3516C12.0387 42.5859 12.1705 42.8691 12.2584 43.2012C12.3495 43.5299 12.3951 43.8994 12.3951 44.3096ZM11.8092 44.4121V44.3096C11.8092 44.0003 11.7766 43.7139 11.7115 43.4502C11.6497 43.1865 11.5536 42.957 11.4234 42.7617C11.2965 42.5632 11.1337 42.4085 10.9352 42.2979C10.7398 42.1872 10.5071 42.1318 10.2369 42.1318C9.95697 42.1318 9.71771 42.179 9.51914 42.2734C9.32383 42.3646 9.16107 42.4867 9.03086 42.6396C8.90065 42.7894 8.79811 42.9538 8.72324 43.1328C8.64837 43.3118 8.59303 43.4876 8.55723 43.6602V45.2178C8.61908 45.4652 8.71836 45.6947 8.85508 45.9062C8.9918 46.1146 9.17409 46.2822 9.40195 46.4092C9.63307 46.5329 9.91465 46.5947 10.2467 46.5947C10.5136 46.5947 10.7447 46.5394 10.94 46.4287C11.1354 46.318 11.2965 46.1634 11.4234 45.9648C11.5536 45.7663 11.6497 45.5352 11.7115 45.2715C11.7766 45.0078 11.8092 44.7214 11.8092 44.4121ZM14.475 42.5908V47H13.8939V41.7168H14.4604L14.475 42.5908ZM16.3451 41.6777L16.3305 42.2148C16.2654 42.2051 16.2019 42.1969 16.14 42.1904C16.0782 42.1839 16.0115 42.1807 15.9398 42.1807C15.6859 42.1807 15.463 42.2279 15.2709 42.3223C15.0821 42.4134 14.9226 42.542 14.7924 42.708C14.6622 42.8708 14.5629 43.0628 14.4945 43.2842C14.4262 43.5023 14.3871 43.7367 14.3773 43.9873L14.1625 44.0703C14.1625 43.7253 14.1983 43.4046 14.2699 43.1084C14.3415 42.8122 14.4506 42.5534 14.5971 42.332C14.7468 42.1074 14.934 41.9333 15.1586 41.8096C15.3865 41.6826 15.6534 41.6191 15.9594 41.6191C16.0342 41.6191 16.1075 41.6257 16.1791 41.6387C16.254 41.6484 16.3093 41.6615 16.3451 41.6777ZM17.0432 44.4414V44.2803C17.0432 43.8962 17.0985 43.5413 17.2092 43.2158C17.3199 42.8903 17.4777 42.6087 17.6828 42.3711C17.8911 42.1335 18.1402 41.9495 18.4299 41.8193C18.7196 41.6859 19.0419 41.6191 19.3967 41.6191C19.7548 41.6191 20.0786 41.6859 20.3684 41.8193C20.6581 41.9495 20.9071 42.1335 21.1154 42.3711C21.3238 42.6087 21.4833 42.8903 21.5939 43.2158C21.7046 43.5413 21.76 43.8962 21.76 44.2803V44.4414C21.76 44.8255 21.7046 45.1803 21.5939 45.5059C21.4833 45.8281 21.3238 46.1081 21.1154 46.3457C20.9104 46.5833 20.663 46.7689 20.3732 46.9023C20.0835 47.0326 19.7613 47.0977 19.4064 47.0977C19.0484 47.0977 18.7245 47.0326 18.4348 46.9023C18.1451 46.7689 17.896 46.5833 17.6877 46.3457C17.4794 46.1081 17.3199 45.8281 17.2092 45.5059C17.0985 45.1803 17.0432 44.8255 17.0432 44.4414ZM17.6242 44.2803V44.4414C17.6242 44.7311 17.6633 45.0062 17.7414 45.2666C17.8195 45.5238 17.9335 45.7533 18.0832 45.9551C18.2329 46.1536 18.4185 46.3099 18.6398 46.4238C18.8612 46.5378 19.1167 46.5947 19.4064 46.5947C19.6929 46.5947 19.9452 46.5378 20.1633 46.4238C20.3846 46.3099 20.5702 46.1536 20.7199 45.9551C20.8697 45.7533 20.982 45.5238 21.0568 45.2666C21.135 45.0062 21.174 44.7311 21.174 44.4414V44.2803C21.174 43.9938 21.135 43.722 21.0568 43.4648C20.982 43.2077 20.868 42.9782 20.715 42.7764C20.5653 42.5745 20.3798 42.415 20.1584 42.2979C19.937 42.1807 19.6831 42.1221 19.3967 42.1221C19.1102 42.1221 18.8563 42.1807 18.635 42.2979C18.4169 42.415 18.2313 42.5745 18.0783 42.7764C17.9286 42.9782 17.8146 43.2077 17.7365 43.4648C17.6617 43.722 17.6242 43.9938 17.6242 44.2803ZM24.1035 47H23.5225V41.1602C23.5225 40.7793 23.5924 40.4587 23.7324 40.1982C23.8757 39.9346 24.0775 39.736 24.3379 39.6025C24.6016 39.4658 24.9141 39.3975 25.2754 39.3975C25.4935 39.3975 25.7148 39.4219 25.9395 39.4707C26.1641 39.5195 26.3903 39.5911 26.6182 39.6855L26.5254 40.1934C26.3529 40.1185 26.1722 40.0566 25.9834 40.0078C25.7946 39.959 25.57 39.9346 25.3096 39.9346C24.9124 39.9346 24.6113 40.0387 24.4062 40.2471C24.2044 40.4554 24.1035 40.7598 24.1035 41.1602V47ZM25.3389 41.7168V42.1953H22.6436V41.7168H25.3389ZM26.9355 41.7168V47H26.3545V41.7168H26.9355ZM29.4012 39.5V47H28.8201V39.5H29.4012ZM33.2389 47.0977C32.8938 47.0977 32.5764 47.0342 32.2867 46.9072C32.0003 46.7803 31.7496 46.6012 31.5348 46.3701C31.3232 46.139 31.1588 45.8656 31.0416 45.5498C30.9277 45.2308 30.8707 44.8825 30.8707 44.5049V44.2949C30.8707 43.888 30.9309 43.5202 31.0514 43.1914C31.1718 42.8626 31.3378 42.5811 31.5494 42.3467C31.761 42.1123 32.0019 41.9333 32.2721 41.8096C32.5455 41.6826 32.832 41.6191 33.1314 41.6191C33.4667 41.6191 33.7646 41.6794 34.025 41.7998C34.2854 41.917 34.5035 42.0846 34.6793 42.3027C34.8583 42.5176 34.9934 42.7731 35.0846 43.0693C35.1757 43.3623 35.2213 43.6862 35.2213 44.041V44.3975H31.2223V43.8994H34.6402V43.8311C34.6337 43.5348 34.5735 43.2581 34.4596 43.001C34.3489 42.7406 34.1829 42.529 33.9615 42.3662C33.7402 42.2035 33.4635 42.1221 33.1314 42.1221C32.884 42.1221 32.6562 42.1742 32.4479 42.2783C32.2428 42.3825 32.0654 42.5322 31.9156 42.7275C31.7691 42.9196 31.6552 43.1491 31.5738 43.416C31.4957 43.6797 31.4566 43.9727 31.4566 44.2949V44.5049C31.4566 44.7979 31.499 45.0713 31.5836 45.3252C31.6715 45.5758 31.7952 45.7972 31.9547 45.9893C32.1174 46.1813 32.3095 46.3311 32.5309 46.4385C32.7522 46.5459 32.9964 46.5996 33.2633 46.5996C33.5758 46.5996 33.8525 46.5426 34.0934 46.4287C34.3342 46.3115 34.5507 46.1276 34.7428 45.877L35.109 46.1602C34.9951 46.3294 34.8518 46.4857 34.6793 46.6289C34.51 46.7721 34.3066 46.8861 34.0689 46.9707C33.8313 47.0553 33.5546 47.0977 33.2389 47.0977ZM39.7912 42.7324V49.0312H39.2053V41.7168H39.7521L39.7912 42.7324ZM43.4631 44.3096V44.4121C43.4631 44.806 43.4175 45.1673 43.3264 45.4961C43.2352 45.8249 43.1034 46.1097 42.9309 46.3506C42.7616 46.5882 42.5516 46.7721 42.301 46.9023C42.0503 47.0326 41.7655 47.0977 41.4465 47.0977C41.1307 47.0977 40.8492 47.0488 40.6018 46.9512C40.3544 46.8535 40.1411 46.7152 39.9621 46.5361C39.7863 46.3538 39.6447 46.1423 39.5373 45.9014C39.4331 45.6572 39.3599 45.3903 39.3176 45.1006V43.748C39.3664 43.429 39.4462 43.1393 39.5568 42.8789C39.6675 42.6185 39.8091 42.3939 39.9816 42.2051C40.1574 42.0163 40.3658 41.8714 40.6066 41.7705C40.8475 41.6696 41.1226 41.6191 41.4318 41.6191C41.7541 41.6191 42.0406 41.6826 42.2912 41.8096C42.5451 41.9333 42.7583 42.1139 42.9309 42.3516C43.1066 42.5859 43.2385 42.8691 43.3264 43.2012C43.4175 43.5299 43.4631 43.8994 43.4631 44.3096ZM42.8771 44.4121V44.3096C42.8771 44.0003 42.8446 43.7139 42.7795 43.4502C42.7176 43.1865 42.6216 42.957 42.4914 42.7617C42.3645 42.5632 42.2017 42.4085 42.0031 42.2979C41.8078 42.1872 41.5751 42.1318 41.3049 42.1318C41.0249 42.1318 40.7857 42.179 40.5871 42.2734C40.3918 42.3646 40.229 42.4867 40.0988 42.6396C39.9686 42.7894 39.8661 42.9538 39.7912 43.1328C39.7163 43.3118 39.661 43.4876 39.6252 43.6602V45.2178C39.687 45.4652 39.7863 45.6947 39.923 45.9062C40.0598 46.1146 40.2421 46.2822 40.4699 46.4092C40.701 46.5329 40.9826 46.5947 41.3146 46.5947C41.5816 46.5947 41.8127 46.5394 42.008 46.4287C42.2033 46.318 42.3645 46.1634 42.4914 45.9648C42.6216 45.7663 42.7176 45.5352 42.7795 45.2715C42.8446 45.0078 42.8771 44.7214 42.8771 44.4121ZM45.543 39.5V47H44.9619V39.5H45.543ZM45.4111 44.0312L45.1523 43.8848C45.1719 43.5723 45.2354 43.2793 45.3428 43.0059C45.4502 42.7324 45.5951 42.4915 45.7773 42.2832C45.9629 42.0749 46.1794 41.9121 46.4268 41.7949C46.6774 41.6777 46.9541 41.6191 47.2568 41.6191C47.5205 41.6191 47.7565 41.6549 47.9648 41.7266C48.1732 41.7982 48.3506 41.9121 48.4971 42.0684C48.6436 42.2246 48.7542 42.4248 48.8291 42.6689C48.9072 42.9131 48.9463 43.2109 48.9463 43.5625V47H48.3604V43.5576C48.3604 43.193 48.3099 42.9082 48.209 42.7031C48.1081 42.4948 47.9648 42.3467 47.7793 42.2588C47.5938 42.1709 47.374 42.127 47.1201 42.127C46.8402 42.127 46.5944 42.1888 46.3828 42.3125C46.1745 42.4329 45.9987 42.5908 45.8555 42.7861C45.7155 42.9782 45.6081 43.1849 45.5332 43.4062C45.4583 43.6243 45.4176 43.8327 45.4111 44.0312ZM50.3279 44.4414V44.2803C50.3279 43.8962 50.3833 43.5413 50.4939 43.2158C50.6046 42.8903 50.7625 42.6087 50.9676 42.3711C51.1759 42.1335 51.4249 41.9495 51.7146 41.8193C52.0044 41.6859 52.3266 41.6191 52.6814 41.6191C53.0395 41.6191 53.3634 41.6859 53.6531 41.8193C53.9428 41.9495 54.1919 42.1335 54.4002 42.3711C54.6085 42.6087 54.768 42.8903 54.8787 43.2158C54.9894 43.5413 55.0447 43.8962 55.0447 44.2803V44.4414C55.0447 44.8255 54.9894 45.1803 54.8787 45.5059C54.768 45.8281 54.6085 46.1081 54.4002 46.3457C54.1951 46.5833 53.9477 46.7689 53.658 46.9023C53.3683 47.0326 53.046 47.0977 52.6912 47.0977C52.3331 47.0977 52.0092 47.0326 51.7195 46.9023C51.4298 46.7689 51.1808 46.5833 50.9725 46.3457C50.7641 46.1081 50.6046 45.8281 50.4939 45.5059C50.3833 45.1803 50.3279 44.8255 50.3279 44.4414ZM50.909 44.2803V44.4414C50.909 44.7311 50.948 45.0062 51.0262 45.2666C51.1043 45.5238 51.2182 45.7533 51.368 45.9551C51.5177 46.1536 51.7033 46.3099 51.9246 46.4238C52.146 46.5378 52.4015 46.5947 52.6912 46.5947C52.9777 46.5947 53.2299 46.5378 53.448 46.4238C53.6694 46.3099 53.8549 46.1536 54.0047 45.9551C54.1544 45.7533 54.2667 45.5238 54.3416 45.2666C54.4197 45.0062 54.4588 44.7311 54.4588 44.4414V44.2803C54.4588 43.9938 54.4197 43.722 54.3416 43.4648C54.2667 43.2077 54.1528 42.9782 53.9998 42.7764C53.8501 42.5745 53.6645 42.415 53.4432 42.2979C53.2218 42.1807 52.9679 42.1221 52.6814 42.1221C52.395 42.1221 52.1411 42.1807 51.9197 42.2979C51.7016 42.415 51.5161 42.5745 51.3631 42.7764C51.2133 42.9782 51.0994 43.2077 51.0213 43.4648C50.9464 43.722 50.909 43.9938 50.909 44.2803ZM58.4527 41.7168V42.1953H55.8063V41.7168H58.4527ZM56.7779 40.3594H57.359V45.7158C57.359 45.96 57.3915 46.1439 57.4566 46.2676C57.5217 46.3913 57.6064 46.4743 57.7105 46.5166C57.8147 46.5589 57.927 46.5801 58.0475 46.5801C58.1354 46.5801 58.22 46.5752 58.3014 46.5654C58.3827 46.5524 58.456 46.5394 58.5211 46.5264L58.5455 47.0195C58.4739 47.0423 58.3811 47.0602 58.2672 47.0732C58.1533 47.0895 58.0393 47.0977 57.9254 47.0977C57.7008 47.0977 57.5022 47.057 57.3297 46.9756C57.1572 46.891 57.0221 46.7477 56.9244 46.5459C56.8268 46.3408 56.7779 46.0625 56.7779 45.7109V40.3594ZM59.4584 44.4414V44.2803C59.4584 43.8962 59.5137 43.5413 59.6244 43.2158C59.7351 42.8903 59.893 42.6087 60.098 42.3711C60.3064 42.1335 60.5554 41.9495 60.8451 41.8193C61.1348 41.6859 61.4571 41.6191 61.8119 41.6191C62.17 41.6191 62.4939 41.6859 62.7836 41.8193C63.0733 41.9495 63.3223 42.1335 63.5307 42.3711C63.739 42.6087 63.8985 42.8903 64.0092 43.2158C64.1199 43.5413 64.1752 43.8962 64.1752 44.2803V44.4414C64.1752 44.8255 64.1199 45.1803 64.0092 45.5059C63.8985 45.8281 63.739 46.1081 63.5307 46.3457C63.3256 46.5833 63.0782 46.7689 62.7885 46.9023C62.4988 47.0326 62.1765 47.0977 61.8217 47.0977C61.4636 47.0977 61.1397 47.0326 60.85 46.9023C60.5603 46.7689 60.3113 46.5833 60.1029 46.3457C59.8946 46.1081 59.7351 45.8281 59.6244 45.5059C59.5137 45.1803 59.4584 44.8255 59.4584 44.4414ZM60.0395 44.2803V44.4414C60.0395 44.7311 60.0785 45.0062 60.1566 45.2666C60.2348 45.5238 60.3487 45.7533 60.4984 45.9551C60.6482 46.1536 60.8337 46.3099 61.0551 46.4238C61.2764 46.5378 61.532 46.5947 61.8217 46.5947C62.1081 46.5947 62.3604 46.5378 62.5785 46.4238C62.7999 46.3099 62.9854 46.1536 63.1352 45.9551C63.2849 45.7533 63.3972 45.5238 63.4721 45.2666C63.5502 45.0062 63.5893 44.7311 63.5893 44.4414V44.2803C63.5893 43.9938 63.5502 43.722 63.4721 43.4648C63.3972 43.2077 63.2833 42.9782 63.1303 42.7764C62.9805 42.5745 62.795 42.415 62.5736 42.2979C62.3523 42.1807 62.0984 42.1221 61.8119 42.1221C61.5255 42.1221 61.2715 42.1807 61.0502 42.2979C60.8321 42.415 60.6465 42.5745 60.4936 42.7764C60.3438 42.9782 60.2299 43.2077 60.1518 43.4648C60.0769 43.722 60.0395 43.9938 60.0395 44.2803Z" fill="#808080"/>
<rect x="0.25" y="0.25" width="71.5" height="71.5" rx="35.75" stroke="#808080" stroke-width="0.5"/>
</svg>
