<svg width="20" height="20" viewBox="0 0 20 20" fill="none" xmlns="http://www.w3.org/2000/svg">
<g id="barcode">
<path id="Vector" fill-rule="evenodd" clip-rule="evenodd" d="M17.9874 16.5279C17.7954 16.5279 17.6402 16.3724 17.6402 16.1807V3.68107C17.6402 3.4894 17.7954 3.3335 17.9874 3.3335C18.1794 3.3335 18.3346 3.4894 18.3346 3.68107V16.1807C18.3346 16.3724 18.1794 16.5279 17.9874 16.5279ZM15.9041 16.5279C15.7121 16.5279 15.5569 16.3724 15.5569 16.1807V3.68107C15.5569 3.4894 15.7121 3.3335 15.9041 3.3335C16.0961 3.3335 16.2513 3.4894 16.2513 3.68107V16.1807C16.2513 16.3724 16.0961 16.5279 15.9041 16.5279ZM13.8207 16.5279H12.7791C12.5871 16.5279 12.4319 16.3724 12.4319 16.1807V3.68107C12.4319 3.4894 12.5871 3.3335 12.7791 3.3335H13.8207C14.0128 3.3335 14.168 3.4894 14.168 3.68107V16.1807C14.168 16.3724 14.0128 16.5279 13.8207 16.5279ZM10.6957 16.5279C10.5037 16.5279 10.3485 16.3724 10.3485 16.1807V3.68107C10.3485 3.4894 10.5037 3.3335 10.6957 3.3335C10.8878 3.3335 11.043 3.4894 11.043 3.68107V16.1807C11.043 16.3724 10.8878 16.5279 10.6957 16.5279ZM7.91797 16.5279H6.8763C6.68429 16.5279 6.52908 16.3724 6.52908 16.1807V3.68107C6.52908 3.4894 6.68429 3.3335 6.8763 3.3335H7.91797C8.10998 3.3335 8.26519 3.4894 8.26519 3.68107V16.1807C8.26519 16.3724 8.10998 16.5279 7.91797 16.5279ZM4.09852 16.5279C3.90651 16.5279 3.7513 16.3724 3.7513 16.1807V3.68107C3.7513 3.4894 3.90651 3.3335 4.09852 3.3335C4.29054 3.3335 4.44575 3.4894 4.44575 3.68107V16.1807C4.44575 16.3724 4.29054 16.5279 4.09852 16.5279ZM2.01519 16.5279C1.82318 16.5279 1.66797 16.3724 1.66797 16.1807V3.68107C1.66797 3.4894 1.82318 3.3335 2.01519 3.3335C2.2072 3.3335 2.36241 3.4894 2.36241 3.68107V16.1807C2.36241 16.3724 2.2072 16.5279 2.01519 16.5279Z" fill="black"/>
</g>
</svg>
