<svg width="20" height="20" viewBox="0 0 20 20" fill="currentColor" xmlns="http://www.w3.org/2000/svg">
<path fill-rule="evenodd" clip-rule="evenodd" d="M16.7709 18.3334C15.822 18.3334 15.2084 17.4216 15.2084 16.0098C15.2084 14.5988 15.822 13.687 16.7709 13.687C17.7199 13.687 18.3334 14.5988 18.3334 16.0098C18.3334 17.4216 17.7199 18.3334 16.7709 18.3334ZM16.7709 14.396C16.1303 14.396 15.9029 15.2656 15.9029 16.0098C15.9029 16.7548 16.1303 17.6243 16.7709 17.6243C17.4115 17.6243 17.639 16.7548 17.639 16.0098C17.639 15.2656 17.4115 14.396 16.7709 14.396ZM17.2917 12.305C17.1001 12.305 16.9445 12.1463 16.9445 11.9507V8.75929L16.1112 9.39735C15.9577 9.51559 15.7404 9.48363 15.6251 9.32598C15.5102 9.16975 15.5411 8.94747 15.6945 8.82995L17.0834 7.76615C17.1886 7.6852 17.3292 7.67277 17.447 7.73278C17.5647 7.79278 17.639 7.91564 17.639 8.04986V11.9507C17.639 12.1463 17.4834 12.305 17.2917 12.305ZM17.2917 6.27699C17.1001 6.27699 16.9445 6.11827 16.9445 5.92227V2.7309L16.1112 3.36896C15.9577 3.48684 15.7404 3.45524 15.6251 3.29759C15.5102 3.14136 15.5411 2.91908 15.6945 2.80155L17.0834 1.73776C17.1886 1.65681 17.3292 1.64438 17.447 1.70439C17.5647 1.76439 17.639 1.88725 17.639 2.02146V5.92227C17.639 6.11827 17.4834 6.27699 17.2917 6.27699ZM12.257 12.305C11.3081 12.305 10.6945 11.3932 10.6945 9.98144C10.6945 8.57039 11.3081 7.65857 12.257 7.65857C13.206 7.65857 13.8195 8.57039 13.8195 9.98144C13.8195 11.3932 13.206 12.305 12.257 12.305ZM12.257 8.36764C11.6164 8.36764 11.389 9.23721 11.389 9.98144C11.389 10.7264 11.6164 11.5959 12.257 11.5959C12.8977 11.5959 13.1251 10.7264 13.1251 9.98144C13.1251 9.23721 12.8977 8.36764 12.257 8.36764ZM12.257 6.31356C11.3081 6.31356 10.6945 5.40174 10.6945 3.98998C10.6945 2.57857 11.3081 1.66675 12.257 1.66675C13.206 1.66675 13.8195 2.57857 13.8195 3.98998C13.8195 5.40174 13.206 6.31356 12.257 6.31356ZM12.257 2.37618C11.6164 2.37618 11.389 3.24575 11.389 3.98998C11.389 4.73491 11.6164 5.60413 12.257 5.60413C12.8977 5.60413 13.1251 4.73491 13.1251 3.98998C13.1251 3.24575 12.8977 2.37618 12.257 2.37618ZM7.74314 12.305C6.79418 12.305 6.18064 11.3932 6.18064 9.98144C6.18064 8.57039 6.79418 7.65857 7.74314 7.65857C8.6921 7.65857 9.30564 8.57039 9.30564 9.98144C9.30564 11.3932 8.6921 12.305 7.74314 12.305ZM7.74314 8.36764C7.10251 8.36764 6.87508 9.23721 6.87508 9.98144C6.87508 10.7264 7.10251 11.5959 7.74314 11.5959C8.38376 11.5959 8.61119 10.7264 8.61119 9.98144C8.61119 9.23721 8.38376 8.36764 7.74314 8.36764ZM8.26397 6.27699C8.0723 6.27699 7.91675 6.11827 7.91675 5.92227V2.7309L7.08342 3.36896C6.92994 3.48684 6.71258 3.45524 6.5973 3.29759C6.48237 3.14136 6.51328 2.91908 6.66675 2.80155L8.05564 1.73776C8.16085 1.65681 8.30147 1.64438 8.41918 1.70439C8.53689 1.76439 8.61119 1.88725 8.61119 2.02146V5.92227C8.61119 6.11827 8.45564 6.27699 8.26397 6.27699ZM3.22925 18.3334C2.28029 18.3334 1.66675 17.4216 1.66675 16.0098C1.66675 14.5988 2.28029 13.687 3.22925 13.687C4.17821 13.687 4.79175 14.5988 4.79175 16.0098C4.79175 17.4216 4.17821 18.3334 3.22925 18.3334ZM3.22925 14.396C2.58862 14.396 2.36119 15.2656 2.36119 16.0098C2.36119 16.7548 2.58862 17.6243 3.22925 17.6243C3.86987 17.6243 4.0973 16.7548 4.0973 16.0098C4.0973 15.2656 3.86987 14.396 3.22925 14.396ZM3.90529 7.73278C4.023 7.79278 4.0973 7.91564 4.0973 8.04986V11.9507C4.0973 12.1463 3.94175 12.305 3.75008 12.305C3.55841 12.305 3.40286 12.1463 3.40286 11.9507V8.75929L2.56953 9.39735C2.41605 9.51559 2.19835 9.48363 2.08341 9.32598C1.96848 9.16975 1.99939 8.94747 2.15286 8.82995L3.54175 7.76615C3.64696 7.6852 3.78758 7.67277 3.90529 7.73278ZM3.22925 6.31356C2.28029 6.31356 1.66675 5.40174 1.66675 3.98998C1.66675 2.57857 2.28029 1.66675 3.22925 1.66675C4.17821 1.66675 4.79175 2.57857 4.79175 3.98998C4.79175 5.40174 4.17821 6.31356 3.22925 6.31356ZM3.22925 2.37618C2.58862 2.37618 2.36119 3.24575 2.36119 3.98998C2.36119 4.73491 2.58862 5.60413 3.22925 5.60413C3.86987 5.60413 4.0973 4.73491 4.0973 3.98998C4.0973 3.24575 3.86987 2.37618 3.22925 2.37618ZM8.05564 13.7945C8.16085 13.7136 8.30147 13.7008 8.41918 13.7612C8.53689 13.8215 8.61119 13.944 8.61119 14.0782V17.9787C8.61119 18.1747 8.45564 18.3334 8.26397 18.3334C8.0723 18.3334 7.91675 18.1747 7.91675 17.9787V14.7877L7.08342 15.4257C6.92994 15.5436 6.71258 15.512 6.5973 15.3544C6.48237 15.1981 6.51328 14.9759 6.66675 14.8583L8.05564 13.7945ZM12.5695 13.7945C12.6747 13.7136 12.8154 13.7008 12.9331 13.7612C13.0508 13.8215 13.1251 13.944 13.1251 14.0782V17.9787C13.1251 18.1747 12.9695 18.3334 12.7779 18.3334C12.5862 18.3334 12.4306 18.1747 12.4306 17.9787V14.7877L11.5973 15.4257C11.4438 15.5436 11.2261 15.512 11.1112 15.3544C10.9963 15.1981 11.0272 14.9759 11.1806 14.8583L12.5695 13.7945Z" fill="currentColor"/>
</svg>
