<svg width="20" height="20" viewBox="0 0 20 20" fill="currentColor" xmlns="http://www.w3.org/2000/svg">
<path fill-rule="evenodd" clip-rule="evenodd" d="M17.4548 7.34062H16.9454C16.7534 7.34062 16.5982 7.18176 16.5982 6.98602C16.5982 6.78992 16.7534 6.63141 16.9454 6.63141H17.4548C17.5551 6.63141 17.6399 6.54099 17.6399 6.43425V2.57334C17.6399 2.46625 17.5551 2.37583 17.4548 2.37583H2.54746C2.44712 2.37583 2.3624 2.46625 2.3624 2.57334V6.43425C2.3624 6.54099 2.44712 6.63141 2.54746 6.63141H3.05683C3.24884 6.63141 3.40404 6.78992 3.40404 6.98602C3.40404 7.18176 3.24884 7.34062 3.05683 7.34062H2.54746C2.06275 7.34062 1.66797 6.93389 1.66797 6.43425V2.57334C1.66797 2.07335 2.06275 1.66663 2.54746 1.66663H17.4548C17.9395 1.66663 18.3343 2.07335 18.3343 2.57334V6.43425C18.3343 6.93389 17.9395 7.34062 17.4548 7.34062ZM4.7929 4.1492H15.2093C15.4014 4.1492 15.5566 4.30806 15.5566 4.5038V17.9787C15.5566 18.1744 15.4014 18.3333 15.2093 18.3333H4.7929C4.60089 18.3333 4.44569 18.1744 4.44569 17.9787V4.5038C4.44569 4.30806 4.60089 4.1492 4.7929 4.1492ZM5.14012 17.6237H14.8621V4.8584H5.14012V17.6237ZM10.0008 10.532C10.7667 10.532 11.39 11.1678 11.39 11.9501C11.39 12.6086 10.9455 13.1593 10.348 13.3178L10.3483 14.0781C10.3483 14.2738 10.1931 14.4327 10.0011 14.4327C9.80946 14.4327 9.65391 14.2738 9.65391 14.0781L9.65356 13.3685H8.95948C8.76747 13.3685 8.61227 13.2096 8.61227 13.0139C8.61227 12.8178 8.76747 12.6589 8.95948 12.6589H10.0008C10.3838 12.6589 10.6956 12.3412 10.6956 11.9501C10.6956 11.5593 10.3838 11.2409 10.0008 11.2409C9.23517 11.2409 8.61227 10.6051 8.61227 9.82284C8.61227 9.16363 9.0567 8.61329 9.65391 8.45478V7.69522C9.65391 7.49948 9.80912 7.34062 10.0011 7.34062C10.1931 7.34062 10.3483 7.49948 10.3483 7.69522V8.40478H11.0428C11.2348 8.40478 11.39 8.56329 11.39 8.75938C11.39 8.95512 11.2348 9.11399 11.0428 9.11399H10.0008C9.6178 9.11399 9.3067 9.43171 9.3067 9.82284C9.3067 10.2136 9.6178 10.532 10.0008 10.532Z" fill="currentColor"/>
</svg>
