<svg width="16" height="16" viewBox="0 0 16 16" fill="currentColor" xmlns="http://www.w3.org/2000/svg">
<path fill-rule="evenodd" clip-rule="evenodd" d="M12.9457 14.6668C12.7921 14.6668 12.668 14.5424 12.668 14.389V11.3314C12.668 10.2066 11.4169 8.9365 10.7235 8.3183V12.702C10.7235 12.9736 10.6244 13.2278 10.4557 13.4296L11.1974 14.1958C11.3041 14.3061 11.3013 14.482 11.191 14.5886C11.0807 14.6952 10.9049 14.6927 10.7982 14.5822L7.61491 11.2927C7.31075 10.9887 6.80964 10.9887 6.50241 11.296C6.35325 11.4449 6.2713 11.6429 6.2713 11.853C6.2713 12.0634 6.35325 12.2613 6.50241 12.41C6.5113 12.4189 6.51964 12.4283 6.52741 12.4386L7.87936 14.2212C7.97214 14.3434 7.94797 14.5176 7.82575 14.6103C7.77575 14.6484 7.71658 14.6668 7.65825 14.6668C7.57408 14.6668 7.4913 14.6289 7.43658 14.5568L6.09547 12.7888C5.85047 12.5366 5.71575 12.2054 5.71575 11.853C5.71575 11.4942 5.85575 11.1569 6.10964 10.9033C6.5313 10.4816 7.16352 10.4056 7.66797 10.6617V1.88907H3.78075C3.47325 1.88907 3.22352 2.14738 3.22352 2.46497V12.7106C3.22352 13.0282 3.47325 13.2865 3.78075 13.2865H5.16797C5.32158 13.2865 5.44575 13.4109 5.44575 13.5643C5.44575 13.7179 5.32158 13.8421 5.16797 13.8421H3.78075C3.16714 13.8421 2.66797 13.3346 2.66797 12.7106V2.46497C2.66797 1.8412 3.16714 1.3335 3.78075 1.3335H7.94575H8.5013H9.62352C10.2371 1.3335 10.7363 1.8412 10.7363 2.46497V7.58764C10.7363 7.5907 10.7346 7.59293 10.7346 7.59571C11.256 8.01768 13.2235 9.71642 13.2235 11.3314V14.389C13.2235 14.5424 13.0994 14.6668 12.9457 14.6668ZM8.21241 11.1112L8.22352 11.1229V11.0555C8.22352 11.0753 8.2163 11.0928 8.21241 11.1112ZM10.1807 7.58764V2.46497C10.1807 2.14738 9.93075 1.88907 9.62352 1.88907H8.77908V11.6111C8.77908 11.6364 8.77102 11.659 8.76464 11.6821L10.0655 13.0262C10.1291 12.9316 10.168 12.8208 10.168 12.702V7.76049C10.1605 7.71262 10.1688 7.66446 10.1869 7.61798C10.1846 7.60796 10.1807 7.59849 10.1807 7.58764Z" fill="currentColor"/>
</svg>
