<svg width="20" height="20" viewBox="0 0 20 20" fill="none" xmlns="http://www.w3.org/2000/svg">
<path fill-rule="evenodd" clip-rule="evenodd" d="M14.8609 17.5C12.9464 17.5 11.3887 15.9398 11.3887 14.0219C11.3887 13.9316 11.3953 13.8431 11.4023 13.7549C11.3978 13.7323 11.3887 13.7115 11.3887 13.6875V11.5592C11.3887 11.3873 11.2484 11.2529 11.0689 11.2529H8.93074C8.75123 11.2529 8.61095 11.3873 8.61095 11.5592V14.0355C8.61095 14.0372 8.60991 14.0382 8.60991 14.04C8.60018 15.9495 7.04706 17.5 5.13873 17.5C3.22414 17.5 1.6665 15.9398 1.6665 14.0219C1.6665 13.7247 1.70782 13.4378 1.77831 13.1625C1.77935 13.1559 1.77727 13.15 1.77866 13.1434L3.75887 4.71616C3.75991 4.71304 3.76234 4.71061 3.76303 4.70748C3.76373 4.70436 3.76303 4.70158 3.76373 4.69845C4.06928 3.64974 5.04532 2.91669 6.13768 2.91669C7.47692 2.91669 8.56859 3.98901 8.60713 5.32143C8.60748 5.32803 8.61095 5.33324 8.61095 5.33983V7.09243H11.3887V5.33983C11.3887 5.33324 11.3922 5.32803 11.3925 5.32143C11.4311 3.98901 12.5228 2.91669 13.862 2.91669C14.9544 2.91669 15.9304 3.64974 16.2359 4.69845C16.237 4.70158 16.2359 4.7047 16.2366 4.70748C16.2377 4.71096 16.2398 4.71304 16.2408 4.71616L18.221 13.1434C18.2224 13.15 18.2203 13.1559 18.2214 13.1625C18.2919 13.4378 18.3332 13.7247 18.3332 14.0219C18.3332 15.9398 16.7755 17.5 14.8609 17.5ZM5.13873 16.8045C6.67032 16.8045 7.9165 15.5557 7.9165 14.0219C7.9165 12.487 6.67032 11.239 5.13873 11.239C3.60713 11.239 2.36095 12.487 2.36095 14.0219C2.36095 15.5557 3.60713 16.8045 5.13873 16.8045ZM15.5679 4.88944C15.3467 4.13694 14.6464 3.61224 13.862 3.61224C12.8811 3.61224 12.0832 4.41127 12.0832 5.39401V7.42684C12.0832 7.61922 11.928 7.77444 11.7359 7.77444H8.26373C8.07171 7.77444 7.9165 7.61922 7.9165 7.42684V5.39401C7.9165 4.41127 7.11859 3.61224 6.13768 3.61224C5.35331 3.61224 4.65296 4.13694 4.43178 4.88979L2.91234 11.356C3.51581 10.8497 4.29185 10.5435 5.13873 10.5435C6.27518 10.5435 7.28248 11.0959 7.9165 11.9439V11.5592C7.9165 10.9977 8.36199 10.5573 8.93074 10.5573H11.0689C11.6377 10.5573 12.0832 10.9977 12.0832 11.5592V11.9439C12.7169 11.0959 13.7245 10.5435 14.8609 10.5435C15.7078 10.5435 16.4839 10.8497 17.0873 11.356L15.5679 4.88944ZM14.8609 11.239C13.3294 11.239 12.0832 12.487 12.0832 14.0219C12.0832 15.5557 13.3294 16.8045 14.8609 16.8045C16.3925 16.8045 17.6387 15.5557 17.6387 14.0219C17.6387 12.487 16.3925 11.239 14.8609 11.239Z" fill="black"/>
</svg>
