<svg width="18" height="18" viewBox="0 0 18 18" fill="currentColor" xmlns="http://www.w3.org/2000/svg">
<path fill-rule="evenodd" clip-rule="evenodd" d="M15.8242 16.469C15.7811 16.49 15.7348 16.4997 15.6889 16.4997C15.6192 16.4997 15.5501 16.4765 15.4939 16.4315L11.0012 12.8375L6.50825 16.4315C6.41449 16.5066 6.28573 16.5213 6.17759 16.469C6.06915 16.4171 6.00039 16.3075 6.00039 16.1874V4.93747C6.00039 4.76473 6.1404 4.62517 6.31292 4.62517H15.6889C15.8614 4.62517 16.0014 4.76473 16.0014 4.93747V16.1874C16.0014 16.3075 15.9327 16.4171 15.8242 16.469ZM15.3764 5.24976H6.62545V15.5371L10.8059 12.1932C10.9203 12.1025 11.0822 12.1025 11.1962 12.1932L15.3764 15.5371V5.24976ZM11.9385 3.68765C11.766 3.68765 11.626 3.54746 11.626 3.37535V2.12491H2.87506V12.6479L4.55086 11.2595C4.68369 11.149 4.88059 11.1678 4.99091 11.3008C5.10123 11.4331 5.08248 11.6306 4.94965 11.7404L2.76193 13.5529C2.70473 13.6004 2.63379 13.6252 2.56253 13.6252C2.51722 13.6252 2.4719 13.6155 2.42971 13.5954C2.32001 13.5438 2.25 13.4337 2.25 13.3129V1.81261C2.25 1.63988 2.39001 1.5 2.56253 1.5H11.9385C12.111 1.5 12.251 1.63988 12.251 1.81261V3.37535C12.251 3.54746 12.111 3.68765 11.9385 3.68765Z" fill="currentColor"/>
</svg>
