<svg width="20" height="20" viewBox="0 0 20 20" fill="currentColor" xmlns="http://www.w3.org/2000/svg">
<path fill-rule="evenodd" clip-rule="evenodd" d="M16.9798 9.64888C16.9798 9.8108 16.9798 9.65126 16.9798 9.63707C16.9798 9.48246 16.9799 9.63031 16.9798 9.64888V17.6388C16.9798 18.0222 16.633 18.3333 16.25 18.3333H12.7776C12.3775 18.3333 12.3949 18.3333 12.7776 18.3333H6.87488H3.74982C3.36682 18.3333 3.02707 18.0222 3.02707 17.6388V10.4179C3.02707 10.4179 3.02707 10.4179 3.02686 9.70716C3.02686 9.70716 3.02686 9.27894 3.33366 8.95834L9.74006 1.77837C9.87191 1.62944 10.1279 1.62944 10.2601 1.77837L16.8753 9.23367C16.9798 9.36403 16.9798 9.36175 16.9798 9.64888ZM9.99993 2.53313L3.72436 9.62976C3.72436 9.6315 3.72471 9.63359 3.72471 9.63533V17.6388H6.87488H12.7776C12.917 17.6388 12.917 17.6388 12.7776 17.6388H16.2821V9.63707L9.99993 2.53313Z" fill="currentColor"/>
</svg>
