<svg width="16" height="16" viewBox="0 0 16 16" fill="none" xmlns="http://www.w3.org/2000/svg">
<path fill-rule="evenodd" clip-rule="evenodd" d="M13.5842 7.71878C13.5842 7.84831 13.5842 7.72067 13.5842 7.70932C13.5842 7.58564 13.5843 7.70392 13.5842 7.71878V14.1107C13.5842 14.4175 13.3068 14.6663 13.0004 14.6663H10.2224C9.90238 14.6663 9.91632 14.6663 10.2224 14.6663H5.50029H3.00025C2.69385 14.6663 2.42205 14.4175 2.42205 14.1107V8.33401C2.42205 8.33401 2.42205 8.33401 2.42188 7.7654C2.42188 7.7654 2.42188 7.42282 2.66732 7.16634L7.79244 1.42237C7.89792 1.30322 8.10275 1.30322 8.20851 1.42237L13.5007 7.38661C13.5842 7.49089 13.5842 7.48907 13.5842 7.71878ZM8.00033 2.02618L2.97988 7.70348C2.97988 7.70487 2.98016 7.70654 2.98016 7.70793V14.1107H5.50029H10.2224C10.334 14.1107 10.334 14.1107 10.2224 14.1107H13.0261V7.70932L8.00033 2.02618Z" fill="currentColor"/>
</svg>
