<svg width="24" height="24" viewBox="0 0 24 24" fill="none" xmlns="http://www.w3.org/2000/svg">
<path d="M0 12C0 5.37258 5.37258 0 12 0C18.6274 0 24 5.37258 24 12C24 18.6274 18.6274 24 12 24C5.37258 24 0 18.6274 0 12Z" fill="#2B39D4"/>
<path fill-rule="evenodd" clip-rule="evenodd" d="M16.5833 12.4167H12.4167V16.5833C12.4167 16.8133 12.23 17 12 17C11.77 17 11.5833 16.8133 11.5833 16.5833V12.4167H7.41667C7.18667 12.4167 7 12.23 7 12C7 11.77 7.18667 11.5833 7.41667 11.5833H11.5833V7.41667C11.5833 7.18667 11.77 7 12 7C12.23 7 12.4167 7.18667 12.4167 7.41667V11.5833H16.5833C16.8133 11.5833 17 11.77 17 12C17 12.23 16.8133 12.4167 16.5833 12.4167Z" fill="white"/>
<path d="M12 23.5C5.64873 23.5 0.5 18.3513 0.5 12H-0.5C-0.5 18.9036 5.09644 24.5 12 24.5V23.5ZM23.5 12C23.5 18.3513 18.3513 23.5 12 23.5V24.5C18.9036 24.5 24.5 18.9036 24.5 12H23.5ZM12 0.5C18.3513 0.5 23.5 5.64873 23.5 12H24.5C24.5 5.09644 18.9036 -0.5 12 -0.5V0.5ZM12 -0.5C5.09644 -0.5 -0.5 5.09644 -0.5 12H0.5C0.5 5.64873 5.64873 0.5 12 0.5V-0.5Z" fill="#2B39D4"/>
</svg>
