<svg width="18" height="18" viewBox="0 0 18 18" fill="none" xmlns="http://www.w3.org/2000/svg">
<g id="c-down-left">
<path id="Vector" fill-rule="evenodd" clip-rule="evenodd" d="M12.7502 11.2502H2.56709L5.15841 13.8419C5.28053 13.9637 5.28053 14.1616 5.15841 14.2837C5.09736 14.3447 5.01751 14.375 4.93767 14.375C4.85751 14.375 4.77767 14.3447 4.71661 14.2837L1.59174 11.1587C1.59143 11.1583 1.59112 11.158 1.5908 11.1577C1.56262 11.129 1.53977 11.0949 1.52411 11.0571C1.50845 11.019 1.5 10.9783 1.5 10.9377C1.5 10.9377 1.5 10.9377 1.5 10.9374C1.5 10.9352 1.50125 10.933 1.50125 10.9308C1.50219 10.8924 1.50908 10.8543 1.52411 10.8183C1.54008 10.7799 1.56325 10.7449 1.59237 10.7158L4.71661 7.59168C4.83873 7.46948 5.0363 7.46948 5.15841 7.59168C5.28053 7.71387 5.28053 7.91137 5.15841 8.03356L2.56709 10.6249H12.7502C14.4732 10.6249 15.875 9.22297 15.875 7.50011V4.06251C15.875 3.89 16.015 3.75 16.1875 3.75C16.3604 3.75 16.5 3.89 16.5 4.06251V7.50011C16.5 9.56767 14.818 11.2502 12.7502 11.2502Z" fill="#2B39D4"/>
</g>
</svg>
