<svg width="18" height="18" viewBox="0 0 18 18" fill="currentColor" xmlns="http://www.w3.org/2000/svg">
<path fill-rule="evenodd" clip-rule="evenodd" d="M15.5628 16.5H2.43752C1.92063 16.5 1.5 16.0797 1.5 15.5628V4.31256C1.5 3.79536 1.92063 3.37504 2.43752 3.37504H5.56258V1.81219C5.56258 1.63969 5.70227 1.5 5.87509 1.5C6.04791 1.5 6.1876 1.63969 6.1876 1.81219V3.37504H11.8127V1.81219C11.8127 1.63969 11.9524 1.5 12.1252 1.5C12.298 1.5 12.4377 1.63969 12.4377 1.81219V3.37504H15.5628C16.0797 3.37504 16.5003 3.79536 16.5003 4.31256V15.5628C16.5003 16.0797 16.0797 16.5 15.5628 16.5ZM15.8753 4.31256C15.8753 4.14037 15.7353 3.99974 15.5628 3.99974H12.4377V4.93757C12.4377 5.11007 12.298 5.24977 12.1252 5.24977C11.9524 5.24977 11.8127 5.11007 11.8127 4.93757V3.99974H6.1876V4.93757C6.1876 5.11007 6.04791 5.24977 5.87509 5.24977C5.70227 5.24977 5.56258 5.11007 5.56258 4.93757V3.99974H2.43752C2.26502 3.99974 2.12501 4.14037 2.12501 4.31256V15.5628C2.12501 15.735 2.26502 15.875 2.43752 15.875H15.5628C15.7353 15.875 15.8753 15.735 15.8753 15.5628V4.31256ZM13.6878 12.7499H12.4377C12.2649 12.7499 12.1252 12.6099 12.1252 12.4374V11.1877C12.1252 11.0152 12.2649 10.8749 12.4377 10.8749H13.6878C13.8606 10.8749 14.0003 11.0152 14.0003 11.1877V12.4374C14.0003 12.6099 13.8606 12.7499 13.6878 12.7499ZM13.3752 11.4999H12.7502V12.1252H13.3752V11.4999ZM13.6878 9.00016H12.4377C12.2649 9.00016 12.1252 8.86015 12.1252 8.68734V7.43731C12.1252 7.26481 12.2649 7.12512 12.4377 7.12512H13.6878C13.8606 7.12512 14.0003 7.26481 14.0003 7.43731V8.68734C14.0003 8.86015 13.8606 9.00016 13.6878 9.00016ZM13.3752 7.75013H12.7502V8.37483H13.3752V7.75013ZM9.62517 12.7499H8.37514C8.20233 12.7499 8.06264 12.6099 8.06264 12.4374V11.1877C8.06264 11.0152 8.20233 10.8749 8.37514 10.8749H9.62517C9.79798 10.8749 9.93767 11.0152 9.93767 11.1877V12.4374C9.93767 12.6099 9.79798 12.7499 9.62517 12.7499ZM9.31266 11.4999H8.68765V12.1252H9.31266V11.4999ZM9.62517 9.00016H8.37514C8.20233 9.00016 8.06264 8.86015 8.06264 8.68734V7.43731C8.06264 7.26481 8.20233 7.12512 8.37514 7.12512H9.62517C9.79798 7.12512 9.93767 7.26481 9.93767 7.43731V8.68734C9.93767 8.86015 9.79798 9.00016 9.62517 9.00016ZM9.31266 7.75013H8.68765V8.37483H9.31266V7.75013ZM5.56258 12.7499H4.31256C4.13974 12.7499 4.00005 12.6099 4.00005 12.4374V11.1877C4.00005 11.0152 4.13974 10.8749 4.31256 10.8749H5.56258C5.7354 10.8749 5.87509 11.0152 5.87509 11.1877V12.4374C5.87509 12.6099 5.7354 12.7499 5.56258 12.7499ZM5.25008 11.4999H4.62506V12.1252H5.25008V11.4999ZM5.56258 9.00016H4.31256C4.13974 9.00016 4.00005 8.86015 4.00005 8.68734V7.43731C4.00005 7.26481 4.13974 7.12512 4.31256 7.12512H5.56258C5.7354 7.12512 5.87509 7.26481 5.87509 7.43731V8.68734C5.87509 8.86015 5.7354 9.00016 5.56258 9.00016ZM5.25008 7.75013H4.62506V8.37483H5.25008V7.75013Z" fill="currentColor"/>
</svg>
