<svg width="20" height="21" viewBox="0 0 20 21" fill="none" xmlns="http://www.w3.org/2000/svg">
<rect y="0.5" width="20" height="20" rx="10" fill="white"/>
<path fill-rule="evenodd" clip-rule="evenodd" d="M10.4688 15.3555V17.9132C10.4688 18.1916 10.2592 18.4167 10 18.4167C9.74078 18.4167 9.53125 18.1916 9.53125 17.9132V15.3555C7.68437 15.0756 6.25 13.1705 6.25 10.8646C6.25 8.36585 7.93234 6.33333 10 6.33333C12.0677 6.33333 13.75 8.36585 13.75 10.8646C13.75 13.1705 12.3156 15.0756 10.4688 15.3555ZM10 7.34027C8.44891 7.34027 7.1875 8.92118 7.1875 10.8646C7.1875 12.6061 8.20375 14.047 9.53125 14.3285V12.9666L8.27781 11.7401C8.08656 11.5528 8.07297 11.2351 8.24734 11.0287C8.42172 10.8243 8.71797 10.8087 8.90969 10.996L9.53125 11.6042V8.85069C9.53125 8.57227 9.74078 8.34722 10 8.34722C10.2592 8.34722 10.4688 8.57227 10.4688 8.85069V10.1084L11.0861 9.4896C11.2764 9.30029 11.5722 9.31086 11.7489 9.51376C11.9256 9.71767 11.9153 10.0359 11.7264 10.2257L10.4688 11.4859V14.3285C11.7962 14.047 12.8125 12.6061 12.8125 10.8646C12.8125 8.92118 11.5511 7.34027 10 7.34027Z" fill="black"/>
<path fill-rule="evenodd" clip-rule="evenodd" d="M14.6616 17.0248C14.5026 17.1295 14.287 17.0887 14.1793 16.9344C14.072 16.779 14.1137 16.5685 14.2727 16.4642C16.379 15.0753 17.6363 12.7684 17.6363 10.2932C17.6363 6.18542 14.2095 2.84394 9.9974 2.84394C5.78524 2.84394 2.35851 6.18542 2.35851 10.2932C2.35851 12.78 3.62378 15.0919 5.74323 16.4771C5.9026 16.5811 5.94497 16.7916 5.83837 16.9469C5.77135 17.0442 5.66163 17.0972 5.54948 17.0972C5.48316 17.0972 5.41615 17.0785 5.35677 17.0398C3.04427 15.5285 1.66406 13.0064 1.66406 10.2932C1.66406 5.8121 5.4026 2.16667 9.9974 2.16667C14.5922 2.16667 18.3307 5.8121 18.3307 10.2932C18.3307 12.9938 16.9592 15.5105 14.6616 17.0248Z" fill="black"/>
</svg>
