<svg width="18" height="18" viewBox="0 0 18 18" fill="none" xmlns="http://www.w3.org/2000/svg">
<g id="grid-squares-2">
<path id="Vector" fill-rule="evenodd" clip-rule="evenodd" d="M15.875 16.5H10.875C10.5303 16.5 10.25 16.2197 10.25 15.875V10.8753C10.25 10.5306 10.5303 10.25 10.875 10.25H15.875C16.2197 10.25 16.5 10.5306 16.5 10.8753V15.875C16.5 16.2197 16.2197 16.5 15.875 16.5ZM10.875 10.8753V15.875H15.8741L15.875 10.8753H10.875ZM15.875 7.75H10.875C10.5303 7.75 10.25 7.46969 10.25 7.125V2.125C10.25 1.78062 10.5303 1.5 10.875 1.5H15.875C16.2197 1.5 16.5 1.78062 16.5 2.125V7.125C16.5 7.46969 16.2197 7.75 15.875 7.75ZM10.875 2.125V7.125H15.8741L15.875 2.125H10.875ZM7.125 16.5H2.125C1.78031 16.5 1.5 16.2197 1.5 15.875V10.8753C1.5 10.5306 1.78031 10.25 2.125 10.25H7.125C7.46969 10.25 7.75 10.5306 7.75 10.8753V15.875C7.75 16.2197 7.46969 16.5 7.125 16.5ZM2.125 10.8753V15.875H7.12406L7.125 10.8753H2.125ZM7.125 7.75H2.125C1.78031 7.75 1.5 7.46969 1.5 7.125V2.125C1.5 1.78062 1.78031 1.5 2.125 1.5H7.125C7.46969 1.5 7.75 1.78062 7.75 2.125V7.125C7.75 7.46969 7.46969 7.75 7.125 7.75ZM2.125 2.125V7.125H7.12406L7.125 2.125H2.125Z" fill="black"/>
</g>
</svg>
