<svg width="18" height="18" viewBox="0 0 18 18" fill="currentColor" xmlns="http://www.w3.org/2000/svg">
<path fill-rule="evenodd" clip-rule="evenodd" d="M16.1878 14.6253H10.9171C10.9096 14.6253 10.9036 14.6215 10.8964 14.6212C10.8893 14.6215 10.883 14.6253 10.8758 14.6253C10.0139 14.6253 9.31266 15.3259 9.31266 16.1878C9.31266 16.3603 9.17266 16.5 9.00016 16.5C8.82765 16.5 8.68765 16.3603 8.68765 16.1878C8.68765 15.3259 7.98639 14.6253 7.12449 14.6253C7.11699 14.6253 7.11105 14.6215 7.10387 14.6212C7.09668 14.6215 7.09043 14.6253 7.08324 14.6253H1.81251C1.64 14.6253 1.5 14.4853 1.5 14.3125V1.81251C1.5 1.63969 1.64 1.5 1.81251 1.5H7.08324C7.0848 1.5 7.08605 1.50094 7.08762 1.50094C7.90545 1.5025 8.61359 1.95126 9.00016 2.61034C9.38673 1.95126 10.0949 1.5025 10.9127 1.50094C10.9143 1.50094 10.9155 1.5 10.9171 1.5H16.1878C16.3603 1.5 16.5003 1.63969 16.5003 1.81251V14.3125C16.5003 14.4853 16.3603 14.6253 16.1878 14.6253ZM8.68765 3.7288C8.68765 2.84503 7.96795 2.12533 7.08324 2.12533C7.08262 2.12533 7.08199 2.12501 7.08105 2.12501H2.12501V14.0003H7.08324C7.09043 14.0003 7.09668 14.0037 7.10387 14.0043C7.11105 14.0037 7.11699 14.0003 7.12449 14.0003C7.73701 14.0003 8.29014 14.2546 8.68765 14.6618V3.72942C8.68765 3.72942 8.68765 3.72942 8.68765 3.72911C8.68765 3.72911 8.68765 3.72911 8.68765 3.7288ZM15.8753 2.12501H10.9193C10.9183 2.12501 10.9177 2.12533 10.9171 2.12533C10.0324 2.12533 9.31266 2.84503 9.31266 3.7288C9.31266 3.72911 9.31266 3.72911 9.31266 3.72911C9.31266 3.72942 9.31266 3.72942 9.31266 3.72942V14.6618C9.71017 14.2546 10.2633 14.0003 10.8758 14.0003C10.883 14.0003 10.8893 14.0037 10.8964 14.0043C10.9036 14.0037 10.9096 14.0003 10.9171 14.0003H15.8753V2.12501ZM10.5627 10.8749C10.5627 10.7024 10.7027 10.5627 10.8752 10.5627H14.3128C14.4853 10.5627 14.6253 10.7024 14.6253 10.8749C14.6253 11.0477 14.4853 11.1874 14.3128 11.1874H10.8752C10.7027 11.1874 10.5627 11.0477 10.5627 10.8749ZM14.3128 8.37514H10.8752C10.7027 8.37514 10.5627 8.23545 10.5627 8.06232C10.5627 7.88951 10.7027 7.75013 10.8752 7.75013H14.3128C14.4853 7.75013 14.6253 7.88951 14.6253 8.06232C14.6253 8.23545 14.4853 8.37514 14.3128 8.37514ZM14.3128 5.56258H10.8752C10.7027 5.56258 10.5627 5.42258 10.5627 5.25008C10.5627 5.07726 10.7027 4.93757 10.8752 4.93757H14.3128C14.4853 4.93757 14.6253 5.07726 14.6253 5.25008C14.6253 5.42258 14.4853 5.56258 14.3128 5.56258ZM7.12512 11.1874H3.68755C3.51504 11.1874 3.37504 11.0477 3.37504 10.8749C3.37504 10.7024 3.51504 10.5627 3.68755 10.5627H7.12512C7.29762 10.5627 7.43762 10.7024 7.43762 10.8749C7.43762 11.0477 7.29762 11.1874 7.12512 11.1874ZM7.12512 8.37514H3.68755C3.51504 8.37514 3.37504 8.23545 3.37504 8.06232C3.37504 7.88951 3.51504 7.75013 3.68755 7.75013H7.12512C7.29762 7.75013 7.43762 7.88951 7.43762 8.06232C7.43762 8.23545 7.29762 8.37514 7.12512 8.37514ZM7.12512 5.56258H3.68755C3.51504 5.56258 3.37504 5.42258 3.37504 5.25008C3.37504 5.07726 3.51504 4.93757 3.68755 4.93757H7.12512C7.29762 4.93757 7.43762 5.07726 7.43762 5.25008C7.43762 5.42258 7.29762 5.56258 7.12512 5.56258Z" fill="currentColor"/>
</svg>
