<svg width="20" height="20" viewBox="0 0 20 20" fill="currentColor" xmlns="http://www.w3.org/2000/svg">
<path fill-rule="evenodd" clip-rule="evenodd" d="M17.9865 18.3334H13.1253C12.9336 18.3334 12.7781 18.1782 12.7781 17.9865V13.1253C12.7781 12.9333 12.9336 12.7777 13.1253 12.7777H15.2087V10.3471H4.79181V12.7777H6.87519C7.06686 12.7777 7.22242 12.9333 7.22242 13.1253V17.9865C7.22242 18.1782 7.06686 18.3334 6.87519 18.3334H2.01398C1.82231 18.3334 1.66675 18.1782 1.66675 17.9865V13.1253C1.66675 12.9333 1.82231 12.7777 2.01398 12.7777H4.09735V10.0003C4.09735 9.80824 4.25291 9.65268 4.44458 9.65268H9.65303V7.33805C9.65303 7.29707 9.66344 7.25888 9.67629 7.22207H7.56965C7.37798 7.22207 7.22242 7.06721 7.22242 6.87519V2.01398C7.22242 1.82196 7.37798 1.66675 7.56965 1.66675H12.4309C12.6225 1.66675 12.7781 1.82196 12.7781 2.01398V6.87519C12.7781 7.06721 12.6225 7.22207 12.4309 7.22207H10.3239C10.3371 7.25888 10.3475 7.29707 10.3475 7.33805V9.65268H15.5559C15.7476 9.65268 15.9032 9.80824 15.9032 10.0003V12.7777H17.9865C18.1782 12.7777 18.3338 12.9333 18.3338 13.1253V17.9865C18.3338 18.1782 18.1782 18.3334 17.9865 18.3334ZM2.36121 13.4722V17.6393H6.52796V13.4722H2.36121ZM12.0836 2.36086H7.91688V6.52796H12.0836V2.36086ZM17.6393 13.4722H13.4725V17.6393H17.6393V13.4722Z" fill="currentColor"/>
</svg>
