<svg width="20" height="20" viewBox="0 0 20 20" fill="none" xmlns="http://www.w3.org/2000/svg">
<path fill-rule="evenodd" clip-rule="evenodd" d="M15.9055 14.8262C16.0614 16.3081 16.8464 17.1875 16.8548 17.1969C16.9478 17.299 16.9714 17.4469 16.9148 17.5726C16.8586 17.6976 16.7353 17.7778 16.5985 17.7778C16.5971 17.7778 16.5957 17.7778 16.5944 17.7778C16.5034 17.7767 14.3989 17.7319 12.961 16.031H11.7364H11.736C10.2794 16.0306 8.89887 15.6518 7.74366 14.9355C7.58082 14.8349 7.53082 14.6213 7.63186 14.4581C7.7329 14.2956 7.94679 14.245 8.10998 14.3463C9.15512 14.9946 10.41 15.3369 11.7374 15.3369H13.1263C13.2332 15.3369 13.3339 15.3859 13.3996 15.4699C14.153 16.4299 15.1815 16.8191 15.868 16.9771C15.5805 16.4636 15.2586 15.6775 15.1951 14.6633C15.1871 14.5331 15.2527 14.4092 15.3652 14.3429C16.8322 13.4787 17.6402 12.1687 17.6402 10.6538C17.6402 9.80592 16.9832 8.57959 16.0058 7.60289C15.8701 7.46714 15.8701 7.2477 16.0058 7.11229C16.1416 6.97653 16.361 6.97653 16.4968 7.11229C17.6135 8.22787 18.3346 9.61773 18.3346 10.6538C18.3346 12.3579 17.4742 13.8318 15.9055 14.8262ZM8.26658 13.2551H8.26623H7.04158C5.60373 14.9564 3.49922 15.0012 3.40825 15.0022C3.40686 15.0022 3.40547 15.0022 3.40408 15.0022C3.26693 15.0022 3.14262 14.922 3.08707 14.7967C3.03082 14.6703 3.05443 14.5231 3.14783 14.421C3.15616 14.412 3.94123 13.5325 4.09714 12.0506C2.52839 11.0562 1.66797 9.58232 1.66797 7.87858C1.66797 4.91274 4.62734 2.5 8.26519 2.5C11.903 2.5 14.8624 4.91274 14.8624 7.87858C14.8624 10.843 11.9034 13.2551 8.26658 13.2551ZM8.26519 3.19407C5.01033 3.19407 2.36241 5.29536 2.36241 7.87858C2.36241 9.39344 3.1704 10.7034 4.63741 11.5676C4.74991 11.6336 4.81554 11.7576 4.80755 11.8878C4.74401 12.9016 4.42214 13.6884 4.13464 14.2016C4.82109 14.0439 5.84957 13.6544 6.60304 12.6943C6.66866 12.6107 6.76936 12.5613 6.8763 12.5613H8.26519C11.5201 12.5613 14.168 10.4604 14.168 7.87858C14.168 5.29536 11.5201 3.19407 8.26519 3.19407Z" fill="black"/>
</svg>
