<svg width="20" height="20" viewBox="0 0 20 20" fill="none" xmlns="http://www.w3.org/2000/svg">
<path fill-rule="evenodd" clip-rule="evenodd" d="M18.2621 5.0767L9.59132 15.2435C9.53933 15.3047 9.46522 15.3419 9.38544 15.3476C9.37856 15.3479 9.37199 15.3482 9.36542 15.3482C9.2925 15.3482 9.22228 15.3215 9.1676 15.2726L4.14779 10.787C4.02497 10.6773 4.01392 10.4886 4.12328 10.365C4.23235 10.2417 4.42031 10.2306 4.54342 10.3404L9.33643 14.6232L17.8103 4.68795C17.9172 4.56227 18.1049 4.54787 18.2298 4.65526C18.3544 4.76294 18.369 4.95162 18.2621 5.0767ZM9.32418 12.7767C9.26531 12.8457 9.18194 12.8811 9.09797 12.8811C9.02955 12.8811 8.96082 12.8577 8.90464 12.8094C8.77974 12.7023 8.76509 12.5133 8.87207 12.3876L15.429 4.68795C15.536 4.56227 15.7236 4.54787 15.8485 4.65526C15.9734 4.76234 15.9881 4.95132 15.8814 5.0767L9.32418 12.7767ZM7.20677 15.248C7.1479 15.3143 7.06632 15.3482 6.98415 15.3482C6.91393 15.3482 6.84311 15.3233 6.78663 15.2726L1.76682 10.787C1.64401 10.6773 1.63295 10.4886 1.74232 10.365C1.85139 10.2417 2.03934 10.2306 2.16245 10.3404L7.18226 14.8257C7.30478 14.9355 7.31584 15.1245 7.20677 15.248Z" fill="black"/>
</svg>
