<svg width="16" height="17" viewBox="0 0 16 17" fill="none" xmlns="http://www.w3.org/2000/svg">
<path fill-rule="evenodd" clip-rule="evenodd" d="M15.8393 1.60071L7.83963 10.9342C7.71908 11.0748 7.54428 11.1585 7.35877 11.1659C7.35007 11.1666 7.34203 11.1666 7.33332 11.1666C7.15719 11.1666 6.98708 11.0963 6.86185 10.971L3.5287 7.63797C3.26819 7.37813 3.26819 6.95556 3.5287 6.69505C3.78922 6.43521 4.21114 6.43521 4.47098 6.69505L7.29582 9.51914L14.8274 0.732786C15.0671 0.453525 15.4884 0.42071 15.767 0.660459C16.0469 0.900209 16.0791 1.32077 15.8393 1.60071ZM9.72754 3.60107C9.05649 3.30038 8.3178 3.16644 7.33332 3.16644C4.02496 3.16644 1.33339 5.8586 1.33339 9.16621C1.33339 12.4752 4.02496 15.1666 7.33332 15.1666C10.6417 15.1666 13.3333 12.4752 13.3333 9.16621C13.3333 8.55143 13.2428 8.01635 13.0305 7.37679C12.914 7.02788 13.1035 6.65018 13.4525 6.53365C13.8007 6.41847 14.1791 6.60732 14.295 6.95623C14.5521 7.72905 14.6666 8.4108 14.6666 9.16621C14.6666 13.2098 11.377 16.5 7.33332 16.5C3.28962 16.5 0 13.2098 0 9.16621C0 5.12261 3.28962 1.83309 7.33332 1.83309C8.49862 1.83309 9.4322 2.00788 10.272 2.38358C10.6082 2.53359 10.7589 2.92803 10.6089 3.26422C10.4582 3.6004 10.0651 3.75109 9.72754 3.60107Z" fill="white"/>
</svg>
