<svg width="48" height="48" viewBox="0 0 48 48" fill="none" xmlns="http://www.w3.org/2000/svg">
<path fill-rule="evenodd" clip-rule="evenodd" d="M38.1399 38.1432C34.3619 41.9208 29.3383 44 23.9943 44C18.6512 44 13.6267 41.9208 9.84876 38.1424C2.05041 30.3439 2.05041 17.6561 9.84876 9.85679C13.6267 6.08004 18.6512 4 23.9943 4C29.3383 4 34.3619 6.08004 38.1399 9.85679C41.9196 13.6352 44.0015 18.6578 44.0015 24.0004C44.0015 29.3422 41.9196 34.3648 38.1399 38.1432ZM36.9614 11.036C33.498 7.57257 28.8929 5.6667 23.9943 5.6667C19.0957 5.6667 14.4915 7.57257 11.0273 11.036C3.879 18.1845 3.879 29.8155 11.0273 36.964C14.4915 40.4266 19.0957 42.3333 23.9943 42.3333C28.8929 42.3333 33.498 40.4266 36.9614 36.964C40.4256 33.5006 42.3339 28.898 42.3339 24.0004C42.3339 19.1028 40.4256 14.4986 36.9614 11.036ZM33.165 24.8338H24.8289V33.1664C24.8289 33.6264 24.4557 33.9998 23.996 33.9998C23.5355 33.9998 23.1622 33.6264 23.1622 33.1664V24.8338H14.8262C14.3666 24.8338 13.9933 24.4604 13.9933 24.0004C13.9933 23.5396 14.3666 23.1671 14.8262 23.1671H23.1622V14.8336C23.1622 14.3735 23.5355 14.0002 23.996 14.0002C24.4557 14.0002 24.8289 14.3735 24.8289 14.8336V23.1671H33.165C33.6255 23.1671 33.9987 23.5396 33.9987 24.0004C33.9987 24.4604 33.6255 24.8338 33.165 24.8338Z" fill="#2B39D4"/>
</svg>
