<svg width="20" height="20" viewBox="0 0 20 20" fill="none" xmlns="http://www.w3.org/2000/svg">
<path fill-rule="evenodd" clip-rule="evenodd" d="M9.99935 5.83332C11.3622 5.83332 12.4299 6.90103 12.4299 8.26388V9.30555H12.7688C12.9598 9.30555 13.1153 9.46041 13.116 9.65173L13.1243 12.7163C13.1243 13.5208 12.4702 14.1753 11.6667 14.1753H11.6657L8.3306 14.1667C7.52817 14.1667 6.87435 13.5128 6.87435 12.709V9.65277C6.87435 9.46075 7.02956 9.30555 7.22157 9.30555H7.56879V8.26388C7.56879 6.90103 8.6365 5.83332 9.99935 5.83332ZM11.7355 8.26388C11.7355 7.2743 10.9893 6.52777 9.99935 6.52777C9.00942 6.52777 8.26324 7.2743 8.26324 8.26388V9.30555H11.7355V8.26388ZM7.56879 12.709C7.56879 13.1299 7.91081 13.4722 8.33164 13.4722L11.6674 13.4805C12.0879 13.4805 12.4299 13.1382 12.4299 12.7174L12.4226 9.99999H7.56879V12.709ZM9.99935 18.3333C5.40456 18.3333 1.66602 14.5948 1.66602 9.99999C1.66602 5.4052 5.40456 1.66666 9.99935 1.66666C12.6077 1.66666 15.0046 2.8493 16.5966 4.91214V3.40277C16.5966 3.21075 16.7518 3.05555 16.9438 3.05555C17.1358 3.05555 17.291 3.21075 17.291 3.40277V5.83332C17.291 6.02499 17.1358 6.18055 16.9438 6.18055H14.5132C14.3212 6.18055 14.166 6.02499 14.166 5.83332C14.166 5.64131 14.3212 5.4861 14.5132 5.4861H16.1893C16.1608 5.46596 16.1323 5.44548 16.1105 5.41596C14.6518 3.47464 12.4243 2.3611 9.99935 2.3611C5.7872 2.3611 2.36046 5.78784 2.36046 9.99999C2.36046 14.2121 5.7872 17.6389 9.99935 17.6389C14.2115 17.6389 17.6382 14.2121 17.6382 9.99999C17.6382 9.50693 17.591 9.01353 17.498 8.53367C17.4612 8.34513 17.5844 8.16318 17.7726 8.12673C17.9605 8.09027 18.1428 8.21284 18.1796 8.40138C18.2813 8.92464 18.3327 9.46249 18.3327 9.99999C18.3327 14.5948 14.5941 18.3333 9.99935 18.3333ZM16.5966 5.4861V5.48506C16.5959 5.48575 16.5948 5.48575 16.5941 5.4861H16.5966Z" fill="black"/>
</svg>
