<svg width="16" height="16" viewBox="0 0 16 16" fill="none" xmlns="http://www.w3.org/2000/svg">
<path fill-rule="evenodd" clip-rule="evenodd" d="M13.3025 13.3037C11.8857 14.7203 10.0019 15.5 7.99788 15.5C5.99419 15.5 4.11002 14.7203 2.69329 13.3034C-0.231096 10.379 -0.231096 5.62104 2.69329 2.6963C4.11002 1.28002 5.99419 0.5 7.99788 0.5C10.0019 0.5 11.8857 1.28002 13.3025 2.6963C14.7198 4.1132 15.5006 5.99668 15.5006 8.00016C15.5006 10.0033 14.7198 11.8868 13.3025 13.3037ZM12.8605 3.13849C11.5617 1.83972 9.83486 1.12501 7.99788 1.12501C6.1609 1.12501 4.43433 1.83972 3.13523 3.13849C0.454626 5.81917 0.454626 10.1808 3.13523 12.8615C4.43433 14.16 6.1609 14.875 7.99788 14.875C9.83486 14.875 11.5617 14.16 12.8605 12.8615C14.1596 11.5627 14.8752 9.83676 14.8752 8.00016C14.8752 6.16356 14.1596 4.43696 12.8605 3.13849ZM11.4369 8.31266H8.31086V11.4374C8.31086 11.6099 8.17088 11.7499 7.99851 11.7499C7.82582 11.7499 7.68584 11.6099 7.68584 11.4374V8.31266H4.55983C4.38746 8.31266 4.24748 8.17266 4.24748 8.00016C4.24748 7.82734 4.38746 7.68765 4.55983 7.68765H7.68584V4.56258C7.68584 4.39008 7.82582 4.25008 7.99851 4.25008C8.17088 4.25008 8.31086 4.39008 8.31086 4.56258V7.68765H11.4369C11.6096 7.68765 11.7495 7.82734 11.7495 8.00016C11.7495 8.17266 11.6096 8.31266 11.4369 8.31266Z" fill="black"/>
</svg>
