<svg width="18" height="18" viewBox="0 0 18 18" fill="none" xmlns="http://www.w3.org/2000/svg">
<path fill-rule="evenodd" clip-rule="evenodd" d="M14.3025 14.3037C12.8857 15.7203 11.0019 16.5 8.99788 16.5C6.99419 16.5 5.11002 15.7203 3.69329 14.3034C0.768904 11.379 0.768904 6.62104 3.69329 3.6963C5.11002 2.28002 6.99419 1.5 8.99788 1.5C11.0019 1.5 12.8857 2.28002 14.3025 3.6963C15.7198 5.1132 16.5006 6.99668 16.5006 9.00016C16.5006 11.0033 15.7198 12.8868 14.3025 14.3037ZM13.8605 4.13849C12.5617 2.83972 10.8349 2.12501 8.99788 2.12501C7.1609 2.12501 5.43433 2.83972 4.13523 4.13849C1.45463 6.81917 1.45463 11.1808 4.13523 13.8615C5.43433 15.16 7.1609 15.875 8.99788 15.875C10.8349 15.875 12.5617 15.16 13.8605 13.8615C15.1596 12.5627 15.8752 10.8368 15.8752 9.00016C15.8752 7.16356 15.1596 5.43696 13.8605 4.13849ZM12.4369 9.31266H9.31086V12.4374C9.31086 12.6099 9.17088 12.7499 8.99851 12.7499C8.82582 12.7499 8.68584 12.6099 8.68584 12.4374V9.31266H5.55983C5.38746 9.31266 5.24748 9.17266 5.24748 9.00016C5.24748 8.82734 5.38746 8.68765 5.55983 8.68765H8.68584V5.56258C8.68584 5.39008 8.82582 5.25008 8.99851 5.25008C9.17088 5.25008 9.31086 5.39008 9.31086 5.56258V8.68765H12.4369C12.6096 8.68765 12.7495 8.82734 12.7495 9.00016C12.7495 9.17266 12.6096 9.31266 12.4369 9.31266Z" fill="black"/>
</svg>
