<svg width="20" height="21" viewBox="0 0 20 21" fill="none" xmlns="http://www.w3.org/2000/svg">
<rect y="0.5" width="20" height="20" rx="10" fill="white"/>
<path fill-rule="evenodd" clip-rule="evenodd" d="M9.99757 18.8333C5.40268 18.8333 1.66406 15.0951 1.66406 10.5002C1.66406 5.90494 5.40268 2.16667 9.99757 2.16667C14.5925 2.16667 18.3311 5.90494 18.3311 10.5002C18.3311 15.0951 14.5925 18.8333 9.99757 18.8333ZM9.99757 2.86113C5.78533 2.86113 2.35852 6.28759 2.35852 10.5002C2.35852 14.7124 5.78533 18.1389 9.99757 18.1389C14.2098 18.1389 17.6366 14.7124 17.6366 10.5002C17.6366 6.28759 14.2098 2.86113 9.99757 2.86113Z" fill="black"/>
<path fill-rule="evenodd" clip-rule="evenodd" d="M15.9957 10.9602H13.4783C13.3391 10.9602 13.2266 10.8474 13.2266 10.7082C13.2266 10.5693 13.3391 10.4567 13.4783 10.4567H15.9957C16.1349 10.4567 16.2474 10.5693 16.2474 10.7082C16.2474 10.8474 16.1349 10.9602 15.9957 10.9602ZM13.1531 7.99117C13.104 8.04051 13.0395 8.06518 12.9751 8.06518C12.9106 8.06518 12.8462 8.04051 12.7971 7.99117C12.6987 7.89299 12.6987 7.73364 12.7971 7.63546L14.3075 6.12501C14.4059 6.02658 14.565 6.02658 14.6635 6.12501C14.7619 6.22319 14.7619 6.38254 14.6635 6.48097L13.1531 7.99117ZM13.1528 13.1738L14.6632 14.6842C14.7617 14.7824 14.7617 14.9417 14.6632 15.0402C14.6141 15.0893 14.5497 15.1139 14.4852 15.1139C14.4208 15.1139 14.3564 15.0893 14.3073 15.0402L12.7968 13.5297C12.6984 13.4313 12.6984 13.2722 12.7968 13.1738C12.8953 13.0753 13.0544 13.0753 13.1528 13.1738ZM10.2057 12.8478C8.95636 12.8478 7.9401 11.8315 7.9401 10.5823C7.9401 9.3332 8.95636 8.31692 10.2057 8.31692C11.4551 8.31692 12.4714 9.3332 12.4714 10.5823C12.4714 11.8315 11.4551 12.8478 10.2057 12.8478ZM10.2057 8.82015C9.23428 8.82015 8.44358 9.61112 8.44358 10.5823C8.44358 11.5541 9.23428 12.344 10.2057 12.344C11.1772 12.344 11.9679 11.5541 11.9679 10.5823C11.9679 9.61112 11.1772 8.82015 10.2057 8.82015ZM10.2057 7.68757C10.0665 7.68757 9.95399 7.57479 9.95399 7.43583V4.91841C9.95399 4.7792 10.0665 4.66667 10.2057 4.66667C10.3449 4.66667 10.4575 4.7792 10.4575 4.91841V7.43583C10.4575 7.57479 10.3449 7.68757 10.2057 7.68757ZM6.10444 15.0402C6.05536 15.0893 5.99091 15.1139 5.92647 15.1139C5.86202 15.1139 5.79758 15.0893 5.74849 15.0402C5.65006 14.9417 5.65006 14.7824 5.74849 14.6842L7.25891 13.1738C7.35708 13.0753 7.51643 13.0753 7.61486 13.1738C7.71329 13.2722 7.71329 13.4313 7.61486 13.5297L6.10444 15.0402ZM7.43663 8.06518C7.37219 8.06518 7.30774 8.04051 7.25865 7.99117L5.74824 6.48097C5.64981 6.38254 5.64981 6.22319 5.74824 6.12501C5.84642 6.02658 6.00576 6.02658 6.10419 6.12501L7.61461 7.63546C7.71304 7.73364 7.71304 7.89299 7.61461 7.99117C7.56552 8.04051 7.50108 8.06518 7.43663 8.06518ZM7.1849 10.7082C7.1849 10.8474 7.07237 10.9602 6.93316 10.9602H4.4158C4.27659 10.9602 4.16406 10.8474 4.16406 10.7082C4.16406 10.5693 4.27659 10.4567 4.4158 10.4567H6.93316C7.07237 10.4567 7.1849 10.5693 7.1849 10.7082ZM10.2057 13.7294C10.3449 13.7294 10.4575 13.8419 10.4575 13.9811V16.4983C10.4575 16.6375 10.3449 16.75 10.2057 16.75C10.0665 16.75 9.95399 16.6375 9.95399 16.4983V13.9811C9.95399 13.8419 10.0665 13.7294 10.2057 13.7294Z" fill="black"/>
</svg>
