<svg width="19" height="18" viewBox="0 0 19 18" fill="none" xmlns="http://www.w3.org/2000/svg">
<path fill-rule="evenodd" clip-rule="evenodd" d="M9.66675 16.5C5.53144 16.5 2.16675 13.1353 2.16675 9C2.16675 4.86437 5.53144 1.5 9.66675 1.5C13.8021 1.5 17.1667 4.86437 17.1667 9C17.1667 13.1353 13.8021 16.5 9.66675 16.5ZM9.66675 2.12469C5.87581 2.12469 2.79175 5.20906 2.79175 9C2.79175 12.7906 5.87581 15.8747 9.66675 15.8747C13.4577 15.8747 16.5417 12.7906 16.5417 9C16.5417 5.20906 13.4577 2.12469 9.66675 2.12469ZM12.1667 12.125C12.0808 12.125 11.9949 12.0894 11.9333 12.02L9.43331 9.2075C9.423 9.19625 9.41925 9.18187 9.41112 9.16969C9.39831 9.15031 9.38487 9.13187 9.37644 9.11C9.36831 9.08875 9.36675 9.06719 9.36331 9.045C9.36112 9.02969 9.35425 9.01594 9.35425 9V4.625C9.35425 4.4525 9.49394 4.31219 9.66675 4.31219C9.83956 4.31219 9.97925 4.4525 9.97925 4.625V8.88125L12.4002 11.6047C12.5149 11.7337 12.5033 11.9313 12.3742 12.0459C12.3149 12.0988 12.2405 12.125 12.1667 12.125Z" fill="black"/>
</svg>
