<svg width="32" height="32" viewBox="0 0 32 32" fill="currentColor" xmlns="http://www.w3.org/2000/svg">
<path fill-rule="evenodd" clip-rule="evenodd" d="M25.4287 7.35765L16.7861 16.0002L25.4287 24.6428C25.6455 24.8597 25.6451 25.2113 25.4283 25.4281C25.2114 25.645 24.8598 25.6454 24.643 25.4285L16.0004 16.7859L7.35778 25.4285C7.14092 25.6454 6.78894 25.6454 6.57208 25.4285C6.35484 25.2113 6.35484 24.8593 6.57169 24.6424L15.2143 15.9999L6.57169 7.35726C6.35484 7.14041 6.35523 6.78881 6.57208 6.57196C6.78894 6.35511 7.14053 6.35471 7.35738 6.57157L16 15.2142L24.6426 6.57157C24.8594 6.35472 25.2114 6.35471 25.4287 6.57196C25.6455 6.78881 25.6455 7.1408 25.4287 7.35765Z" fill="currentColor"/>
</svg>
