<svg width="19" height="18" viewBox="0 0 19 18" fill="currentColor" xmlns="http://www.w3.org/2000/svg">
<path fill-rule="evenodd" clip-rule="evenodd" d="M17.166 6.21491L9.97818 9.96546C9.9324 9.98923 9.88318 10.0008 9.83333 10.0008C9.78348 10.0008 9.73426 9.98923 9.6888 9.96515L2.50189 6.21491C2.37461 6.14829 2.30877 6.00316 2.34294 5.86366C2.36677 5.76732 2.43324 5.691 2.51945 5.65222L9.69006 1.91042C9.78098 1.86319 9.8882 1.86319 9.97912 1.91042L17.166 5.66066C17.2692 5.71477 17.3338 5.82143 17.3338 5.93778C17.3338 6.05414 17.2692 6.1608 17.166 6.21491ZM9.83459 2.53974L3.32298 5.9381L9.83333 9.33583L16.3456 5.93778L9.83459 2.53974ZM2.50472 8.64115L3.44211 8.16009C3.59479 8.08064 3.78415 8.14195 3.86284 8.29521C3.94153 8.44879 3.88103 8.63739 3.72772 8.7159L3.31733 8.9264L9.83459 12.4583L16.3518 8.92671L15.9415 8.7159C15.7881 8.63708 15.7276 8.44879 15.8063 8.29521C15.8853 8.14195 16.0725 8.08064 16.2274 8.16009L17.1569 8.63802C17.2381 8.67712 17.3008 8.75062 17.3243 8.84226C17.3595 8.98114 17.2964 9.12564 17.1707 9.19383L9.9835 13.0883C9.93711 13.1136 9.886 13.1261 9.83459 13.1261C9.78348 13.1261 9.73207 13.1136 9.68567 13.0883L2.49845 9.19383C2.39655 9.13878 2.33354 9.03181 2.33479 8.91577C2.33605 8.79973 2.40157 8.69401 2.50472 8.64115ZM2.50472 11.7664L3.44211 11.2854C3.59479 11.2063 3.78415 11.2673 3.86284 11.4205C3.94153 11.5744 3.88103 11.7627 3.72772 11.8415L3.31733 12.052L9.83459 15.5836L16.3518 12.0523L15.9415 11.8412C15.7881 11.7627 15.7276 11.5741 15.8063 11.4205C15.8853 11.2673 16.0725 11.2059 16.2274 11.2854L17.1569 11.7633C17.2381 11.8021 17.3008 11.8759 17.3243 11.9676C17.3595 12.1064 17.2964 12.2509 17.1707 12.3194L9.9835 16.2139C9.93711 16.2389 9.886 16.2514 9.83459 16.2514C9.78348 16.2514 9.73207 16.2389 9.68567 16.2139L2.49845 12.3194C2.39655 12.2641 2.33354 12.1571 2.33479 12.0408C2.33605 11.925 2.40157 11.8196 2.50472 11.7664Z" fill="currentColor"/>
</svg>
