<svg width="18" height="18" viewBox="0 0 18 18" fill="none" xmlns="http://www.w3.org/2000/svg">
<path fill-rule="evenodd" clip-rule="evenodd" d="M11.4824 12.7502C10.5874 12.7502 10.3217 12.9381 10.243 13.0502C10.0917 13.2656 10.2533 13.7143 10.4092 14.1481C10.6158 14.7225 10.8499 15.3737 10.4943 15.8797C10.1967 16.3031 9.56923 16.5 8.52046 16.5C4.45256 16.5 1.5 13.3459 1.5 9.00016C1.5 4.86444 4.86444 1.5 8.99953 1.5C13.1352 1.5 16.5003 4.86444 16.5003 9.00016C16.5003 10.2971 15.4519 12.7502 11.4824 12.7502ZM8.99953 2.12501C5.20883 2.12501 2.12501 5.20883 2.12501 9.00016C2.12501 12.9837 4.81444 15.875 8.52046 15.875C9.52298 15.875 9.86892 15.6822 9.98268 15.5203C10.1521 15.2797 9.98361 14.8118 9.82111 14.3596C9.61111 13.7756 9.39391 13.1715 9.73173 12.6909C10.003 12.3049 10.5593 12.1252 11.4824 12.1252C14.9572 12.1252 15.8753 10.0811 15.8753 9.00016C15.8753 5.20883 12.7909 2.12501 8.99953 2.12501ZM13.219 10.2796C12.4437 10.2796 11.8127 9.64892 11.8127 8.87328C11.8127 8.09795 12.4437 7.467 13.219 7.467C13.9943 7.467 14.6253 8.09795 14.6253 8.87328C14.6253 9.64892 13.9943 10.2796 13.219 10.2796ZM13.219 8.09232C12.788 8.09232 12.4377 8.44264 12.4377 8.87328C12.4377 9.30422 12.788 9.65454 13.219 9.65454C13.6499 9.65454 14.0003 9.30422 14.0003 8.87328C14.0003 8.44264 13.6499 8.09232 13.219 8.09232ZM11.0314 6.84199C10.2561 6.84199 9.62517 6.21135 9.62517 5.43571C9.62517 4.66038 10.2561 4.02943 11.0314 4.02943C11.8068 4.02943 12.4377 4.66038 12.4377 5.43571C12.4377 6.21135 11.8068 6.84199 11.0314 6.84199ZM11.0314 4.65444C10.6005 4.65444 10.2502 5.00507 10.2502 5.43571C10.2502 5.86665 10.6005 6.21697 11.0314 6.21697C11.4624 6.21697 11.8127 5.86665 11.8127 5.43571C11.8127 5.00507 11.4624 4.65444 11.0314 4.65444ZM6.96886 6.52948C6.19354 6.52948 5.56258 5.89884 5.56258 5.1232C5.56258 4.34787 6.19354 3.71723 6.96886 3.71723C7.74419 3.71723 8.37514 4.34787 8.37514 5.1232C8.37514 5.89884 7.74419 6.52948 6.96886 6.52948ZM6.96886 4.34193C6.53792 4.34193 6.1876 4.69257 6.1876 5.1232C6.1876 5.55415 6.53792 5.90478 6.96886 5.90478C7.39981 5.90478 7.75013 5.55415 7.75013 5.1232C7.75013 4.69257 7.39981 4.34193 6.96886 4.34193ZM6.1876 8.56077C6.1876 9.33641 5.55665 9.96736 4.78132 9.96736C4.00599 9.96736 3.37504 9.33641 3.37504 8.56077C3.37504 7.78544 4.00599 7.1548 4.78132 7.1548C5.55665 7.1548 6.1876 7.78544 6.1876 8.56077ZM4.78132 7.77951C4.35037 7.77951 4.00005 8.13014 4.00005 8.56077C4.00005 8.99172 4.35037 9.34235 4.78132 9.34235C5.21227 9.34235 5.56258 8.99172 5.56258 8.56077C5.56258 8.13014 5.21227 7.77951 4.78132 7.77951Z" fill="#BFBFBF"/>
</svg>
