<svg width="16" height="16" viewBox="0 0 16 16" fill="none" xmlns="http://www.w3.org/2000/svg">
<path fill-rule="evenodd" clip-rule="evenodd" d="M8.00051 14.6663C6.21666 14.6663 4.54003 13.9705 3.28033 12.7075C3.172 12.5989 3.17228 12.4228 3.28089 12.3147C3.2895 12.3058 3.30089 12.3022 3.31061 12.295L4.12393 9.8545C4.12504 9.85172 4.12726 9.85005 4.12837 9.847C4.13476 9.82977 4.14587 9.81505 4.15587 9.79922C4.16559 9.78311 4.17393 9.76644 4.18643 9.75311C4.18837 9.75089 4.18893 9.74811 4.19115 9.74589L9.47576 4.46155C9.47632 4.461 9.47743 4.46072 9.47826 4.45989C9.47909 4.45905 9.47937 4.45766 9.48048 4.45683C9.72298 4.22573 10.0682 4.10017 10.4235 4.10962C10.8077 4.12073 11.1721 4.29045 11.4491 4.58711C12.0829 5.26376 11.9557 6.03902 11.5482 6.50707C11.546 6.50929 11.5429 6.51012 11.541 6.51234C11.5385 6.51512 11.5377 6.51845 11.5352 6.52123L6.25055 11.8053C6.2486 11.8075 6.24555 11.8081 6.2436 11.8103C6.23027 11.8225 6.21361 11.8306 6.19777 11.8406C6.18166 11.8506 6.16666 11.862 6.14916 11.8683C6.14666 11.8695 6.14472 11.8717 6.14194 11.8725L3.97949 12.5933C5.09391 13.5711 6.50415 14.1105 8.00051 14.1105C11.3702 14.1105 14.1115 11.3692 14.1115 7.99981C14.1115 4.63016 11.3702 1.88855 8.00051 1.88855C4.63086 1.88855 1.88953 4.63016 1.88953 7.99981C1.88953 8.84202 2.05758 9.65756 2.38896 10.4231C2.44979 10.5642 2.38507 10.7275 2.24424 10.7886C2.10341 10.8495 1.94008 10.7845 1.87897 10.6439C1.51731 9.80811 1.33398 8.9184 1.33398 7.99981C1.33398 4.32378 4.32476 1.33301 8.00051 1.33301C11.6763 1.33301 14.667 4.32378 14.667 7.99981C14.667 11.6756 11.6763 14.6663 8.00051 14.6663ZM11.1324 6.13791C11.3557 5.87819 11.4657 5.41737 11.0432 4.96654C10.8185 4.72599 10.5735 4.66988 10.4074 4.66488C10.1971 4.65711 9.99797 4.73127 9.86408 4.85877L9.51993 5.20293L10.7938 6.47651L11.1324 6.13791ZM5.90445 11.3661L10.401 6.86928L9.12716 5.5957L4.6303 10.0925L3.99337 12.0031L5.90445 11.3661Z" fill="black"/>
</svg>
