<svg width="20" height="20" viewBox="0 0 20 20" fill="currentColor" xmlns="http://www.w3.org/2000/svg">
<path fill-rule="evenodd" clip-rule="evenodd" d="M16.9445 8.57612V17.9862C16.9445 18.1782 16.789 18.3334 16.5973 18.3334C16.4056 18.3334 16.2501 18.1782 16.2501 17.9862V8.57612C15.4588 8.41501 14.8612 7.71397 14.8612 6.87543C14.8612 6.03689 15.4588 5.3355 16.2501 5.17404V2.01397C16.2501 1.8223 16.4056 1.66675 16.5973 1.66675C16.789 1.66675 16.9445 1.8223 16.9445 2.01397V5.17404C17.7358 5.3355 18.3334 6.03689 18.3334 6.87543C18.3334 7.71397 17.7358 8.41501 16.9445 8.57612ZM16.5973 5.83341C16.023 5.83341 15.5556 6.30078 15.5556 6.87543C15.5556 7.44973 16.023 7.91675 16.5973 7.91675C17.1716 7.91675 17.639 7.44973 17.639 6.87543C17.639 6.30078 17.1716 5.83341 16.5973 5.83341ZM10.3473 14.8261V17.9862C10.3473 18.1782 10.1917 18.3334 10.0001 18.3334C9.80842 18.3334 9.65286 18.1782 9.65286 17.9862V14.8261C8.86154 14.665 8.26397 13.9636 8.26397 13.1251C8.26397 12.2865 8.86154 11.5855 9.65286 11.4244V2.01397C9.65286 1.8223 9.80842 1.66675 10.0001 1.66675C10.1917 1.66675 10.3473 1.8223 10.3473 2.01397V11.4244C11.1386 11.5855 11.7362 12.2865 11.7362 13.1251C11.7362 13.9636 11.1386 14.665 10.3473 14.8261ZM10.0001 12.0834C9.42578 12.0834 8.95842 12.5508 8.95842 13.1251C8.95842 13.6994 9.42578 14.1671 10.0001 14.1671C10.5744 14.1671 11.0417 13.6994 11.0417 13.1251C11.0417 12.5508 10.5744 12.0834 10.0001 12.0834ZM3.75008 11.7015V17.9862C3.75008 18.1782 3.59453 18.3334 3.40286 18.3334C3.21119 18.3334 3.05564 18.1782 3.05564 17.9862V11.7015C2.26432 11.54 1.66675 10.8386 1.66675 10.0001C1.66675 9.16189 2.26432 8.4605 3.05564 8.29904V2.01397C3.05564 1.8223 3.21119 1.66675 3.40286 1.66675C3.59453 1.66675 3.75008 1.8223 3.75008 2.01397V8.29904C4.5414 8.4605 5.13897 9.16189 5.13897 10.0001C5.13897 10.8386 4.5414 11.54 3.75008 11.7015ZM3.40286 8.95876C2.82855 8.95876 2.36119 9.42578 2.36119 10.0001C2.36119 10.5744 2.82855 11.0417 3.40286 11.0417C3.97716 11.0417 4.44453 10.5744 4.44453 10.0001C4.44453 9.42578 3.97716 8.95876 3.40286 8.95876Z" fill="currentColor"/>
</svg>
