<svg width="20" height="20" viewBox="0 0 16 16" fill="currentColor" xmlns="http://www.w3.org/2000/svg">
<path fill-rule="evenodd" clip-rule="evenodd" d="M14.5157 5.52429L8.12656 8.85809C8.08615 8.87922 8.04212 8.88951 7.99781 8.88951C7.95378 8.88951 7.90975 8.87922 7.86934 8.85781L1.4813 5.52429C1.36788 5.46507 1.30964 5.33607 1.34002 5.21207C1.3612 5.12644 1.42028 5.0586 1.49663 5.02413L7.87046 1.69811C7.95127 1.65613 8.04686 1.65613 8.12768 1.69811L14.5157 5.03163C14.6074 5.07973 14.6648 5.17454 14.6648 5.27796C14.6648 5.38139 14.6074 5.4762 14.5157 5.52429ZM7.99893 2.2575L2.21087 5.27824L7.99781 8.29843L13.7864 5.27796L7.99893 2.2575ZM1.48353 7.68093L2.31705 7.25333C2.45304 7.18271 2.6208 7.23721 2.69075 7.37344C2.7607 7.50995 2.70719 7.6776 2.57064 7.74738L2.20614 7.93449L7.99893 11.074L13.792 7.93477L13.4275 7.74738C13.2909 7.67732 13.2372 7.50995 13.3074 7.37344C13.3776 7.23721 13.5437 7.18271 13.6814 7.25333L14.5079 7.67815C14.5801 7.71291 14.6355 7.77824 14.6564 7.8597C14.6877 7.98315 14.6319 8.1116 14.5202 8.1722L8.1313 11.6339C8.09005 11.6564 8.04463 11.6675 7.99893 11.6675C7.9535 11.6675 7.9078 11.6564 7.86656 11.6339L1.47796 8.1722C1.38739 8.12327 1.33138 8.02819 1.33249 7.92504C1.33361 7.82189 1.39213 7.72792 1.48353 7.68093ZM1.48353 10.459L2.31705 10.0314C2.45304 9.96102 2.6208 10.0152 2.69075 10.1515C2.7607 10.2883 2.70719 10.4556 2.57064 10.5257L2.20614 10.7128L7.99642 13.8503L9.506 12.9996C9.64032 12.9242 9.80947 12.9718 9.88444 13.1052C9.95996 13.2389 9.91258 13.4085 9.7791 13.4836L8.13548 14.4097C8.09312 14.4339 8.04602 14.4456 7.99893 14.4456C7.9535 14.4456 7.9078 14.4344 7.86656 14.4122L1.47796 10.9505C1.38739 10.9013 1.33138 10.8062 1.33249 10.7028C1.33361 10.5999 1.39213 10.5062 1.48353 10.459ZM11.0546 12.223H12.4432V10.8343C12.4432 10.6808 12.5675 10.5563 12.7211 10.5563C12.8746 10.5563 12.9989 10.6808 12.9989 10.8343V12.223H14.3878C14.5411 12.223 14.6654 12.3476 14.6654 12.5011C14.6654 12.6542 14.5411 12.7785 14.3878 12.7785H12.9989V14.1678C12.9989 14.3213 12.8746 14.4456 12.7211 14.4456C12.5675 14.4456 12.4432 14.3213 12.4432 14.1678V12.7785H11.0546C10.901 12.7785 10.7767 12.6542 10.7767 12.5011C10.7767 12.3476 10.901 12.223 11.0546 12.223Z" fill="currentColor"/>
</svg>
