<svg width="20" height="20" viewBox="0 0 20 20" fill="currentColor" xmlns="http://www.w3.org/2000/svg">
<path fill-rule="evenodd" clip-rule="evenodd" d="M17.7257 5.01107C17.716 5.02394 17.7108 5.0389 17.6991 5.05073L16.6348 6.11497L16.6345 6.11566C16.6342 6.11601 16.6338 6.11601 16.6335 6.11636L13.3927 9.35673L18.2314 14.1964C18.3673 14.3324 18.3673 14.5516 18.2314 14.6877L14.6873 18.2317C14.6221 18.2972 14.5342 18.3333 14.4418 18.3333C14.3498 18.3333 14.2615 18.2972 14.1964 18.2317L9.35734 13.3921L6.1211 16.6279C6.12075 16.6283 6.12041 16.6286 6.12006 16.629L6.11868 16.6303C6.08628 16.6631 6.04766 16.6884 6.00595 16.7055L2.14672 18.3069C2.10432 18.3246 2.05881 18.3333 2.01399 18.3333C1.92366 18.3333 1.83506 18.2982 1.76852 18.2317C1.66923 18.1326 1.63924 17.983 1.69302 17.8536L3.29442 13.9932C3.30373 13.9706 3.32028 13.9546 3.33338 13.9355C3.34545 13.917 3.35338 13.8969 3.36958 13.8805L3.37165 13.8788L6.60755 10.6426L1.76852 5.8029C1.63269 5.66721 1.63269 5.44699 1.76852 5.312L5.31195 1.76861C5.44744 1.63293 5.66705 1.63293 5.80288 1.76861L7.49944 3.46464C7.49978 3.46498 7.50013 3.46533 7.50047 3.46568C7.50116 3.46603 7.50116 3.46638 7.50151 3.46707L9.23668 5.20172C9.23737 5.20207 9.23771 5.20207 9.23805 5.20241C9.2384 5.20311 9.2384 5.20346 9.23909 5.20381L10.6426 6.60725L14.9493 2.3009C14.9607 2.28942 14.9755 2.28455 14.9879 2.27515C14.9976 2.26263 15.0021 2.24802 15.0134 2.23654C15.3806 1.86915 15.8688 1.66667 16.3883 1.66667C16.9075 1.66667 17.3964 1.86915 17.7636 2.23654C18.521 2.99392 18.521 4.22724 17.7636 4.98567C17.7522 4.9968 17.7377 5.00167 17.7257 5.01107ZM14.4418 17.4952L17.495 14.4424L16.288 13.2352L14.7614 14.7868C14.6932 14.8557 14.6035 14.8901 14.5139 14.8901C14.426 14.8901 14.3377 14.8571 14.2705 14.7906C14.1336 14.6563 14.1316 14.4365 14.2664 14.2997L15.7971 12.7439L14.5535 11.5002L13.7209 12.355C13.653 12.4249 13.5624 12.4597 13.472 12.4597C13.3845 12.4597 13.2976 12.4273 13.23 12.3616C13.0925 12.2276 13.0897 12.0078 13.2231 11.8703L14.0623 11.0089L12.9018 9.84797L9.84828 12.9012L14.4418 17.4952ZM2.65662 17.3439L5.26092 16.263L3.73675 14.7388L2.65662 17.3439ZM8.99672 5.9431L7.46979 7.49475C7.40153 7.56398 7.31224 7.59877 7.22225 7.59877C7.13434 7.59877 7.04643 7.56572 6.97885 7.49893C6.84199 7.36429 6.83992 7.14476 6.97472 7.00803L8.50544 5.45221L7.26156 4.2088L6.42931 5.06291C6.36139 5.13318 6.27072 5.16797 6.18039 5.16797C6.09317 5.16797 6.00595 5.13527 5.93837 5.06986C5.80082 4.93557 5.79806 4.71605 5.93182 4.57862L6.77028 3.71756L5.55742 2.50512L2.50493 5.55693L7.09883 10.1513L10.152 7.09814L8.99672 5.9431ZM4.10598 14.1261L5.87321 15.8938L9.10567 12.6618C9.10774 12.6594 9.10843 12.6566 9.11049 12.6542C9.11291 12.6521 9.11601 12.6514 9.11808 12.6493L12.6525 9.11494C12.6539 9.11355 12.6543 9.11181 12.6556 9.11041C12.657 9.10902 12.6587 9.10868 12.6601 9.10763L15.8977 5.87004L14.1298 4.102L4.10598 14.1261ZM17.2726 2.72743C16.8 2.25532 15.9767 2.25532 15.5047 2.72743C15.493 2.73891 15.4782 2.74378 15.4658 2.75317C15.4561 2.7657 15.4516 2.78031 15.4403 2.79179L14.6211 3.61076L16.389 5.37915L17.2082 4.55984C17.2192 4.5487 17.2337 4.54418 17.2458 4.53479C17.2558 4.52192 17.2606 4.50661 17.2726 4.49443C17.7594 4.00737 17.7594 3.21415 17.2726 2.72743Z" fill="currentColor"/>
</svg>
