<svg width="18" height="14" viewBox="0 0 18 14" fill="none" xmlns="http://www.w3.org/2000/svg">
<path fill-rule="evenodd" clip-rule="evenodd" d="M17.3346 10.6458C17.3346 11.1243 16.9455 11.5139 16.4665 11.5139H15.9106C15.7442 12.4972 14.8924 13.25 13.8624 13.25C12.8324 13.25 11.9806 12.4972 11.8142 11.5139H11.259C11.0338 11.5139 10.8357 11.4639 10.6875 11.3639C10.5468 11.4583 10.3784 11.5139 10.1973 11.5139H6.88281C6.71642 12.4972 5.86464 13.25 4.83463 13.25C3.80498 13.25 2.9532 12.4972 2.78646 11.5139H1.5556C1.06619 11.5139 0.667969 11.1122 0.667969 10.6181V1.64549C0.667969 1.15139 1.06619 0.75 1.5556 0.75H10.1973C10.6864 0.75 11.0846 1.15139 11.0846 1.64549V2.13889H15.425C15.5726 2.13889 15.7045 2.23264 15.7533 2.37222L17.3155 6.88646C17.3221 6.90556 17.32 6.92465 17.3231 6.9441C17.3266 6.96285 17.3346 6.98021 17.3346 7V10.6458ZM4.83463 12.5556C5.60079 12.5556 6.22352 11.9323 6.22352 11.1667C6.22352 10.4007 5.60079 9.77743 4.83463 9.77743C4.06883 9.77743 3.44575 10.4007 3.44575 11.1667C3.44575 11.9323 4.06883 12.5556 4.83463 12.5556ZM10.4159 7V2.61354C10.4003 2.57396 10.3902 2.53125 10.3902 2.48611C10.3902 2.44063 10.4003 2.39826 10.4159 2.35833V1.79167C10.4159 1.68229 10.3018 1.4441 10.1973 1.4441H1.5556C1.45118 1.4441 1.36241 1.53646 1.36241 1.64549V10.6181C1.36241 10.7271 1.45118 10.8194 1.5556 10.8194H2.78646C2.9532 9.83611 3.80498 9.08333 4.83463 9.08333C5.86464 9.08333 6.71642 9.83611 6.88281 10.8194H10.1973C10.3018 10.8194 10.4159 10.9285 10.4159 10.8194V7ZM13.8624 12.5556C14.6286 12.5556 15.2513 11.9323 15.2513 11.1667C15.2513 10.4007 14.6286 9.77743 13.8624 9.77743C13.0963 9.77743 12.4735 10.4007 12.4735 11.1667C12.4735 11.9323 13.0963 12.5556 13.8624 12.5556ZM11.0846 7V10.6181V10.6458C11.0846 10.7399 11.1643 10.8194 11.259 10.8194H11.8142C11.9806 9.83611 12.8324 9.08333 13.8624 9.08333C14.8924 9.08333 15.7442 9.83611 15.9106 10.8194H16.4665C16.5608 10.8194 16.6402 10.7399 16.6402 10.6458V7.34722H13.8624C13.6706 7.34722 13.5488 7.19167 13.5488 7V2.83299H11.0846V7ZM15.1779 2.83299H14.2095V6.65278H16.4996L15.1779 2.83299Z" fill="black"/>
</svg>
