<svg width="20" height="20" viewBox="0 0 20 20" fill="currentColor" xmlns="http://www.w3.org/2000/svg">
<path fill-rule="evenodd" clip-rule="evenodd" d="M18.3346 13.6458C18.3346 14.1243 17.9455 14.5139 17.4665 14.5139H16.9106C16.7442 15.4972 15.8924 16.25 14.8624 16.25C13.8324 16.25 12.9806 15.4972 12.8142 14.5139H12.259C12.0338 14.5139 11.8357 14.4639 11.6875 14.3639C11.5468 14.4583 11.3784 14.5139 11.1973 14.5139H7.88281C7.71642 15.4972 6.86464 16.25 5.83463 16.25C4.80498 16.25 3.9532 15.4972 3.78646 14.5139H2.5556C2.06619 14.5139 1.66797 14.1122 1.66797 13.6181V4.64549C1.66797 4.15139 2.06619 3.75 2.5556 3.75H11.1973C11.6864 3.75 12.0846 4.15139 12.0846 4.64549V5.13889H16.425C16.5726 5.13889 16.7045 5.23264 16.7533 5.37222L18.3155 9.88646C18.3221 9.90556 18.32 9.92465 18.3231 9.9441C18.3266 9.96285 18.3346 9.98021 18.3346 10V13.6458ZM5.83463 15.5556C6.60079 15.5556 7.22352 14.9323 7.22352 14.1667C7.22352 13.4007 6.60079 12.7774 5.83463 12.7774C5.06883 12.7774 4.44575 13.4007 4.44575 14.1667C4.44575 14.9323 5.06883 15.5556 5.83463 15.5556ZM11.4159 10V5.61354C11.4003 5.57396 11.3902 5.53125 11.3902 5.48611C11.3902 5.44063 11.4003 5.39826 11.4159 5.35833V4.79167C11.4159 4.68229 11.3018 4.4441 11.1973 4.4441H2.5556C2.45118 4.4441 2.36241 4.53646 2.36241 4.64549V13.6181C2.36241 13.7271 2.45118 13.8194 2.5556 13.8194H3.78646C3.9532 12.8361 4.80498 12.0833 5.83463 12.0833C6.86464 12.0833 7.71642 12.8361 7.88281 13.8194H11.1973C11.3018 13.8194 11.4159 13.9285 11.4159 13.8194V10ZM14.8624 15.5556C15.6286 15.5556 16.2513 14.9323 16.2513 14.1667C16.2513 13.4007 15.6286 12.7774 14.8624 12.7774C14.0963 12.7774 13.4735 13.4007 13.4735 14.1667C13.4735 14.9323 14.0963 15.5556 14.8624 15.5556ZM12.0846 10V13.6181V13.6458C12.0846 13.7399 12.1643 13.8194 12.259 13.8194H12.8142C12.9806 12.8361 13.8324 12.0833 14.8624 12.0833C15.8924 12.0833 16.7442 12.8361 16.9106 13.8194H17.4665C17.5608 13.8194 17.6402 13.7399 17.6402 13.6458V10.3472H14.8624C14.6706 10.3472 14.5488 10.1917 14.5488 10V5.83299H12.0846V10ZM16.1779 5.83299H15.2095V9.65278H17.4996L16.1779 5.83299Z" fill="currentColor"/>
</svg>
