<svg width="20" height="20" viewBox="0 0 20 20" fill="currentColor" xmlns="http://www.w3.org/2000/svg">
<path fill-rule="evenodd" clip-rule="evenodd" d="M16.25 6.52769C16.25 6.53987 16.2441 6.5503 16.2431 6.56212V17.6298C16.2431 18.0179 15.9274 18.3333 15.54 18.3333H4.45725C4.06734 18.3333 3.75 18.0158 3.75 17.6259V2.37398C3.75 1.98414 4.06734 1.66663 4.45725 1.66663H11.3846C11.4003 1.66663 11.4138 1.67358 11.4291 1.67567C11.4447 1.67775 11.4583 1.68054 11.4732 1.68471C11.5326 1.70071 11.5878 1.72609 11.6301 1.76852L16.1035 6.24461C16.1142 6.25226 16.1195 6.26548 16.1295 6.27417C16.1399 6.28391 16.1479 6.29504 16.1573 6.30582C16.2104 6.36668 16.25 6.4404 16.25 6.52769ZM4.44475 2.3392V17.6409H15.5552V6.86016H11.3888C11.1972 6.86016 11.0374 6.71931 11.0374 6.52769V2.3392H4.44475ZM11.7315 2.85216V6.18062H15.0581L11.7315 2.85216Z" fill="currentColor"/>
</svg>
