<svg xmlns="http://www.w3.org/2000/svg" viewBox="0 0 42 42" width="20px" height="20px" fill="currentColor">
  <path fill-rule="evenodd" clip-rule="evenodd" d="M 22.176 1.834 L 41.344 21.834 C 41.498 21.996 41.575 22.203 41.575 22.41 C 41.575 22.63 41.49 22.848 41.318 23.013 C 40.986 23.331 40.459 23.319 40.14 22.988 L 21.575 3.615 L 3.01 22.988 C 2.692 23.319 2.164 23.331 1.831 23.013 C 1.499 22.693 1.488 22.166 1.807 21.834 L 20.974 1.834 C 21.131 1.67 21.348 1.577 21.575 1.577 C 21.802 1.577 22.02 1.67 22.176 1.834 Z M 21.575 13.244 C 21.802 13.244 22.02 13.336 22.176 13.501 L 41.344 33.5 C 41.498 33.662 41.575 33.87 41.575 34.078 C 41.575 34.296 41.49 34.515 41.318 34.679 C 40.986 34.997 40.459 34.986 40.14 34.654 L 21.575 15.282 L 3.01 34.654 C 2.692 34.986 2.164 34.997 1.831 34.679 C 1.499 34.36 1.488 33.833 1.807 33.5 L 20.974 13.501 C 21.131 13.336 21.348 13.244 21.575 13.244 Z" fill="currentColor"/>
</svg>