<svg width="48" height="48" viewBox="0 0 48 48" fill="none" xmlns="http://www.w3.org/2000/svg">
<path fill-rule="evenodd" clip-rule="evenodd" d="M43.1684 44H16.5006C16.0405 44 15.6673 43.6267 15.6673 43.1666C15.6673 42.7066 16.0405 42.3333 16.5006 42.3333H42.335V5.66587H5.59232V32.3339C5.59232 32.7939 5.29423 33.1664 4.83332 33.1664C4.37324 33.1664 4 32.7939 4 32.3339V4.83252C4 4.37251 4.37324 4 4.83332 4H43.1684C43.6284 4 44.0017 4.37251 44.0017 4.83252V43.1666C44.0017 43.6267 43.6284 44 43.1684 44ZM28.6563 18.167L17.3339 18.1678C16.8738 18.1678 16.5006 17.7945 16.5006 17.3344C16.5006 16.8744 16.8738 16.5011 17.3339 16.5011H30.6678C31.1279 16.5011 31.4769 16.8728 31.4769 17.3328V30.6664C31.4769 31.1272 31.1279 31.4981 30.6678 31.4981C30.2077 31.4981 29.8069 31.1272 29.8069 30.6664V19.3728L5.42282 43.7558C5.25999 43.9183 5.04707 44 4.83332 44C4.62039 44 4.40747 43.9183 4.24465 43.7558C3.91901 43.4308 3.91901 42.9025 4.24465 42.5775L28.6563 18.167Z" fill="black"/>
</svg>
