<svg width="19" height="18" viewBox="0 0 19 18" fill="currentColor" xmlns="http://www.w3.org/2000/svg">
<path fill-rule="evenodd" clip-rule="evenodd" d="M14.6677 16.5H3.41796C3.07328 16.5 2.79297 16.2194 2.79297 15.8747V6.18771C2.79297 5.84303 3.07328 5.56242 3.41796 5.56242H6.85538C7.02819 5.56242 7.16788 5.70241 7.16788 5.87522C7.16788 6.04772 7.02819 6.18771 6.85538 6.18771H3.41796V15.8747H14.6677V6.18771H11.2303C11.0575 6.18771 10.9178 6.04772 10.9178 5.87522C10.9178 5.70241 11.0575 5.56242 11.2303 5.56242H14.6677C15.0121 5.56242 15.2927 5.84303 15.2927 6.18771V15.8747C15.2927 16.2194 15.0121 16.5 14.6677 16.5ZM11.1387 9.53358L9.26408 11.4082C9.23502 11.4373 9.20034 11.4601 9.16221 11.4757C9.12409 11.4917 9.08346 11.4998 9.04284 11.4998C9.00221 11.4998 8.96159 11.4917 8.92347 11.4757C8.88503 11.4601 8.85065 11.4373 8.82159 11.4082L6.94694 9.53358C6.82476 9.4114 6.82476 9.21359 6.94694 9.0914C7.06913 8.96953 7.26663 8.96953 7.38881 9.0914L8.73034 10.4329V1.81281C8.73034 1.64 8.87003 1.5 9.04284 1.5C9.21565 1.5 9.35533 1.64 9.35533 1.81281V10.4329L10.6969 9.0914C10.8187 8.96953 11.0165 8.96953 11.1387 9.0914C11.2609 9.21359 11.2609 9.4114 11.1387 9.53358Z" fill="currentColor"/>
</svg>
