<svg width="18" height="18" viewBox="0 0 18 18" fill="none" xmlns="http://www.w3.org/2000/svg">
<path fill-rule="evenodd" clip-rule="evenodd" d="M15.8747 16.5H2.12499C1.78031 16.5 1.5 16.2194 1.5 15.8747V11.4998C1.5 11.3273 1.63968 11.1873 1.81249 11.1873C1.9853 11.1873 2.12499 11.3273 2.12499 11.4998V15.8747H15.8747V11.4998C15.8747 11.3273 16.0144 11.1873 16.1872 11.1873C16.36 11.1873 16.4997 11.3273 16.4997 11.4998V15.8747C16.4997 16.2194 16.2191 16.5 15.8747 16.5ZM9.23109 12.6476C9.22953 12.6498 9.22671 12.6504 9.22515 12.6523C9.2039 12.6741 9.17796 12.6901 9.1514 12.7051C9.14172 12.7107 9.13422 12.7191 9.1239 12.7235C9.08578 12.7401 9.0439 12.7498 8.99984 12.7498C8.95547 12.7498 8.91391 12.7401 8.87578 12.7235C8.86578 12.7191 8.85828 12.7107 8.8486 12.7054C8.82172 12.6901 8.79578 12.6741 8.77454 12.6523C8.77297 12.6504 8.77016 12.6498 8.7686 12.6476L5.64366 9.21015C5.52773 9.08234 5.5371 8.88485 5.6646 8.7686C5.7921 8.65298 5.99022 8.66204 6.10615 8.78954L8.68735 11.6292V1.81281C8.68735 1.64 8.82703 1.5 8.99984 1.5C9.17265 1.5 9.31234 1.64 9.31234 1.81281V11.6292L11.8935 8.78954C12.0101 8.66204 12.2082 8.65298 12.3351 8.7686C12.4626 8.88485 12.472 9.08234 12.356 9.21015L9.23109 12.6476Z" fill="black"/>
</svg>
