<svg width="18" height="18" viewBox="0 0 18 18" fill="none" xmlns="http://www.w3.org/2000/svg">
<path fill-rule="evenodd" clip-rule="evenodd" d="M16.5 8.9997V9.00002C16.4997 9.0999 16.4599 9.18069 16.3954 9.23392L14.5337 11.0955C14.4726 11.1568 14.3924 11.1875 14.3126 11.1875C14.2327 11.1875 14.1526 11.1568 14.0915 11.0955C13.9694 10.974 13.9694 10.7758 14.0915 10.6536L15.4467 9.29874H9.31249V15.4338L10.6554 14.0914C10.7775 13.9693 10.9751 13.9693 11.0972 14.0914C11.2193 14.2136 11.2193 14.4115 11.0972 14.5333L9.222 16.4086C9.16345 16.4668 9.08392 16.5 9.00094 16.5L9.00063 16.4997C9.00031 16.4997 9.00031 16.5 9 16.5C8.99123 16.5 8.98435 16.4956 8.97589 16.495C8.90262 16.4887 8.83249 16.4609 8.77988 16.4086L6.90527 14.5333C6.78316 14.4115 6.78316 14.2136 6.90527 14.0914C7.02739 13.9693 7.22528 13.9693 7.34708 14.0914L8.70348 15.4479V9.29874H2.55394L3.90847 10.6524C4.03058 10.7742 4.03058 10.9724 3.90847 11.0942C3.84741 11.1556 3.76757 11.1859 3.68741 11.1859C3.60757 11.1859 3.52772 11.1556 3.46666 11.0948L1.59143 9.22077C1.53288 9.1619 1.5 9.08268 1.5 8.99939C1.5 8.95775 1.50845 8.91704 1.52442 8.87915C1.53883 8.84439 1.56074 8.81371 1.58611 8.78647C1.5883 8.78427 1.58924 8.78083 1.59143 8.77832L3.46666 6.90458C3.58847 6.78278 3.78667 6.78246 3.90847 6.90489C4.03058 7.02701 4.03058 7.22491 3.90847 7.34672L2.5674 8.68689H8.70348V2.55057L7.34582 3.90766C7.22402 4.03009 7.02614 4.03009 6.90402 3.90766C6.78191 3.78585 6.78191 3.58796 6.90402 3.46584L8.77362 1.59617C8.82591 1.5373 8.902 1.50129 8.99562 1.50004C9.03789 1.49941 9.08016 1.50692 9.11961 1.52352C9.15249 1.53698 9.18098 1.55796 9.20697 1.58145C9.21135 1.58521 9.21699 1.58646 9.22106 1.59053L11.096 3.46584C11.2181 3.58796 11.2181 3.78585 11.096 3.90766C11.0349 3.96872 10.9551 3.9994 10.8749 3.9994C10.7951 3.9994 10.7152 3.96872 10.6542 3.90766L9.31249 2.56623V8.68689H15.4332L14.0915 7.34546C13.9694 7.22334 13.9694 7.02545 14.0915 6.90364C14.2136 6.78121 14.4115 6.78121 14.5337 6.90364L16.4079 8.77832C16.4371 8.80713 16.4602 8.84189 16.4759 8.8804C16.4906 8.91547 16.4972 8.95305 16.4984 8.99094C16.4984 8.99376 16.5 8.99626 16.5 8.99939C16.5 8.99939 16.5 8.99939 16.5 8.9997Z" fill="black"/>
</svg>
