<svg width="20" height="21" viewBox="0 0 20 21" fill="none" xmlns="http://www.w3.org/2000/svg">
<rect y="0.5" width="20" height="20" rx="10" fill="white"/>
<path fill-rule="evenodd" clip-rule="evenodd" d="M17.1809 12.8122L16.6239 13.2354L16.7197 13.9281C16.8357 14.7625 16.5857 15.6045 16.0332 16.2389C15.4786 16.8757 14.6802 17.241 13.8422 17.241C13.7096 17.241 13.5748 17.2319 13.4418 17.2139L12.7487 17.1198L12.3271 17.6774C11.7711 18.4118 10.9244 18.833 10.0035 18.8333C9.08563 18.8333 8.24072 18.4142 7.68508 17.683L7.2621 17.1264L6.56929 17.2226C5.59554 17.3576 4.61762 16.9892 3.97343 16.2517C3.42127 15.6188 3.16949 14.7778 3.2827 13.9444L3.37751 13.2514L2.8191 12.8295C2.086 12.2747 1.66511 11.4292 1.66407 10.5097C1.66268 9.59028 2.08218 8.7441 2.81389 8.18751L3.37056 7.76424L3.27472 7.07188C3.15908 6.23681 3.40911 5.3948 3.96197 4.76007C4.60442 4.02257 5.58234 3.65348 6.55262 3.78577L7.24613 3.87987L7.66772 3.32223C8.22335 2.58785 9.07 2.16667 9.99097 2.16667C10.9088 2.16667 11.7537 2.58542 12.3094 3.31667L12.7327 3.87327L13.4255 3.77709C14.3993 3.64306 15.3772 4.01042 16.0214 4.74827C16.5735 5.38056 16.8253 6.22223 16.7117 7.05556L16.6169 7.74827L17.1753 8.17049C17.9084 8.72501 18.3297 9.57049 18.3307 10.4899C18.3318 11.409 17.9126 12.2559 17.1809 12.8122ZM16.7562 8.72396L16.0363 8.17987C15.9363 8.10383 15.8845 7.98056 15.9016 7.85591L16.0234 6.96181C16.111 6.31737 15.9245 5.69341 15.498 5.20487C15.007 4.64271 14.2628 4.36216 13.521 4.46494L12.6271 4.58924C12.5038 4.6066 12.3788 4.55521 12.3028 4.45521L11.7565 3.73681C11.3335 3.18021 10.6897 2.86077 9.99097 2.86077C9.28983 2.86077 8.64494 3.1816 8.22196 3.74098L7.67744 4.46112C7.60174 4.56112 7.47741 4.61355 7.35344 4.59549L6.45886 4.47396C5.71917 4.37292 4.97601 4.65382 4.48566 5.21632C4.05886 5.70626 3.87307 6.33125 3.96232 6.97605L4.08629 7.87049C4.10366 7.9948 4.05261 8.11841 3.95294 8.19445L3.23409 8.74028C2.67671 9.16424 2.35757 9.80869 2.35826 10.509C2.35896 11.2094 2.67984 11.8528 3.23825 12.2754L3.9585 12.8198C4.05851 12.8955 4.11026 13.0191 4.09324 13.1438L3.971 14.0382C3.88349 14.6823 4.06997 15.3063 4.49677 15.7948C4.98781 16.3573 5.73306 16.6385 6.47379 16.5347L7.36767 16.4104C7.38365 16.4083 7.39962 16.4073 7.4156 16.4073C7.5229 16.4073 7.6257 16.4573 7.69203 16.5445L8.23794 17.2629C8.66092 17.8195 9.30476 18.1385 10.0035 18.1385C10.705 18.1385 11.3499 17.8177 11.7728 17.2583L12.3174 16.5385C12.3931 16.4385 12.5174 16.3875 12.6414 16.4042L13.5356 16.5257C14.2777 16.6267 15.0191 16.3455 15.5091 15.783C15.9359 15.2931 16.1217 14.6684 16.0321 14.0236L15.9085 13.1292C15.8911 13.0049 15.9422 12.8809 16.0419 12.8052L16.7607 12.2594C17.3181 11.8354 17.6372 11.191 17.6365 10.4906C17.6355 9.79063 17.3146 9.14688 16.7562 8.72396Z" fill="black"/>
<path fill-rule="evenodd" clip-rule="evenodd" d="M9.93056 6.33333C11.2705 6.33333 12.3611 7.48125 12.3611 8.89191C12.3611 9.37128 12.233 9.81882 12.0139 10.2027V14.3743C12.0139 14.506 11.9469 14.6275 11.8375 14.6923C11.7288 14.757 11.5951 14.7552 11.4878 14.6875L9.9309 13.7039L8.37326 14.6875C8.31806 14.7223 8.25625 14.7398 8.19444 14.7398C8.13542 14.7398 8.07639 14.7237 8.02326 14.6923C7.91424 14.6275 7.84722 14.506 7.84722 14.3743V10.2027C7.62813 9.81882 7.5 9.37128 7.5 8.89191C7.5 7.48125 8.59063 6.33333 9.93056 6.33333ZM9.93056 7.06446C8.97326 7.06446 8.19444 7.88451 8.19444 8.89191C8.19444 9.89932 8.97326 10.7194 9.93056 10.7194C10.8878 10.7194 11.6667 9.89932 11.6667 8.89191C11.6667 7.88451 10.8878 7.06446 9.93056 7.06446ZM9.75208 12.9644C9.86215 12.8945 9.99965 12.8945 10.1097 12.9644L11.3194 13.7288V10.9883C10.9253 11.2785 10.4469 11.4505 9.93056 11.4505C9.41424 11.4505 8.93576 11.2785 8.54167 10.9883V13.7288L9.75208 12.9644Z" fill="black"/>
</svg>
