<svg width="20" height="20" viewBox="0 0 20 20" fill="none" xmlns="http://www.w3.org/2000/svg">
<path fill-rule="evenodd" clip-rule="evenodd" d="M16.9214 15.6945H3.07831C2.29984 15.6945 1.6665 15.0719 1.6665 14.3059V5.97261C1.6665 5.20664 2.29984 4.58337 3.07831 4.58337H16.9214C17.6998 4.58337 18.3332 5.20664 18.3332 5.97261V14.3059C18.3332 15.0719 17.6998 15.6945 16.9214 15.6945ZM2.36095 14.3059C2.36095 14.6889 2.68282 15 3.07831 15H16.9214C17.3169 15 17.6387 14.6889 17.6387 14.3059V5.97261C17.6387 5.91462 17.6294 5.85907 17.6155 5.80525L10.2259 12.1389C10.1606 12.1948 10.0804 12.2226 9.99984 12.2226C9.91928 12.2226 9.83907 12.1948 9.7738 12.1389L2.38421 5.80525C2.37032 5.85907 2.36095 5.91462 2.36095 5.97261V14.3059ZM3.07831 5.27817C3.00678 5.27817 2.93907 5.29136 2.8738 5.31046L9.99984 11.4181L17.1259 5.31046C17.0606 5.29136 16.9929 5.27817 16.9214 5.27817H3.07831Z" fill="black"/>
</svg>
