<svg width="16" height="16" viewBox="0 0 16 16" fill="currentColor" xmlns="http://www.w3.org/2000/svg">
<path fill-rule="evenodd" clip-rule="evenodd" d="M13.5015 14.6668H2.48953C1.87009 14.6668 1.33203 14.1774 1.33203 13.5557V7.16683C1.33203 7.08516 1.37814 7.0135 1.44314 6.96266C1.45009 6.95488 1.4537 6.94544 1.46175 6.9385L3.38286 5.26405C3.49814 5.16405 3.67259 5.176 3.77231 5.29238C3.87231 5.40822 3.85981 5.5835 3.74453 5.68405L2.0662 7.14683L7.99564 10.8132L13.9248 7.14683L12.2359 5.67433C12.1206 5.57377 12.1081 5.39822 12.2079 5.28238C12.3079 5.16655 12.4823 5.15433 12.5976 5.25461L14.5295 6.9385C14.5365 6.94433 14.5395 6.95294 14.5456 6.95961C14.6148 7.01044 14.6654 7.08322 14.6654 7.16683V13.5557C14.6654 14.1774 14.1209 14.6668 13.5015 14.6668ZM14.1098 7.68461L8.14037 11.376C8.09592 11.4032 8.04564 11.4171 7.99564 11.4171C7.94536 11.4171 7.89509 11.4032 7.85092 11.376L1.88759 7.6885V13.5557C1.88759 13.871 2.17481 14.1113 2.48953 14.1113H13.5015C13.8165 14.1113 14.1098 13.871 14.1098 13.5557V7.68461ZM9.6162 6.80433C9.29314 6.68461 9.10036 6.40461 9.10036 6.05572V5.90016C8.80648 6.16655 8.42148 6.3335 7.99564 6.3335C7.08175 6.3335 6.33814 5.586 6.33814 4.66683C6.33814 3.74766 7.08175 3.00016 7.99564 3.00016C8.42148 3.00016 8.80648 3.16711 9.10036 3.43377V3.27794C9.10036 3.12461 9.22425 3.00016 9.37675 3.00016C9.52925 3.00016 9.65287 3.12461 9.65287 3.27794V6.05572C9.65287 6.1735 9.70064 6.2435 9.80759 6.28322C10.0093 6.35822 10.3068 6.28183 10.4445 6.11988C10.754 5.756 10.7529 5.13572 10.7523 4.72572L10.752 4.66683C10.752 3.13488 9.51425 1.88905 7.99287 1.88905C6.4712 1.88905 5.23342 3.13488 5.23342 4.66683C5.23342 6.1985 6.4712 7.44461 7.99287 7.44461C8.14536 7.44461 8.26898 7.56905 8.26898 7.72238C8.26898 7.87572 8.14536 8.00016 7.99287 8.00016C6.16675 8.00016 4.68092 6.50461 4.68092 4.66683C4.68092 2.82877 6.16675 1.3335 7.99287 1.3335C9.81898 1.3335 11.3045 2.82877 11.3045 4.66683L11.3048 4.72433C11.3054 5.18711 11.307 5.96072 10.8643 6.481C10.574 6.82211 10.0376 6.96072 9.6162 6.80433ZM7.99564 3.55572C7.38648 3.55572 6.89064 4.05405 6.89064 4.66683C6.89064 5.27961 7.38648 5.77794 7.99564 5.77794C8.60481 5.77794 9.10036 5.27961 9.10036 4.66683C9.10036 4.05405 8.60481 3.55572 7.99564 3.55572Z" fill="currentColor"/>
</svg>
