<svg width="18" height="18" viewBox="0 0 18 18" fill="none" xmlns="http://www.w3.org/2000/svg">
<path fill-rule="evenodd" clip-rule="evenodd" d="M15.2294 14.125H2.77062C2.07 14.125 1.5 13.5647 1.5 12.8753V5.37531C1.5 4.68594 2.07 4.125 2.77062 4.125H15.2294C15.93 4.125 16.5 4.68594 16.5 5.37531V12.8753C16.5 13.5647 15.93 14.125 15.2294 14.125ZM2.125 12.8753C2.125 13.22 2.41469 13.5 2.77062 13.5H15.2294C15.5853 13.5 15.875 13.22 15.875 12.8753V5.37531C15.875 5.32313 15.8666 5.27312 15.8541 5.22469L9.20344 10.925C9.14469 10.9753 9.0725 11.0003 9 11.0003C8.9275 11.0003 8.85531 10.9753 8.79656 10.925L2.14594 5.22469C2.13344 5.27312 2.125 5.32313 2.125 5.37531V12.8753ZM2.77062 4.75031C2.70625 4.75031 2.64531 4.76219 2.58656 4.77937L9 10.2762L15.4134 4.77937C15.3547 4.76219 15.2937 4.75031 15.2294 4.75031H2.77062Z" fill="black"/>
</svg>
