<svg width="18" height="18" viewBox="0 0 18 18" fill="none" xmlns="http://www.w3.org/2000/svg">
<path fill-rule="evenodd" clip-rule="evenodd" d="M9.44188 9.00008L16.4088 15.9668C16.5308 16.0889 16.5308 16.2865 16.4088 16.4086C16.3476 16.4693 16.2676 16.5 16.1879 16.5C16.1079 16.5 16.0279 16.4693 15.9667 16.4086L9.00016 9.44188L2.03357 16.4086C1.97239 16.4693 1.89271 16.5 1.81271 16.5C1.73271 16.5 1.65271 16.4693 1.59153 16.4086C1.46949 16.2865 1.46949 16.0889 1.59153 15.9668L8.55812 9.00008L1.59153 2.0337C1.46949 1.9119 1.46949 1.7137 1.59153 1.59158C1.71388 1.46978 1.91153 1.46978 2.03357 1.59158L8.99984 8.55797L15.9661 1.59158C16.0882 1.46947 16.2861 1.46947 16.4082 1.59158C16.5302 1.7137 16.5302 1.91127 16.4082 2.0337L9.44188 9.00008Z" fill="black"/>
</svg>
