<svg width="16" height="16" viewBox="0 0 16 16" fill="currentColor" xmlns="http://www.w3.org/2000/svg">
<path fill-rule="evenodd" clip-rule="evenodd" d="M7.9987 12.7779C3.41009 12.7779 1.33203 9.15544 1.33203 8.05544C1.33203 6.95572 3.41009 3.3335 7.9987 3.3335C12.5873 3.3335 14.6654 6.95572 14.6654 8.05544C14.6654 9.15544 12.5873 12.7779 7.9987 12.7779ZM7.9987 3.88905C3.78259 3.88905 1.88759 7.201 1.88759 8.05544C1.88759 8.91016 3.78259 12.2221 7.9987 12.2221C12.2148 12.2221 14.1098 8.91016 14.1098 8.05544C14.1098 7.201 12.2148 3.88905 7.9987 3.88905ZM7.9987 10.5554C6.62036 10.5554 5.4987 9.43377 5.4987 8.05544C5.4987 6.67683 6.62036 5.55544 7.9987 5.55544C9.37703 5.55544 10.4987 6.67683 10.4987 8.05544C10.4987 9.43377 9.37703 10.5554 7.9987 10.5554ZM7.9987 6.111C6.92648 6.111 6.05425 6.98322 6.05425 8.05544C6.05425 9.12766 6.92648 9.99989 7.9987 9.99989C9.07092 9.99989 9.94314 9.12766 9.94314 8.05544C9.94314 6.98322 9.07092 6.111 7.9987 6.111Z" fill="currentColor"/>
</svg>
