<svg width="18" height="18" viewBox="0 0 18 18" fill="none" xmlns="http://www.w3.org/2000/svg">
<path fill-rule="evenodd" clip-rule="evenodd" d="M14.5 16.5C14.4925 16.5 14.4862 16.4962 14.4791 16.4959C14.4719 16.4962 14.4656 16.5 14.4581 16.5H3.91687C3.91187 16.5 3.90781 16.4975 3.90281 16.4972C3.89344 16.4975 3.88437 16.5 3.875 16.5C3.18562 16.5 2.625 15.9394 2.625 15.25C2.625 15.2462 2.62688 15.2434 2.62719 15.2397C2.62688 15.2359 2.625 15.2331 2.625 15.2294V5.64594C2.625 5.63094 2.63125 5.61844 2.63344 5.60437C2.63125 5.59 2.625 5.5775 2.625 5.56281C2.625 5.38969 2.765 5.25 2.9375 5.25H4.5V1.8125C4.5 1.63969 4.64 1.5 4.8125 1.5H15.4375C15.61 1.5 15.75 1.63969 15.75 1.8125V15.25C15.75 15.9394 15.1891 16.5 14.5 16.5ZM4.5 5.875H3.25V15.2294C3.25 15.2331 3.24813 15.2359 3.24781 15.2397C3.24813 15.2434 3.25 15.2462 3.25 15.25C3.25 15.5944 3.53031 15.875 3.875 15.875C4.21969 15.875 4.5 15.5944 4.5 15.25V5.875ZM15.125 2.125H5.125V15.25C5.125 15.4787 5.05875 15.6903 4.95125 15.875H14.4581C14.4656 15.875 14.4719 15.8787 14.4791 15.8791C14.4862 15.8787 14.4925 15.875 14.5 15.875C14.8447 15.875 15.125 15.5944 15.125 15.25V2.125ZM13.5625 12.125H6.6875C6.515 12.125 6.375 11.9853 6.375 11.8125C6.375 11.6397 6.515 11.5 6.6875 11.5H13.5625C13.735 11.5 13.875 11.6397 13.875 11.8125C13.875 11.9853 13.735 12.125 13.5625 12.125ZM13.5625 10.25H6.6875C6.515 10.25 6.375 10.1103 6.375 9.93719C6.375 9.76469 6.515 9.625 6.6875 9.625H13.5625C13.735 9.625 13.875 9.76469 13.875 9.93719C13.875 10.1103 13.735 10.25 13.5625 10.25ZM13.5625 8.375H6.6875C6.515 8.375 6.375 8.23531 6.375 8.0625C6.375 7.88969 6.515 7.75031 6.6875 7.75031H13.5625C13.735 7.75031 13.875 7.88969 13.875 8.0625C13.875 8.23531 13.735 8.375 13.5625 8.375ZM10.4375 5.875H6.6875C6.515 5.875 6.375 5.73531 6.375 5.56281C6.375 5.38969 6.515 5.25 6.6875 5.25H10.4375C10.61 5.25 10.75 5.38969 10.75 5.56281C10.75 5.73531 10.61 5.875 10.4375 5.875Z" fill="#BFBFBF"/>
</svg>
