<svg width="19" height="18" viewBox="0 0 19 18" fill="none" xmlns="http://www.w3.org/2000/svg">
<path fill-rule="evenodd" clip-rule="evenodd" d="M15.5336 16.4083C15.4725 16.4693 15.3927 16.5 15.3125 16.5C15.2326 16.5 15.1527 16.4693 15.0916 16.4083L14.12 15.4371C13.7548 15.711 13.3031 15.875 12.8129 15.875C11.6063 15.875 10.625 14.8937 10.625 13.6875C10.625 12.4812 11.6063 11.5 12.8129 11.5C14.0188 11.5 15.0002 12.4812 15.0002 13.6875C15.0002 14.1782 14.8357 14.6299 14.562 14.9955L15.5336 15.9667C15.6555 16.0884 15.6555 16.2862 15.5336 16.4083ZM12.8129 12.125C11.9512 12.125 11.2499 12.8261 11.2499 13.6875C11.2499 14.5488 11.9512 15.2499 12.8129 15.2499C13.6743 15.2499 14.375 14.5488 14.375 13.6875C14.375 12.8261 13.6743 12.125 12.8129 12.125ZM14.375 10.2499C14.375 10.4227 14.235 10.5623 14.0627 10.5623C13.8901 10.5623 13.7501 10.4227 13.7501 10.2499V6.17418H10.0179C9.84535 6.17418 9.70471 6.03365 9.70471 5.86088V2.10532H3.75334L3.74989 15.8634L9.68749 15.875C9.86008 15.875 10.0001 16.0152 10.0001 16.1876C10.0001 16.3601 9.86008 16.5 9.68749 16.5H3.7618C3.41067 16.5 3.125 16.2142 3.125 15.8634V2.13662C3.125 1.78576 3.41067 1.5 3.7618 1.5H10.0001C10.0067 1.5 10.0126 1.50344 10.0192 1.50376C10.0477 1.50563 10.075 1.51127 10.1019 1.52066C10.1119 1.5241 10.1216 1.5266 10.131 1.53099C10.1633 1.54601 10.1937 1.56479 10.2197 1.59077C10.2203 1.59108 10.2206 1.59139 10.2212 1.59171L14.2494 5.62019C14.2591 5.62707 14.2641 5.63897 14.2729 5.64679C14.2823 5.65556 14.2895 5.66557 14.2979 5.67527C14.3458 5.73005 14.3812 5.7964 14.3812 5.87496C14.3812 5.88592 14.3762 5.89531 14.375 5.90595V10.2499ZM10.3124 2.56698V5.5626H13.3081L10.3124 2.56698Z" fill="black"/>
</svg>
