<svg width="18" height="18" viewBox="0 0 18 18" fill="none" xmlns="http://www.w3.org/2000/svg">
<g id="file-search">
<path id="Vector" fill-rule="evenodd" clip-rule="evenodd" d="M15.0336 16.4083C14.9725 16.4693 14.8927 16.5 14.8125 16.5C14.7326 16.5 14.6527 16.4693 14.5916 16.4083L13.62 15.4371C13.2548 15.711 12.8031 15.875 12.3129 15.875C11.1063 15.875 10.125 14.8937 10.125 13.6875C10.125 12.4812 11.1063 11.5 12.3129 11.5C13.5188 11.5 14.5002 12.4812 14.5002 13.6875C14.5002 14.1782 14.3357 14.6299 14.062 14.9955L15.0336 15.9667C15.1555 16.0884 15.1555 16.2862 15.0336 16.4083ZM12.3129 12.125C11.4512 12.125 10.7499 12.8261 10.7499 13.6875C10.7499 14.5488 11.4512 15.2499 12.3129 15.2499C13.1743 15.2499 13.875 14.5488 13.875 13.6875C13.875 12.8261 13.1743 12.125 12.3129 12.125ZM13.875 10.2499C13.875 10.4227 13.735 10.5623 13.5627 10.5623C13.3901 10.5623 13.2501 10.4227 13.2501 10.2499V6.17418H9.51794C9.34535 6.17418 9.20471 6.03365 9.20471 5.86088V2.10532H3.25334L3.24989 15.8634L9.18749 15.875C9.36008 15.875 9.50009 16.0152 9.50009 16.1876C9.50009 16.3601 9.36008 16.5 9.18749 16.5H3.2618C2.91067 16.5 2.625 16.2142 2.625 15.8634V2.13662C2.625 1.78576 2.91067 1.5 3.2618 1.5H9.50009C9.50667 1.5 9.51262 1.50344 9.5192 1.50376C9.5477 1.50563 9.57495 1.51127 9.60189 1.52066C9.61191 1.5241 9.62162 1.5266 9.63102 1.53099C9.66328 1.54601 9.69367 1.56479 9.71966 1.59077C9.72029 1.59108 9.7206 1.59139 9.72123 1.59171L13.7494 5.62019C13.7591 5.62707 13.7641 5.63897 13.7729 5.64679C13.7823 5.65556 13.7895 5.66557 13.7979 5.67527C13.8458 5.73005 13.8812 5.7964 13.8812 5.87496C13.8812 5.88592 13.8762 5.89531 13.875 5.90595V10.2499ZM9.81238 2.56698V5.5626H12.8081L9.81238 2.56698Z" fill="#2B39D4"/>
</g>
</svg>
