<svg width="20" height="20" viewBox="0 0 20 20" fill="none" xmlns="http://www.w3.org/2000/svg">
<path fill-rule="evenodd" clip-rule="evenodd" d="M15.904 14.8262C16.0599 16.3081 16.845 17.1875 16.8533 17.1969C16.9464 17.299 16.97 17.4469 16.9134 17.5726C16.8571 17.6976 16.7339 17.7778 16.5971 17.7778C16.5957 17.7778 16.5943 17.7778 16.5929 17.7778C16.5019 17.7767 14.3974 17.7319 12.9596 16.031H11.7349H11.7346C10.278 16.0306 8.89741 15.6518 7.7422 14.9355C7.57935 14.8349 7.52935 14.6213 7.63039 14.4581C7.73143 14.2956 7.94532 14.245 8.10852 14.3463C9.15366 14.9946 10.4085 15.3369 11.7359 15.3369H13.1248C13.2318 15.3369 13.3325 15.3859 13.3981 15.4699C14.1516 16.4299 15.18 16.8191 15.8665 16.9771C15.579 16.4636 15.2571 15.6775 15.1936 14.6633C15.1856 14.5331 15.2512 14.4092 15.3637 14.3429C16.8307 13.4787 17.6387 12.1687 17.6387 10.6538C17.6387 9.80592 16.9818 8.57958 16.0044 7.60289C15.8686 7.46713 15.8686 7.2477 16.0044 7.11229C16.1401 6.97653 16.3596 6.97653 16.4953 7.11229C17.612 8.22786 18.3332 9.61773 18.3332 10.6538C18.3332 12.3579 17.4728 13.8318 15.904 14.8262ZM8.26512 13.2551H8.26477H7.04012C5.60227 14.9564 3.49775 15.0012 3.40678 15.0022C3.40539 15.0022 3.404 15.0022 3.40262 15.0022C3.26546 15.0022 3.14116 14.922 3.0856 14.7967C3.02935 14.6703 3.05296 14.5231 3.14637 14.421C3.1547 14.412 3.93977 13.5325 4.09567 12.0506C2.52692 11.0562 1.6665 9.58232 1.6665 7.87857C1.6665 4.91274 4.62588 2.5 8.26373 2.5C11.9016 2.5 14.8609 4.91274 14.8609 7.87857C14.8609 10.843 11.9019 13.2551 8.26512 13.2551ZM8.26373 3.19407C5.00887 3.19407 2.36095 5.29536 2.36095 7.87857C2.36095 9.39344 3.16893 10.7034 4.63595 11.5676C4.74845 11.6336 4.81407 11.7576 4.80609 11.8878C4.74255 12.9016 4.42067 13.6884 4.13317 14.2016C4.81963 14.0439 5.8481 13.6544 6.60157 12.6943C6.6672 12.6107 6.76789 12.5613 6.87484 12.5613H8.26373C11.5186 12.5613 14.1665 10.4604 14.1665 7.87857C14.1665 5.29536 11.5186 3.19407 8.26373 3.19407Z" fill="black"/>
</svg>
