<svg width="20" height="20" viewBox="0 0 20 20" fill="none" xmlns="http://www.w3.org/2000/svg">
<path fill-rule="evenodd" clip-rule="evenodd" d="M17.4537 17.4306H2.54637C2.0613 17.4306 1.6665 17.0432 1.6665 16.5668V6.07774C1.6665 5.6014 2.2231 5.12506 2.70817 5.12506H8.95817C9.15018 5.12506 9.30539 5.28007 9.30539 5.4676C9.30539 5.65478 9.15018 5.8098 8.95817 5.8098H5.13873V16.752H17.4537C17.554 16.752 17.6387 16.6671 17.6387 16.5668V6.07774C17.6387 5.97748 17.3919 5.8098 17.2915 5.8098H16.5971C16.405 5.8098 16.2498 5.65478 16.2498 5.4676C16.2498 5.28007 16.405 5.12506 16.5971 5.12506H17.2915C17.7762 5.12506 18.3332 5.6014 18.3332 6.07774V16.5668C18.3332 17.0432 17.9384 17.4306 17.4537 17.4306ZM4.44428 5.8098H2.70817C2.60748 5.8098 2.36095 5.97748 2.36095 6.07774V10.9428H4.44428V5.8098ZM4.44428 11.6272H2.36095V16.5668C2.36095 16.6671 2.44567 16.752 2.54637 16.752H4.44428V11.6272ZM15.82 4.8205C15.8134 4.82803 15.8109 4.83727 15.8037 4.84445L10.1568 10.3648C10.155 10.3665 10.1523 10.3672 10.1505 10.3689C10.145 10.3741 10.1373 10.3765 10.1314 10.3812C10.1012 10.4059 10.0696 10.4278 10.0342 10.4408C10.0339 10.4408 10.0332 10.4415 10.0328 10.4418L7.6915 11.3011C7.65157 11.3154 7.61025 11.3223 7.56928 11.3223C7.47866 11.3223 7.38977 11.2881 7.3238 11.2231C7.22761 11.1286 7.19637 10.9883 7.24393 10.8637L8.12345 8.57511C8.12414 8.57272 8.12623 8.57135 8.12727 8.56895C8.12935 8.56348 8.13456 8.55903 8.13699 8.55355C8.1547 8.51694 8.17553 8.4834 8.20331 8.45603C8.20366 8.45603 8.20366 8.45569 8.20366 8.45569L13.8502 2.93532C13.8575 2.92848 13.8669 2.92574 13.8745 2.91958C13.8811 2.91171 13.8839 2.90179 13.8915 2.8946C14.4307 2.36864 15.3064 2.3683 15.845 2.8946C16.1061 3.15022 16.2498 3.48934 16.2498 3.85002C16.2498 4.2107 16.1061 4.54982 15.8446 4.80441C15.8373 4.8116 15.8276 4.814 15.82 4.8205ZM15.354 3.37471C15.0859 3.11292 14.6505 3.11258 14.3825 3.37471C14.3752 3.38189 14.3655 3.38463 14.3575 3.39079C14.3512 3.39866 14.3484 3.4079 14.3412 3.41508L8.74637 8.8848L8.16303 10.4025L9.72102 9.83064L15.3127 4.36469C15.32 4.35716 15.3297 4.35476 15.3377 4.34826C15.3443 4.34073 15.3471 4.33115 15.3544 4.32397C15.4839 4.1977 15.5554 4.02933 15.5554 3.85002C15.5554 3.67037 15.4839 3.50166 15.354 3.37471Z" fill="black"/>
</svg>
