<svg width="18" height="18" viewBox="0 0 18 18" fill="none" xmlns="http://www.w3.org/2000/svg">
<g id="hamburger-menu-1">
<path id="Vector" fill-rule="evenodd" clip-rule="evenodd" d="M15.875 9.625H2.125C1.78 9.625 1.5 9.345 1.5 9C1.5 8.655 1.78 8.375 2.125 8.375H15.875C16.22 8.375 16.5 8.655 16.5 9C16.5 9.345 16.22 9.625 15.875 9.625ZM15.875 4.625H2.125C1.78 4.625 1.5 4.345 1.5 4C1.5 3.655 1.78 3.375 2.125 3.375H15.875C16.22 3.375 16.5 3.655 16.5 4C16.5 4.345 16.22 4.625 15.875 4.625ZM2.125 13.375H15.875C16.22 13.375 16.5 13.655 16.5 14C16.5 14.345 16.22 14.625 15.875 14.625H2.125C1.78 14.625 1.5 14.345 1.5 14C1.5 13.655 1.78 13.375 2.125 13.375Z" fill="black"/>
</g>
</svg>
