<svg width="18" height="18" viewBox="0 0 18 18" fill="none" xmlns="http://www.w3.org/2000/svg">
<path fill-rule="evenodd" clip-rule="evenodd" d="M13.5775 16.5C13.4012 16.5 13.2223 16.439 13.0465 16.3189L9.03711 13.5766L8.9527 13.5816L4.95338 16.3183C4.54771 16.5956 4.08662 16.5346 3.84662 16.2165C3.73764 16.0731 3.63119 15.8229 3.73827 15.4444L4.94834 11.1662C4.95653 11.1215 4.92944 11.0146 4.89921 10.9794L1.78428 7.8102C1.52476 7.54615 1.43594 7.20791 1.5468 6.90488C1.65767 6.60248 1.94365 6.40192 2.31278 6.36797L6.4362 5.98259C6.47462 5.97504 6.56092 5.91217 6.58234 5.87319L8.23838 2.05514C8.38893 1.70747 8.67302 1.5 8.99994 1.5C9.32687 1.5 9.61222 1.70873 9.76151 2.05765L11.4194 5.87759C11.4396 5.91343 11.5253 5.97504 11.5681 5.98321L15.6884 6.36672C16.0581 6.40255 16.3435 6.60436 16.4537 6.90676C16.564 7.20917 16.4745 7.54677 16.215 7.8102L13.0988 10.9807C13.0704 11.0146 13.0427 11.1215 13.0522 11.1668L14.2616 15.4444C14.3687 15.8229 14.2622 16.0731 14.1533 16.2165C14.0172 16.3963 13.8074 16.5 13.5775 16.5ZM8.99931 12.3248C9.2727 12.3248 9.53726 12.4034 9.74387 12.5461L12.7177 14.58L11.849 11.5063C11.7149 11.0417 11.8654 10.4507 12.2081 10.1037L14.7347 7.53357L11.4478 7.22677C10.959 7.18088 10.4645 6.82189 10.2717 6.373L8.99931 3.44141L7.72689 6.37489C7.53162 6.82315 7.03902 7.18088 6.55273 7.22677L3.26584 7.5342L5.79242 10.1043C6.13384 10.4507 6.28502 11.0417 6.15021 11.5088L5.28219 14.5793L8.25602 12.5455C8.46137 12.4034 8.72593 12.3248 8.99931 12.3248Z" fill="#1A227F"/>
<path d="M7.6875 6.375L9 3.375L10.3125 6.375L10.5 6.75L10.875 7.125H11.25L14.8125 7.5L12.1875 10.125L12 10.5L11.8125 11.0625V11.4375L12.75 14.625L9.75 12.5625L9.375 12.375H9H8.625L8.25 12.5625L5.25 14.625L6.1875 11.25V10.875L6 10.5L5.8125 10.125L3.1875 7.5L6.75 7.125L7.125 6.9375L7.5 6.75L7.6875 6.375Z" fill="#1A227F" stroke="#1A227F" stroke-linejoin="round"/>
</svg>
