<svg width="16" height="16" viewBox="0 0 16 16" fill="none" xmlns="http://www.w3.org/2000/svg">
<path fill-rule="evenodd" clip-rule="evenodd" d="M14.5756 9.03975C14.5226 9.08624 14.457 9.10935 14.3915 9.10935C14.3147 9.10935 14.2383 9.07789 14.1833 9.01581L13.5864 8.34074V14.111C13.5864 14.4178 13.309 14.6667 13.0026 14.6667H10.2246C9.91852 14.6667 9.67965 14.4178 9.67965 14.111V9.93558L6.05809 9.94282V14.111C6.05809 14.4178 5.80889 14.6667 5.50249 14.6667H3.00245C2.69605 14.6667 2.42425 14.4178 2.42425 14.111V8.33433L1.82177 9.01581C1.71992 9.1305 1.54467 9.14136 1.4297 9.03975C1.31473 8.93814 1.30413 8.76221 1.40543 8.64751L7.79464 1.42269C7.90012 1.30355 8.10495 1.30355 8.21071 1.42269L14.5996 8.64751C14.7012 8.76221 14.6903 8.93814 14.5756 9.03975ZM8.00253 2.0265L2.98208 7.7038C2.98208 7.70519 2.98236 7.70686 2.98236 7.70826V14.111H5.50249V9.94282C5.50249 9.6366 5.75169 9.38717 6.05809 9.38717H9.66932C9.97572 9.38717 10.2246 9.6366 10.2246 9.94282V14.111H13.0283V7.70965L8.00253 2.0265Z" fill="white"/>
</svg>
