<svg width="16" height="16" viewBox="0 0 16 16" fill="none" xmlns="http://www.w3.org/2000/svg">
<g id="home">
<path id="Vector" fill-rule="evenodd" clip-rule="evenodd" d="M14.4893 8.96105C14.3823 9.05922 14.2478 9.10718 14.1139 9.10718C13.9632 9.10718 13.8136 9.04694 13.7038 8.92702L13.5581 8.76805V13.5549C13.5581 14.1674 13.0595 14.6666 12.4471 14.6666H10.2245C9.91804 14.6666 9.66928 14.4173 9.66928 14.1105C9.66928 14.0396 9.68553 13.9727 9.70962 13.9102V10.2094L6.33565 10.2194V14.1105C6.33565 14.4173 6.08689 14.6666 5.78042 14.6666H3.55781C2.94543 14.6666 2.44679 14.1674 2.44679 13.5549V8.76805L2.30111 8.92702C2.09381 9.15348 1.74196 9.16854 1.51617 8.96105C1.28982 8.75411 1.27469 8.40215 1.48199 8.17569L7.5929 1.50519C7.80357 1.27594 8.20136 1.27594 8.41202 1.50519L14.5229 8.17569C14.7308 8.40215 14.7151 8.75411 14.4893 8.96105ZM12.511 7.62516L8.00246 2.70386L3.55781 7.55488V13.5549H5.22463V10.2194C5.22463 9.6064 5.72327 9.10718 6.33565 9.10718H9.66928C10.2817 9.10718 10.7803 9.6064 10.7803 10.2194V13.5549L12.511 13.556V7.62516Z" fill="black"/>
</g>
</svg>
