<svg width="16" height="17" viewBox="0 0 16 17" fill="currentColor" xmlns="http://www.w3.org/2000/svg">
<path fill-rule="evenodd" clip-rule="evenodd" d="M14.5891 2.33172L6.45166 10.453H10.2255C10.3788 10.453 10.5033 10.5771 10.5033 10.7302C10.5033 10.8833 10.3788 11.0074 10.2255 11.0074H5.78057C5.6272 11.0074 5.51224 10.8758 5.51224 10.7227V6.27788C5.51224 6.12509 5.6272 6.01786 5.78057 6.01786C5.93421 6.01786 6.05836 6.14204 6.05836 6.2951V10.061L14.1961 1.93974C14.3046 1.8314 14.4805 1.8314 14.5891 1.93974C14.6977 2.04781 14.6977 2.22365 14.5891 2.33172ZM10.5225 2.38867H1.89374L1.89152 14.6122L14.141 14.6119V5.72228C14.141 5.56921 14.2392 5.46281 14.3926 5.46281C14.546 5.46281 14.6704 5.58671 14.6704 5.74006V14.8894C14.6704 15.0428 14.546 15.1667 14.3926 15.1667H1.61373C1.46036 15.1667 1.33594 15.0428 1.33594 14.8894V2.13559C1.33594 1.98252 1.46203 1.83334 1.6154 1.83334H10.5225C10.6758 1.83334 10.7811 1.98252 10.7811 2.13559C10.7811 2.28894 10.6758 2.38867 10.5225 2.38867Z" fill="currentColor"/>
</svg>
