<svg width="16" height="16" viewBox="0 0 16 16" fill="none" xmlns="http://www.w3.org/2000/svg">
<path fill-rule="evenodd" clip-rule="evenodd" d="M14.5891 2.33187L6.45166 10.4531H10.2255C10.3788 10.4531 10.5033 10.5773 10.5033 10.7303C10.5033 10.8834 10.3788 11.0076 10.2255 11.0076H5.78057C5.6272 11.0076 5.51224 10.8759 5.51224 10.7228V6.27803C5.51224 6.12524 5.6272 6.01801 5.78057 6.01801C5.93421 6.01801 6.05836 6.14219 6.05836 6.29526V10.0611L14.1961 1.93989C14.3046 1.83155 14.4805 1.83155 14.5891 1.93989C14.6977 2.04796 14.6977 2.22381 14.5891 2.33187ZM10.5225 2.38882H1.89374L1.89152 14.6123L14.141 14.6121V5.72243C14.141 5.56936 14.2392 5.46297 14.3926 5.46297C14.546 5.46297 14.6704 5.58686 14.6704 5.74021V14.8896C14.6704 15.0429 14.546 15.1668 14.3926 15.1668H1.61373C1.46036 15.1668 1.33594 15.0429 1.33594 14.8896V2.13574C1.33594 1.98268 1.46203 1.8335 1.6154 1.8335H10.5225C10.6758 1.8335 10.7811 1.98268 10.7811 2.13574C10.7811 2.28909 10.6758 2.38882 10.5225 2.38882Z" fill="black"/>
</svg>
