<svg width="16" height="16" viewBox="0 0 16 16" fill="none" xmlns="http://www.w3.org/2000/svg">
<path fill-rule="evenodd" clip-rule="evenodd" d="M14.328 3.73244C14.326 3.73466 14.323 3.73549 14.3211 3.73772C14.3186 3.7405 14.3177 3.74383 14.315 3.74661L8.75743 9.30485C8.75522 9.3068 8.75246 9.30736 8.75025 9.3093C8.73699 9.32209 8.72015 9.33015 8.70413 9.34016C8.68812 9.34989 8.6732 9.36129 8.65608 9.36768C8.65332 9.36879 8.65167 9.37102 8.6489 9.37185L6.14792 10.2058C6.11893 10.2153 6.08938 10.22 6.05983 10.22C5.98748 10.22 5.91652 10.1917 5.8635 10.1386C5.78894 10.0638 5.76298 9.95397 5.7964 9.85389L6.63006 7.35305C6.63089 7.34999 6.6331 7.34832 6.6342 7.34526C6.64055 7.32831 6.65187 7.31357 6.66154 7.29773C6.67148 7.28188 6.67976 7.26492 6.69247 7.2513C6.6944 7.24936 6.69495 7.2463 6.69716 7.24435L12.2547 1.68583C12.2555 1.685 12.2566 1.68472 12.2578 1.68417C12.2586 1.68333 12.2586 1.68194 12.2597 1.68139C12.5021 1.45009 12.8479 1.32305 13.203 1.33417C13.5874 1.34529 13.9519 1.51514 14.2288 1.81204C14.8631 2.48924 14.7358 3.26457 14.328 3.73244ZM13.8229 2.19179C13.5981 1.95076 13.3529 1.89461 13.1867 1.8896C12.9815 1.88432 12.7769 1.95605 12.643 2.08392H12.6427L7.1365 7.59073L6.49945 9.50251L8.41115 8.86507L13.9124 3.36326C14.1355 3.10333 14.2454 2.64269 13.8229 2.19179ZM8.56082 3.55035H1.8918V14.1111L12.3867 14.1108V7.43895C12.3867 7.28549 12.5093 7.16095 12.6628 7.16095C12.8164 7.16095 12.939 7.28549 12.939 7.43895V14.3888C12.939 14.5423 12.8832 14.6668 12.7297 14.6668H1.61373C1.46048 14.6668 1.33594 14.5423 1.33594 14.3888V3.27235C1.33594 3.1189 1.46048 2.99464 1.61373 2.99464H8.56082C8.71435 2.99464 8.83889 3.1189 8.83889 3.27235C8.83889 3.42581 8.71435 3.55035 8.56082 3.55035Z" fill="black"/>
</svg>
