<svg width="16" height="17" viewBox="0 0 16 17" fill="none" xmlns="http://www.w3.org/2000/svg">
<path fill-rule="evenodd" clip-rule="evenodd" d="M13.8359 11.4178H6.46955L4.33066 13.8481C4.27677 13.9092 4.19649 13.943 4.11372 13.943C4.08316 13.943 4.05177 13.9382 4.02177 13.9289C3.91038 13.8933 3.83594 13.7978 3.83594 13.6903V11.4178H2.16927C1.70983 11.4178 1.33594 11.0782 1.33594 10.6606V3.59049C1.33594 3.17287 1.70983 2.83301 2.16927 2.83301H13.8359C14.2954 2.83301 14.6693 3.17287 14.6693 3.59049V10.6606C14.6693 11.0782 14.2954 11.4178 13.8359 11.4178ZM14.1137 3.59049C14.1137 3.45137 13.9893 3.33825 13.8359 3.33825H2.16927C2.01594 3.33825 1.89149 3.45137 1.89149 3.59049V10.6606C1.89149 10.7997 2.01594 10.9131 2.16927 10.9131H4.11372C4.26733 10.9131 4.39149 11.0262 4.39149 11.1656V12.9707L6.11899 11.0078C6.12233 11.004 6.12705 11.0025 6.13066 10.9989C6.14372 10.9858 6.15899 10.9759 6.17455 10.9653C6.18844 10.9563 6.20122 10.9464 6.21649 10.9398C6.23149 10.933 6.24788 10.9302 6.26427 10.9262C6.28344 10.9214 6.30149 10.9166 6.32122 10.9156C6.32622 10.9153 6.33066 10.9131 6.33594 10.9131H13.8359C13.9893 10.9131 14.1137 10.7997 14.1137 10.6606V3.59049ZM11.8915 7.3779H4.11372C3.9601 7.3779 3.83594 7.26504 3.83594 7.12566C3.83594 6.98603 3.9601 6.87292 4.11372 6.87292H11.8915C12.0451 6.87292 12.1693 6.98603 12.1693 7.12566C12.1693 7.26504 12.0451 7.3779 11.8915 7.3779ZM11.8915 5.86319H4.11372C3.9601 5.86319 3.83594 5.75007 3.83594 5.6107C3.83594 5.47107 3.9601 5.35795 4.11372 5.35795H11.8915C12.0451 5.35795 12.1693 5.47107 12.1693 5.6107C12.1693 5.75007 12.0451 5.86319 11.8915 5.86319ZM4.11372 8.38813H9.11372C9.26733 8.38813 9.39149 8.501 9.39149 8.64038C9.39149 8.78001 9.26733 8.89312 9.11372 8.89312H4.11372C3.9601 8.89312 3.83594 8.78001 3.83594 8.64038C3.83594 8.501 3.9601 8.38813 4.11372 8.38813Z" fill="black"/>
</svg>
