<svg width="16" height="16" viewBox="0 0 16 16" fill="currentColor" xmlns="http://www.w3.org/2000/svg">
<path fill-rule="evenodd" clip-rule="evenodd" d="M8.00274 14.6673C4.32683 14.6673 1.33594 11.6767 1.33594 8.00079C1.33594 4.3246 4.32683 1.33398 8.00274 1.33398C11.6787 1.33398 14.6695 4.3246 14.6695 8.00079C14.6695 11.6767 11.6787 14.6673 8.00274 14.6673ZM8.00274 1.88955C4.63295 1.88955 1.8915 4.63072 1.8915 8.00079C1.8915 11.3706 4.63295 14.1118 8.00274 14.1118C11.3725 14.1118 14.114 11.3706 14.114 8.00079C14.114 4.63072 11.3725 1.88955 8.00274 1.88955ZM10.4214 10.4195C10.3672 10.4736 10.2961 10.5008 10.225 10.5008C10.1539 10.5008 10.0828 10.4736 10.0286 10.4195L8.00274 8.3933L5.97687 10.4195C5.9227 10.4736 5.85159 10.5008 5.78047 10.5008C5.70936 10.5008 5.63825 10.4736 5.58408 10.4195C5.47547 10.3108 5.47547 10.1353 5.58408 10.0267L7.60996 8.00079L5.58408 5.97464C5.47547 5.8663 5.47547 5.69046 5.58408 5.58185C5.69269 5.47352 5.86825 5.47352 5.97687 5.58185L8.00274 7.608L10.0286 5.58185C10.1372 5.47352 10.3128 5.47352 10.4214 5.58185C10.53 5.69046 10.53 5.8663 10.4214 5.97464L8.39553 8.00079L10.4214 10.0267C10.53 10.1353 10.53 10.3108 10.4214 10.4195Z" fill="currentColor"/>
</svg>
