<svg width="16" height="17" viewBox="0 0 16 17" fill="none" xmlns="http://www.w3.org/2000/svg">
<path fill-rule="evenodd" clip-rule="evenodd" d="M14.5879 5.53911L11.8101 8.13547C11.7559 8.1861 11.6848 8.21154 11.6137 8.21154C11.5426 8.21154 11.4715 8.1861 11.4173 8.13547C11.3087 8.03421 11.3087 7.86986 11.4173 7.76834L13.7204 5.6157H10.0582C7.39316 5.6157 5.22483 7.64242 5.22483 10.1336C5.22483 10.2769 5.10066 10.3933 4.94705 10.3933C4.79344 10.3933 4.66927 10.2769 4.66927 10.1336C4.66927 7.35604 7.08677 5.09643 10.0582 5.09643H13.7215L11.4173 2.94326C11.3087 2.84201 11.3087 2.67766 11.4173 2.57614C11.5259 2.47462 11.7015 2.47462 11.8101 2.57614L14.5879 5.17198C14.6401 5.22079 14.6693 5.28648 14.6693 5.35554C14.6693 5.42461 14.6401 5.4903 14.5879 5.53911ZM5.02122 5.6157H1.89149V13.9241H13.262V8.99097C13.262 8.84739 13.3862 8.73133 13.5398 8.73133C13.6932 8.73133 13.8176 8.84739 13.8176 8.99097V13.9241C13.8176 14.2102 13.5682 14.4433 13.262 14.4433H1.89149C1.5851 14.4433 1.33594 14.2102 1.33594 13.9241V5.6157C1.33594 5.32958 1.5851 5.09643 1.89149 5.09643H5.02122C5.17455 5.09643 5.29899 5.21248 5.29899 5.35606C5.29899 5.49964 5.17455 5.6157 5.02122 5.6157Z" fill="black"/>
</svg>
