<svg width="14" height="14" viewBox="0 0 14 14" fill="none" xmlns="http://www.w3.org/2000/svg">
<path fill-rule="evenodd" clip-rule="evenodd" d="M13.1137 13.6668H8.66927C8.36288 13.6668 8.11372 13.4177 8.11372 13.1113V8.66711C8.11372 8.36072 8.36288 8.11127 8.66927 8.11127H13.1137C13.4201 8.11127 13.6693 8.36072 13.6693 8.66711V13.1113C13.6693 13.4177 13.4201 13.6668 13.1137 13.6668ZM8.66927 8.66711V13.1113H13.1129L13.1137 8.66711H8.66927ZM13.1137 5.88905H8.66927C8.36288 5.88905 8.11372 5.63988 8.11372 5.3335V0.889052C8.11372 0.582941 8.36288 0.333496 8.66927 0.333496H13.1137C13.4201 0.333496 13.6693 0.582941 13.6693 0.889052V5.3335C13.6693 5.63988 13.4201 5.88905 13.1137 5.88905ZM8.66927 0.889052V5.3335H13.1129L13.1137 0.889052H8.66927ZM5.33594 13.6668H0.891493C0.585104 13.6668 0.335938 13.4177 0.335938 13.1113V8.66711C0.335938 8.36072 0.585104 8.11127 0.891493 8.11127H5.33594C5.64233 8.11127 5.89149 8.36072 5.89149 8.66711V13.1113C5.89149 13.4177 5.64233 13.6668 5.33594 13.6668ZM0.891493 8.66711V13.1113H5.3351L5.33594 8.66711H0.891493ZM5.33594 5.88905H0.891493C0.585104 5.88905 0.335938 5.63988 0.335938 5.3335V0.889052C0.335938 0.582941 0.585104 0.333496 0.891493 0.333496H5.33594C5.64233 0.333496 5.89149 0.582941 5.89149 0.889052V5.3335C5.89149 5.63988 5.64233 5.88905 5.33594 5.88905ZM0.891493 0.889052V5.3335H5.3351L5.33594 0.889052H0.891493Z" fill="currentColor"/>
</svg>
