<svg width="14" height="10" viewBox="0 0 14 10" fill="none" xmlns="http://www.w3.org/2000/svg">
<path fill-rule="evenodd" clip-rule="evenodd" d="M13.3915 5.27806H0.613715C0.460382 5.27806 0.335938 5.15333 0.335938 5C0.335938 4.84667 0.460382 4.72222 0.613715 4.72222H13.3915C13.5448 4.72222 13.6693 4.84667 13.6693 5C13.6693 5.15333 13.5448 5.27806 13.3915 5.27806ZM13.3915 0.555556H0.613715C0.460382 0.555556 0.335938 0.431111 0.335938 0.277778C0.335938 0.124444 0.460382 0 0.613715 0H13.3915C13.5448 0 13.6693 0.124444 13.6693 0.277778C13.6693 0.431111 13.5448 0.555556 13.3915 0.555556ZM0.613715 9.44444H13.3915C13.5448 9.44444 13.6693 9.56889 13.6693 9.72222C13.6693 9.87556 13.5448 10 13.3915 10H0.613715C0.460382 10 0.335938 9.87556 0.335938 9.72222C0.335938 9.56889 0.460382 9.44444 0.613715 9.44444Z" fill="currentColor"/>
</svg>
