<svg width="16" height="16" viewBox="0 0 16 16" fill="none" xmlns="http://www.w3.org/2000/svg">
<path fill-rule="evenodd" clip-rule="evenodd" d="M12.7206 5.22239C12.0609 5.22239 11.4787 4.89044 11.1273 4.38655L5.11481 7.39516C5.17814 7.58683 5.22092 7.78766 5.22092 8.00016C5.22092 8.21377 5.17786 8.416 5.1137 8.6085L11.1262 11.6152C11.4779 11.1104 12.0604 10.7779 12.7206 10.7779C13.7929 10.7779 14.6654 11.6504 14.6654 12.7224C14.6654 13.7946 13.7929 14.6668 12.7206 14.6668C11.6487 14.6668 10.7765 13.7946 10.7765 12.7224C10.7765 12.5091 10.8195 12.3074 10.8831 12.1149L4.87064 9.10822C4.51898 9.61239 3.93675 9.94461 3.27675 9.94461C2.20453 9.94461 1.33203 9.07211 1.33203 8.00016C1.33203 6.92794 2.20453 6.05572 3.27675 6.05572C3.93786 6.05572 4.52148 6.38905 4.87286 6.89489L10.8837 3.88683C10.8195 3.69405 10.7765 3.49183 10.7765 3.27794C10.7765 2.206 11.6487 1.3335 12.7206 1.3335C13.7929 1.3335 14.6654 2.206 14.6654 3.27794C14.6654 4.35016 13.7929 5.22239 12.7206 5.22239ZM12.7206 14.1113C13.4868 14.1113 14.1098 13.4882 14.1098 12.7224C14.1098 11.9566 13.4868 11.3335 12.7206 11.3335C11.9548 11.3335 11.332 11.9566 11.332 12.7224C11.332 13.4882 11.9548 14.1113 12.7206 14.1113ZM3.27675 6.61127C2.51064 6.61127 1.88759 7.23433 1.88759 8.00016C1.88759 8.766 2.51064 9.38905 3.27675 9.38905C4.04259 9.38905 4.66536 8.766 4.66536 8.00016C4.66536 7.23433 4.04259 6.61127 3.27675 6.61127ZM12.7206 1.88905C11.9548 1.88905 11.332 2.51211 11.332 3.27794C11.332 4.04377 11.9548 4.66683 12.7206 4.66683C13.4868 4.66683 14.1098 4.04377 14.1098 3.27794C14.1098 2.51211 13.4868 1.88905 12.7206 1.88905Z" fill="currentColor"/>
</svg>
