<svg width="16" height="16" viewBox="0 0 16 16" fill="none" xmlns="http://www.w3.org/2000/svg">
<path fill-rule="evenodd" clip-rule="evenodd" d="M14.3915 14.6673H1.61372C1.46038 14.6673 1.33594 14.5432 1.33594 14.3898V1.61204C1.33594 1.45871 1.46038 1.33398 1.61372 1.33398H14.3915C14.5448 1.33398 14.6693 1.45871 14.6693 1.61204V14.3898C14.6693 14.5432 14.5448 14.6673 14.3915 14.6673ZM14.1137 1.88982H1.89149V14.112H14.1137V1.88982ZM4.86427 7.5251L7.19649 9.82454L11.1326 5.58954C11.2368 5.47676 11.4129 5.47065 11.5251 5.5751C11.6373 5.67954 11.6437 5.85537 11.5393 5.9676L7.40844 10.4123C7.35733 10.467 7.28622 10.499 7.21122 10.5009C7.20927 10.5009 7.20705 10.5009 7.2051 10.5009C7.13205 10.5009 7.06205 10.472 7.0101 10.4206L4.47427 7.92065C4.3651 7.81315 4.36372 7.63732 4.47149 7.52787C4.57899 7.41871 4.7551 7.4176 4.86427 7.5251Z" fill="currentColor"/>
</svg>
