<svg width="16" height="16" viewBox="0 0 16 16" fill="none" xmlns="http://www.w3.org/2000/svg">
<path fill-rule="evenodd" clip-rule="evenodd" d="M14.3915 14.6673H1.61372C1.46038 14.6673 1.33594 14.5432 1.33594 14.3898V1.61204C1.33594 1.45871 1.46038 1.33398 1.61372 1.33398H14.3915C14.5448 1.33398 14.6693 1.45871 14.6693 1.61204V14.3898C14.6693 14.5432 14.5448 14.6673 14.3915 14.6673ZM14.1137 1.88982H1.89149V14.112H14.1137V1.88982ZM5.58399 5.58232C5.6926 5.47371 5.86816 5.47371 5.97677 5.58232L8.0026 7.60815L10.0284 5.58232C10.137 5.47371 10.3126 5.47371 10.4212 5.58232C10.5298 5.69065 10.5298 5.86648 10.4212 5.9751L8.39538 8.00093L10.4212 10.0268C10.5298 10.1351 10.5298 10.3109 10.4212 10.4195C10.367 10.4737 10.2959 10.5009 10.2248 10.5009C10.1537 10.5009 10.0826 10.4737 10.0284 10.4195L8.0026 8.39371L5.97677 10.4195C5.9226 10.4737 5.85149 10.5009 5.78038 10.5009C5.70927 10.5009 5.63816 10.4737 5.58399 10.4195C5.47538 10.3109 5.47538 10.1351 5.58399 10.0268L7.60983 8.00093L5.58399 5.9751C5.47538 5.86648 5.47538 5.69065 5.58399 5.58232Z" fill="currentColor"/>
</svg>
