<svg width="14" height="14" viewBox="0 0 14 14" fill="none" xmlns="http://www.w3.org/2000/svg">
<path fill-rule="evenodd" clip-rule="evenodd" d="M13.588 13.5853C13.5337 13.6394 13.4628 13.6667 13.3915 13.6667C13.3205 13.6667 13.2496 13.6394 13.1953 13.5853L8.66447 9.05445C7.7794 9.84695 6.6149 10.3336 5.33601 10.3336C2.57894 10.3336 0.335938 8.09028 0.335938 5.33334C0.335938 2.57639 2.57894 0.333336 5.33601 0.333336C8.09335 0.333336 10.3366 2.57639 10.3366 5.33334C10.3366 6.61195 9.84985 7.77639 9.05746 8.66167L13.588 13.1925C13.6965 13.3011 13.6965 13.4769 13.588 13.5853ZM5.33601 0.889169C2.88537 0.889169 0.89147 2.8825 0.89147 5.33334C0.89147 7.78417 2.88537 9.77806 5.33601 9.77806C7.78692 9.77806 9.7811 7.78417 9.7811 5.33334C9.7811 2.8825 7.78692 0.889169 5.33601 0.889169Z" fill="black"/>
</svg>
