<svg width="16" height="16" viewBox="0 0 16 16" fill="none" xmlns="http://www.w3.org/2000/svg">
<path fill-rule="evenodd" clip-rule="evenodd" d="M12.7245 5.72223C12.0648 5.72223 11.4826 5.39029 11.1312 4.8864L5.11872 7.89501C5.18205 8.08668 5.22483 8.28751 5.22483 8.50001C5.22483 8.71362 5.18177 8.91584 5.1176 9.10834L11.1301 12.115C11.4818 11.6103 12.0643 11.2778 12.7245 11.2778C13.7968 11.2778 14.6693 12.1503 14.6693 13.2222C14.6693 14.2945 13.7968 15.1667 12.7245 15.1667C11.6526 15.1667 10.7804 14.2945 10.7804 13.2222C10.7804 13.0089 10.8234 12.8072 10.887 12.6147L4.87455 9.60807C4.52288 10.1122 3.94066 10.4445 3.28066 10.4445C2.20844 10.4445 1.33594 9.57196 1.33594 8.50001C1.33594 7.42779 2.20844 6.55557 3.28066 6.55557C3.94177 6.55557 4.52538 6.8889 4.87677 7.39473L10.8876 4.38668C10.8234 4.1939 10.7804 3.99168 10.7804 3.77779C10.7804 2.70584 11.6526 1.83334 12.7245 1.83334C13.7968 1.83334 14.6693 2.70584 14.6693 3.77779C14.6693 4.85001 13.7968 5.72223 12.7245 5.72223ZM12.7245 14.6111C13.4907 14.6111 14.1137 13.9881 14.1137 13.2222C14.1137 12.4564 13.4907 11.8333 12.7245 11.8333C11.9587 11.8333 11.3359 12.4564 11.3359 13.2222C11.3359 13.9881 11.9587 14.6111 12.7245 14.6111ZM3.28066 7.11112C2.51455 7.11112 1.89149 7.73418 1.89149 8.50001C1.89149 9.26584 2.51455 9.8889 3.28066 9.8889C4.04649 9.8889 4.66927 9.26584 4.66927 8.50001C4.66927 7.73418 4.04649 7.11112 3.28066 7.11112ZM12.7245 2.3889C11.9587 2.3889 11.3359 3.01195 11.3359 3.77779C11.3359 4.54362 11.9587 5.16668 12.7245 5.16668C13.4907 5.16668 14.1137 4.54362 14.1137 3.77779C14.1137 3.01195 13.4907 2.3889 12.7245 2.3889Z" fill="currentColor"/>
</svg>
