<svg width="40" height="40" viewBox="0 0 40 40" fill="none" xmlns="http://www.w3.org/2000/svg">
<path fill-rule="evenodd" clip-rule="evenodd" d="M20.0004 40C8.97269 40 0 31.0281 0 20.0004C0 8.97185 8.97269 0 20.0004 0C31.0281 0 40.0008 8.97185 40.0008 20.0004C40.0008 31.0281 31.0281 40 20.0004 40ZM31.6248 34.1649C29.5389 29.6681 24.9247 26.6664 20.0154 26.6664C15.1003 26.6664 10.4811 29.6756 8.39767 34.1815C11.5611 36.7741 15.6012 38.3333 20.0004 38.3333C24.4097 38.3333 28.4589 36.7683 31.6248 34.1649ZM20.0963 24.1672C24.1788 24.1672 27.5006 20.8021 27.5006 16.6662C27.5006 12.5311 24.1788 9.16686 20.0963 9.16686C16.0137 9.16686 12.6928 12.5311 12.6928 16.6662C12.6928 20.8021 16.0137 24.1672 20.0963 24.1672ZM20.0004 1.6667C9.89104 1.6667 1.6667 9.89104 1.6667 20.0004C1.6667 25.0864 3.75091 29.6923 7.10765 33.0165C9.10936 29.0689 12.8669 26.223 17.1162 25.3147C13.5761 24.0647 11.0261 20.6654 11.0261 16.6662C11.0261 11.6119 15.0945 7.50016 20.0963 7.50016C25.098 7.50016 29.1673 11.6119 29.1673 16.6662C29.1673 20.6863 26.5906 24.1022 23.0213 25.3355C27.2206 26.2664 30.9273 29.0923 32.914 32.9982C36.2591 29.6748 38.3341 25.0764 38.3341 20.0004C38.3341 9.89104 30.1098 1.6667 20.0004 1.6667Z" fill="#fff"/>
</svg>
