<svg width="16" height="16" viewBox="0 0 16 16" fill="none" xmlns="http://www.w3.org/2000/svg">
<path fill-rule="evenodd" clip-rule="evenodd" d="M14.1108 8.55556H12.1186L12.8369 9.27389C13.0541 9.49111 13.0541 9.84222 12.8369 10.0594C12.7286 10.1678 12.5863 10.2222 12.4441 10.2222C12.3019 10.2222 12.1597 10.1678 12.0513 10.0594L10.3847 8.39278C10.3836 8.39167 10.3836 8.39056 10.3825 8.38944C10.3325 8.33889 10.2925 8.27889 10.2647 8.21222C10.2086 8.07667 10.2086 7.92333 10.2647 7.78778C10.293 7.71944 10.3341 7.65778 10.3852 7.60667L12.0513 5.94056C12.2686 5.72333 12.6197 5.72333 12.8369 5.94056C13.0541 6.15722 13.0541 6.50889 12.8369 6.72611L12.1186 7.44444H14.1108C14.4175 7.44444 14.6663 7.69333 14.6663 8C14.6663 8.30667 14.4175 8.55556 14.1108 8.55556ZM8.55523 13H1.88856C1.5819 13 1.33301 12.7511 1.33301 12.4444C1.33301 12.1378 1.5819 11.8889 1.88856 11.8889H8.55523C8.8619 11.8889 9.11079 12.1378 9.11079 12.4444C9.11079 12.7511 8.8619 13 8.55523 13ZM8.55523 10.7778H2.99967C2.69301 10.7778 2.44412 10.5289 2.44412 10.2222C2.44412 9.91556 2.69301 9.66667 2.99967 9.66667H8.55523C8.8619 9.66667 9.11079 9.91556 9.11079 10.2222C9.11079 10.5289 8.8619 10.7778 8.55523 10.7778ZM8.55523 8.55556H1.88856C1.5819 8.55556 1.33301 8.30667 1.33301 8C1.33301 7.69333 1.5819 7.44444 1.88856 7.44444H8.55523C8.8619 7.44444 9.11079 7.69333 9.11079 8C9.11079 8.30667 8.8619 8.55556 8.55523 8.55556ZM8.55523 6.33333H2.99967C2.69301 6.33333 2.44412 6.08444 2.44412 5.77778C2.44412 5.47111 2.69301 5.22222 2.99967 5.22222H8.55523C8.8619 5.22222 9.11079 5.47111 9.11079 5.77778C9.11079 6.08444 8.8619 6.33333 8.55523 6.33333ZM8.55523 4.11111H1.88856C1.5819 4.11111 1.33301 3.86222 1.33301 3.55556C1.33301 3.24889 1.5819 3 1.88856 3H8.55523C8.8619 3 9.11079 3.24889 9.11079 3.55556C9.11079 3.86222 8.8619 4.11111 8.55523 4.11111Z" fill="black"/>
</svg>
