<svg width="16" height="16" viewBox="0 0 16 16" fill="none" xmlns="http://www.w3.org/2000/svg">
<path fill-rule="evenodd" clip-rule="evenodd" d="M14.1108 8.55556H7.44412C7.13745 8.55556 6.88856 8.30667 6.88856 8C6.88856 7.69333 7.13745 7.44444 7.44412 7.44444H14.1108C14.4175 7.44444 14.6663 7.69333 14.6663 8C14.6663 8.30667 14.4175 8.55556 14.1108 8.55556ZM7.44412 5.22222H12.9997C13.3063 5.22222 13.5552 5.47111 13.5552 5.77778C13.5552 6.08444 13.3063 6.33333 12.9997 6.33333H7.44412C7.13745 6.33333 6.88856 6.08444 6.88856 5.77778C6.88856 5.47111 7.13745 5.22222 7.44412 5.22222ZM14.1108 4.11111H7.44412C7.13745 4.11111 6.88856 3.86222 6.88856 3.55556C6.88856 3.24889 7.13745 3 7.44412 3H14.1108C14.4175 3 14.6663 3.24889 14.6663 3.55556C14.6663 3.86222 14.4175 4.11111 14.1108 4.11111ZM5.73467 8.21222C5.7069 8.27889 5.6669 8.33889 5.6169 8.38944C5.61579 8.39056 5.61579 8.39167 5.61467 8.39278L3.94801 10.0594C3.83967 10.1678 3.69745 10.2222 3.55523 10.2222C3.41301 10.2222 3.27079 10.1678 3.16245 10.0594C2.94523 9.84222 2.94523 9.49111 3.16245 9.27389L3.88079 8.55556H1.88856C1.5819 8.55556 1.33301 8.30667 1.33301 8C1.33301 7.69333 1.5819 7.44444 1.88856 7.44444H3.88079L3.16245 6.72611C2.94523 6.50889 2.94523 6.15722 3.16245 5.94056C3.37967 5.72333 3.73079 5.72333 3.94801 5.94056L5.61412 7.60667C5.66523 7.65778 5.70634 7.71944 5.73467 7.78778C5.79079 7.92333 5.79079 8.07667 5.73467 8.21222ZM7.44412 9.66667H12.9997C13.3063 9.66667 13.5552 9.91556 13.5552 10.2222C13.5552 10.5289 13.3063 10.7778 12.9997 10.7778H7.44412C7.13745 10.7778 6.88856 10.5289 6.88856 10.2222C6.88856 9.91556 7.13745 9.66667 7.44412 9.66667ZM7.44412 11.8889H14.1108C14.4175 11.8889 14.6663 12.1378 14.6663 12.4444C14.6663 12.7511 14.4175 13 14.1108 13H7.44412C7.13745 13 6.88856 12.7511 6.88856 12.4444C6.88856 12.1378 7.13745 11.8889 7.44412 11.8889Z" fill="black"/>
</svg>
