<svg width="24" height="24" viewBox="0 0 24 24" fill="currentColor" xmlns="http://www.w3.org/2000/svg">
<path fill-rule="evenodd" clip-rule="evenodd" d="M19.0695 19.0712C17.1806 20.96 14.6688 22 11.9973 22C9.32532 22 6.81358 20.96 4.92464 19.0712C1.02512 15.1717 1.02512 8.82792 4.92464 4.92917C6.81358 3.04042 9.32532 2 11.9973 2C14.6688 2 17.1806 3.04042 19.0695 4.92917C20.9593 6.8175 21.9998 9.32875 21.9998 12C21.9998 14.6712 20.9593 17.1829 19.0695 19.0712ZM18.4802 5.51875C16.7486 3.78708 14.4461 2.83333 11.9973 2.83333C9.54802 2.83333 7.24555 3.78708 5.51388 5.51833C1.9394 9.09208 1.9394 14.9075 5.51388 18.4821C7.24555 20.2133 9.54802 21.1671 11.9973 21.1671C14.4461 21.1671 16.7486 20.2133 18.4802 18.4821C20.2123 16.7508 21.1665 14.4487 21.1665 12C21.1665 9.55125 20.2123 7.24958 18.4802 5.51875ZM13.2479 17.8333H10.7475C10.5172 17.8333 10.3306 17.6467 10.3306 17.4167C10.3306 17.1867 10.5172 17 10.7475 17H11.5808V11.1671H10.7475C10.5172 11.1671 10.3306 10.9808 10.3306 10.75C10.3306 10.52 10.5172 10.3337 10.7475 10.3337H11.9977C12.2279 10.3337 12.4146 10.52 12.4146 10.75V17H13.2479C13.4782 17 13.6648 17.1867 13.6648 17.4167C13.6648 17.6467 13.4782 17.8333 13.2479 17.8333ZM11.9977 8.66708C11.3082 8.66708 10.7475 8.10625 10.7475 7.41708C10.7475 6.72792 11.3082 6.16667 11.9977 6.16667C12.6872 6.16667 13.2479 6.72792 13.2479 7.41708C13.2479 8.10625 12.6872 8.66708 11.9977 8.66708ZM11.9977 7.00042C11.7679 7.00042 11.5808 7.18708 11.5808 7.41708C11.5808 7.64667 11.7679 7.83375 11.9977 7.83375C12.2275 7.83375 12.4146 7.64667 12.4146 7.41708C12.4146 7.18708 12.2275 7.00042 11.9977 7.00042Z" fill="currentColor"/>
</svg>
