<svg width="16" height="16" viewBox="0 0 16 16" fill="currentColor" xmlns="http://www.w3.org/2000/svg">
<path fill-rule="evenodd" clip-rule="evenodd" d="M12.7127 12.7142C11.4534 13.9734 9.77888 14.6667 7.99786 14.6667C6.21656 14.6667 4.54206 13.9734 3.28277 12.7142C0.683089 10.1145 0.683089 5.88532 3.28277 3.28615C4.54206 2.02699 6.21656 1.33337 7.99786 1.33337C9.77888 1.33337 11.4534 2.02699 12.7127 3.28615C13.9725 4.54504 14.6662 6.21921 14.6662 8.00004C14.6662 9.78087 13.9725 11.4553 12.7127 12.7142ZM12.3198 3.67921C11.1654 2.52476 9.63042 1.88893 7.99786 1.88893C6.36502 1.88893 4.83005 2.52476 3.6756 3.67893C1.29261 6.06143 1.29261 9.93837 3.6756 12.3214C4.83005 13.4756 6.36502 14.1114 7.99786 14.1114C9.63042 14.1114 11.1654 13.4756 12.3198 12.3214C13.4746 11.1673 14.1106 9.63254 14.1106 8.00004C14.1106 6.36754 13.4746 4.8331 12.3198 3.67921ZM8.83161 11.8889H7.16467C7.01117 11.8889 6.88675 11.7645 6.88675 11.6112C6.88675 11.4578 7.01117 11.3334 7.16467 11.3334H7.72022V7.44476H7.16467C7.01117 7.44476 6.88675 7.3206 6.88675 7.16671C6.88675 7.01337 7.01117 6.88921 7.16467 6.88921H7.99814C8.15164 6.88921 8.27606 7.01337 8.27606 7.16671V11.3334H8.83161C8.98511 11.3334 9.10953 11.4578 9.10953 11.6112C9.10953 11.7645 8.98511 11.8889 8.83161 11.8889ZM7.99814 5.7781C7.53848 5.7781 7.16467 5.40421 7.16467 4.94476C7.16467 4.48532 7.53848 4.11115 7.99814 4.11115C8.45779 4.11115 8.83161 4.48532 8.83161 4.94476C8.83161 5.40421 8.45779 5.7781 7.99814 5.7781ZM7.99814 4.66699C7.84492 4.66699 7.72022 4.79143 7.72022 4.94476C7.72022 5.09782 7.84492 5.22254 7.99814 5.22254C8.15136 5.22254 8.27606 5.09782 8.27606 4.94476C8.27606 4.79143 8.15136 4.66699 7.99814 4.66699Z" fill="currentColor"/>
</svg>
