<svg width="20" height="20" viewBox="0 0 20 20" fill="none" xmlns="http://www.w3.org/2000/svg">
<path fill-rule="evenodd" clip-rule="evenodd" d="M9.99952 18.3333C5.40464 18.3333 1.66602 14.5951 1.66602 9.99983C1.66602 5.40494 5.40464 1.66667 9.99952 1.66667C14.5944 1.66667 18.333 5.40494 18.333 9.99983C18.333 14.5951 14.5944 18.3333 9.99952 18.3333ZM16.607 13.8214C17.2063 12.7912 17.5695 11.6092 17.6268 10.3474H14.4986C14.4625 11.5631 14.2479 12.7301 13.8611 13.8194H16.5969C16.6004 13.8194 16.6035 13.8214 16.607 13.8214ZM10.3468 9.6526H13.8031C13.7638 8.4307 13.5302 7.26297 13.1149 6.18066H10.3468V9.6526ZM16.1479 14.5138H13.5829C13.1152 15.5864 12.4857 16.5774 11.6867 17.4451C13.5055 17.033 15.0757 15.9677 16.1479 14.5138ZM10.3468 17.6215C10.4086 17.6174 10.4707 17.6163 10.5325 17.6121C11.5062 16.7298 12.268 15.6777 12.819 14.5138H10.3468V17.6215ZM13.1149 13.8194C13.5302 12.737 13.7638 11.5693 13.8031 10.3474H10.3468V13.8194H13.1149ZM9.65229 10.3474H6.19597C6.23521 11.5697 6.46855 12.737 6.88349 13.8194H9.65229V10.3474ZM9.65229 17.6215V14.5138H7.17933C7.73003 15.6777 8.4915 16.7298 9.46444 17.6121C9.5266 17.6163 9.58979 17.6174 9.65229 17.6215ZM8.31407 17.4455C7.5269 16.584 6.89946 15.5888 6.43035 14.5138H3.85113C4.92372 15.968 6.49459 17.0337 8.31407 17.4455ZM3.40216 13.8194H6.15083C5.75846 12.7221 5.53832 11.5513 5.50082 10.3474H2.37228C2.42957 11.6092 2.79278 12.7912 3.39209 13.8214C3.39557 13.8214 3.39869 13.8194 3.40216 13.8194ZM3.39209 6.17857C2.79278 7.2088 2.42957 8.39077 2.37228 9.6526H5.50047C5.53658 8.4373 5.75117 7.26991 6.13833 6.18066H3.40216C3.39869 6.18066 3.39557 6.17857 3.39209 6.17857ZM3.85113 5.4862H6.41646C6.88453 4.4136 7.5144 3.42261 8.31372 2.55488C6.49424 2.9667 4.92372 4.03235 3.85113 5.4862ZM9.65229 2.37849C9.59118 2.38266 9.52903 2.3837 9.46791 2.38787C8.49394 3.27018 7.73177 4.32263 7.18071 5.4862H9.65229V2.37849ZM6.88453 6.18066C6.46889 7.26297 6.23521 8.4307 6.19597 9.6526H9.65229V6.18066H6.88453ZM10.3468 2.37884V5.4862H12.819C12.268 4.32228 11.5058 3.27018 10.5322 2.38821C10.4707 2.3837 10.4082 2.38266 10.3468 2.37884ZM11.6867 2.55523C12.4857 3.42296 13.1156 4.4136 13.5833 5.4862H16.1479C15.0757 4.03269 13.5055 2.96739 11.6867 2.55523ZM16.5969 6.18066H13.8611C14.2482 7.26991 14.4625 8.43695 14.4986 9.6526H17.6268C17.5695 8.39077 17.2063 7.2088 16.6066 6.17857C16.6031 6.17857 16.6004 6.18066 16.5969 6.18066Z" fill="black"/>
</svg>
