<svg width="16" height="16" viewBox="0 0 16 16" fill="none" xmlns="http://www.w3.org/2000/svg">
<path d="M5.4852 8.03965C4.86908 7.35453 4.34881 6.61337 3.92971 5.83398H4.15935C4.56046 6.56542 5.05031 7.26151 5.62897 7.9024L6.00068 8.31408L6.37173 7.9018C7.37709 6.78473 8.11761 5.50652 8.58576 4.15796L8.81626 3.49398H8.11342H1.16675V3.16732H5.33342H5.83342V2.66732V1.83398H6.16675V2.66732V3.16732H6.66675H10.8334V3.50065H9.38008H9.01137L8.90241 3.8529C8.43807 5.35406 7.65007 6.77346 6.54349 8.01014L6.53319 8.02044L6.17754 8.3761L6.5353 8.72963L7.99867 10.1757L7.8766 10.5034L6.35364 8.98043L6.00008 8.62688L5.64653 8.98043L2.66675 11.9602L2.42965 11.7231L5.46451 8.72998L5.80448 8.39469L5.4852 8.03965ZM10.0801 12.1673H9.73304L9.61166 12.4924L8.98637 14.1673H8.72158L11.3466 7.16732H11.6118L11.1985 8.27211L10.1185 11.1588L9.86583 11.834H10.5867H12.7467H13.4677L13.215 11.1588L12.135 8.27211L11.7217 7.16732H11.9869L14.6119 14.1673H14.346L13.7147 12.4911L13.5927 12.1673H13.2467H10.0801Z" fill="black" stroke="black"/>
</svg>
