<svg width="24" height="24" viewBox="0 0 24 24" fill="none" xmlns="http://www.w3.org/2000/svg">
<path d="M8.04202 12.2266C7.00818 11.0769 6.1512 9.82297 5.48229 8.5009H6.38793C6.99328 9.62893 7.74032 10.7016 8.62914 11.686L9.00084 12.0977L9.37189 11.6854C10.8573 10.035 11.9511 8.14676 12.6426 6.15487L12.8731 5.4909H12.1702H1.50024V4.5009H8.00024H8.50024V4.0009V2.5009H9.50024V4.0009V4.5009H10.0002H16.5002V5.5009H14.0702H13.7015L13.5926 5.85314C12.8849 8.14096 11.6836 10.3037 9.99701 12.187L9.97669 12.2073L9.62104 12.563L9.9788 12.9165L12.2888 15.1993L11.9134 16.207L9.3538 13.6473L9.00024 13.2938L8.64669 13.6473L4.00024 18.2938L3.28981 17.5834L8.02134 12.9169L8.3613 12.5816L8.04202 12.2266ZM15.1202 18.5009H14.7732L14.6518 18.826L13.6532 21.5009H12.7217L16.8467 10.5009H18.1537L22.2787 21.5009H21.3462L20.3382 18.8247L20.2162 18.5009H19.8702H15.1202ZM15.4119 16.8257L15.1593 17.5009H15.8802H19.1202H19.8412L19.5885 16.8257L17.9685 12.4957L17.5002 11.244L17.0319 12.4957L15.4119 16.8257Z" fill="white" stroke="white"/>
</svg>
