<svg width="24" height="24" viewBox="0 0 24 24" fill="none" xmlns="http://www.w3.org/2000/svg">
<path fill-rule="evenodd" clip-rule="evenodd" d="M21.9458 11.6393C21.9512 11.6497 21.9608 11.6577 21.9654 11.6685C21.9875 11.7191 22 11.7747 22 11.8333C22 11.8918 21.9875 11.9475 21.9654 11.998C21.9617 12.0072 21.9533 12.0139 21.9487 12.0231C21.9275 12.0633 21.9037 12.1013 21.8713 12.1327C21.8696 12.1344 21.8687 12.1369 21.8671 12.1386L16.0337 17.555C15.9533 17.6299 15.8517 17.6667 15.75 17.6667C15.6379 17.6667 15.5267 17.6215 15.445 17.5333C15.2883 17.3648 15.2979 17.1009 15.4662 16.9445L20.5221 12.2498H2.41667C2.18625 12.2498 2 12.0633 2 11.8333C2 11.6033 2.18625 11.4164 2.41667 11.4164H20.5221L15.4662 6.72208C15.2979 6.56527 15.2883 6.30183 15.445 6.13331C15.6008 5.96437 15.865 5.95476 16.0337 6.11157L21.8671 11.5276C21.8692 11.5297 21.8696 11.5322 21.8717 11.5343C21.9025 11.5644 21.9254 11.6008 21.9458 11.6393Z" fill="#BFBFBF"/>
</svg>
