<svg width="24" height="24" viewBox="0 0 24 24" fill="none" xmlns="http://www.w3.org/2000/svg">
<path fill-rule="evenodd" clip-rule="evenodd" d="M21.9366 11.5143C22.0211 11.718 22.0211 11.9478 21.9366 12.1524C21.8948 12.2538 21.8346 12.3452 21.7576 12.4215V12.4223L16.7569 17.4227C16.5938 17.5853 16.3813 17.6667 16.168 17.6667C15.9547 17.6667 15.7414 17.5853 15.5783 17.4227C15.2529 17.0974 15.2529 16.5692 15.5783 16.2439L19.1561 12.6663H2.834C2.37309 12.6663 2 12.2932 2 11.8329C2 11.3726 2.37309 11.0004 2.834 11.0004H19.1561L15.5783 7.42281C15.2529 7.0975 15.2529 6.56929 15.5783 6.24398C15.9037 5.91867 16.4315 5.91867 16.7569 6.24398L21.7576 11.2443C21.7576 11.2443 21.7576 11.2443 21.7576 11.2452C21.8346 11.3215 21.8948 11.4129 21.9366 11.5143Z" fill="#ffffff"/>
</svg>
