<svg xmlns="http://www.w3.org/2000/svg" width="16" height="16" viewBox="0 0 16 16" fill="none">
  <path fill-rule="evenodd" clip-rule="evenodd" d="M14.3895 13.2777H11.3343V14.3888C11.3343 14.5427 11.2098 14.6668 11.0565 14.6668H1.61176C1.45843 14.6668 1.33398 14.5427 1.33398 14.3888V11.6113C1.33398 11.4577 1.45843 11.3332 1.61176 11.3332H11.0565C11.2098 11.3332 11.3343 11.4577 11.3343 11.6113V12.7224H14.1118V8.8335H11.3343V9.94461C11.3343 10.0979 11.2098 10.2224 11.0565 10.2224H1.61176C1.45843 10.2224 1.33398 10.0979 1.33398 9.94461V7.16683C1.33398 7.01322 1.45843 6.88905 1.61176 6.88905H11.0565C11.2098 6.88905 11.3343 7.01322 11.3343 7.16683V8.27794H14.1118V4.38905H11.3343V5.49989C11.3343 5.6535 11.2098 5.77794 11.0565 5.77794H1.61176C1.45843 5.77794 1.33398 5.6535 1.33398 5.49989V2.72239C1.33398 2.56877 1.45843 2.44433 1.61176 2.44433H11.0565C11.2098 2.44433 11.3343 2.56877 11.3343 2.72239V3.83322H14.1118V1.611C14.1118 1.45766 14.2362 1.3335 14.3895 1.3335C14.5429 1.3335 14.6673 1.45766 14.6673 1.611V12.9999C14.6673 13.1535 14.5429 13.2777 14.3895 13.2777ZM10.7787 11.8891H1.88954V14.1113H10.7787V11.8891ZM10.7787 7.44433H1.88954V9.66683H10.7787V7.44433ZM10.7787 3.00016H1.88954V5.22239H10.7787V3.00016Z" fill="black"/>
</svg>