<svg width="16" height="16" viewBox="0 0 16 16" fill="none" xmlns="http://www.w3.org/2000/svg">
<path fill-rule="evenodd" clip-rule="evenodd" d="M13.6587 7.21745L11.1049 9.76801C10.4543 10.4191 9.58865 10.7775 8.66815 10.7775C7.74764 10.7775 6.88257 10.4186 6.23194 9.76745C6.05277 9.58745 5.82376 9.27856 5.5858 8.9519L5.5354 8.88245C5.35455 8.63467 5.40886 8.28745 5.65747 8.1069C5.90607 7.92579 6.2549 7.98023 6.43519 8.22856L6.48671 8.29856C6.62725 8.49134 6.88817 8.84967 7.02143 8.98356C7.46096 9.42356 8.04608 9.66634 8.66815 9.66634C9.29078 9.66634 9.87589 9.42356 10.3165 8.98301L12.8709 6.43245C13.7808 5.52245 13.7808 4.03967 12.8703 3.12801C12.4302 2.6869 11.8451 2.44467 11.2225 2.44412C10.5999 2.44412 10.0142 2.6869 9.5741 3.12801L8.21909 4.51023C8.00464 4.73023 7.6519 4.73412 7.43185 4.51912C7.21236 4.30523 7.20788 3.95356 7.42345 3.73356L8.78125 2.34745C9.43636 1.6919 10.3014 1.33301 11.2225 1.33301C12.143 1.33356 13.0086 1.6919 13.6593 2.34356C15.0014 3.68801 15.0014 5.87412 13.6587 7.21745ZM9.76671 6.23245C9.94644 6.41245 10.1749 6.72134 10.4134 7.04856L10.4638 7.11745C10.6447 7.36523 10.5903 7.71245 10.3417 7.89301C10.0931 8.07467 9.74487 8.01967 9.56346 7.7719L9.5125 7.70079C9.37197 7.50856 9.11104 7.15023 8.97778 7.01634C8.53769 6.57579 7.95257 6.33356 7.3305 6.33356C6.70787 6.33356 6.12332 6.57579 5.68266 7.0169L3.12832 9.56745C2.21845 10.478 2.21845 11.9602 3.12888 12.8719C3.56897 13.3119 4.15409 13.5552 4.77672 13.5552C5.39934 13.5552 5.98502 13.3119 6.42568 12.8719L7.78012 11.4891C7.99513 11.2702 8.34731 11.2663 8.56736 11.4808C8.78685 11.6952 8.79077 12.0469 8.57576 12.2663L7.2174 13.6525C6.56285 14.3075 5.69778 14.6663 4.77672 14.6663C3.85565 14.6663 2.99058 14.3069 2.33995 13.6563C0.997267 12.3119 0.997267 10.1258 2.34051 8.78245L4.8943 6.2319C5.54492 5.58079 6.41 5.22245 7.3305 5.22245C8.25101 5.22245 9.11608 5.58079 9.76671 6.23245Z" fill="black"/>
</svg>
