<svg width="20" height="20" viewBox="0 0 20 20" fill="currentColor" xmlns="http://www.w3.org/2000/svg">
<path fill-rule="evenodd" clip-rule="evenodd" d="M17.986 10.5365H8.2367C8.04484 10.5365 7.91671 10.4003 7.91671 10.2084C7.91671 10.0165 8.04484 9.83955 8.2367 9.83955H17.986C18.1779 9.83955 18.3332 10.0165 18.3332 10.2084C18.3332 10.4003 18.1779 10.5365 17.986 10.5365ZM17.986 4.96339H8.2367C8.04484 4.96339 7.91671 4.84462 7.91671 4.65271C7.91671 4.46115 8.04484 4.2668 8.2367 4.2668H17.986C18.1779 4.2668 18.3332 4.46115 18.3332 4.65271C18.3332 4.84462 18.1779 4.96339 17.986 4.96339ZM3.74992 17.5C2.60124 17.5 1.66669 16.5652 1.66669 15.4168C1.66669 14.2678 2.60124 13.3333 3.74992 13.3333C4.8986 13.3333 5.83314 14.2678 5.83314 15.4168C5.83314 16.5652 4.8986 17.5 3.74992 17.5ZM3.74992 14.0278C2.98425 14.0278 2.36099 14.6506 2.36099 15.4168C2.36099 16.1824 2.98425 16.8055 3.74992 16.8055C4.51594 16.8055 5.13885 16.1824 5.13885 15.4168C5.13885 14.6506 4.51594 14.0278 3.74992 14.0278ZM3.74992 12.2916C2.60124 12.2916 1.66669 11.3571 1.66669 10.2084C1.66669 9.05971 2.60124 8.12488 3.74992 8.12488C4.8986 8.12488 5.83314 9.05971 5.83314 10.2084C5.83314 11.3571 4.8986 12.2916 3.74992 12.2916ZM3.74992 8.81939C2.98425 8.81939 2.36099 9.44249 2.36099 10.2084C2.36099 10.9743 2.98425 11.5974 3.74992 11.5974C4.51594 11.5974 5.13885 10.9743 5.13885 10.2084C5.13885 9.44249 4.51594 8.81939 3.74992 8.81939ZM3.85403 6.23885C3.78683 6.33638 3.67819 6.38897 3.56781 6.38897C3.50235 6.38897 3.4362 6.37051 3.3777 6.3322L1.82338 5.31099C1.66286 5.2058 1.6183 4.99056 1.72345 4.82999C1.82895 4.66978 2.04483 4.62519 2.2043 4.73038L3.4752 5.56525L5.20048 3.06657C5.30911 2.90914 5.52499 2.86908 5.68342 2.9781C5.84115 3.08711 5.88084 3.30341 5.77186 3.46084L3.85403 6.23885ZM8.26386 15.0692H17.986C18.1779 15.0692 18.3332 15.2249 18.3332 15.4168C18.3332 15.608 18.1779 15.7637 17.986 15.7637H8.26386C8.072 15.7637 7.91671 15.608 7.91671 15.4168C7.91671 15.2249 8.072 15.0692 8.26386 15.0692Z" fill="currentColor"/>
</svg>
