<svg width="20" height="20" viewBox="0 0 20 20" fill="currentColor" xmlns="http://www.w3.org/2000/svg">
<path fill-rule="evenodd" clip-rule="evenodd" d="M18.2738 17.3475C18.2088 17.4427 18.1016 17.5 17.9861 17.5H2.01374C1.89857 17.5 1.79106 17.4427 1.72634 17.3475C1.66197 17.2517 1.64875 17.1305 1.69155 17.0236L3.77468 11.8152C3.82757 11.6836 3.95527 11.5972 4.09723 11.5972H5.83346C6.02518 11.5972 6.18071 11.7527 6.18071 11.9444C6.18071 12.1361 6.02518 12.2916 5.83346 12.2916H4.33209L2.52661 16.8055H17.4735L15.6677 12.2916H14.1667C13.9746 12.2916 13.8195 12.1361 13.8195 11.9444C13.8195 11.7527 13.9746 11.5972 14.1667 11.5972H15.9029C16.0449 11.5972 16.1722 11.6836 16.2251 11.8152L18.3086 17.0236C18.3514 17.1305 18.3382 17.2517 18.2738 17.3475ZM10.2127 14.6493C10.1504 14.6979 10.0749 14.7222 10.0001 14.7222C9.92492 14.7222 9.84977 14.6979 9.78749 14.6493C9.61178 14.5132 5.48622 11.2708 5.48622 7.45308C5.48622 4.9517 7.51124 2.91663 10.0001 2.91663C12.4889 2.91663 14.5139 4.9517 14.5139 7.45308C14.5139 11.2708 10.3884 14.5132 10.2127 14.6493ZM10.0001 3.61107C7.89398 3.61107 6.18071 5.33433 6.18071 7.45308C6.18071 10.4642 9.1671 13.2163 10.0001 13.925C10.832 13.2159 13.8195 10.4593 13.8195 7.45308C13.8195 5.33433 12.1062 3.61107 10.0001 3.61107ZM7.9166 7.43052C7.9166 6.28156 8.85117 5.34718 10.0001 5.34718C11.149 5.34718 12.0832 6.28156 12.0832 7.43052C12.0832 8.57913 11.149 9.51385 10.0001 9.51385C8.85117 9.51385 7.9166 8.57913 7.9166 7.43052ZM11.3887 7.43052C11.3887 6.66454 10.7659 6.04163 10.0001 6.04163C9.23391 6.04163 8.61109 6.66454 8.61109 7.43052C8.61109 8.19614 9.23391 8.8194 10.0001 8.8194C10.7659 8.8194 11.3887 8.19614 11.3887 7.43052Z" fill="currentColor"/>
</svg>
