<svg width="20" height="20" viewBox="0 0 20 20" fill="none" xmlns="http://www.w3.org/2000/svg">
<path d="M10.0613 14.0872C10.0591 14.0596 10.0198 13.3987 10.7429 12.813C11.1746 12.4632 11.3587 12.0879 11.3587 11.5581C11.3587 10.6989 10.6801 10 9.8459 10C8.99812 10 8.33398 10.6646 8.33398 11.5128C8.33398 11.632 8.43078 11.7288 8.55004 11.7288C8.6693 11.7288 8.76608 11.632 8.76608 11.5128C8.76608 10.9068 9.24031 10.4321 9.8459 10.4321C10.4418 10.4321 10.9266 10.9372 10.9266 11.5581C10.9266 11.954 10.7989 12.2117 10.4709 12.4774C9.56136 13.214 9.62747 14.0872 9.63071 14.124C9.64065 14.2361 9.73463 14.3201 9.84547 14.3201C9.8513 14.3201 9.85735 14.3199 9.86318 14.3195C9.98136 14.31 10.0699 14.2058 10.0613 14.0872Z" fill="white"/>
<path d="M10.278 15.4012C10.278 15.1629 10.0842 14.9689 9.8459 14.9689C9.6076 14.9689 9.4138 15.1629 9.4138 15.4012C9.4138 15.6393 9.6076 15.8333 9.8459 15.8333C10.0842 15.8333 10.278 15.6393 10.278 15.4012Z" fill="white"/>
<path d="M10.0613 14.0872C10.0591 14.0596 10.0198 13.3987 10.7429 12.813C11.1746 12.4632 11.3587 12.0879 11.3587 11.5581C11.3587 10.6989 10.6801 10 9.8459 10C8.99812 10 8.33398 10.6646 8.33398 11.5128C8.33398 11.632 8.43078 11.7288 8.55004 11.7288C8.6693 11.7288 8.76608 11.632 8.76608 11.5128C8.76608 10.9068 9.24031 10.4321 9.8459 10.4321C10.4418 10.4321 10.9266 10.9372 10.9266 11.5581C10.9266 11.954 10.7989 12.2117 10.4709 12.4774C9.56136 13.214 9.62747 14.0872 9.63071 14.124C9.64065 14.2361 9.73463 14.3201 9.84547 14.3201C9.8513 14.3201 9.85735 14.3199 9.86318 14.3195C9.98136 14.31 10.0699 14.2058 10.0613 14.0872Z" stroke="white" stroke-width="0.6"/>
<path d="M10.278 15.4012C10.278 15.1629 10.0842 14.9689 9.8459 14.9689C9.6076 14.9689 9.4138 15.1629 9.4138 15.4012C9.4138 15.6393 9.6076 15.8333 9.8459 15.8333C10.0842 15.8333 10.278 15.6393 10.278 15.4012Z" stroke="white" stroke-width="0.6"/>
<path fill-rule="evenodd" clip-rule="evenodd" d="M15.7632 18.3334H3.95768C3.38338 18.3334 2.91602 17.8657 2.91602 17.2914V8.26362C2.91602 7.68932 3.38338 7.2223 3.95768 7.2223H5.69379V5.83307C5.69379 3.5355 7.56289 1.66675 9.86046 1.66675C12.158 1.66675 14.0271 3.5355 14.0271 5.83307V7.2223H15.7632C16.3375 7.2223 16.8049 7.68932 16.8049 8.26362V17.2914C16.8049 17.8657 16.3375 18.3334 15.7632 18.3334ZM9.86046 2.36119C7.94588 2.36119 6.38824 3.91848 6.38824 5.83307V7.2223H13.3327V5.83307C13.3327 3.91848 11.775 2.36119 9.86046 2.36119ZM16.1105 8.26362C16.1105 8.07196 15.9546 7.9164 15.7632 7.9164H3.95768C3.76636 7.9164 3.61046 8.07196 3.61046 8.26362V17.2914C3.61046 17.4831 3.76636 17.639 3.95768 17.639H15.7632C15.9546 17.639 16.1105 17.4831 16.1105 17.2914V8.26362Z" fill="white"/>
</svg>
