<svg width="20" height="20" viewBox="0 0 20 20" fill="none" xmlns="http://www.w3.org/2000/svg">
<path fill-rule="evenodd" clip-rule="evenodd" d="M15.7637 18.3333H3.95817C3.38387 18.3333 2.9165 17.8656 2.9165 17.2913V8.2635C2.9165 7.6892 3.38387 7.22218 3.95817 7.22218H5.69428V5.83295C5.69428 3.53538 7.56338 1.66663 9.86095 1.66663C12.1585 1.66663 14.0276 3.53538 14.0276 5.83295V7.22218H15.7637C16.338 7.22218 16.8054 7.6892 16.8054 8.2635V17.2913C16.8054 17.8656 16.338 18.3333 15.7637 18.3333ZM9.86095 2.36107C7.94637 2.36107 6.38873 3.91836 6.38873 5.83295V7.22218H13.3332V5.83295C13.3332 3.91836 11.7755 2.36107 9.86095 2.36107ZM16.1109 8.2635C16.1109 8.07184 15.955 7.91628 15.7637 7.91628H3.95817C3.76685 7.91628 3.61095 8.07184 3.61095 8.2635V17.2913C3.61095 17.4829 3.76685 17.6388 3.95817 17.6388H15.7637C15.955 17.6388 16.1109 17.4829 16.1109 17.2913V8.2635ZM10.2082 12.7135V14.5135C10.2082 14.7055 10.0526 14.8607 9.86095 14.8607C9.66928 14.8607 9.51373 14.7055 9.51373 14.5135V12.7135C9.11025 12.5698 8.81928 12.1878 8.81928 11.7357C8.81928 11.1611 9.28664 10.6941 9.86095 10.6941C10.4353 10.6941 10.9026 11.1611 10.9026 11.7357C10.9026 12.1878 10.6113 12.5698 10.2082 12.7135ZM9.86095 11.3885C9.66963 11.3885 9.51373 11.5444 9.51373 11.7357C9.51373 11.927 9.66963 12.0833 9.86095 12.0833C10.0523 12.0833 10.2082 11.927 10.2082 11.7357C10.2082 11.5444 10.0523 11.3885 9.86095 11.3885Z" fill="black"/>
</svg>
