<svg width="96" height="96" viewBox="0 0 48 48" fill="none" xmlns="http://www.w3.org/2000/svg">
<path d="M26.9982 15H24.9856C22.4169 15 21.1319 16.3614 21.1308 19.0842V20.8406C21.1308 21.4622 21.1975 21.9661 21.3309 22.3522C21.4537 22.7233 21.6807 23.0521 21.9853 23.3002C22.2881 23.545 22.7742 23.8443 23.4436 24.1982L26.4953 25.8908C26.8003 26.0679 27.0912 26.2679 27.3654 26.4889C27.5435 26.6423 27.6326 26.9411 27.6326 27.3852V28.703C27.6326 29.6326 27.2079 30.0974 26.3587 30.0974H25.7887C24.8281 30.0974 24.3477 29.6326 24.3477 28.703V25.9693L21.1899 27.4051H21.129V28.6004C21.1247 29.1138 21.1731 29.6264 21.2735 30.1301C21.6761 32.033 22.9128 32.9845 24.9838 32.9845H26.9625C29.5556 32.9845 30.8521 31.6452 30.8521 28.9667V26.6191C30.8521 25.7791 30.7738 25.2088 30.6172 24.9084C30.4594 24.6091 30.2361 24.3486 29.9637 24.1456C29.5067 23.8245 29.0307 23.5307 28.5384 23.2657L25.4929 21.636C25.1874 21.4596 24.8964 21.2597 24.6227 21.0379C24.4443 20.8828 24.3547 20.5846 24.3547 20.1408V19.3169C24.3547 18.3689 24.8124 17.8871 25.7287 17.8871H26.2325C27.1705 17.8871 27.6395 18.3654 27.6395 19.3169V21.3361L30.8591 19.871V19.0842C30.8556 16.3614 29.5687 15 26.9982 15Z" fill="#1A227F"/>
<path d="M43.1569 19.8736V19.0506C43.1569 16.3502 41.8714 15 39.3004 15H37.2225C34.652 15 33.3668 16.3502 33.3668 19.0506V28.9331C33.3668 31.6334 34.652 32.9836 37.2225 32.9836H39.3004C41.4566 32.9836 42.7073 32.0322 43.0525 30.1293C43.1231 29.7341 43.158 29.3335 43.1569 28.9322V25.9693L39.9983 27.4051H39.9373V28.6978C39.9373 29.6274 39.5124 30.0922 38.6626 30.0922H37.8585C37.0087 30.0922 36.5841 29.6274 36.5846 28.6978V19.2833C36.5846 18.3531 37.0093 17.8877 37.8585 17.8871H38.4955C39.4567 17.8871 39.9373 18.3525 39.9373 19.2833V21.3361L43.1569 19.8736Z" fill="#1A227F"/>
<path d="M18.448 32.9845H18.4471L15.231 31.553V23.813L18.448 25.2445V32.9845Z" fill="#1A227F"/>
<path d="M18.448 15L15.231 16.4315V23.813L18.448 22.3815V15Z" fill="#1A227F"/>
<path d="M4 15V17.888H7.0847V33L7.12124 32.9845L10.3025 31.5685V17.888H13.3872V15H4Z" fill="#1A227F"/>
</svg>
