<svg width="84" height="64" viewBox="0 0 84 64" fill="none" xmlns="http://www.w3.org/2000/svg">
<path d="M26.9982 23H24.9856C22.4169 23 21.1319 24.3614 21.1308 27.0842V28.8406C21.1308 29.4622 21.1975 29.9661 21.3309 30.3522C21.4537 30.7233 21.6807 31.0521 21.9853 31.3002C22.2881 31.545 22.7742 31.8443 23.4436 32.1982L26.4953 33.8908C26.8003 34.0679 27.0912 34.2679 27.3654 34.4889C27.5435 34.6423 27.6326 34.9411 27.6326 35.3852V36.703C27.6326 37.6326 27.2079 38.0974 26.3587 38.0974H25.7887C24.8281 38.0974 24.3477 37.6326 24.3477 36.703V33.9693L21.1899 35.4051H21.129V36.6004C21.1247 37.1138 21.1731 37.6264 21.2735 38.1301C21.6761 40.033 22.9128 40.9845 24.9838 40.9845H26.9625C29.5556 40.9845 30.8521 39.6452 30.8521 36.9667V34.6191C30.8521 33.7791 30.7738 33.2088 30.6172 32.9084C30.4594 32.6091 30.2361 32.3486 29.9637 32.1456C29.5067 31.8245 29.0307 31.5307 28.5384 31.2657L25.4929 29.636C25.1874 29.4596 24.8964 29.2597 24.6227 29.0379C24.4443 28.8828 24.3547 28.5846 24.3547 28.1408V27.3169C24.3547 26.3689 24.8124 25.8871 25.7287 25.8871H26.2325C27.1705 25.8871 27.6395 26.3654 27.6395 27.3169V29.3361L30.8591 27.871V27.0842C30.8556 24.3614 29.5687 23 26.9982 23Z" fill="#1A227F"/>
<path d="M43.1569 27.8736V27.0506C43.1569 24.3502 41.8714 23 39.3004 23H37.2225C34.652 23 33.3668 24.3502 33.3668 27.0506V36.9331C33.3668 39.6334 34.652 40.9836 37.2225 40.9836H39.3004C41.4566 40.9836 42.7073 40.0322 43.0525 38.1293C43.1231 37.7341 43.158 37.3335 43.1569 36.9322V33.9693L39.9983 35.4051H39.9373V36.6978C39.9373 37.6274 39.5124 38.0922 38.6626 38.0922H37.8585C37.0087 38.0922 36.5841 37.6274 36.5846 36.6978V27.2833C36.5846 26.3531 37.0093 25.8877 37.8585 25.8871H38.4955C39.4567 25.8871 39.9373 26.3525 39.9373 27.2833V29.3361L43.1569 27.8736Z" fill="#1A227F"/>
<path d="M18.448 40.9845H18.4471L15.231 39.553V31.813L18.448 33.2445V40.9845Z" fill="#1A227F"/>
<path d="M18.448 23L15.231 24.4315V31.813L18.448 30.3815V23Z" fill="#1A227F"/>
<path d="M4 23V25.888H7.0847V41L7.12124 40.9845L10.3025 39.5685V25.888H13.3872V23H4Z" fill="#1A227F"/>
<rect width="32" height="14" transform="translate(52 25)" fill="#EB008D"/>
<path d="M56.2552 36V27.4688H59.1791C60.1439 27.4688 60.8783 27.6621 61.3822 28.0488C61.8861 28.4355 62.138 29.0117 62.138 29.7773C62.138 30.168 62.0326 30.5195 61.8216 30.832C61.6107 31.1445 61.3021 31.3867 60.8959 31.5586C61.3568 31.6836 61.7123 31.9199 61.9623 32.2676C62.2162 32.6113 62.3431 33.0254 62.3431 33.5098C62.3431 34.3105 62.0853 34.9258 61.5697 35.3555C61.058 35.7852 60.3236 36 59.3666 36H56.2552ZM57.7377 32.1504V34.8164H59.3841C59.849 34.8164 60.2123 34.7012 60.474 34.4707C60.7357 34.2402 60.8666 33.9199 60.8666 33.5098C60.8666 32.623 60.4134 32.1699 59.5072 32.1504H57.7377ZM57.7377 31.0605H59.1908C59.6517 31.0605 60.0111 30.957 60.2689 30.75C60.5306 30.5391 60.6615 30.2422 60.6615 29.8594C60.6615 29.4375 60.5404 29.1328 60.2982 28.9453C60.0599 28.7578 59.6869 28.6641 59.1791 28.6641H57.7377V31.0605ZM66.7198 36.1172C65.8175 36.1172 65.0851 35.834 64.5226 35.2676C63.964 34.6973 63.6847 33.9395 63.6847 32.9941V32.8184C63.6847 32.1855 63.8058 31.6211 64.048 31.125C64.2941 30.625 64.6378 30.2363 65.0792 29.959C65.5206 29.6816 66.0128 29.543 66.5558 29.543C67.4191 29.543 68.0851 29.8184 68.5538 30.3691C69.0265 30.9199 69.2628 31.6992 69.2628 32.707V33.2812H65.1202C65.1632 33.8047 65.337 34.2188 65.6417 34.5234C65.9503 34.8281 66.337 34.9805 66.8019 34.9805C67.4542 34.9805 67.9855 34.7168 68.3956 34.1895L69.1632 34.9219C68.9093 35.3008 68.5695 35.5957 68.1437 35.8066C67.7218 36.0137 67.2472 36.1172 66.7198 36.1172ZM66.5499 30.6855C66.1593 30.6855 65.8429 30.8223 65.6007 31.0957C65.3624 31.3691 65.2101 31.75 65.1437 32.2383H67.8566V32.1328C67.8253 31.6562 67.6984 31.2969 67.4757 31.0547C67.253 30.8086 66.9445 30.6855 66.5499 30.6855ZM72.3973 28.1191V29.6602H73.5165V30.7148H72.3973V34.2539C72.3973 34.4961 72.4442 34.6719 72.538 34.7812C72.6356 34.8867 72.8075 34.9395 73.0536 34.9395C73.2177 34.9395 73.3837 34.9199 73.5516 34.8809V35.9824C73.2274 36.0723 72.9149 36.1172 72.6141 36.1172C71.5204 36.1172 70.9735 35.5137 70.9735 34.3066V30.7148H69.9305V29.6602H70.9735V28.1191H72.3973ZM78.6373 36C78.5748 35.8789 78.5202 35.6816 78.4733 35.4082C78.0202 35.8809 77.4655 36.1172 76.8092 36.1172C76.1725 36.1172 75.653 35.9355 75.2506 35.5723C74.8483 35.209 74.6471 34.7598 74.6471 34.2246C74.6471 33.5488 74.8971 33.0312 75.3971 32.6719C75.901 32.3086 76.6198 32.127 77.5534 32.127H78.4264V31.7109C78.4264 31.3828 78.3346 31.1211 78.151 30.9258C77.9674 30.7266 77.6881 30.627 77.3131 30.627C76.9889 30.627 76.7233 30.709 76.5163 30.873C76.3092 31.0332 76.2057 31.2383 76.2057 31.4883H74.7819C74.7819 31.1406 74.8971 30.8164 75.1276 30.5156C75.358 30.2109 75.6705 29.9727 76.0651 29.8008C76.4635 29.6289 76.9069 29.543 77.3952 29.543C78.1373 29.543 78.7291 29.7305 79.1705 30.1055C79.612 30.4766 79.8385 31 79.8502 31.6758V34.5352C79.8502 35.1055 79.9303 35.5605 80.0905 35.9004V36H78.6373ZM77.0729 34.9746C77.3541 34.9746 77.6178 34.9062 77.8639 34.7695C78.1139 34.6328 78.3014 34.4492 78.4264 34.2188V33.0234H77.6588C77.1315 33.0234 76.735 33.1152 76.4694 33.2988C76.2038 33.4824 76.0709 33.7422 76.0709 34.0781C76.0709 34.3516 76.1608 34.5703 76.3405 34.7344C76.5241 34.8945 76.7682 34.9746 77.0729 34.9746Z" fill="white"/>
</svg>
