<svg width="18" height="18" viewBox="0 0 18 18" fill="none" xmlns="http://www.w3.org/2000/svg">
<path fill-rule="evenodd" clip-rule="evenodd" d="M17.1819 17.2735C17.1239 17.3128 17.0558 17.333 16.9874 17.333C16.9437 17.333 16.8999 17.325 16.8586 17.3087L11.7753 15.2752L6.34575 17.3114C6.34227 17.3125 6.3388 17.3121 6.33533 17.3132C6.29957 17.3253 6.26207 17.3333 6.22352 17.3333C6.18325 17.3333 6.14401 17.3243 6.10686 17.3111C6.10269 17.3097 6.09852 17.31 6.09471 17.3087L0.886372 15.2252C0.754427 15.1724 0.667969 15.0448 0.667969 14.9027V1.01419C0.667969 0.906802 0.717274 0.806017 0.801649 0.740334C0.886024 0.67465 0.995399 0.651365 1.09922 0.677083L3.877 1.37145C4.06311 1.41802 4.17665 1.60673 4.12977 1.79301C4.08325 1.97825 3.89471 2.09189 3.70894 2.04532L1.36241 1.45869V14.6674L5.8763 16.4732V7.95826C5.8763 7.76677 6.03151 7.61107 6.22352 7.61107C6.41554 7.61107 6.57075 7.76677 6.57075 7.95826V16.4846L11.4319 14.6618V7.95826C11.4319 7.76677 11.5871 7.61107 11.7791 7.61107C11.9711 7.61107 12.1263 7.76677 12.1263 7.95826V14.6677L16.6402 16.4732V3.3378L14.0874 2.38069C13.9082 2.31327 13.8173 2.11344 13.8843 1.93376C13.952 1.75374 14.1517 1.66373 14.3319 1.73046L17.1096 2.77201C17.2447 2.8231 17.3346 2.95238 17.3346 3.09731V16.9861C17.3346 17.1012 17.2773 17.2089 17.1819 17.2735ZM9.34853 6.89585V11.4305C9.34853 11.622 9.19332 11.7777 9.0013 11.7777C8.80929 11.7777 8.65408 11.622 8.65408 11.4305V6.89585C7.09401 6.72243 5.8763 5.39694 5.8763 3.79203C5.8763 2.06895 7.27804 0.666656 9.0013 0.666656C10.7246 0.666656 12.1263 2.06895 12.1263 3.79203C12.1263 5.39694 10.9086 6.72243 9.34853 6.89585ZM9.0013 1.36103C7.66137 1.36103 6.57075 2.45124 6.57075 3.79203C6.57075 5.13177 7.66137 6.22198 9.0013 6.22198C10.3412 6.22198 11.4319 5.13177 11.4319 3.79203C11.4319 2.45124 10.3412 1.36103 9.0013 1.36103Z" fill="black"/>
</svg>
