<svg width="20" height="20" viewBox="0 0 20 20" fill="none" xmlns="http://www.w3.org/2000/svg">
<path fill-rule="evenodd" clip-rule="evenodd" d="M18.1819 18.2735C18.1239 18.3128 18.0558 18.3329 17.9874 18.3329C17.9437 18.3329 17.8999 18.325 17.8586 18.3086L12.7753 16.2752L7.34575 18.3114C7.34227 18.3124 7.3388 18.3121 7.33533 18.3131C7.29957 18.3253 7.26207 18.3333 7.22352 18.3333C7.18325 18.3333 7.14401 18.3243 7.10686 18.3111C7.10269 18.3097 7.09852 18.31 7.09471 18.3086L1.88637 16.2252C1.75443 16.1723 1.66797 16.0448 1.66797 15.9026V2.01416C1.66797 1.90677 1.71727 1.80599 1.80165 1.7403C1.88602 1.67462 1.9954 1.65133 2.09922 1.67705L4.877 2.37142C5.06311 2.41799 5.17665 2.6067 5.12977 2.79298C5.08325 2.97822 4.89471 3.09186 4.70894 3.04529L2.36241 2.45865V15.6674L6.8763 17.4731V8.95823C6.8763 8.76674 7.03151 8.61104 7.22352 8.61104C7.41554 8.61104 7.57075 8.76674 7.57075 8.95823V17.4846L12.4319 15.6618V8.95823C12.4319 8.76674 12.5871 8.61104 12.7791 8.61104C12.9711 8.61104 13.1263 8.76674 13.1263 8.95823V15.6677L17.6402 17.4731V4.33777L15.0874 3.38066C14.9082 3.31324 14.8173 3.11341 14.8843 2.93373C14.952 2.75371 15.1517 2.6637 15.3319 2.73043L18.1096 3.77198C18.2447 3.82307 18.3346 3.95235 18.3346 4.09728V17.9861C18.3346 18.1011 18.2773 18.2089 18.1819 18.2735ZM10.3485 7.89582V12.4304C10.3485 12.6219 10.1933 12.7776 10.0013 12.7776C9.80929 12.7776 9.65408 12.6219 9.65408 12.4304V7.89582C8.09401 7.7224 6.8763 6.39691 6.8763 4.792C6.8763 3.06892 8.27804 1.66663 10.0013 1.66663C11.7246 1.66663 13.1263 3.06892 13.1263 4.792C13.1263 6.39691 11.9086 7.7224 10.3485 7.89582ZM10.0013 2.361C8.66137 2.361 7.57075 3.45121 7.57075 4.792C7.57075 6.13174 8.66137 7.22195 10.0013 7.22195C11.3412 7.22195 12.4319 6.13174 12.4319 4.792C12.4319 3.45121 11.3412 2.361 10.0013 2.361Z" fill="currentColor"/>
</svg>
