<svg width="20" height="20" viewBox="0 0 20 20" fill="currentColor" xmlns="http://www.w3.org/2000/svg">
<path fill-rule="evenodd" clip-rule="evenodd" d="M17.9835 12.9861H9.65017C9.45851 12.9861 9.30295 12.8305 9.30295 12.6385C9.30295 12.4469 9.45851 12.2917 9.65017 12.2917H17.9835C18.1752 12.2917 18.3307 12.4469 18.3307 12.6385C18.3307 12.8305 18.1752 12.9861 17.9835 12.9861ZM17.9835 7.08298H9.65017C9.45851 7.08298 9.30295 6.92811 9.30295 6.73575C9.30295 6.54409 9.45851 6.38853 9.65017 6.38853H17.9835C18.1752 6.38853 18.3307 6.54409 18.3307 6.73575C18.3307 6.92811 18.1752 7.08298 17.9835 7.08298ZM17.9835 5.34721H9.65017C9.45851 5.34721 9.30295 5.19166 9.30295 4.99964C9.30295 4.80798 9.45851 4.65242 9.65017 4.65242H17.9835C18.1752 4.65242 18.3307 4.80798 18.3307 4.99964C18.3307 5.19166 18.1752 5.34721 17.9835 5.34721ZM7.56684 16.8055H2.01128C1.81962 16.8055 1.66406 16.65 1.66406 16.458V10.9028C1.66406 10.7108 1.81962 10.5555 2.01128 10.5555H7.56684C7.75851 10.5555 7.91406 10.7108 7.91406 10.9028V16.458C7.91406 16.65 7.75851 16.8055 7.56684 16.8055ZM7.21962 11.2496H2.35851V16.1108H7.21962V11.2496ZM7.56684 9.16631H2.01128C1.81962 9.16631 1.66406 9.0111 1.66406 8.81909V3.26388C1.66406 3.07152 1.81962 2.91666 2.01128 2.91666H7.56684C7.75851 2.91666 7.91406 3.07152 7.91406 3.26388V8.81909C7.91406 9.0111 7.75851 9.16631 7.56684 9.16631ZM7.21962 3.6111H2.35851V8.47221H7.21962V3.6111ZM9.65017 14.0278H17.9835C18.1752 14.0278 18.3307 14.183 18.3307 14.375C18.3307 14.5667 18.1752 14.7222 17.9835 14.7222H9.65017C9.45851 14.7222 9.30295 14.5667 9.30295 14.375C9.30295 14.183 9.45851 14.0278 9.65017 14.0278Z" fill="currentColor"/>
</svg>
