<svg width="16" height="16" viewBox="0 0 16 16" fill="currentColor" xmlns="http://www.w3.org/2000/svg">
<path fill-rule="evenodd" clip-rule="evenodd" d="M14.5778 12.1069L11.7999 14.5954C11.7868 14.6073 11.7709 14.6132 11.7561 14.6221C11.743 14.6302 11.7318 14.6399 11.7173 14.6457C11.6844 14.6588 11.6496 14.6663 11.6147 14.6663H1.61378C1.46007 14.6663 1.33594 14.5419 1.33594 14.3886V4.38844C1.33594 4.37452 1.3418 4.36255 1.34403 4.34891C1.34682 4.32832 1.34849 4.30772 1.3563 4.28796C1.36383 4.2682 1.37667 4.25206 1.38838 4.2348C1.39591 4.22367 1.39982 4.21087 1.4093 4.20057L3.96483 1.42263C4.01728 1.36557 4.09176 1.33301 4.16931 1.33301H9.39195C9.39195 1.33301 9.39223 1.33301 9.39251 1.33301H14.3923C14.4285 1.33301 14.4648 1.34024 14.4988 1.35444C14.5666 1.38255 14.6207 1.43682 14.6489 1.50473C14.6631 1.53869 14.6704 1.57459 14.6704 1.61077V11.9001C14.6704 11.9791 14.6366 12.0543 14.5778 12.1069ZM1.86875 14.1108H11.3533V4.64783H6.70922C6.67853 4.65897 6.64645 4.6662 6.61409 4.6662C6.58173 4.6662 6.54993 4.65897 6.51925 4.64783H1.86875V14.1108ZM4.29121 1.88854L2.24673 4.11067H6.49944L8.7325 1.87769L4.29121 1.88854ZM9.51999 1.87602L7.28471 4.11067H11.4998L13.7451 1.86572L9.51999 1.87602ZM14.1429 2.25314L11.8925 4.50338V13.7896L14.1429 11.8845V2.25314ZM8.28477 6.59609C8.4382 6.59609 8.5587 6.73525 8.5587 6.88861C8.5587 7.04197 8.4382 7.15274 8.28477 7.15274H4.93728C4.78385 7.15274 4.66948 7.04197 4.66948 6.88861C4.66948 6.73525 4.78385 6.59609 4.93728 6.59609H8.28477Z" fill="currentColor"/>
</svg>
