<svg width="18" height="18" viewBox="0 0 18 18" fill="none" xmlns="http://www.w3.org/2000/svg">
<path fill-rule="evenodd" clip-rule="evenodd" d="M9 13.8679C8.56187 13.8679 7.81 13.8729 7.61469 13.8744C6.58969 15.6091 4.42312 15.7447 4.32844 15.7494C4.32312 15.7497 4.31781 15.75 4.3125 15.75C4.19812 15.75 4.0925 15.6872 4.03781 15.5859C3.98031 15.48 3.98906 15.3503 4.06 15.2531C4.06844 15.2419 4.85531 14.1428 4.92562 12.8254C2.71531 11.6613 1.5 10.0414 1.5 8.24674C1.5 5.14713 4.86469 2.625 9 2.625C13.1353 2.625 16.5 5.14713 16.5 8.24674C16.5 11.346 13.1353 13.8679 9 13.8679ZM9 3.2503C5.20906 3.2503 2.125 5.49181 2.125 8.24674C2.125 10.3983 4.16781 11.7476 5.38562 12.3604C5.40062 12.3682 5.41062 12.3807 5.42375 12.3904C5.44062 12.4026 5.45812 12.4129 5.4725 12.4282C5.48719 12.4441 5.49688 12.4626 5.50781 12.4807C5.5175 12.4966 5.52844 12.511 5.535 12.5285C5.54375 12.551 5.54594 12.5745 5.54938 12.5985C5.55125 12.6126 5.5575 12.6254 5.5575 12.6398C5.5575 12.6444 5.55719 12.6485 5.55719 12.6532C5.55687 12.6541 5.55688 12.6554 5.55688 12.6566C5.55281 13.6185 5.21031 14.4753 4.92813 15.0181C5.59969 14.8525 6.635 14.4382 7.15938 13.4172C7.17531 13.3869 7.19781 13.3629 7.22125 13.3401C7.22281 13.3385 7.22375 13.3363 7.22563 13.3347C7.25094 13.3107 7.28031 13.2932 7.31187 13.2791C7.31781 13.2763 7.32312 13.2719 7.32937 13.2694C7.35375 13.2604 7.37937 13.2579 7.40531 13.2551C7.41812 13.2535 7.43 13.2476 7.44312 13.2476L7.56812 13.2497C7.57 13.2497 8.49469 13.2429 9 13.2429C12.7909 13.2429 15.875 11.0014 15.875 8.24674C15.875 5.49181 12.7909 3.2503 9 3.2503ZM10.875 7.62519H12.125V8.87485H10.875V7.62519ZM8.375 7.62519H9.625V8.87485H8.375V7.62519ZM5.875 7.62519H7.125V8.87485H5.875V7.62519Z" fill="white"/>
</svg>
