<svg width="20" height="20" viewBox="0 0 20 20" fill="currentColor" xmlns="http://www.w3.org/2000/svg">
<path fill-rule="evenodd" clip-rule="evenodd" d="M18.3334 16.5426C18.3334 17.0707 17.8673 17.5 17.2942 17.5H2.74386C2.17049 17.5 1.66675 17.0707 1.66675 16.5426V10.7979C1.66675 10.7261 1.70574 10.6686 1.75691 10.6201L3.31514 6.23053C3.36179 6.09968 3.49442 6.01064 3.64447 6.01064H3.78302V4.41489C3.78302 4.23872 3.93829 4.09543 4.12941 4.09543H15.9083C16.0995 4.09543 16.2547 4.23872 16.2547 4.41489V6.01064H16.3936C16.5433 6.01064 16.6763 6.09968 16.723 6.23053L18.2937 10.6568C18.3174 10.6999 18.3334 10.7468 18.3334 10.7982C18.3334 10.802 18.3313 10.8049 18.3313 10.8084C18.3313 10.8122 18.3334 10.8151 18.3334 10.8189V16.5426ZM3.78302 6.96585L2.53637 10.4787H3.78302V6.96585ZM15.5919 6.45777C15.5731 6.41819 15.562 6.37543 15.562 6.32979C15.562 6.28383 15.5731 6.24106 15.5919 6.20181V4.73404H4.45178V6.21936C4.4657 6.25415 4.4758 6.29053 4.4758 6.32979C4.4758 6.36872 4.4657 6.40511 4.45178 6.43989V10.4787H7.2469C7.43803 10.4787 7.59329 10.6217 7.59329 10.7982C7.59329 12.0298 8.6812 13.0319 10.0184 13.0319C11.3555 13.0319 12.4434 12.0298 12.4434 10.7982C12.4434 10.6217 12.5983 10.4787 12.7898 10.4787H15.5919V6.45777ZM16.2547 6.96585V10.4787H17.5017L16.2547 6.96585ZM17.6807 11.117H13.1171C12.944 12.5513 11.6204 13.6702 10.0184 13.6702C8.41627 13.6702 7.09234 12.5513 6.91932 11.117H2.36301V16.5426C2.36301 16.7184 2.55274 16.8617 2.74386 16.8617H17.2942C17.485 16.8617 17.6807 16.7184 17.6807 16.5426V11.117ZM15.2156 3.13862H4.82254C4.63106 3.13862 4.4758 2.99532 4.4758 2.81915C4.4758 2.64298 4.63106 2.5 4.82254 2.5H15.2156C15.4067 2.5 15.562 2.64298 15.562 2.81915C15.562 2.99532 15.4067 3.13862 15.2156 3.13862Z" fill="currentColor"/>
</svg>
