<svg width="18" height="18" viewBox="0 0 18 18" fill="none" xmlns="http://www.w3.org/2000/svg">
<path fill-rule="evenodd" clip-rule="evenodd" d="M9.26503 8.99995L13.4451 13.1799C13.5183 13.2531 13.5183 13.3717 13.4451 13.445C13.4084 13.4814 13.3604 13.4998 13.3126 13.4998C13.2646 13.4998 13.2166 13.4814 13.1799 13.445L9 9.26503L4.82013 13.445C4.78343 13.4814 4.73562 13.4998 4.68762 13.4998C4.63962 13.4998 4.59162 13.4814 4.55492 13.445C4.48169 13.3717 4.48169 13.2531 4.55492 13.1799L8.73478 8.99995L4.55492 4.82021C4.48169 4.74713 4.48169 4.62822 4.55492 4.55495C4.62833 4.48187 4.74691 4.48187 4.82013 4.55495L8.99981 8.73469L13.1795 4.55495C13.2527 4.48168 13.3715 4.48168 13.4447 4.55495C13.5179 4.62822 13.5179 4.74676 13.4447 4.82021L9.26503 8.99995Z" fill="black"/>
</svg>
