<svg width="20" height="20" viewBox="0 0 20 20" fill="currentColor" xmlns="http://www.w3.org/2000/svg">
<path fill-rule="evenodd" clip-rule="evenodd" d="M17.0783 10.3342C17.0776 10.3349 17.0776 10.3359 17.0773 10.3363L10.9706 17.0585C10.715 17.3425 10.3701 17.4998 10.0003 17.4998C9.99995 17.4998 9.99995 17.4998 9.9996 17.4998C9.63019 17.4998 9.28529 17.3422 9.02933 17.0571L2.92475 10.3363C2.92405 10.3356 2.9237 10.3349 2.92335 10.3342C1.24436 8.6356 1.24787 5.88421 2.93596 4.19116C3.75602 3.36928 4.84639 2.9165 6.00645 2.9165C7.16616 2.9165 8.25689 3.36928 9.07695 4.19116C9.07835 4.19255 9.0787 4.19428 9.07975 4.19532C9.08115 4.19671 9.0829 4.19706 9.0843 4.19845L10.0003 5.17206L10.9174 4.19845C10.9188 4.19706 10.9205 4.19671 10.9219 4.19532C10.923 4.19393 10.9233 4.19255 10.9247 4.19116C11.7448 3.36928 12.8355 2.9165 13.9952 2.9165C15.1553 2.9165 16.2456 3.36928 17.0661 4.19116C18.7524 5.88421 18.7559 8.63595 17.0783 10.3342ZM16.5737 4.68143C15.8853 3.99116 14.9693 3.61095 13.9952 3.61095C13.0239 3.61095 12.1103 3.98942 11.4219 4.67657L10.2535 5.91685C10.251 5.91928 10.2475 5.92032 10.2451 5.92275C10.2423 5.92553 10.2412 5.929 10.2384 5.93178C10.2174 5.95157 10.1918 5.96268 10.1677 5.97623C10.1551 5.98352 10.1442 5.99428 10.1309 5.99949C10.0889 6.0165 10.0448 6.02588 10.0003 6.02588C9.95583 6.02588 9.91171 6.0165 9.8697 5.99949C9.85639 5.99428 9.84589 5.98352 9.83293 5.97657C9.80877 5.96303 9.78356 5.95157 9.7622 5.93178C9.7594 5.929 9.75835 5.92553 9.7559 5.92275C9.75309 5.92032 9.74994 5.91928 9.74714 5.91685L8.58288 4.67935C7.89413 3.99046 6.97953 3.61095 6.00645 3.61095C5.03233 3.61095 4.11667 3.99116 3.42757 4.68143C2.0049 6.10887 2.0049 8.43074 3.42757 9.85748C3.42967 9.85956 3.43037 9.86268 3.43247 9.86477C3.43422 9.86685 3.43703 9.8672 3.43878 9.86963L9.54475 16.5919C9.66906 16.73 9.83013 16.805 9.99995 16.805H10.0003C10.1705 16.805 10.3319 16.73 10.4552 16.5929L16.5629 9.86963C16.5646 9.86755 16.5671 9.86685 16.5688 9.86512C16.5709 9.86268 16.5716 9.85991 16.5737 9.85782C17.9954 8.43074 17.9954 6.10887 16.5737 4.68143Z" fill="currentColor"/>
</svg>
