<svg width="18" height="18" viewBox="0 0 18 18" fill="none" xmlns="http://www.w3.org/2000/svg">
<path fill-rule="evenodd" clip-rule="evenodd" d="M13.7858 16.5C13.6709 16.5 13.5484 16.4561 13.4222 16.3702L9.2318 13.5036C9.12038 13.4271 8.87804 13.4274 8.76788 13.5036L4.57714 16.3698C4.30394 16.5564 4.02666 16.5295 3.88282 16.3385C3.78557 16.2102 3.767 16.0387 3.82711 15.8298L5.09236 11.3575C5.1358 11.2026 5.07065 10.9473 4.95765 10.8322L1.69885 7.51719C1.44392 7.25845 1.49427 7.01884 1.52795 6.92757C1.56131 6.83662 1.67777 6.62148 2.03846 6.58855L6.35132 6.18554C6.50963 6.1708 6.71956 6.01838 6.78345 5.87192L8.51577 1.87572C8.66307 1.53669 8.90321 1.5 8.99984 1.5C9.09583 1.5 9.33598 1.53669 9.48328 1.87541L11.2165 5.87192C11.2798 6.01869 11.4897 6.1708 11.649 6.18554L15.9615 6.5876C16.3229 6.62179 16.4393 6.83725 16.4724 6.9282C16.5057 7.01946 16.5558 7.25907 16.3015 7.51719L13.0414 10.8322C12.9284 10.9473 12.8636 11.2023 12.9076 11.3566L14.1722 15.8307C14.232 16.0387 14.2135 16.2102 14.1165 16.3385C14.0391 16.441 13.9186 16.5 13.7858 16.5ZM8.99984 12.8181C9.21669 12.8181 9.42442 12.8783 9.58494 12.9877L13.4707 15.6463L12.3065 11.5275C12.2007 11.1571 12.3251 10.6697 12.5957 10.3944L15.7425 7.19478L11.5908 6.80777C11.204 6.7717 10.7964 6.47596 10.6428 6.11968L8.99984 2.33079L7.3569 6.12031C7.20205 6.47627 6.7951 6.7717 6.40923 6.80777L2.25877 7.19541L5.40332 10.3944C5.67337 10.6691 5.79832 11.1562 5.69383 11.5272L4.52867 15.6463L8.41474 12.9877C8.57463 12.8783 8.78236 12.8181 8.99984 12.8181Z" fill="currentColor"/>
</svg>
