<svg width="20" height="20" viewBox="0 0 20 20" fill="currentColor" xmlns="http://www.w3.org/2000/svg">
<path fill-rule="evenodd" clip-rule="evenodd" d="M17.2894 18.3333H6.8725H6.20478H2.70575C2.13143 18.3333 1.66406 17.8663 1.66406 17.292V2.70797C1.66406 2.13365 2.13143 1.66663 2.70575 1.66663H6.8725C7.44682 1.66663 7.91419 2.13365 7.91419 2.70797V3.53333L8.60692 2.42011C8.90901 1.93365 9.55242 1.78052 10.0424 2.07983L13.5792 4.23925C13.8174 4.38509 13.9827 4.6146 14.0442 4.88544C14.1063 5.15663 14.057 5.43511 13.9056 5.66949L12.9685 7.11952L14.4751 6.24797C14.7154 6.10908 14.9959 6.07193 15.265 6.1438C15.5345 6.21603 15.7595 6.38791 15.898 6.62819L17.8682 10.0342C18.0071 10.2738 18.0446 10.5547 17.9724 10.8245C17.9005 11.0936 17.7286 11.3182 17.4884 11.4575L16.4064 12.0832H17.2894C17.8637 12.0832 18.3311 12.5509 18.3311 13.1252V17.292C18.3311 17.8663 17.8637 18.3333 17.2894 18.3333ZM7.21973 2.70797C7.21973 2.51664 7.06418 2.36108 6.8725 2.36108H2.70575C2.51408 2.36108 2.35852 2.51664 2.35852 2.70797V17.292C2.35852 17.4833 2.51408 17.6388 2.70575 17.6388H6.20478H6.8725C7.06418 17.6388 7.21973 17.4833 7.21973 17.292V2.70797ZM13.3223 5.29274C13.3713 5.2167 13.3872 5.12711 13.3674 5.04031C13.3476 4.95281 13.2942 4.87885 13.2171 4.83197L9.6802 2.67186C9.51839 2.57324 9.29686 2.62567 9.19616 2.78679L7.91419 4.8469V13.6627L13.3223 5.29274ZM17.1404 10.8564C17.2203 10.8106 17.2776 10.7352 17.3015 10.6449C17.3255 10.5547 17.3133 10.4616 17.2675 10.3821L15.2973 6.97576C15.2512 6.89625 15.1758 6.83896 15.0859 6.815C14.9959 6.79069 14.9022 6.80319 14.8227 6.84903L12.141 8.40045L7.96558 14.8631C7.95204 14.8836 7.93086 14.8933 7.91419 14.91V16.1947L17.1404 10.8564ZM17.6366 13.1252C17.6366 12.9335 17.4811 12.7776 17.2894 12.7776H15.2067L7.91419 16.9972V17.292C7.91419 17.4142 7.88919 17.5298 7.8503 17.6388H17.2894C17.4811 17.6388 17.6366 17.4833 17.6366 17.292V13.1252ZM4.78913 16.2499C4.21481 16.2499 3.74744 15.7829 3.74744 15.2089C3.74744 14.6343 4.21481 14.1669 4.78913 14.1669C5.36345 14.1669 5.83082 14.6343 5.83082 15.2089C5.83082 15.7829 5.36345 16.2499 4.78913 16.2499ZM4.78913 14.8613C4.59746 14.8613 4.4419 15.0173 4.4419 15.2089C4.4419 15.3999 4.59746 15.5558 4.78913 15.5558C4.9808 15.5558 5.13636 15.3999 5.13636 15.2089C5.13636 15.0173 4.9808 14.8613 4.78913 14.8613Z" fill="currentColor"/>
</svg>
