<svg width="16" height="16" viewBox="0 0 16 16" fill="currentColor" xmlns="http://www.w3.org/2000/svg">
<path fill-rule="evenodd" clip-rule="evenodd" d="M13.8323 14.6667H5.49878H4.96461H2.16538C1.70593 14.6667 1.33203 14.2931 1.33203 13.8336V2.16645C1.33203 1.70699 1.70593 1.33337 2.16538 1.33337H5.49878C5.95824 1.33337 6.33214 1.70699 6.33214 2.16645V2.82674L6.88631 1.93616C7.12799 1.54699 7.64272 1.42449 8.03467 1.66394L10.8642 3.39147C11.0547 3.50814 11.187 3.69176 11.2361 3.90843C11.2858 4.12538 11.2464 4.34816 11.1253 4.53566L10.3756 5.69569L11.5809 4.99845C11.7731 4.88734 11.9975 4.85761 12.2128 4.91512C12.4284 4.97289 12.6084 5.1104 12.7192 5.30262L14.2954 8.0274C14.4065 8.21907 14.4365 8.4438 14.3787 8.65964C14.3212 8.87492 14.1837 9.05465 13.9915 9.16604L13.1259 9.6666H13.8323C14.2917 9.6666 14.6656 10.0408 14.6656 10.5002V13.8336C14.6656 14.2931 14.2917 14.6667 13.8323 14.6667ZM5.77657 2.16645C5.77657 2.01339 5.65212 1.88894 5.49878 1.88894H2.16538C2.01205 1.88894 1.8876 2.01339 1.8876 2.16645V13.8336C1.8876 13.9867 2.01205 14.1111 2.16538 14.1111H4.96461H5.49878C5.65212 14.1111 5.77657 13.9867 5.77657 13.8336V2.16645ZM10.6586 4.23427C10.6978 4.17343 10.7106 4.10176 10.6947 4.03232C10.6789 3.96232 10.6361 3.90315 10.5744 3.86565L7.74494 2.13756C7.6155 2.05867 7.43827 2.10061 7.35771 2.2295L6.33214 3.87759V10.9302L10.6586 4.23427ZM13.7131 8.68519C13.777 8.64853 13.8228 8.58825 13.842 8.51602C13.8612 8.4438 13.8515 8.36935 13.8148 8.30574L12.2386 5.58068C12.2017 5.51707 12.1414 5.47124 12.0695 5.45207C11.9975 5.43263 11.9225 5.44263 11.8589 5.47929L9.71359 6.72043L6.37325 11.8905C6.36241 11.9069 6.34547 11.9147 6.33214 11.928V12.9558L13.7131 8.68519ZM14.1101 10.5002C14.1101 10.3469 13.9856 10.2222 13.8323 10.2222H12.1661L6.33214 13.5978V13.8336C6.33214 13.9314 6.31213 14.0239 6.28102 14.1111H13.8323C13.9856 14.1111 14.1101 13.9867 14.1101 13.8336V10.5002ZM3.83208 13C3.37263 13 2.99873 12.6264 2.99873 12.1672C2.99873 11.7075 3.37263 11.3336 3.83208 11.3336C4.29154 11.3336 4.66543 11.7075 4.66543 12.1672C4.66543 12.6264 4.29154 13 3.83208 13ZM3.83208 11.8891C3.67875 11.8891 3.5543 12.0139 3.5543 12.1672C3.5543 12.32 3.67875 12.4447 3.83208 12.4447C3.98542 12.4447 4.10987 12.32 4.10987 12.1672C4.10987 12.0139 3.98542 11.8891 3.83208 11.8891Z" fill="currentColor"/>
</svg>
