<svg width="16" height="16" viewBox="0 0 16 16" fill="currentColor" xmlns="http://www.w3.org/2000/svg">
<path fill-rule="evenodd" clip-rule="evenodd" d="M14.6704 14.3909C14.6701 14.4265 14.6631 14.4618 14.6492 14.495C14.621 14.5629 14.5669 14.6171 14.4989 14.6452C14.4651 14.6594 14.4291 14.6667 14.3929 14.6667H11.6145C11.4612 14.6667 11.3368 14.5423 11.3368 14.3889C11.3368 14.2356 11.4612 14.1111 11.6145 14.1111L13.7219 14.1106L9.75126 10.1409C9.64277 10.0323 9.64277 9.85642 9.75126 9.74816C9.85975 9.63961 10.0357 9.63961 10.1442 9.74816L14.143 13.7463V11.6057C14.143 11.4523 14.2395 11.3332 14.3929 11.3332C14.5463 11.3332 14.6707 11.4579 14.6707 11.611V14.3889C14.6707 14.3897 14.6704 14.3903 14.6704 14.3909ZM14.3929 4.66654C14.2395 4.66654 14.143 4.52292 14.143 4.36957V2.25376L10.1442 6.25214C10.0898 6.30614 10.0187 6.33313 9.9476 6.33313C9.87677 6.33313 9.80565 6.30614 9.75126 6.25214C9.64277 6.1436 9.64277 5.96742 9.75126 5.85915L13.7467 1.86438H11.633C11.4796 1.86438 11.3368 1.76447 11.3368 1.61111C11.3368 1.45775 11.4612 1.33334 11.6145 1.33334H14.3923C14.4289 1.33334 14.4651 1.34058 14.4994 1.35477C14.5287 1.36702 14.5544 1.38567 14.5775 1.40682C14.5811 1.40988 14.5859 1.411 14.5892 1.41461C14.5912 1.41628 14.5917 1.41879 14.5934 1.42074C14.6166 1.44523 14.6361 1.47306 14.6492 1.50479C14.6634 1.53875 14.6707 1.57493 14.6707 1.61111V4.38877C14.6707 4.54241 14.5463 4.66654 14.3929 4.66654ZM2.28473 14.1106L4.39205 14.1111C4.54544 14.1111 4.66983 14.2356 4.66983 14.3889C4.66983 14.5423 4.54544 14.6667 4.39205 14.6667H1.61372C1.57774 14.6667 1.54176 14.6594 1.50774 14.6452C1.43969 14.6171 1.38558 14.5629 1.35741 14.495C1.34347 14.461 1.33594 14.4251 1.33594 14.3889V11.611C1.33594 11.4579 1.46032 11.3332 1.61372 11.3332C1.76711 11.3332 1.87169 11.4523 1.87169 11.6057V13.7382L5.86265 9.74816C5.97114 9.63961 6.14685 9.63961 6.25534 9.74816C6.36383 9.85642 6.36383 10.0323 6.25534 10.1409L2.28473 14.1106ZM6.059 6.33313C5.98788 6.33313 5.91676 6.30614 5.86265 6.25214L1.87169 2.26155V4.36957C1.87169 4.52292 1.76711 4.66654 1.61372 4.66654C1.46032 4.66654 1.33594 4.54241 1.33594 4.38877V1.61139C1.33594 1.57493 1.34347 1.53875 1.35741 1.50479C1.37024 1.4739 1.38949 1.44662 1.41208 1.42269C1.41431 1.42018 1.41486 1.41684 1.41737 1.41461C1.42128 1.41072 1.4263 1.4096 1.4302 1.40599C1.45335 1.38539 1.47845 1.36702 1.50746 1.35477C1.54148 1.34058 1.57774 1.33334 1.61427 1.33334H4.39205C4.54544 1.33334 4.66983 1.45775 4.66983 1.61111C4.66983 1.76447 4.53512 1.86438 4.38173 1.86438H2.26019L6.25534 5.85915C6.36383 5.96742 6.36383 6.1436 6.25534 6.25214C6.20123 6.30614 6.13011 6.33313 6.059 6.33313Z" fill="currentColor"/>
</svg>
