<svg width="16" height="16" viewBox="0 0 16 16" fill="none" xmlns="http://www.w3.org/2000/svg">
<path fill-rule="evenodd" clip-rule="evenodd" d="M14.1114 14.6666H6.33348C6.02708 14.6666 5.77791 14.4174 5.77791 14.111V10.2223C5.77791 10.0687 5.90236 9.94427 6.05569 9.94427C6.20903 9.94427 6.33348 10.0687 6.33348 10.2223V14.111H14.1114V1.88854H6.33348V5.77751C6.33348 5.93085 6.20903 6.05529 6.05569 6.05529C5.90236 6.05529 5.77791 5.93085 5.77791 5.77751V1.88854C5.77791 1.58242 6.02708 1.33325 6.33348 1.33325H14.1114C14.4178 1.33325 14.667 1.58242 14.667 1.88854V14.111C14.667 14.4174 14.4178 14.6666 14.1114 14.6666ZM2.33478 7.722H11.0558C11.2091 7.722 11.3336 7.84644 11.3336 7.99978C11.3336 8.15312 11.2091 8.27784 11.0558 8.27784H2.33534L4.57483 10.2934C4.689 10.3962 4.69817 10.5715 4.59539 10.6857C4.54066 10.7468 4.46483 10.7776 4.38872 10.7776C4.3226 10.7776 4.25621 10.7543 4.20316 10.7062L1.42532 8.20645C1.42338 8.20478 1.42282 8.20228 1.42115 8.20062C1.40143 8.18201 1.38726 8.15895 1.37365 8.13534C1.36865 8.12645 1.36087 8.1195 1.35671 8.11034C1.34199 8.07617 1.33337 8.03923 1.33337 7.99978C1.33337 7.96033 1.34199 7.92311 1.35699 7.88922C1.3606 7.88061 1.36782 7.87422 1.37254 7.86589C1.38615 7.84172 1.40088 7.81811 1.42115 7.79922C1.42282 7.79755 1.42338 7.79505 1.42532 7.79339L4.20316 5.29333C4.31732 5.19083 4.49288 5.2 4.59539 5.31389C4.69817 5.42806 4.689 5.60362 4.57483 5.7064L2.33478 7.722Z" fill="black"/>
</svg>
