<svg width="16" height="16" viewBox="0 0 16 16" fill="none" xmlns="http://www.w3.org/2000/svg">
<path fill-rule="evenodd" clip-rule="evenodd" d="M13.8343 6.17853L11.2346 8.7565C11.1261 8.86426 10.95 8.8637 10.8422 8.75511C10.7339 8.64623 10.7344 8.47098 10.8433 8.36322L13.4421 5.78609C13.8734 5.35532 14.1115 4.78151 14.1115 4.17132C14.1115 3.56141 13.8734 2.9876 13.4416 2.55627C12.5492 1.66557 11.0977 1.66557 10.2056 2.55627L7.5374 5.20367C7.1058 5.63444 6.86777 6.20797 6.86777 6.81816C6.86777 7.42835 7.1058 8.00161 7.53796 8.43321C7.73348 8.62818 8.04011 8.80927 8.35867 8.91703C8.50393 8.96647 8.5817 9.12394 8.53226 9.26892C8.49282 9.38446 8.38506 9.45723 8.26924 9.45723C8.2398 9.45723 8.20953 9.45223 8.17981 9.44223C7.77903 9.30642 7.40159 9.08117 7.14524 8.8251C6.60809 8.28906 6.3123 7.57639 6.3123 6.81816C6.3123 6.05966 6.60809 5.34671 7.14524 4.81095L9.81346 2.16383C10.9219 1.05732 12.7255 1.05732 13.8343 2.16411C14.3711 2.70042 14.6669 3.41337 14.6669 4.17132C14.6669 4.92982 14.3711 5.6425 13.8343 6.17853ZM5.77821 13.4478L8.70251 10.5354C9.59072 9.64887 9.59072 8.20519 8.70223 7.31837C8.47032 7.08701 8.1987 6.91176 7.89485 6.79761C7.75126 6.74373 7.67877 6.58375 7.73265 6.44072C7.78681 6.29741 7.94679 6.22492 8.09038 6.2788C8.46893 6.42072 8.80666 6.63847 9.09468 6.9262C10.1998 8.02966 10.1998 9.82412 9.09468 10.9279L6.17065 13.8402C5.61823 14.3915 4.8925 14.6673 4.16705 14.6673C3.44104 14.6673 2.71531 14.3915 2.16262 13.8397C1.05777 12.7368 1.05777 10.9417 2.16262 9.83829L5.02359 6.98953C5.13191 6.88149 5.308 6.88149 5.41604 6.99008C5.52463 7.0984 5.52436 7.27421 5.41548 7.38197L2.55534 10.231C1.66685 11.1175 1.66685 12.561 2.55561 13.4478C3.44382 14.3349 4.88973 14.3349 5.77821 13.4478Z" fill="#2B39D4"/>
</svg>
