<svg width="18" height="18" viewBox="0 0 18 18" fill="none" xmlns="http://www.w3.org/2000/svg">
<path fill-rule="evenodd" clip-rule="evenodd" d="M16.3767 5.02262L9.4101 13.6887C9.31949 13.802 9.18962 13.869 9.0517 13.8745C9.04566 13.875 9.03912 13.875 9.03308 13.875C8.9017 13.875 8.77485 13.8183 8.68122 13.7181L4.64825 9.38452C4.45194 9.17367 4.45043 8.83097 4.64523 8.61849C4.83903 8.40601 5.15615 8.40492 5.35196 8.61577L9.0064 12.5418L15.6232 4.31107C15.8034 4.08551 16.12 4.06154 16.3284 4.25823C16.5368 4.45491 16.5584 4.79706 16.3767 5.02262ZM9.17855 10.2453C9.07989 10.3685 8.94096 10.4311 8.80103 10.4311C8.68475 10.4311 8.56797 10.3876 8.47333 10.2982C8.26494 10.1015 8.24329 9.75936 8.42451 9.5338L12.6231 4.31107C12.8038 4.08551 13.1199 4.06154 13.3283 4.25823C13.5367 4.45491 13.5583 4.79706 13.3771 5.02262L9.17855 10.2453ZM6.38839 13.7143C6.29074 13.8216 6.16187 13.875 6.03301 13.875C5.90616 13.875 5.77881 13.8227 5.68116 13.7181L1.64818 9.38452C1.45187 9.17367 1.45036 8.83097 1.64516 8.61849C1.83896 8.40601 2.15608 8.40492 2.35189 8.61577L6.38537 12.9488C6.58118 13.1596 6.58269 13.5023 6.38839 13.7143Z" fill="#2B39D4"/>
</svg>
