<svg width="24" height="24" viewBox="0 0 18 18" fill="none" xmlns="http://www.w3.org/2000/svg">
<g id="photo">
<path id="Vector" fill-rule="evenodd" clip-rule="evenodd" d="M16.0325 15.125H2.96469C2.45 15.125 2 14.6822 2 14.1382V3.61184C2 3.06776 2.45 2.625 2.96469 2.625H16.0325C16.5472 2.625 17 3.06776 17 3.61184V14.1382C17 14.6822 16.5472 15.125 16.0325 15.125ZM16.375 3.61184C16.375 3.43026 16.2041 3.28289 16.0325 3.28289H2.96469C2.79312 3.28289 2.625 3.43026 2.625 3.61184V10.8658L6.49437 7.31053C6.6175 7.1977 6.80281 7.20493 6.91844 7.32664L10.4613 11.072L12.7344 9.26974C12.8597 9.17007 13.0347 9.1852 13.1437 9.30296L16.375 12.8049V3.61184ZM16.375 13.7467L12.8891 9.96908L10.6187 11.7694C10.4947 11.8681 10.3212 11.8553 10.2119 11.7388L6.68344 8.00855L2.625 11.7378V14.1382C2.625 14.3197 2.79312 14.4671 2.96469 14.4671H16.0325C16.2041 14.4671 16.375 14.3197 16.375 14.1382V13.7467ZM11.9878 6.57303C11.9878 6.02862 12.4069 5.58553 12.9222 5.58553C13.4363 5.58553 13.8544 6.02862 13.8544 6.57303C13.8544 7.11678 13.4363 7.55921 12.9222 7.55921C12.4069 7.55921 11.9878 7.11678 11.9878 6.57303ZM13.2322 6.57303C13.2322 6.39112 13.0931 6.24342 12.9222 6.24342C12.75 6.24342 12.61 6.39112 12.61 6.57303C12.61 6.75395 12.75 6.90132 12.9222 6.90132C13.0931 6.90132 13.2322 6.75395 13.2322 6.57303Z" fill="black"/>
</g>
</svg>
