<svg width="48" height="48" viewBox="0 0 48 48" fill="none" xmlns="http://www.w3.org/2000/svg">
<g id="photo">
<path id="Vector" fill-rule="evenodd" clip-rule="evenodd" d="M41.42 40.3333H6.5725C5.2 40.3333 4 39.1526 4 37.7018V9.63158C4 8.1807 5.2 7 6.5725 7H41.42C42.7925 7 44 8.1807 44 9.63158V37.7018C44 39.1526 42.7925 40.3333 41.42 40.3333ZM42.3333 9.63158C42.3333 9.14737 41.8775 8.75439 41.42 8.75439H6.5725C6.115 8.75439 5.66667 9.14737 5.66667 9.63158V28.9754L15.985 19.4947C16.3133 19.1939 16.8075 19.2132 17.1158 19.5377L26.5633 29.5254L32.625 24.7193C32.9592 24.4535 33.4258 24.4939 33.7167 24.8079L42.3333 34.1465V9.63158ZM42.3333 36.6579L33.0375 26.5842L26.9833 31.3851C26.6525 31.6482 26.19 31.614 25.8983 31.3035L16.4892 21.3561L5.66667 31.3009V37.7018C5.66667 38.186 6.115 38.5789 6.5725 38.5789H41.42C41.8775 38.5789 42.3333 38.186 42.3333 37.7018V36.6579ZM30.6342 17.5281C30.6342 16.0763 31.7517 14.8947 33.1258 14.8947C34.4967 14.8947 35.6117 16.0763 35.6117 17.5281C35.6117 18.9781 34.4967 20.1579 33.1258 20.1579C31.7517 20.1579 30.6342 18.9781 30.6342 17.5281ZM33.9525 17.5281C33.9525 17.043 33.5817 16.6491 33.1258 16.6491C32.6667 16.6491 32.2933 17.043 32.2933 17.5281C32.2933 18.0105 32.6667 18.4035 33.1258 18.4035C33.5817 18.4035 33.9525 18.0105 33.9525 17.5281Z" fill="#BFBFBF"/>
</g>
</svg>
