<svg width="20" height="20" viewBox="0 0 20 20" fill="none" xmlns="http://www.w3.org/2000/svg">
<path fill-rule="evenodd" clip-rule="evenodd" d="M17.9859 12.7778H17.0044C16.6498 13.7645 15.9544 14.6894 15.0776 15.3287L15.7186 17.1256C15.7825 17.3049 15.6908 17.5015 15.5127 17.5679L13.5113 18.3114C13.4241 18.344 13.3287 18.3399 13.2446 18.301C13.1606 18.2624 13.0953 18.1912 13.0637 18.1043L12.546 16.676C11.9054 16.8497 11.2026 16.9442 10.5321 16.9442C9.90852 16.9442 9.2231 16.8494 8.56998 16.6746L8.06928 18.1008C8.03873 18.1884 7.9738 18.2607 7.88942 18.2999C7.84289 18.3222 7.79255 18.3329 7.74185 18.3329C7.70088 18.3329 7.66025 18.3256 7.62067 18.3114L5.61963 17.5679C5.4415 17.5015 5.34949 17.3049 5.41338 17.1256L6.03942 15.3704C4.69532 14.4361 3.90539 13.1326 3.81442 11.7317C2.12067 11.6793 1.6665 10.1321 1.6665 9.30526C1.6665 9.11348 1.82171 8.95818 2.01373 8.95818C2.20574 8.95818 2.36095 9.11348 2.36095 9.30526C2.36199 9.47932 2.41581 10.982 3.8238 11.0372C4.10262 8.32307 7.00157 6.18081 10.5321 6.18081C11.421 6.18081 12.1984 6.27809 12.9005 6.47856C14.353 4.9377 16.2078 5.13226 16.2898 5.14129C16.4245 5.15693 16.5377 5.24969 16.58 5.37824C16.6221 5.50748 16.5853 5.64924 16.4856 5.74096C16.479 5.74721 15.7224 6.48029 15.5821 8.0149C16.263 8.61491 16.729 9.28302 16.9946 9.99978H17.9859C18.178 9.99978 18.3332 10.1554 18.3332 10.3472V12.4304C18.3332 12.6222 18.178 12.7778 17.9859 12.7778ZM17.6387 10.6943H16.7575C16.7509 10.6943 16.745 10.6908 16.7384 10.6905C16.7137 10.6891 16.6912 10.6828 16.6675 10.6762C16.6471 10.6707 16.6266 10.6665 16.6078 10.6575C16.5877 10.6477 16.571 10.6338 16.553 10.6203C16.5353 10.6071 16.5175 10.5953 16.5026 10.5786C16.488 10.563 16.4783 10.5445 16.4672 10.5261C16.4544 10.5056 16.4419 10.4862 16.4335 10.4633C16.4314 10.4566 16.4262 10.4525 16.4245 10.4459C16.2075 9.71384 15.7234 9.03183 14.9859 8.41861C14.8738 8.3255 14.8318 8.17159 14.8818 8.03401C14.8825 8.03157 14.8835 8.02949 14.8839 8.02741C14.962 7.03236 15.2662 6.31457 15.5394 5.85492C14.9342 5.93865 14.0266 6.21902 13.2752 7.10046C13.1842 7.20712 13.0387 7.24916 12.904 7.20538C12.2162 6.98303 11.4401 6.87497 10.5321 6.87497C7.20123 6.87497 4.49081 8.93351 4.49081 11.4639C4.49081 12.8035 5.27553 14.0692 6.64359 14.9378C6.78039 15.025 6.83907 15.1949 6.78456 15.3478L6.18282 17.036L7.53144 17.5373L8.02345 16.1347C8.08491 15.9586 8.27692 15.8616 8.4547 15.9186C9.13595 16.1319 9.8738 16.2497 10.5321 16.2497C11.2464 16.2497 11.9995 16.1323 12.6533 15.9193C12.8307 15.8616 13.0231 15.9555 13.0873 16.1313L13.5974 17.5383L14.9495 17.036L14.3665 15.4016C14.3575 15.3888 14.3488 15.3749 14.3415 15.3603C14.2613 15.2019 14.3026 15.0125 14.4519 14.9159C15.3856 14.3156 16.1228 13.3494 16.4245 12.3317C16.4262 12.3251 16.4314 12.321 16.4335 12.3144C16.4419 12.2911 16.4547 12.2713 16.4675 12.2508C16.4787 12.2327 16.4884 12.2147 16.5023 12.199C16.5175 12.1823 16.5356 12.1702 16.5537 12.1566C16.5714 12.1434 16.588 12.1295 16.6082 12.1202C16.6266 12.1111 16.6464 12.1073 16.6665 12.1017C16.6905 12.0948 16.7141 12.0882 16.7394 12.0868C16.7457 12.0865 16.7512 12.0833 16.7575 12.0833H17.6387V10.6943ZM13.4721 9.29449H14.5137V10.358H13.4721V9.29449ZM10.9252 5.69996C10.7363 5.66591 10.6109 5.4856 10.6446 5.29659C10.678 5.11141 10.6943 4.94603 10.6943 4.79177C10.6943 3.45173 9.60366 2.36114 8.26373 2.36114C6.9238 2.36114 5.83317 3.45173 5.83317 4.79177C5.83317 5.27436 6.01685 5.8226 6.32518 6.25759C6.43595 6.41428 6.3988 6.63108 6.2422 6.74156C6.18143 6.78464 6.1113 6.80549 6.0422 6.80549C5.93317 6.80549 5.82588 6.75442 5.75817 6.65852C5.36442 6.10194 5.13873 5.42167 5.13873 4.79177C5.13873 3.06851 6.54046 1.66663 8.26373 1.66663C9.98699 1.66663 11.3887 3.06851 11.3887 4.79177C11.3887 4.98773 11.3689 5.19306 11.3283 5.41924C11.2946 5.60789 11.1148 5.73401 10.9252 5.69996Z" fill="black"/>
</svg>
