<svg width="16" height="16" viewBox="0 0 16 16" fill="none" xmlns="http://www.w3.org/2000/svg">
<rect x="0.25" y="0.25" width="15.5" height="15.5" rx="7.75" fill="#2B39D4"/>
<path fill-rule="evenodd" clip-rule="evenodd" d="M12.5833 8.41667H8.41667V12.5833C8.41667 12.8133 8.23 13 8 13C7.77 13 7.58333 12.8133 7.58333 12.5833V8.41667H3.41667C3.18667 8.41667 3 8.23 3 8C3 7.77 3.18667 7.58333 3.41667 7.58333H7.58333V3.41667C7.58333 3.18667 7.77 3 8 3C8.23 3 8.41667 3.18667 8.41667 3.41667V7.58333H12.5833C12.8133 7.58333 13 7.77 13 8C13 8.23 12.8133 8.41667 12.5833 8.41667Z" fill="white"/>
<rect x="0.25" y="0.25" width="15.5" height="15.5" rx="7.75" stroke="#1A227F" stroke-width="0.5"/>
</svg>
