<svg width="18" height="18" viewBox="0 0 18 18" fill="none" xmlns="http://www.w3.org/2000/svg">
<path fill-rule="evenodd" clip-rule="evenodd" d="M16.1878 9.31266H9.31266V16.1878C9.31266 16.3603 9.17266 16.5 9.00016 16.5C8.82765 16.5 8.68765 16.3603 8.68765 16.1878V9.31266H1.81251C1.64 9.31266 1.5 9.17266 1.5 9.00016C1.5 8.82734 1.64 8.68734 1.81251 8.68734H8.68765V1.81219C8.68765 1.63969 8.82765 1.5 9.00016 1.5C9.17266 1.5 9.31266 1.63969 9.31266 1.81219V8.68734H16.1878C16.3603 8.68734 16.5003 8.82734 16.5003 9.00016C16.5003 9.17266 16.3603 9.31266 16.1878 9.31266Z" fill="black"/>
</svg>
