<svg width="10" height="10" viewBox="0 0 10 10" fill="none" xmlns="http://www.w3.org/2000/svg">
<path fill-rule="evenodd" clip-rule="evenodd" d="M9.58333 5.41667H5.41667V9.58333C5.41667 9.81333 5.23 10 5 10C4.77 10 4.58333 9.81333 4.58333 9.58333V5.41667H0.416667C0.186667 5.41667 0 5.23 0 5C0 4.77 0.186667 4.58333 0.416667 4.58333H4.58333V0.416667C4.58333 0.186667 4.77 0 5 0C5.23 0 5.41667 0.186667 5.41667 0.416667V4.58333H9.58333C9.81333 4.58333 10 4.77 10 5C10 5.23 9.81333 5.41667 9.58333 5.41667Z" fill="#808080"/>
</svg>
