<svg width="18" height="18" viewBox="0 0 18 18" fill="none" xmlns="http://www.w3.org/2000/svg">
<path fill-rule="evenodd" clip-rule="evenodd" d="M13.3125 9.1875H9.1875V13.3125C9.1875 13.416 9.1035 13.4998 9 13.4998C8.8965 13.4998 8.8125 13.416 8.8125 13.3125V9.1875H4.6875C4.584 9.1875 4.5 9.1035 4.5 9C4.5 8.89631 4.584 8.81231 4.6875 8.81231H8.8125V4.68731C8.8125 4.58381 8.8965 4.5 9 4.5C9.1035 4.5 9.1875 4.58381 9.1875 4.68731V8.81231H13.3125C13.416 8.81231 13.5 8.89631 13.5 9C13.5 9.1035 13.416 9.1875 13.3125 9.1875Z" fill="black"/>
</svg>
