<svg width="20" height="20" viewBox="0 0 12 12" fill="currentColor" xmlns="http://www.w3.org/2000/svg">
<path fill-rule="evenodd" clip-rule="evenodd" d="M10.5833 6.41667H6.41667V10.5833C6.41667 10.8133 6.23 11 6 11C5.77 11 5.58333 10.8133 5.58333 10.5833V6.41667H1.41667C1.18667 6.41667 1 6.23 1 6C1 5.77 1.18667 5.58333 1.41667 5.58333H5.58333V1.41667C5.58333 1.18667 5.77 1 6 1C6.23 1 6.41667 1.18667 6.41667 1.41667V5.58333H10.5833C10.8133 5.58333 11 5.77 11 6C11 6.23 10.8133 6.41667 10.5833 6.41667Z" fill="currentColor"/>
</svg>
