<svg width="20" height="21" viewBox="0 0 20 21" fill="none" xmlns="http://www.w3.org/2000/svg">
<rect y="0.5" width="20" height="20" rx="10" fill="white"/>
<mask id="path-2-inside-1_41069_63159" fill="white">
<path fill-rule="evenodd" clip-rule="evenodd" d="M9.9974 18.8333C5.4026 18.8333 1.66406 15.0951 1.66406 10.5003C1.66406 5.9052 5.4026 2.16666 9.9974 2.16666C14.5922 2.16666 18.3307 5.9052 18.3307 10.5003C18.3307 15.0951 14.5922 18.8333 9.9974 18.8333ZM9.9974 2.8611C5.78524 2.8611 2.35851 6.28784 2.35851 10.5003C2.35851 14.7125 5.78524 18.1389 9.9974 18.1389C14.2095 18.1389 17.6363 14.7125 17.6363 10.5003C17.6363 6.28784 14.2095 2.8611 9.9974 2.8611Z"/>
</mask>
<path fill-rule="evenodd" clip-rule="evenodd" d="M9.9974 18.8333C5.4026 18.8333 1.66406 15.0951 1.66406 10.5003C1.66406 5.9052 5.4026 2.16666 9.9974 2.16666C14.5922 2.16666 18.3307 5.9052 18.3307 10.5003C18.3307 15.0951 14.5922 18.8333 9.9974 18.8333ZM9.9974 2.8611C5.78524 2.8611 2.35851 6.28784 2.35851 10.5003C2.35851 14.7125 5.78524 18.1389 9.9974 18.1389C14.2095 18.1389 17.6363 14.7125 17.6363 10.5003C17.6363 6.28784 14.2095 2.8611 9.9974 2.8611Z" fill="black"/>
<path d="M9.9974 17.8333C5.95484 17.8333 2.66406 14.5428 2.66406 10.5003H0.664062C0.664062 15.6475 4.85037 19.8333 9.9974 19.8333V17.8333ZM2.66406 10.5003C2.66406 6.45746 5.95492 3.16666 9.9974 3.16666V1.16666C4.85029 1.16666 0.664062 5.35294 0.664062 10.5003H2.66406ZM9.9974 3.16666C14.0399 3.16666 17.3307 6.45746 17.3307 10.5003H19.3307C19.3307 5.35294 15.1445 1.16666 9.9974 1.16666V3.16666ZM17.3307 10.5003C17.3307 14.5428 14.04 17.8333 9.9974 17.8333V19.8333C15.1444 19.8333 19.3307 15.6475 19.3307 10.5003H17.3307ZM9.9974 1.8611C5.23293 1.8611 1.35851 5.73558 1.35851 10.5003H3.35851C3.35851 6.84009 6.33756 3.8611 9.9974 3.8611V1.8611ZM1.35851 10.5003C1.35851 15.2648 5.23302 19.1389 9.9974 19.1389V17.1389C6.33747 17.1389 3.35851 14.1601 3.35851 10.5003H1.35851ZM9.9974 19.1389C14.7618 19.1389 18.6363 15.2648 18.6363 10.5003H16.6363C16.6363 14.1601 13.6573 17.1389 9.9974 17.1389V19.1389ZM18.6363 10.5003C18.6363 5.73558 14.7619 1.8611 9.9974 1.8611V3.8611C13.6572 3.8611 16.6363 6.84009 16.6363 10.5003H18.6363Z" fill="black" mask="url(#path-2-inside-1_41069_63159)"/>
<path fill-rule="evenodd" clip-rule="evenodd" d="M13.3333 8.83333H12.9167V11.3333C12.9167 12.0225 12.3558 12.5833 11.6667 12.5833V13.4167C11.6667 13.6471 11.4804 13.8333 11.25 13.8333H10.4113C10.4117 13.8429 10.4167 13.8512 10.4167 13.8608V15.0833C10.4167 15.3137 10.2304 15.5 10 15.5C9.76958 15.5 9.58333 15.3137 9.58333 15.0833V13.8608C9.58333 13.8512 9.58833 13.8429 9.58875 13.8333H8.75C8.51958 13.8333 8.33333 13.6471 8.33333 13.4167V12.5833C7.64417 12.5833 7.08333 12.0225 7.08333 11.3333V8.83333H6.66667C6.43625 8.83333 6.25 8.64708 6.25 8.41667C6.25 8.18625 6.43625 8 6.66667 8H8.33333V5.91667C8.33333 5.68625 8.51958 5.5 8.75 5.5C8.98042 5.5 9.16667 5.68625 9.16667 5.91667V8H10.8333V5.91667C10.8333 5.68625 11.0196 5.5 11.25 5.5C11.4804 5.5 11.6667 5.68625 11.6667 5.91667V8H13.3333C13.5637 8 13.75 8.18625 13.75 8.41667C13.75 8.64708 13.5637 8.83333 13.3333 8.83333ZM9.16667 13.2083H10H10.8333V12.5833H9.16667V13.2083ZM12.0833 8.83333H7.91667V11.3333C7.91667 11.5633 8.10333 11.75 8.33333 11.75H11.6667C11.8967 11.75 12.0833 11.5633 12.0833 11.3333V8.83333Z" fill="black"/>
</svg>
