<svg width="16" height="16" viewBox="0 0 16 16" fill="currentColor" xmlns="http://www.w3.org/2000/svg">
<path fill-rule="evenodd" clip-rule="evenodd" d="M13.9657 11.8886H11.8915V14.3886C11.8915 14.5422 11.767 14.6663 11.6137 14.6663H4.39149C4.23816 14.6663 4.11372 14.5422 4.11372 14.3886V11.8886H2.03955C1.65149 11.8886 1.33594 11.5772 1.33594 11.1941V5.36079C1.33594 4.97745 1.65149 4.66634 2.03955 4.66634H4.11372V1.61051C4.11372 1.4569 4.23816 1.33301 4.39149 1.33301H11.6137C11.767 1.33301 11.8915 1.4569 11.8915 1.61051V4.66634H13.9657C14.3537 4.66634 14.6693 4.97745 14.6693 5.36079V11.1941C14.6693 11.5772 14.3537 11.8886 13.9657 11.8886ZM4.66927 14.1105H11.3359V9.11051H4.66927V14.1105ZM11.3359 1.88856H4.66927V4.66634H11.3359V1.88856ZM14.1137 5.36079C14.1137 5.28523 14.0459 5.2219 13.9657 5.2219H11.6137H4.39149H2.03955C1.95927 5.2219 1.89149 5.28523 1.89149 5.36079V11.1941C1.89149 11.2694 1.95927 11.333 2.03955 11.333H4.11372V8.83301C4.11372 8.6794 4.23816 8.55523 4.39149 8.55523H11.6137C11.767 8.55523 11.8915 8.6794 11.8915 8.83301V11.333H13.9657C14.0459 11.333 14.1137 11.2694 14.1137 11.1941V5.36079ZM12.1693 6.88856H11.6137C11.4604 6.88856 11.3359 6.76412 11.3359 6.61079C11.3359 6.45745 11.4604 6.33301 11.6137 6.33301H12.1693C12.3226 6.33301 12.447 6.45745 12.447 6.61079C12.447 6.76412 12.3226 6.88856 12.1693 6.88856Z" fill="currentColor"/>
</svg>
