<svg width="20" height="20" viewBox="0 0 20 20" fill="currentColor" xmlns="http://www.w3.org/2000/svg">
<path fill-rule="evenodd" clip-rule="evenodd" d="M18.146 14.5685L10.8736 18.2955C10.8702 18.2972 10.8667 18.2975 10.8628 18.2979C10.8186 18.3191 10.7702 18.3326 10.718 18.333C10.7176 18.333 10.7173 18.3333 10.7169 18.3333C10.7166 18.3333 10.7166 18.3333 10.7162 18.3333H10.7159C10.6675 18.3333 10.6219 18.3233 10.5801 18.3055C10.5797 18.3052 10.5797 18.3055 10.5794 18.3052L1.92166 14.5786C1.79455 14.5237 1.66675 14.3027 1.66675 14.1637V5.8245C1.66675 5.74667 1.71411 5.63791 1.77366 5.55313C1.78863 5.53019 1.80535 5.51039 1.82555 5.49128C1.83983 5.47703 1.85376 5.46035 1.86769 5.45097C1.87291 5.44785 1.87918 5.44819 1.8844 5.44507C1.89137 5.4409 1.89589 5.43429 1.90321 5.43047L9.33753 1.70319C9.42947 1.65732 9.53707 1.65454 9.6311 1.69554L18.1272 5.42318C18.1359 5.427 18.1415 5.43464 18.1499 5.43916C18.1561 5.44229 18.1634 5.44124 18.1694 5.44507C18.1791 5.45097 18.1833 5.46209 18.1923 5.46904C18.2233 5.49232 18.2491 5.51873 18.27 5.55C18.2794 5.56355 18.2885 5.57537 18.2954 5.58996C18.3174 5.63444 18.3309 5.68169 18.3323 5.73173C18.3323 5.73485 18.3348 5.73763 18.3348 5.74111V5.74528C18.3348 5.74528 18.3348 5.74563 18.3348 5.74597V14.2596C18.3348 14.3899 18.2616 14.5095 18.146 14.5685ZM2.36324 14.1637L10.3697 17.4678V9.6946L2.36324 6.17232V14.1637ZM2.88038 5.71713L10.7033 9.08444L13.5071 7.64766L5.78509 4.26055L2.88038 5.71713ZM9.50225 2.39708L6.59127 3.85644L14.3038 7.23939L17.18 5.76543L9.50225 2.39708ZM17.686 6.17232L14.5058 7.85475C14.4599 7.89784 14.4045 7.92737 14.3435 7.94058L11.0624 9.67687V17.4285L17.686 14.1637V6.17232Z" fill="currentColor"/>
</svg>
