<svg width="18" height="18" viewBox="0 0 18 18" fill="none" xmlns="http://www.w3.org/2000/svg">
<path fill-rule="evenodd" clip-rule="evenodd" d="M17.0885 17.3181C17.0548 17.3281 17.0211 17.3333 16.9871 17.3333C16.8739 17.3333 16.7649 17.2778 16.6992 17.1802L14.9291 14.5556H6.91784C6.11716 14.5556 5.52898 13.9181 5.52898 13.1171V11.0835C5.52898 10.8918 5.68418 10.7359 5.87619 10.7359C6.0682 10.7359 6.22341 10.8918 6.22341 11.0835V13.1171C6.22341 13.5352 6.56299 13.8751 6.98103 13.8751H15.1236C15.1347 13.8751 15.1441 13.8803 15.1552 13.8813C15.1788 13.8838 15.201 13.8883 15.2239 13.8952C15.2454 13.9018 15.2652 13.9094 15.2847 13.9199C15.3038 13.9299 15.3204 13.9421 15.3375 13.9556C15.3566 13.9709 15.3732 13.9869 15.3885 14.0056C15.3954 14.014 15.4052 14.0188 15.4114 14.0282L16.6399 15.85V14.2226V7.3273C16.6399 6.90925 16.2999 6.56967 15.8822 6.56967H14.2094C14.0173 6.56967 13.8621 6.41412 13.8621 6.22246C13.8621 6.0308 14.0173 5.8749 14.2094 5.8749H15.8822C16.6829 5.8749 17.3343 6.52662 17.3343 7.3273V14.2226V16.9861C17.3343 17.1385 17.2346 17.2733 17.0885 17.3181ZM11.0844 9.34705H3.07278L1.30303 11.9716C1.2374 12.0692 1.12838 12.1251 1.01518 12.1251C0.981157 12.1251 0.947477 12.1203 0.913797 12.1098C0.767619 12.065 0.667969 11.9303 0.667969 11.7776V9.01407V2.11872C0.667969 1.31805 1.31934 0.666672 2.12002 0.666672H11.0212C11.8219 0.666672 12.4733 1.31805 12.4733 2.11872V7.90888C12.4733 8.70956 11.8851 9.34705 11.0844 9.34705ZM11.7788 2.11872C11.7788 1.70103 11.4389 1.36145 11.0212 1.36145H2.12002C1.70198 1.36145 1.3624 1.70103 1.3624 2.11872V9.01407V10.6418L2.59085 8.81997C2.5971 8.8106 2.60682 8.80574 2.61376 8.79706C2.62904 8.77866 2.64536 8.76268 2.66411 8.74775C2.68147 8.73386 2.69848 8.72171 2.71793 8.7113C2.73702 8.70123 2.75647 8.69393 2.77765 8.68734C2.80056 8.68005 2.82348 8.67553 2.84744 8.6731C2.8582 8.67206 2.86758 8.66685 2.87869 8.66685H11.0212C11.4389 8.66685 11.7788 8.32658 11.7788 7.90888V2.11872Z" fill="black"/>
</svg>
