<svg width="18" height="18" viewBox="0 0 18 18" fill="currentColor" xmlns="http://www.w3.org/2000/svg">
<path fill-rule="evenodd" clip-rule="evenodd" d="M16.1886 7.42326H15.251C15.0782 7.42326 14.9385 7.29739 14.9385 7.12486C14.9385 6.95234 15.0782 6.79704 15.251 6.79704H16.1886C16.3614 6.79704 16.5011 6.95234 16.5011 7.12486C16.5011 7.29739 16.3614 7.42326 16.1886 7.42326ZM14.5344 3.28332C14.4734 3.34437 14.3934 3.37506 14.3134 3.37506C14.2334 3.37506 14.1534 3.34437 14.0925 3.28332C13.9703 3.16152 13.9703 2.96363 14.0925 2.84152L15.3426 1.59158C15.4648 1.46947 15.6623 1.46947 15.7845 1.59158C15.9067 1.7137 15.9067 1.91158 15.7845 2.03338L14.5344 3.28332ZM11.4689 11.421C11.2395 11.6283 11.1873 12.0748 11.1873 12.2148V14.8033C11.1873 14.8192 11.186 14.8352 11.1835 14.8509C11.0954 15.4216 10.5257 16.5 8.99992 16.5C7.4745 16.5 6.90446 15.4216 6.81633 14.8509C6.81383 14.8352 6.81258 14.8192 6.81258 14.8033V12.2157C6.81133 12.0673 6.75788 11.6368 6.52818 11.4182C5.07932 10.3255 4.31208 8.90082 4.31208 7.29457C4.31208 4.61654 6.41505 2.43761 8.99992 2.43761C11.5848 2.43761 13.6878 4.61654 13.6878 7.29457C13.6878 8.90239 12.9196 10.328 11.4689 11.421ZM8.99992 15.875C10.2763 15.875 10.525 14.9592 10.5622 14.7748V13.3949C10.0422 13.6097 9.53371 13.6905 9.07055 13.6905C8.39144 13.6905 7.81609 13.5245 7.43762 13.3789V14.7754C7.47356 14.9542 7.72046 15.875 8.99992 15.875ZM8.99992 3.06258C6.75976 3.06258 4.93713 4.96096 4.93713 7.29457C4.93713 9.07679 6.01877 10.2591 6.92633 10.937C6.93165 10.941 6.93415 10.9467 6.93884 10.9511C6.94321 10.9548 6.94884 10.9558 6.9529 10.9598C7.42356 11.4007 7.43762 12.1324 7.43762 12.2148V12.7032C7.88234 12.9099 9.20463 13.3965 10.5622 12.7048V12.2148C10.5622 12.1306 10.5763 11.3822 11.0519 10.9551C11.0557 10.952 11.0601 10.9511 11.0638 10.9482C11.0679 10.9448 11.0695 10.9401 11.0738 10.937C11.9811 10.2591 13.0627 9.07679 13.0627 7.29457C13.0627 4.96096 11.2401 3.06258 8.99992 3.06258ZM2.65852 12.6585C2.59758 12.7195 2.51757 12.7502 2.43757 12.7502C2.35756 12.7502 2.27756 12.7195 2.21661 12.6585C2.09442 12.5363 2.09442 12.3385 2.21661 12.2167L3.46671 10.9667C3.5889 10.8446 3.78642 10.8446 3.90861 10.9667C4.03081 11.0885 4.03081 11.2864 3.90861 11.4082L2.65852 12.6585ZM3.68735 3.37506C3.60734 3.37506 3.52734 3.34437 3.46639 3.28332L2.2163 2.03338C2.09411 1.91158 2.09411 1.7137 2.2163 1.59158C2.3385 1.46947 2.53601 1.46947 2.65821 1.59158L3.9083 2.84152C4.0305 2.96363 4.0305 3.16152 3.9083 3.28332C3.84736 3.34437 3.76735 3.37506 3.68735 3.37506ZM3.06261 7.12486C3.06261 7.29739 2.92292 7.42326 2.75009 7.42326H1.81252C1.6397 7.42326 1.5 7.29739 1.5 7.12486C1.5 6.95234 1.6397 6.79704 1.81252 6.79704H2.75009C2.92292 6.79704 3.06261 6.95234 3.06261 7.12486ZM14.5347 10.9667L15.7848 12.2167C15.907 12.3385 15.907 12.5363 15.7848 12.6585C15.7239 12.7195 15.6438 12.7502 15.5638 12.7502C15.4838 12.7502 15.4038 12.7195 15.3429 12.6585L14.0928 11.4082C13.9706 11.2864 13.9706 11.0885 14.0928 10.9667C14.215 10.8446 14.4125 10.8446 14.5347 10.9667Z" fill="currentColor"/>
</svg>
