<svg width="20" height="20" viewBox="0 0 20 20" fill="none" xmlns="http://www.w3.org/2000/svg">
<path fill-rule="evenodd" clip-rule="evenodd" d="M18.087 18.3179C18.0533 18.328 18.0196 18.3332 17.9856 18.3332C17.8724 18.3332 17.7634 18.2776 17.6978 18.18L15.9277 15.5554H7.91637C7.1157 15.5554 6.52751 14.918 6.52751 14.1169V12.0833C6.52751 11.8916 6.68272 11.7357 6.87473 11.7357C7.06674 11.7357 7.22194 11.8916 7.22194 12.0833V14.1169C7.22194 14.535 7.56152 14.8749 7.97957 14.8749H16.1221C16.1332 14.8749 16.1426 14.8801 16.1537 14.8812C16.1773 14.8836 16.1995 14.8881 16.2225 14.895C16.244 14.9016 16.2638 14.9093 16.2832 14.9197C16.3023 14.9298 16.319 14.9419 16.336 14.9555C16.3551 14.9707 16.3718 14.9867 16.387 15.0055C16.394 15.0138 16.4037 15.0187 16.4099 15.028L17.6384 16.8499V15.2225V8.32713C17.6384 7.90908 17.2985 7.56951 16.8808 7.56951H15.2079C15.0159 7.56951 14.8607 7.41395 14.8607 7.22229C14.8607 7.03063 15.0159 6.87473 15.2079 6.87473H16.8808C17.6814 6.87473 18.3328 7.52645 18.3328 8.32713V15.2225V17.986C18.3328 18.1384 18.2332 18.2731 18.087 18.3179ZM12.083 10.3469H4.07132L2.30156 12.9715C2.23594 13.069 2.12691 13.1249 2.01372 13.1249C1.97969 13.1249 1.94601 13.1201 1.91233 13.1097C1.76615 13.0649 1.6665 12.9302 1.6665 12.7774V10.0139V3.11856C1.6665 2.31788 2.31788 1.6665 3.11856 1.6665H12.0198C12.8204 1.6665 13.4718 2.31788 13.4718 3.11856V8.90871C13.4718 9.70939 12.8836 10.3469 12.083 10.3469ZM12.7774 3.11856C12.7774 2.70086 12.4375 2.36128 12.0198 2.36128H3.11856C2.70051 2.36128 2.36093 2.70086 2.36093 3.11856V10.0139V11.6416L3.58938 9.81981C3.59563 9.81043 3.60535 9.80557 3.6123 9.79689C3.62757 9.77849 3.64389 9.76252 3.66264 9.74759C3.68 9.7337 3.69702 9.72154 3.71646 9.71113C3.73556 9.70106 3.755 9.69377 3.77618 9.68717C3.7991 9.67988 3.82201 9.67536 3.84597 9.67293C3.85674 9.67189 3.86611 9.66668 3.87722 9.66668H12.0198C12.4375 9.66668 12.7774 9.32641 12.7774 8.90871V3.11856Z" fill="black"/>
</svg>
