<svg width="20" height="20" viewBox="0 0 20 20" fill="currentColor" xmlns="http://www.w3.org/2000/svg">
<path fill-rule="evenodd" clip-rule="evenodd" d="M16.5277 5.66671C16.5277 5.67939 16.5221 5.69041 16.5204 5.70276V14.3853C16.5204 14.7241 16.2477 14.9999 15.9122 14.9999H7.24135C6.90424 14.9999 6.6298 14.7228 6.6298 14.382V2.28457C6.6298 1.94371 6.90424 1.66663 7.24135 1.66663H12.5648C12.5718 1.66663 12.5777 1.66996 12.5843 1.67063C12.615 1.6723 12.6443 1.67831 12.6734 1.68866C12.6833 1.69233 12.6932 1.69467 12.7027 1.69934C12.7374 1.71537 12.77 1.73573 12.7981 1.76411L16.3888 5.39463C16.3994 5.40231 16.405 5.41566 16.4149 5.42467C16.4228 5.43235 16.4291 5.44136 16.4367 5.44971C16.4891 5.5088 16.5277 5.58091 16.5277 5.66671ZM7.28918 14.3332H15.8611V5.98452H12.5695C12.3874 5.98452 12.2353 5.85065 12.2353 5.66671V2.31194H7.29182L7.28918 14.3332ZM12.8947 2.80436V5.33353H15.3956L12.8947 2.80436ZM14.8728 16.3336C14.8728 16.5175 14.7251 16.6668 14.543 16.6668H5.58813C5.25366 16.6668 4.98186 16.3917 4.98186 16.0538V3.66633C4.98186 3.48239 5.12963 3.33316 5.31138 3.33316C5.49379 3.33316 5.64123 3.48239 5.64123 3.66633V16.0001H14.543C14.7251 16.0001 14.8728 16.1496 14.8728 16.3336ZM13.2242 18.0001C13.2242 18.1841 13.0768 18.3333 12.8947 18.3333H3.93952C3.60538 18.3333 3.33325 18.0585 3.33325 17.7204V5.33353C3.33325 5.14892 3.48103 4.99969 3.6631 4.99969C3.84518 4.99969 3.99263 5.14892 3.99263 5.33353V17.6666H12.8947C13.0768 17.6666 13.2242 17.8162 13.2242 18.0001Z" fill="currentColor"/>
</svg>
