<svg width="18" height="18" viewBox="0 0 18 18" fill="currentColor" xmlns="http://www.w3.org/2000/svg">
<path fill-rule="evenodd" clip-rule="evenodd" d="M11.7588 10.8728C11.5135 11.0887 11.4578 11.5557 11.4578 11.7021V14.7291C11.4578 14.746 11.4565 14.7626 11.4538 14.779C11.3598 15.3744 10.7522 16.5 9.12489 16.5C7.49793 16.5 6.88994 15.3744 6.79594 14.779C6.79328 14.7626 6.79194 14.746 6.79194 14.7291V11.7034C6.79061 11.5482 6.73328 11.0965 6.48662 10.8693C4.94265 9.7296 4.125 8.24333 4.125 6.56826C4.125 3.77376 6.36762 1.5 9.12489 1.5C11.8818 1.5 14.1248 3.77376 14.1248 6.56826C14.1248 8.24496 13.3058 9.73286 11.7588 10.8728ZM7.45859 14.7C7.49693 14.8869 7.76025 15.8475 9.12489 15.8475C10.4862 15.8475 10.7515 14.8918 10.7912 14.6994V13.2597C10.2365 13.4841 9.69421 13.5682 9.20022 13.5682C8.47591 13.5682 7.86225 13.3951 7.45859 13.2431V14.7ZM9.12489 2.15216C6.73561 2.15216 4.79165 4.1331 4.79165 6.56826C4.79165 8.42789 5.94529 9.66145 6.91327 10.369C6.91861 10.373 6.92127 10.3788 6.92627 10.3831C6.93094 10.387 6.93694 10.3883 6.94161 10.3925C7.44359 10.8529 7.45859 11.6163 7.45859 11.7021V12.5381C7.93292 12.7537 9.34322 13.261 10.7912 12.5398V11.7021C10.7912 11.6147 10.8062 10.8337 11.3135 10.388C11.3175 10.3847 11.3222 10.3837 11.3262 10.3808C11.3302 10.3772 11.3322 10.3723 11.3368 10.369C12.3045 9.66145 13.4581 8.42822 13.4581 6.56826C13.4581 4.1331 11.5142 2.15216 9.12489 2.15216ZM11.0272 8.25246C10.9622 8.31572 10.8769 8.34768 10.7915 8.34768C10.7062 8.34768 10.6209 8.31572 10.5559 8.25246L9.12489 6.85227L7.69392 8.25246C7.62892 8.31572 7.54359 8.34768 7.45826 8.34768C7.37293 8.34768 7.2876 8.31572 7.2226 8.25246C7.09227 8.12496 7.09227 7.91856 7.2226 7.79138L8.65357 6.3912L7.2226 4.99134C7.09227 4.86384 7.09227 4.65743 7.2226 4.53026C7.35293 4.40276 7.56359 4.40276 7.69392 4.53026L9.12489 5.93012L10.5559 4.53026C10.6862 4.40276 10.8969 4.40276 11.0272 4.53026C11.1575 4.65743 11.1575 4.86384 11.0272 4.99134L9.59621 6.3912L11.0272 7.79138C11.1575 7.91856 11.1575 8.12496 11.0272 8.25246Z" fill="currentColor"/>
</svg>
