<svg width="16" height="16" viewBox="0 0 16 16" fill="none" xmlns="http://www.w3.org/2000/svg">
<path fill-rule="evenodd" clip-rule="evenodd" d="M8.00016 14.6663C4.32433 14.6663 1.3335 11.6758 1.3335 7.99967C1.3335 4.32384 4.32433 1.33301 8.00016 1.33301C11.676 1.33301 14.6668 4.32384 14.6668 7.99967C14.6668 11.6758 11.676 14.6663 8.00016 14.6663ZM8.00016 1.88884C4.63044 1.88884 1.88905 4.63023 1.88905 7.99967C1.88905 11.3697 4.63044 14.1111 8.00016 14.1111C11.3699 14.1111 14.1113 11.3697 14.1113 7.99967C14.1113 4.63023 11.3699 1.88884 8.00016 1.88884ZM9.1535 8.00551C8.22377 8.75856 8.27433 9.60828 8.27711 9.64384C8.28822 9.79634 8.17433 9.93023 8.02239 9.94245C8.01489 9.94301 8.00711 9.94328 7.99961 9.94328C7.85711 9.94328 7.73627 9.83523 7.7235 9.69106C7.71933 9.64384 7.63433 8.52106 8.80377 7.57412C9.22544 7.23245 9.38961 6.90106 9.38961 6.39217C9.38961 5.59384 8.76627 4.9444 8.00016 4.9444C7.22155 4.9444 6.61183 5.55467 6.61183 6.33384C6.61183 6.48717 6.48739 6.61162 6.33405 6.61162C6.18072 6.61162 6.05627 6.48717 6.05627 6.33384C6.05627 5.24329 6.91016 4.38884 8.00016 4.38884C9.07266 4.38884 9.94516 5.28745 9.94516 6.39217C9.94516 7.07329 9.7085 7.55579 9.1535 8.00551ZM8.00016 10.7775C8.30655 10.7775 8.55572 11.0269 8.55572 11.3333C8.55572 11.6394 8.30655 11.8888 8.00016 11.8888C7.69377 11.8888 7.44461 11.6394 7.44461 11.3333C7.44461 11.0269 7.69377 10.7775 8.00016 10.7775Z" fill="black"/>
</svg>
