<svg width="24" height="24" viewBox="0 0 24 24" fill="none" xmlns="http://www.w3.org/2000/svg">
<path fill-rule="evenodd" clip-rule="evenodd" d="M12 22C6.48625 22 2 17.5142 2 12C2 6.48625 6.48625 2 12 2C17.5137 2 22 6.48625 22 12C22 17.5142 17.5137 22 12 22ZM12 2.83375C6.94542 2.83375 2.83333 6.94584 2.83333 12C2.83333 17.055 6.94542 21.1671 12 21.1671C17.0546 21.1671 21.1667 17.055 21.1667 12C21.1667 6.94584 17.0546 2.83375 12 2.83375ZM13.73 12.0088C12.3354 13.1383 12.4113 14.4129 12.4154 14.4663C12.4321 14.695 12.2612 14.8958 12.0333 14.9142C12.0221 14.915 12.0104 14.9154 11.9992 14.9154C11.7854 14.9154 11.6042 14.7533 11.585 14.5371C11.5787 14.4663 11.4513 12.7821 13.2054 11.3617C13.8379 10.8492 14.0842 10.3521 14.0842 9.58875C14.0842 8.39125 13.1492 7.41709 12 7.41709C10.8321 7.41709 9.9175 8.3325 9.9175 9.50125C9.9175 9.73125 9.73083 9.91792 9.50083 9.91792C9.27083 9.91792 9.08417 9.73125 9.08417 9.50125C9.08417 7.86542 10.365 6.58375 12 6.58375C13.6087 6.58375 14.9175 7.93167 14.9175 9.58875C14.9175 10.6104 14.5625 11.3342 13.73 12.0088ZM12 16.1667C12.4596 16.1667 12.8333 16.5408 12.8333 17.0004C12.8333 17.4596 12.4596 17.8338 12 17.8338C11.5404 17.8338 11.1667 17.4596 11.1667 17.0004C11.1667 16.5408 11.5404 16.1667 12 16.1667Z" fill="white"/>
</svg>
