<svg width="18" height="18" viewBox="0 0 18 18" fill="none" xmlns="http://www.w3.org/2000/svg">
<path fill-rule="evenodd" clip-rule="evenodd" d="M15.4652 11.0809L14.9638 11.4619L15.0501 12.0853C15.1545 12.8363 14.9295 13.5941 14.4322 14.165C13.9331 14.7381 13.2145 15.0669 12.4603 15.0669C12.4603 15.0669 12.4603 15.0669 12.46 15.0669C12.3406 15.0669 12.2197 15.0587 12.1 15.0425L11.4761 14.9578L11.0967 15.4597C10.5963 16.1206 9.83434 16.4997 9.00547 16.5C8.17941 16.5 7.41899 16.1228 6.91892 15.4647L6.53824 14.9637L5.91471 15.0503C5.03833 15.1719 4.1582 14.8403 3.57843 14.1766C3.08148 13.6069 2.85489 12.85 2.95678 12.1L3.0421 11.4762L2.53953 11.0966C1.87975 10.5972 1.50094 9.83625 1.5 9.00875C1.49875 8.18125 1.87631 7.41969 2.53484 6.91875L3.03585 6.53781L2.94959 5.91469C2.84551 5.16313 3.07054 4.40531 3.56812 3.83406C4.14633 3.17031 5.02645 2.83812 5.89971 2.95719L6.52386 3.04188L6.90329 2.54C7.40336 1.87906 8.16535 1.5 8.99422 1.5C9.82028 1.5 10.5807 1.87688 11.0808 2.535L11.4618 3.03594L12.0853 2.94938C12.9617 2.82875 13.8418 3.15937 14.4216 3.82344C14.9185 4.3925 15.1451 5.15 15.0429 5.9L14.9576 6.52344L15.4602 6.90344C16.1199 7.4025 16.4991 8.16344 16.5 8.99094C16.5009 9.81812 16.1237 10.5803 15.4652 11.0809ZM15.0829 7.40156L14.435 6.91188C14.345 6.84344 14.2984 6.7325 14.3137 6.62031L14.4234 5.81563C14.5022 5.23563 14.3344 4.67406 13.9506 4.23438C13.5086 3.72844 12.8388 3.47594 12.1712 3.56844L11.3668 3.68031C11.2558 3.69594 11.1433 3.64969 11.0748 3.55969L10.5832 2.91312C10.2025 2.41219 9.62306 2.12469 8.99422 2.12469C8.36319 2.12469 7.78279 2.41344 7.40211 2.91688L6.91204 3.565C6.8439 3.655 6.73201 3.70219 6.62043 3.68594L5.81532 3.57656C5.1496 3.48563 4.48075 3.73844 4.03943 4.24469C3.65532 4.68563 3.4881 5.24812 3.56843 5.82844L3.68001 6.63344C3.69563 6.74531 3.64969 6.85656 3.55999 6.925L2.91302 7.41625C2.41139 7.79781 2.12416 8.37781 2.12478 9.00812C2.12541 9.63844 2.4142 10.2175 2.91677 10.5978L3.56499 11.0878C3.655 11.1559 3.70157 11.2672 3.68626 11.3794L3.57624 12.1844C3.49748 12.7641 3.66532 13.3256 4.04944 13.7653C4.49138 14.2716 5.1621 14.5247 5.82876 14.4313L6.63325 14.3194C6.64763 14.3175 6.662 14.3166 6.67638 14.3166C6.77296 14.3166 6.86547 14.3616 6.92517 14.44L7.41649 15.0866C7.79717 15.5875 8.37663 15.8747 9.00547 15.8747C9.63681 15.8747 10.2172 15.5859 10.5979 15.0825L11.088 14.4347C11.1561 14.3447 11.268 14.2988 11.3796 14.3138L12.1844 14.4231C12.8523 14.5141 13.5196 14.2609 13.9606 13.7547C14.3447 13.3138 14.5119 12.7516 14.4313 12.1712L14.32 11.3663C14.3044 11.2544 14.3503 11.1428 14.44 11.0747L15.087 10.5834C15.5886 10.2019 15.8758 9.62187 15.8752 8.99156C15.8743 8.36156 15.5855 7.78219 15.0829 7.40156ZM8.29974 11.3909C8.23786 11.4628 8.15034 11.5 8.06252 11.5C7.99032 11.5 7.91812 11.475 7.85937 11.4247L5.67186 9.54937C5.54059 9.4375 5.52528 9.24 5.63779 9.10906C5.75 8.97781 5.94753 8.96281 6.07817 9.075L8.02845 10.7466L11.5755 6.60906C11.6877 6.47813 11.8853 6.46312 12.0159 6.575C12.1469 6.6875 12.1622 6.88469 12.0497 7.01594L8.29974 11.3909Z" fill="#BFBFBF"/>
</svg>
