<svg width="20" height="21" viewBox="0 0 20 21" fill="none" xmlns="http://www.w3.org/2000/svg">
<rect y="0.5" width="20" height="20" rx="10" fill="white"/>
<path fill-rule="evenodd" clip-rule="evenodd" d="M17.9193 10.5657C17.9193 14.0299 15.6729 17.1262 12.4564 18.0947C12.418 18.1062 12.3796 18.1114 12.342 18.1114C12.1718 18.1114 12.0146 18.001 11.9632 17.8299C11.8998 17.6208 12.0186 17.3996 12.228 17.3365C15.1128 16.468 17.1276 13.6838 17.1276 10.5657C17.1276 7.23452 14.9236 4.58964 11.7027 3.95134L12.3582 4.86336C12.4809 5.04398 12.4334 5.29009 12.2525 5.41274C12.1844 5.45919 12.1072 5.48102 12.0309 5.48102C11.9038 5.48102 11.7795 5.42029 11.7027 5.30716L10.4665 3.53851C10.4048 3.44761 10.3838 3.33488 10.4083 3.2277C10.4329 3.12052 10.501 3.02843 10.596 2.97365L12.5359 1.80312C12.7247 1.69396 12.9674 1.75827 13.077 1.94801C13.1863 2.13736 13.1214 2.3795 12.9322 2.48866L11.8345 3.17252C15.3939 3.8783 17.9193 6.89672 17.9193 10.5657ZM9.40885 18.207L7.37665 19.2851C7.3145 19.3212 7.24642 19.3383 7.17912 19.3383C7.04217 19.3383 6.90917 19.2676 6.83594 19.1406C6.72669 18.9513 6.79121 18.7091 6.98042 18.6L8.17029 18.009C4.61135 17.3032 2.08594 14.2852 2.08594 10.6154C2.08594 7.15116 4.33269 4.05534 7.55002 3.08638C7.75823 3.02327 7.9799 3.14235 8.04283 3.35194C8.10577 3.56074 7.98742 3.78145 7.77802 3.84456C4.89279 4.71309 2.8776 7.4973 2.8776 10.6154C2.8776 13.9466 5.0816 16.5919 8.3025 17.2302L7.77802 16.2906C7.65531 16.11 7.70281 15.8639 7.88371 15.7408C8.0646 15.6182 8.31081 15.6658 8.43352 15.8464L9.53829 17.6426C9.60004 17.7331 9.62102 17.8462 9.59687 17.953C9.57194 18.0602 9.50425 18.1523 9.40885 18.207Z" fill="black"/>
<path fill-rule="evenodd" clip-rule="evenodd" d="M5.54619 7.88542C6.73862 9.01792 7.58121 10.5104 7.88841 11.0996C7.91098 11.1425 7.92561 11.1667 7.92895 11.1721C8.00585 11.29 8.13709 11.3613 8.27794 11.3613H8.58221L8.52495 11.5067C8.46644 11.6554 8.4982 11.8246 8.60645 11.9417C9.80849 13.2458 11.3018 13.4408 12.0851 13.4408C12.139 13.4408 12.1854 13.4392 12.2314 13.4375C12.7572 14.4371 12.9222 15.1546 12.9256 15.1696C12.9674 15.3654 13.1404 15.5 13.3327 15.5C13.3615 15.5 13.3904 15.4967 13.4196 15.4904C13.6445 15.4429 13.7883 15.2225 13.741 14.9979C13.7264 14.9283 13.5412 14.1071 12.9473 12.99C13.1939 12.305 13.6696 10.7242 12.7191 9.35626C11.7098 7.90334 9.39346 7.16667 5.83333 7.16667C5.6628 7.16667 5.50941 7.27042 5.4463 7.42876C5.38319 7.58709 5.4229 7.76792 5.54619 7.88542ZM12.0345 9.83126C12.531 10.5463 12.4968 11.3817 12.3614 12.0175C11.6625 10.9788 10.6339 9.81959 9.12179 8.79626C8.9312 8.66709 8.67207 8.71709 8.54334 8.90751C8.41419 9.09834 8.46393 9.35709 8.65494 9.48626C10.1073 10.4692 11.0807 11.5975 11.7302 12.59C11.1012 12.5342 10.1876 12.3096 9.39973 11.5604L9.58196 11.0971C9.63253 10.9688 9.61623 10.8242 9.53891 10.71C9.46117 10.5958 9.33244 10.5279 9.1941 10.5279H8.52704C8.2211 9.96167 7.62969 8.96251 6.82095 8.02126C9.49711 8.14042 11.2906 8.76001 12.0345 9.83126Z" fill="black"/>
</svg>
