<svg width="18" height="18" viewBox="0 0 18 18" fill="none" xmlns="http://www.w3.org/2000/svg">
<path fill-rule="evenodd" clip-rule="evenodd" d="M15.4043 4.62525H14.6752L13.1977 15.9138C13.1545 16.2425 12.8343 16.5 12.4685 16.5H5.90618C5.54042 16.5 5.22024 16.2425 5.17707 15.9141L3.6995 4.62525H2.97039C2.77973 4.62525 2.625 4.48525 2.625 4.31244C2.625 4.13995 2.77973 3.99995 2.97039 3.99995H6.76965V2.43779C6.76965 1.92062 7.23454 1.5 7.80581 1.5H10.5689C11.1402 1.5 11.6051 1.92062 11.6051 2.43779V3.99995H15.4043C15.595 3.99995 15.7497 4.13995 15.7497 4.31244C15.7497 4.48525 15.595 4.62525 15.4043 4.62525ZM10.9143 2.43779C10.9143 2.2653 10.7592 2.12499 10.5689 2.12499H7.80581C7.6155 2.12499 7.46043 2.2653 7.46043 2.43779V3.99995H10.9143V2.43779ZM4.39546 4.62525L5.86335 15.84C5.86474 15.8535 5.89168 15.8747 5.90618 15.8747H12.4685C12.4834 15.8747 12.51 15.8535 12.5117 15.84L13.9793 4.62525H4.39546Z" fill="#BFBFBF"/>
</svg>
