<svg width="18" height="18" viewBox="0 0 18 18" fill="none" xmlns="http://www.w3.org/2000/svg">
<path fill-rule="evenodd" clip-rule="evenodd" d="M16.3457 5.74496C16.2214 5.88558 16.0487 5.9584 15.8753 5.9584C15.7283 5.9584 15.582 5.90692 15.4635 5.80334L11.7966 2.59541C11.5368 2.36879 11.5104 1.97329 11.7374 1.71402C11.9656 1.45286 12.3597 1.42775 12.6195 1.655L16.2864 4.86294C16.5462 5.09019 16.5727 5.48506 16.3457 5.74496ZM15.2497 10.2505C15.2497 13.6964 12.4461 16.5 9 16.5C5.55386 16.5 2.75029 13.6964 2.75029 10.2505C2.75029 6.80402 5.55386 4.00037 9 4.00037C12.4461 4.00037 15.2497 6.80402 15.2497 10.2505ZM9 5.25027C6.24309 5.25027 4.0001 7.49331 4.0001 10.2505C4.0001 13.0071 6.24309 15.2501 9 15.2501C11.7569 15.2501 13.9999 13.0071 13.9999 10.2505C13.9999 7.49331 11.7569 5.25027 9 5.25027ZM10.8747 12.7503C10.6982 12.7503 10.5222 12.6756 10.398 12.53L8.52328 10.3221C8.5031 10.2976 8.49553 10.2687 8.47977 10.243C8.45707 10.2066 8.43311 10.172 8.4186 10.1319C8.40221 10.0879 8.39779 10.0446 8.39149 9.99939C8.3877 9.97114 8.37509 9.94603 8.37509 9.91652V7.12544C8.37509 6.78016 8.65444 6.50017 9 6.50017C9.34556 6.50017 9.62491 6.78016 9.62491 7.12544V9.68676L11.3514 11.7201C11.5753 11.9838 11.5425 12.3787 11.2796 12.6015C11.1616 12.7013 11.0185 12.7503 10.8747 12.7503ZM2.53652 5.80334C2.41797 5.90692 2.27167 5.9584 2.12538 5.9584C1.95134 5.9584 1.77856 5.88558 1.65433 5.74496C1.42732 5.48506 1.45381 5.09019 1.71361 4.86294L5.38045 1.655C5.63962 1.42775 6.03373 1.45286 6.26264 1.71402C6.48965 1.97329 6.46316 2.36879 6.20336 2.59541L2.53652 5.80334Z" fill="#E65000"/>
</svg>
