<svg width="20" height="20" viewBox="0 0 20 20" fill="currentColor" xmlns="http://www.w3.org/2000/svg">
<path fill-rule="evenodd" clip-rule="evenodd" d="M10.0001 18.3333C5.40529 18.3333 1.66675 14.5948 1.66675 9.99996C1.66675 5.40482 5.40529 1.66663 10.0001 1.66663C14.5949 1.66663 18.3334 5.40482 18.3334 9.99996C18.3334 14.5948 14.5949 18.3333 10.0001 18.3333ZM10.0001 2.36107C5.78793 2.36107 2.36119 5.78781 2.36119 9.99996C2.36119 14.2121 5.78793 17.6388 10.0001 17.6388C14.2122 17.6388 17.639 14.2121 17.639 9.99996C17.639 5.78781 14.2122 2.36107 10.0001 2.36107ZM10.0001 9.65274C11.149 9.65274 12.0834 10.5875 12.0834 11.7364C12.0834 12.7663 11.3306 13.6184 10.3473 13.7847V14.8611C10.3473 15.0527 10.1921 15.2083 10.0001 15.2083C9.80807 15.2083 9.65286 15.0527 9.65286 14.8611V13.8198H8.26397C8.07196 13.8198 7.91675 13.6645 7.91675 13.4725C7.91675 13.2809 8.07196 13.1257 8.26397 13.1257H10.0001C10.7661 13.1257 11.389 12.502 11.389 11.7364C11.389 10.9704 10.7661 10.3472 10.0001 10.3472C8.85112 10.3472 7.91675 9.41211 7.91675 8.26315C7.91675 7.23329 8.66953 6.38156 9.65286 6.21524V5.13885C9.65286 4.94683 9.80807 4.79163 10.0001 4.79163C10.1921 4.79163 10.3473 4.94683 10.3473 5.13885V6.17982H11.7362C11.9282 6.17982 12.0834 6.33538 12.0834 6.52704C12.0834 6.71871 11.9282 6.87427 11.7362 6.87427H10.0001C9.23411 6.87427 8.61119 7.49753 8.61119 8.26315C8.61119 9.02913 9.23411 9.65274 10.0001 9.65274Z" fill="currentColor"/>
</svg>
