<svg width="18" height="18" viewBox="0 0 18 18" fill="currentColor" xmlns="http://www.w3.org/2000/svg">
<path fill-rule="evenodd" clip-rule="evenodd" d="M12.9375 9.29915H4.8125C4.64 9.29915 4.5 9.17233 4.5 8.9998C4.5 8.82759 4.64 8.68731 4.8125 8.68731H12.9375C13.11 8.68731 13.25 8.82759 13.25 8.9998C13.25 9.17233 13.11 9.29915 12.9375 9.29915ZM11.5959 4.53344C11.535 4.59419 11.455 4.62487 11.375 4.62487C11.295 4.62487 11.215 4.59419 11.1541 4.53344L9.1875 2.56673V7.12483C9.1875 7.29736 9.0475 7.43733 8.875 7.43733C8.7025 7.43733 8.5625 7.29736 8.5625 7.12483V2.56673L6.59594 4.53344C6.47375 4.65525 6.27625 4.65525 6.15406 4.53344C6.03188 4.41132 6.03188 4.21312 6.15406 4.09131L8.65375 1.59135C8.68281 1.56255 8.71719 1.53969 8.75562 1.52372C8.83187 1.49209 8.91813 1.49209 8.99438 1.52372C9.03281 1.53969 9.06719 1.56255 9.09625 1.59135L11.5959 4.09131C11.7181 4.21312 11.7181 4.41132 11.5959 4.53344ZM6.15406 13.4668C6.27625 13.3447 6.47375 13.3447 6.59594 13.4668L8.5625 15.4332V10.8751C8.5625 10.7026 8.7025 10.5626 8.875 10.5626C9.0475 10.5626 9.1875 10.7026 9.1875 10.8751V15.4332L11.1541 13.4668C11.2762 13.3447 11.4738 13.3447 11.5959 13.4668C11.7181 13.5886 11.7181 13.7865 11.5959 13.9086L9.09594 16.4089C9.09219 16.4126 9.08687 16.4139 9.08313 16.4173C9.05688 16.4411 9.02781 16.4621 8.99438 16.4759C8.95625 16.4919 8.91563 16.5 8.875 16.5C8.83437 16.5 8.79375 16.4919 8.75562 16.4759C8.72219 16.4621 8.69281 16.4411 8.66656 16.417C8.66281 16.4136 8.65781 16.4123 8.65406 16.4089L6.15406 13.9086C6.03188 13.7865 6.03188 13.5886 6.15406 13.4668Z" fill="currentColor"/>
</svg>
