<svg width="20" height="20" viewBox="0 0 20 20" fill="none" xmlns="http://www.w3.org/2000/svg">
<g id="shaking-hands">
<path id="Vector" fill-rule="evenodd" clip-rule="evenodd" d="M17.9874 13.1933H16.4319L16.5357 13.3415C16.5478 13.3579 16.96 13.9225 16.96 14.5818C16.96 15.3121 16.6023 15.8871 15.978 16.159C15.7527 16.2569 15.5353 16.2992 15.3294 16.2992C15.0173 16.2992 14.7315 16.2024 14.4812 16.0583C14.4315 16.4048 14.2728 16.7934 13.8266 17.0861C13.5305 17.2802 13.2273 17.3774 12.9225 17.3774C12.8225 17.3774 12.7225 17.367 12.6221 17.3461C12.2426 17.2666 11.9447 17.0475 11.7426 16.8524C11.6214 17.0774 11.4287 17.3125 11.0992 17.4753C10.7617 17.6427 10.4516 17.7069 10.1787 17.7069C9.62734 17.7069 9.2263 17.4458 9.04852 17.2437C8.89332 17.4541 8.6829 17.6413 8.40408 17.7975C8.07283 17.983 7.77005 18.0555 7.5013 18.0555C6.877 18.0562 6.43637 17.6625 6.25269 17.3711L4.24332 14.5173C4.02457 14.1593 3.30373 13.1933 2.70964 13.1933H2.01519C1.82318 13.1933 1.66797 13.0381 1.66797 12.8464V4.8608C1.66797 4.66913 1.82318 4.51357 2.01519 4.51357H4.09852C4.58741 4.51357 4.98394 4.36322 5.48533 4.17259C6.30721 3.86043 7.33047 3.47223 9.30686 3.47223C9.37352 3.47223 9.43255 3.49584 9.48533 3.52848C9.52665 3.48577 9.57387 3.43751 9.61276 3.39758C10.5381 2.44131 10.8843 2.08331 11.7374 2.08331H12.7635C14.5051 2.08331 14.9957 2.41318 15.8867 3.01146L16.0617 3.12847C17.6378 4.17954 18.1694 4.56392 18.1912 4.57955C18.2815 4.64517 18.3346 4.74969 18.3346 4.8608V12.8464C18.3346 13.0381 18.1794 13.1933 17.9874 13.1933ZM5.7322 4.82191C5.18637 5.02886 4.71484 5.20803 4.09852 5.20803H2.36241V12.4988H2.70964C3.80061 12.4988 4.72248 13.9697 4.82422 14.1374L6.83012 16.9861C6.90964 17.1052 7.3013 17.6198 8.06484 17.1916C8.35373 17.0298 8.53603 16.8392 8.60721 16.6249C8.6079 16.6236 8.60894 16.6229 8.60929 16.6215L6.59193 13.7395C6.48186 13.5825 6.51971 13.3662 6.67734 13.2561C6.83359 13.1464 7.05096 13.1839 7.16068 13.3415L9.577 16.7937C9.64991 16.8656 10.0551 17.2173 10.7912 16.8531C11.0787 16.7111 11.1721 16.4822 11.2451 16.2201L9.02248 13.0454C8.91241 12.8884 8.95061 12.6717 9.1079 12.5617C9.2645 12.4519 9.48116 12.4898 9.59123 12.6471L12.0218 16.119C12.0895 16.2208 12.6562 17.0239 13.4457 16.5052C13.8416 16.2458 13.8319 15.8569 13.7881 15.4805L13.785 15.4513C13.7093 15.3579 13.6416 15.2659 13.5905 15.1819L11.4603 12.361C11.3447 12.2082 11.3753 11.9905 11.528 11.8748C11.6812 11.7592 11.8989 11.7894 12.0145 11.9426L14.1558 14.7784C14.1635 14.7884 14.1707 14.7992 14.177 14.81C14.2034 14.8537 14.8419 15.8958 15.7006 15.5221C16.1676 15.319 16.2655 14.8989 16.2655 14.5818C16.2655 14.1548 15.9742 13.7499 15.9714 13.7461L11.3214 7.10391C10.9975 7.35426 10.4284 7.75184 9.67283 8.11122C8.31693 8.75568 7.27387 8.85811 6.57179 8.4147C6.10339 8.11886 5.83464 7.58274 5.83464 6.94418C5.83464 6.51813 6.20234 6.26604 6.75859 5.88409C7.27318 5.5313 7.97769 5.04796 8.82977 4.19586C8.83637 4.18961 8.84123 4.1844 8.84783 4.1778C7.29922 4.23301 6.43325 4.55524 5.7322 4.82191ZM17.6402 5.04032C17.3916 4.86566 16.7968 4.4535 15.6767 3.70661L15.4996 3.58786C14.6714 3.03194 14.2933 2.77777 12.7635 2.77777H11.7374C11.194 2.77777 11.0267 2.93472 10.1117 3.88023C9.89123 4.10836 9.63255 4.37503 9.32075 4.68684C8.42318 5.58443 7.6579 6.10909 7.1513 6.45667C6.87422 6.64695 6.55998 6.86224 6.52769 6.9539C6.52908 7.17648 6.5829 7.60045 6.94262 7.82788C7.41623 8.12685 8.27977 8.00462 9.37457 7.48378C10.4749 6.9612 11.1485 6.34729 11.1551 6.34104C11.2291 6.27368 11.3287 6.24035 11.4277 6.25181C11.527 6.26222 11.6173 6.31604 11.6746 6.39799L15.9461 12.4988H17.6402V5.04032Z" fill="black"/>
</g>
</svg>
