<svg width="18" height="18" viewBox="0 0 18 18" fill="none" xmlns="http://www.w3.org/2000/svg">
<path fill-rule="evenodd" clip-rule="evenodd" d="M14.3122 5.875C13.57 5.875 12.915 5.50156 12.5197 4.93469L5.75562 8.31938C5.82688 8.535 5.875 8.76094 5.875 9C5.875 9.24031 5.82656 9.46781 5.75437 9.68437L12.5184 13.0669C12.9141 12.4991 13.5694 12.125 14.3122 12.125C15.5184 12.125 16.5 13.1066 16.5 14.3125C16.5 15.5188 15.5184 16.5 14.3122 16.5C13.1062 16.5 12.125 15.5188 12.125 14.3125C12.125 14.0725 12.1734 13.8456 12.245 13.6291L5.48094 10.2466C5.08531 10.8138 4.43031 11.1875 3.68781 11.1875C2.48156 11.1875 1.5 10.2059 1.5 9C1.5 7.79375 2.48156 6.8125 3.68781 6.8125C4.43156 6.8125 5.08812 7.1875 5.48344 7.75656L12.2456 4.3725C12.1734 4.15563 12.125 3.92812 12.125 3.6875C12.125 2.48156 13.1062 1.5 14.3122 1.5C15.5184 1.5 16.5 2.48156 16.5 3.6875C16.5 4.89375 15.5184 5.875 14.3122 5.875ZM14.3122 15.875C15.1741 15.875 15.875 15.1741 15.875 14.3125C15.875 13.4509 15.1741 12.75 14.3122 12.75C13.4506 12.75 12.75 13.4509 12.75 14.3125C12.75 15.1741 13.4506 15.875 14.3122 15.875ZM3.68781 7.4375C2.82594 7.4375 2.125 8.13844 2.125 9C2.125 9.86156 2.82594 10.5625 3.68781 10.5625C4.54938 10.5625 5.25 9.86156 5.25 9C5.25 8.13844 4.54938 7.4375 3.68781 7.4375ZM14.3122 2.125C13.4506 2.125 12.75 2.82594 12.75 3.6875C12.75 4.54906 13.4506 5.25 14.3122 5.25C15.1741 5.25 15.875 4.54906 15.875 3.6875C15.875 2.82594 15.1741 2.125 14.3122 2.125Z" fill="#BFBFBF"/>
</svg>
