<svg width="18" height="18" viewBox="0 0 18 18" fill="currentColor" xmlns="http://www.w3.org/2000/svg">
<path fill-rule="evenodd" clip-rule="evenodd" d="M15.0344 13.5959L12.2613 16.3688C12.2234 16.4158 12.1766 16.4549 12.1188 16.4768C12.0811 16.4922 12.0409 16.5 12.0011 16.5C11.921 16.5 11.8409 16.4693 11.78 16.4083L8.96705 13.5959C8.84491 13.4741 8.84491 13.2759 8.96705 13.1541C9.08919 13.032 9.287 13.032 9.40914 13.1541L11.7053 15.4498V1.78432C11.7053 1.6118 11.8284 1.50002 12.0011 1.50002C12.1734 1.50002 12.3333 1.6118 12.3333 1.78432V15.4132L14.5927 13.1541C14.7148 13.032 14.9126 13.032 15.0344 13.1541C15.1566 13.2759 15.1566 13.4741 15.0344 13.5959ZM8.56295 4.93737C8.4832 4.93737 8.40314 4.907 8.34222 4.84594L6.05361 2.5574V16.1875C6.05361 16.3604 5.92299 16.5 5.7503 16.5C5.57761 16.5 5.42564 16.3604 5.42564 16.1875V2.579L3.15838 4.84594C3.03655 4.96806 2.83874 4.96806 2.7166 4.84594C2.59447 4.72383 2.59447 4.52594 2.7166 4.40414L5.4517 1.6691C5.50163 1.56483 5.61811 1.50189 5.74685 1.50064C5.74936 1.50064 5.75156 1.50064 5.75438 1.50064C5.85423 1.50189 5.93618 1.54354 5.98987 1.60992L8.784 4.40414C8.90614 4.52594 8.90614 4.72383 8.784 4.84594C8.72308 4.907 8.64302 4.93737 8.56295 4.93737Z" fill="currentColor"/>
</svg>
