<svg width="16" height="16" viewBox="0 0 16 16" fill="currentColor" xmlns="http://www.w3.org/2000/svg">
<path fill-rule="evenodd" clip-rule="evenodd" d="M14.3915 7.7219C14.5451 7.7219 14.6693 7.84634 14.6693 7.99967C14.6693 8.15329 14.5451 8.27773 14.3915 8.27773H12.1693V11.8888H14.3915C14.5451 11.8888 14.6693 12.0133 14.6693 12.1666C14.6693 12.32 14.5451 12.4444 14.3915 12.4444H12.1693V14.3888C12.1693 14.5422 12.0451 14.6663 11.8915 14.6663C11.7379 14.6663 11.6137 14.5422 11.6137 14.3888V12.4444H8.28038V14.3888C8.28038 14.5422 8.15622 14.6663 8.0026 14.6663C7.84899 14.6663 7.72483 14.5422 7.72483 14.3888V12.4444H4.11372V14.3888C4.11372 14.5422 3.98955 14.6663 3.83594 14.6663C3.68233 14.6663 3.55816 14.5422 3.55816 14.3888V12.4444H1.61372C1.4601 12.4444 1.33594 12.32 1.33594 12.1666C1.33594 12.0133 1.4601 11.8888 1.61372 11.8888H3.55816V8.27773H1.61372C1.4601 8.27773 1.33594 8.15329 1.33594 7.99967C1.33594 7.84634 1.4601 7.7219 1.61372 7.7219H3.55816V4.11079H1.61372C1.4601 4.11079 1.33594 3.98662 1.33594 3.83301C1.33594 3.67967 1.4601 3.55551 1.61372 3.55551H3.55816V1.61106C3.55816 1.45773 3.68233 1.33301 3.83594 1.33301C3.98955 1.33301 4.11372 1.45773 4.11372 1.61106V3.55551H7.72483V1.61106C7.72483 1.45773 7.84899 1.33301 8.0026 1.33301C8.15622 1.33301 8.28038 1.45773 8.28038 1.61106V3.55551H11.6137V1.61106C11.6137 1.45773 11.7379 1.33301 11.8915 1.33301C12.0451 1.33301 12.1693 1.45773 12.1693 1.61106V3.55551H14.3915C14.5451 3.55551 14.6693 3.67967 14.6693 3.83301C14.6693 3.98662 14.5451 4.11079 14.3915 4.11079H12.1693V7.7219H14.3915ZM7.72483 4.11079H4.11372V7.7219H7.72483V4.11079ZM4.11372 8.27773V11.8888H7.72483V8.27773H4.11372ZM11.6137 4.11079H8.28038V7.7219H11.6137V4.11079ZM8.28038 8.27773V11.8888H11.6137V8.27773H8.28038Z" fill="currentColor"/>
</svg>
