<svg width="24" height="24" viewBox="0 0 24 24" fill="none" xmlns="http://www.w3.org/2000/svg">
<path fill-rule="evenodd" clip-rule="evenodd" d="M21.5833 22H2.41667C2.18667 22 2 21.8133 2 21.5833V2.41667C2 2.18667 2.18667 2 2.41667 2H21.5833C21.8133 2 22 2.18667 22 2.41667V21.5833C22 21.8133 21.8133 22 21.5833 22ZM21.1667 2.83292H2.83333V21.1667H21.1667V2.83292ZM9.62208 7.53875C9.785 7.37542 10.0483 7.37542 10.2113 7.53875L14.3779 11.705C14.5408 11.8679 14.5408 12.1317 14.3779 12.2942L10.2113 16.4613C10.13 16.5425 10.0233 16.5833 9.91667 16.5833C9.81 16.5833 9.70333 16.5425 9.62208 16.4613C9.45917 16.2983 9.45917 16.035 9.62208 15.8721L13.4942 12L9.62208 8.12792C9.45917 7.96542 9.45917 7.70167 9.62208 7.53875Z" fill="black"/>
</svg>
