<svg width="16" height="16" viewBox="0 0 16 16" fill="none" xmlns="http://www.w3.org/2000/svg">
<path fill-rule="evenodd" clip-rule="evenodd" d="M14.3886 14.6666H1.61079C1.45745 14.6666 1.33301 14.5424 1.33301 14.3891V1.61131C1.33301 1.45797 1.45745 1.33325 1.61079 1.33325H14.3886C14.5419 1.33325 14.6663 1.45797 14.6663 1.61131V14.3891C14.6663 14.5424 14.5419 14.6666 14.3886 14.6666ZM14.1108 1.88909H1.88856V14.1113H14.1108V1.88909ZM4.68773 7.89381C4.7019 7.85992 4.72217 7.82908 4.74773 7.80353L6.4144 6.13714C6.52273 6.02853 6.69856 6.02853 6.80717 6.13714C6.91579 6.24547 6.91579 6.42131 6.80717 6.52992L5.61467 7.72214H9.66634C10.3516 7.72214 10.7775 7.29658 10.7775 6.61131V5.7777C10.7775 5.62436 10.9019 5.5002 11.0552 5.5002C11.2086 5.5002 11.333 5.62436 11.333 5.7777V6.61131C11.333 7.58603 10.6905 8.24325 9.73051 8.27242C9.72106 8.27325 9.71301 8.27797 9.70329 8.27797H5.61467L6.80717 9.47047C6.91579 9.57881 6.91579 9.75464 6.80717 9.86325C6.75301 9.91742 6.6819 9.94464 6.61079 9.94464C6.53967 9.94464 6.46856 9.91742 6.4144 9.86325L4.74773 8.19658C4.72217 8.17103 4.7019 8.1402 4.68773 8.10603C4.67384 8.07242 4.66662 8.03658 4.66634 8.00075C4.66634 8.00047 4.66634 8.0002 4.66634 7.99992C4.66634 7.96381 4.67356 7.9277 4.68773 7.89381Z" fill="black"/>
</svg>
