<svg width="24" height="24" viewBox="0 0 24 24" fill="none" xmlns="http://www.w3.org/2000/svg">
<path fill-rule="evenodd" clip-rule="evenodd" d="M21.5833 22H2.41667C2.18667 22 2 21.8133 2 21.5833V2.41667C2 2.18667 2.18667 2 2.41667 2H21.5833C21.8133 2 22 2.18667 22 2.41667V21.5833C22 21.8133 21.8133 22 21.5833 22ZM21.1667 2.83292H2.83333V21.1667H21.1667V2.83292ZM13.7887 7.53875C13.9512 7.37542 14.215 7.37542 14.3779 7.53875C14.5408 7.70167 14.5408 7.96542 14.3779 8.12792L10.5058 12L14.3779 15.8721C14.5408 16.035 14.5408 16.2983 14.3779 16.4613C14.2967 16.5425 14.19 16.5833 14.0833 16.5833C13.9767 16.5833 13.87 16.5425 13.7887 16.4613L9.62208 12.2942C9.45917 12.1317 9.45917 11.8679 9.62208 11.705L13.7887 7.53875Z" fill="black"/>
</svg>
