<svg width="18" height="18" viewBox="0 0 18 18" fill="none" xmlns="http://www.w3.org/2000/svg">
<path fill-rule="evenodd" clip-rule="evenodd" d="M16.1875 16.5H1.8125C1.64 16.5 1.5 16.3603 1.5 16.1878V1.81281C1.5 1.64031 1.64 1.5 1.8125 1.5H16.1875C16.36 1.5 16.5 1.64031 16.5 1.81281V16.1878C16.5 16.3603 16.36 16.5 16.1875 16.5ZM15.875 2.12531H2.125V15.8753H15.875V2.12531ZM5.5625 8.6875H8.6875V5.56281C8.6875 5.39031 8.8275 5.25031 9 5.25031C9.1725 5.25031 9.3125 5.39031 9.3125 5.56281V8.6875H12.4375C12.61 8.6875 12.75 8.8275 12.75 9C12.75 9.17281 12.61 9.31281 12.4375 9.31281H9.3125V12.4378C9.3125 12.6103 9.1725 12.7503 9 12.7503C8.8275 12.7503 8.6875 12.6103 8.6875 12.4378V9.31281H5.5625C5.39 9.31281 5.25 9.17281 5.25 9C5.25 8.8275 5.39 8.6875 5.5625 8.6875Z" fill="black"/>
</svg>
