<svg width="20" height="20" viewBox="0 0 20 20" fill="none" xmlns="http://www.w3.org/2000/svg">
<path fill-rule="evenodd" clip-rule="evenodd" d="M15.1541 17.3333H1.26519C1.07318 17.3333 0.917969 17.1781 0.917969 16.9861V3.09721C0.917969 2.90555 1.07318 2.74999 1.26519 2.74999H5.08464V1.01388C5.08464 0.822212 5.23984 0.666656 5.43186 0.666656C5.62387 0.666656 5.77908 0.822212 5.77908 1.01388V2.74999H10.6402V1.01388C10.6402 0.822212 10.7954 0.666656 10.9874 0.666656C11.1794 0.666656 11.3346 0.822212 11.3346 1.01388V2.74999H15.1541C15.3461 2.74999 15.5013 2.90555 15.5013 3.09721V16.9861C15.5013 17.1781 15.3461 17.3333 15.1541 17.3333ZM14.8069 3.44478H11.3346V4.48575C11.3346 4.67742 11.1794 4.83332 10.9874 4.83332C10.7954 4.83332 10.6402 4.67742 10.6402 4.48575V3.44478H5.77908V4.48575C5.77908 4.67742 5.62387 4.83332 5.43186 4.83332C5.23984 4.83332 5.08464 4.67742 5.08464 4.48575V3.44478H1.61241V5.87534H14.8069V3.44478ZM14.8069 6.56943H1.61241V16.6389H14.8069V6.56943ZM8.20964 12.125C7.44366 12.125 6.82075 11.5017 6.82075 10.7358C6.82075 10.091 7.26484 9.55173 7.86241 9.39652V8.65277C7.86241 8.4611 8.01762 8.3052 8.20964 8.3052C8.40165 8.3052 8.55686 8.4611 8.55686 8.65277V9.34721H9.2513C9.44332 9.34721 9.59853 9.50311 9.59853 9.69478C9.59853 9.88645 9.44332 10.042 9.2513 10.042H8.20964C7.82665 10.042 7.51519 10.3535 7.51519 10.7358C7.51519 11.1191 7.82665 11.4302 8.20964 11.4302C8.97561 11.4302 9.59853 12.0535 9.59853 12.8187C9.59853 13.4642 9.15443 14.0035 8.55686 14.1587V14.9028C8.55686 15.0944 8.40165 15.25 8.20964 15.25C8.01762 15.25 7.86241 15.0944 7.86241 14.9028V14.208H7.16797C6.97596 14.208 6.82075 14.0524 6.82075 13.8608C6.82075 13.6691 6.97596 13.5135 7.16797 13.5135H8.20964C8.59227 13.5135 8.90408 13.2021 8.90408 12.8187C8.90408 12.4361 8.59227 12.125 8.20964 12.125Z" fill="black"/>
</svg>
