<svg width="18" height="18" viewBox="0 0 18 18" fill="none" xmlns="http://www.w3.org/2000/svg">
<path fill-rule="evenodd" clip-rule="evenodd" d="M16.4078 5.97119L13.5959 8.7832C13.5348 8.84428 13.4548 8.87466 13.3748 8.87466C13.2951 8.87466 13.2151 8.84428 13.1539 8.7832C13.0319 8.66136 13.0319 8.46342 13.1539 8.34126L15.4531 6.04198H1.78705C1.61451 6.04198 1.5 5.92233 1.5 5.74975C1.5 5.57717 1.61451 5.41556 1.78705 5.41556H15.4111L13.1539 3.15824C13.0319 3.0364 13.0319 2.83845 13.1539 2.71661C13.2759 2.59446 13.4739 2.59446 13.5959 2.71661L16.319 5.43967C16.431 5.48885 16.4997 5.61445 16.4997 5.74944C16.4997 5.75007 16.4997 5.75101 16.4997 5.75163C16.4991 5.84466 16.4649 5.91983 16.4078 5.97119ZM1.50031 11.9993C1.50031 11.8793 1.55804 11.775 1.64964 11.7205L4.40407 8.96643C4.5261 8.84428 4.72406 8.84428 4.84609 8.96643C4.96813 9.08827 4.96813 9.28622 4.84609 9.40806L2.57448 11.6798H16.218C16.3905 11.6798 16.5 11.827 16.5 11.9996C16.5 12.1721 16.3905 12.3062 16.218 12.3062H2.5613L4.84609 14.5911C4.96813 14.7129 4.96813 14.9109 4.84609 15.0327C4.78492 15.0938 4.70492 15.1245 4.62524 15.1245C4.54524 15.1245 4.46524 15.0938 4.40407 15.0327L1.61451 12.2432C1.54455 12.1878 1.5 12.1029 1.5 11.9996C1.5 11.9996 1.50031 11.9996 1.50031 11.9993Z" fill="black"/>
</svg>
