<svg width="16" height="16" viewBox="0 0 16 16" fill="currentColor" xmlns="http://www.w3.org/2000/svg">
<path fill-rule="evenodd" clip-rule="evenodd" d="M14.3895 14.6666H3.27843C3.1251 14.6666 3.00065 14.5421 3.00065 14.3888V3.2777C3.00065 3.12436 3.1251 2.99992 3.27843 2.99992H14.3895C14.5429 2.99992 14.6673 3.12436 14.6673 3.2777V14.3888C14.6673 14.5421 14.5429 14.6666 14.3895 14.6666ZM14.1118 3.55547H3.55621V14.111H14.1118V3.55547ZM12.7229 2.44409C12.5695 2.44409 12.4451 2.31992 12.4451 2.16659V1.88853H1.88954V12.4444H2.16732C2.32065 12.4444 2.4451 12.5688 2.4451 12.7221C2.4451 12.8755 2.32065 12.9999 2.16732 12.9999H1.61176C1.45843 12.9999 1.33398 12.8755 1.33398 12.7221V1.61103C1.33398 1.4577 1.45843 1.33325 1.61176 1.33325H12.7229C12.8762 1.33325 13.0007 1.4577 13.0007 1.61103V2.16659C13.0007 2.31992 12.8762 2.44409 12.7229 2.44409Z" fill="currentColor"/>
</svg>
