<svg width="18" height="18" viewBox="0 0 18 18" fill="none" xmlns="http://www.w3.org/2000/svg">
<g id="tabs">
<path id="Vector" fill-rule="evenodd" clip-rule="evenodd" d="M16.1875 16.5H3.6875C3.515 16.5 3.375 16.36 3.375 16.1875V3.6875C3.375 3.515 3.515 3.375 3.6875 3.375H16.1875C16.36 3.375 16.5 3.515 16.5 3.6875V16.1875C16.5 16.36 16.36 16.5 16.1875 16.5ZM15.875 4H4V15.875H15.875V4ZM14.3125 2.74969C14.14 2.74969 14 2.61 14 2.4375V2.12469H2.125V14H2.4375C2.61 14 2.75 14.14 2.75 14.3125C2.75 14.485 2.61 14.625 2.4375 14.625H1.8125C1.64 14.625 1.5 14.485 1.5 14.3125V1.8125C1.5 1.64 1.64 1.5 1.8125 1.5H14.3125C14.485 1.5 14.625 1.64 14.625 1.8125V2.4375C14.625 2.61 14.485 2.74969 14.3125 2.74969Z" fill="black"/>
</g>
</svg>
