<svg width="16" height="16" viewBox="0 0 16 16" fill="currentColor" xmlns="http://www.w3.org/2000/svg">
<path fill-rule="evenodd" clip-rule="evenodd" d="M14.3876 14.6668H3.27648C3.12286 14.6668 2.9987 14.5424 2.9987 14.3891V3.27794C2.9987 3.12461 3.12286 3.00016 3.27648 3.00016H14.3876C14.5412 3.00016 14.6654 3.12461 14.6654 3.27794V14.3891C14.6654 14.5424 14.5412 14.6668 14.3876 14.6668ZM14.1098 3.55572H3.55425V14.1113H14.1098V3.55572ZM6.05425 8.55572H8.55425V6.05572C8.55425 5.90239 8.67842 5.77766 8.83203 5.77766C8.98564 5.77766 9.10981 5.90239 9.10981 6.05572V8.55572H11.6098C11.7634 8.55572 11.8876 8.67989 11.8876 8.83322C11.8876 8.98683 11.7634 9.11127 11.6098 9.11127H9.10981V11.611C9.10981 11.7643 8.98564 11.8891 8.83203 11.8891C8.67842 11.8891 8.55425 11.7643 8.55425 11.611V9.11127H6.05425C5.90064 9.11127 5.77648 8.98683 5.77648 8.83322C5.77648 8.67989 5.90064 8.55572 6.05425 8.55572ZM12.7209 2.44433C12.5673 2.44433 12.4431 2.32016 12.4431 2.16683V1.88877H1.88759V12.4446H2.16536C2.31898 12.4446 2.44314 12.5691 2.44314 12.7224C2.44314 12.8757 2.31898 13.0002 2.16536 13.0002H1.60981C1.4562 13.0002 1.33203 12.8757 1.33203 12.7224V1.61127C1.33203 1.45794 1.4562 1.3335 1.60981 1.3335H12.7209C12.8745 1.3335 12.9987 1.45794 12.9987 1.61127V2.16683C12.9987 2.32016 12.8745 2.44433 12.7209 2.44433Z" fill="currentColor"/>
</svg>
