<svg width="20" height="20" viewBox="0 0 20 20" fill="none" xmlns="http://www.w3.org/2000/svg">
<path fill-rule="evenodd" clip-rule="evenodd" d="M17.9859 10.3469H16.2328C16.0571 13.5156 13.5158 16.0566 10.3471 16.232V17.9858C10.3471 18.1775 10.1919 18.3334 9.99984 18.3334C9.80782 18.3334 9.65262 18.1775 9.65262 17.9858V16.232C6.48387 16.0566 3.9422 13.5153 3.76685 10.3469H2.01373C1.82171 10.3469 1.6665 10.1913 1.6665 9.99967C1.6665 9.80801 1.82171 9.65245 2.01373 9.65245H3.76685C3.9422 6.4844 6.48387 3.94273 9.65262 3.76703V2.01356C9.65262 1.8219 9.80782 1.66669 9.99984 1.66669C10.1919 1.66669 10.3471 1.8219 10.3471 2.01356V3.76703C13.5158 3.94273 16.0571 6.4844 16.2328 9.65245H17.9859C18.178 9.65245 18.3332 9.80801 18.3332 9.99967C18.3332 10.1913 18.178 10.3469 17.9859 10.3469ZM10.3471 4.46183V4.79134C10.3471 4.98301 10.1919 5.13856 9.99984 5.13856C9.80782 5.13856 9.65262 4.98301 9.65262 4.79134V4.46183C6.8665 4.63509 4.63491 6.86703 4.4613 9.65245H4.7915C4.98352 9.65245 5.13873 9.80801 5.13873 9.99967C5.13873 10.1913 4.98352 10.3469 4.7915 10.3469H4.4613C4.63491 13.1327 6.8665 15.3643 9.65262 15.5375V15.2084C9.65262 15.0163 9.80782 14.8608 9.99984 14.8608C10.1919 14.8608 10.3471 15.0163 10.3471 15.2084V15.5375C13.1328 15.3643 15.3648 13.1327 15.5384 10.3469H15.2082C15.0162 10.3469 14.8609 10.1913 14.8609 9.99967C14.8609 9.80801 15.0162 9.65245 15.2082 9.65245H15.5384C15.3648 6.86703 13.1328 4.63509 10.3471 4.46183ZM9.99984 9.65245C10.7658 9.65245 11.3887 10.2757 11.3887 11.0417C11.3887 11.6865 10.9443 12.2257 10.3471 12.3809V13.1247C10.3471 13.3163 10.1919 13.4722 9.99984 13.4722C9.80782 13.4722 9.65262 13.3163 9.65262 13.1247V12.4302H8.95817C8.76616 12.4302 8.61095 12.2747 8.61095 12.083C8.61095 11.8913 8.76616 11.7358 8.95817 11.7358H9.99984C10.3825 11.7358 10.6943 11.4243 10.6943 11.0417C10.6943 10.6584 10.3825 10.3469 9.99984 10.3469C9.23387 10.3469 8.61095 9.72398 8.61095 8.95835C8.61095 8.31287 9.05505 7.77363 9.65262 7.61842V6.87467C9.65262 6.68301 9.80782 6.5278 9.99984 6.5278C10.1919 6.5278 10.3471 6.68301 10.3471 6.87467V7.56912H11.0415C11.2335 7.56912 11.3887 7.72467 11.3887 7.91634C11.3887 8.10801 11.2335 8.26356 11.0415 8.26356H9.99984C9.61685 8.26356 9.30539 8.57502 9.30539 8.95835C9.30539 9.34099 9.61685 9.65245 9.99984 9.65245Z" fill="black"/>
</svg>
