<svg width="16" height="16" viewBox="0 0 16 16" fill="currentColor" xmlns="http://www.w3.org/2000/svg">
<path fill-rule="evenodd" clip-rule="evenodd" d="M14.3263 13H5.39523C5.10463 13 4.86833 12.7633 4.86833 12.4723V11.8335C4.86833 11.7575 4.90993 11.6873 4.9767 11.6506L8.20492 9.88708C8.26255 9.85542 8.31226 9.81875 8.34866 9.78667C8.31829 9.77521 8.28106 9.76458 8.23966 9.75854L6.29533 9.48437C6.21129 9.47271 6.14264 9.41062 6.12246 9.32792C6.10228 9.245 6.13432 9.15812 6.20359 9.10875C7.05043 8.50312 7.32896 6.02083 7.36474 5.11542C7.36495 5.11062 7.36745 5.10667 7.36786 5.10187C7.36849 5.09729 7.36682 5.09271 7.36765 5.08792C7.57692 3.87792 8.62554 3 9.86074 3C11.0959 3 12.1444 3.87792 12.3538 5.08792C12.3547 5.09271 12.353 5.09708 12.3536 5.10187C12.354 5.10667 12.3565 5.11042 12.3567 5.11542C12.3925 6.02083 12.6711 8.50312 13.5179 9.10875C13.5872 9.15812 13.6192 9.245 13.599 9.32792C13.5788 9.41062 13.5102 9.47271 13.4262 9.48437L11.4814 9.75875C11.4402 9.76458 11.403 9.77521 11.3726 9.78708C11.4088 9.81875 11.4583 9.85562 11.5159 9.88708L14.7448 11.6506C14.8116 11.6873 14.8532 11.7575 14.8532 11.8335V12.4723C14.8532 12.7633 14.6169 13 14.3263 13ZM14.4371 11.9573L11.3164 10.2527C11.247 10.2146 10.9008 10.0123 10.9008 9.7575C10.9008 9.52604 11.1715 9.38208 11.423 9.34625L12.955 9.13042C12.0894 8.00875 11.9536 5.41646 11.942 5.14979C11.7633 4.145 10.8898 3.41646 9.86074 3.41646C8.83168 3.41646 7.95822 4.145 7.77953 5.14979C7.76788 5.41646 7.63204 8.00875 6.76648 9.13042L8.29812 9.34625C8.55002 9.38208 8.82066 9.52604 8.82066 9.7575C8.82066 10.0123 8.47368 10.2148 8.404 10.2527L5.28436 11.9573V12.4723C5.28436 12.5325 5.33512 12.5833 5.39523 12.5833H14.3263C14.3864 12.5833 14.4371 12.5325 14.4371 12.4723V11.9573ZM7.08538 3.55146C6.83451 3.46396 6.58447 3.41875 6.34192 3.41646C6.3363 3.41708 6.33027 3.41729 6.32445 3.41729C5.38234 3.41729 4.21682 4.11979 4.03813 5.12958L4.03626 7.01479C4.03626 7.03187 4.05186 8.75812 5.20906 9.71312C5.21884 9.72125 5.22424 9.73229 5.23236 9.74187C5.2413 9.7525 5.25212 9.76104 5.25898 9.77354C5.2594 9.77417 5.2594 9.775 5.25961 9.77562C5.26897 9.79292 5.27292 9.81187 5.27687 9.83083C5.27854 9.83854 5.2829 9.84583 5.28374 9.85333C5.28498 9.86646 5.28124 9.87917 5.2802 9.89229C5.27895 9.90562 5.27999 9.91958 5.27625 9.9325C5.27417 9.93937 5.26897 9.94521 5.26626 9.95208C5.25857 9.97042 5.25087 9.98875 5.23818 10.0046C5.23777 10.005 5.23777 10.0058 5.23735 10.0062C5.2336 10.0106 5.2282 10.0123 5.22424 10.0162C5.2101 10.031 5.19575 10.046 5.17682 10.0565L1.74807 11.9415V12.4662C1.74807 12.529 1.79882 12.5817 1.85894 12.5817H4.03626C4.15108 12.5817 4.24427 12.675 4.24427 12.7902C4.24427 12.9052 4.15108 12.9983 4.03626 12.9983H1.85894C1.56834 12.9983 1.33203 12.7596 1.33203 12.4662V11.8181C1.33203 11.7421 1.37343 11.6721 1.43999 11.6354L4.72209 9.83125C3.63229 8.73521 3.62001 7.08833 3.62022 7.01437L3.62209 5.11167C3.62209 5.1 3.62293 5.08896 3.6248 5.07771C3.8297 3.84229 5.17162 3.01021 6.3051 3.00083C6.31134 3.00021 6.318 3 6.32445 3C6.619 3 6.92125 3.05312 7.22204 3.15792C7.33042 3.19583 7.38783 3.31458 7.35018 3.42312C7.31253 3.53187 7.19396 3.58958 7.08538 3.55146Z" fill="currentColor"/>
</svg>
