<svg width="16" height="16" viewBox="0 0 16 16" fill="none" xmlns="http://www.w3.org/2000/svg">
<path fill-rule="evenodd" clip-rule="evenodd" d="M11.2222 2.44435H9.98L6.94945 13.5556H7.88889C8.19556 13.5556 8.44445 13.8038 8.44445 14.1112C8.44445 14.4175 8.19556 14.6663 7.88889 14.6663H4.55556C4.24889 14.6663 4 14.4175 4 14.1112C4 13.8038 4.24889 13.5556 4.55556 13.5556H5.79778L8.82833 2.44435H7.88889C7.58222 2.44435 7.33333 2.19553 7.33333 1.88868C7.33333 1.58183 7.58222 1.33301 7.88889 1.33301H11.2222C11.5289 1.33301 11.7778 1.58183 11.7778 1.88868C11.7778 2.19553 11.5289 2.44435 11.2222 2.44435Z" fill="black"/>
</svg>
