<svg width="16" height="16" viewBox="0 0 16 16" fill="none" xmlns="http://www.w3.org/2000/svg">
<path fill-rule="evenodd" clip-rule="evenodd" d="M12.4444 14.6663H3.55556C3.24889 14.6663 3 14.4175 3 14.1108C3 13.8041 3.24889 13.5552 3.55556 13.5552H12.4444C12.7511 13.5552 13 13.8041 13 14.1108C13 14.4175 12.7511 14.6663 12.4444 14.6663ZM8 12.4441C5.67389 12.4441 4.11111 10.8813 4.11111 8.55523V1.88856C4.11111 1.5819 4.36 1.33301 4.66667 1.33301C4.97333 1.33301 5.22222 1.5819 5.22222 1.88856V8.55523C5.22222 10.2686 6.28667 11.333 8 11.333C9.71333 11.333 10.7778 10.2686 10.7778 8.55523V1.88856C10.7778 1.5819 11.0267 1.33301 11.3333 1.33301C11.64 1.33301 11.8889 1.5819 11.8889 1.88856V8.55523C11.8889 10.8813 10.3261 12.4441 8 12.4441Z" fill="black"/>
</svg>
