<svg width="16" height="16" viewBox="0 0 16 16" fill="none" xmlns="http://www.w3.org/2000/svg">
<path fill-rule="evenodd" clip-rule="evenodd" d="M10.6053 7.38634C11.7881 8.03356 12.5559 9.27968 12.5559 10.7775C12.5559 13.0308 10.9359 14.6663 8.70366 14.6663H4.22255C3.91588 14.6663 3.66699 14.4175 3.66699 14.1108V1.88856C3.66699 1.5819 3.91588 1.33301 4.22255 1.33301H8.70366C10.5831 1.33301 12.0003 2.76579 12.0003 4.66634C12.0003 5.80467 11.4525 6.78745 10.6053 7.38634ZM11.4448 10.7775C11.4448 9.40579 10.4964 8.0169 8.68422 8.0169C8.65422 8.0169 8.6281 8.00412 8.59866 7.99967H4.7781V13.5552H8.70366C10.587 13.5552 11.4448 12.1152 11.4448 10.7775ZM8.70366 2.44412H4.7781V6.88856H8.66699C9.93366 6.88856 10.8892 5.93301 10.8892 4.66634C10.8892 3.37856 9.97033 2.44412 8.70366 2.44412Z" fill="black"/>
</svg>
