<svg width="20" height="20" viewBox="0 0 20 20" fill="none" xmlns="http://www.w3.org/2000/svg">
<path fill-rule="evenodd" clip-rule="evenodd" d="M17.9865 10.0837H16.2512C15.4853 10.0837 14.861 10.6229 14.861 11.3886C14.861 12.1549 15.4843 12.778 16.2502 12.778C17.3989 12.778 18.3332 13.7125 18.3332 14.8617C18.3332 15.7661 17.7512 16.5563 16.9443 16.8549V17.9861C16.9443 18.1777 16.7892 18.3334 16.5972 18.3334C16.4053 18.3334 16.2498 18.1777 16.2498 17.9861V16.9878H14.516C14.3241 16.9878 14.1665 16.7896 14.1665 16.598C14.1665 16.4061 14.3241 16.2974 14.516 16.2974H16.2512C16.3356 16.2974 16.4175 16.2863 16.498 16.2708C16.516 16.2653 16.5348 16.2618 16.5542 16.2594C17.174 16.1109 17.6387 15.5231 17.6387 14.8617C17.6387 14.0957 17.0158 13.4722 16.2502 13.4722C15.1015 13.4722 14.1665 12.5378 14.1665 11.3886C14.1665 10.2401 15.1018 9.39403 16.2498 9.39334V8.26454C16.2498 8.07295 16.4053 7.91726 16.5972 7.91726C16.7892 7.91726 16.9443 8.07295 16.9443 8.26454V9.39334H17.9865C18.1784 9.39334 18.3332 9.461 18.3332 9.65259C18.3332 9.84452 18.1784 10.0837 17.9865 10.0837ZM8.61618 9.39334C8.4548 9.39334 8.32153 9.21764 8.28128 9.0478C8.27364 9.0188 8.26358 8.99049 8.26358 8.95873V5.48705C8.26358 5.29512 8.41871 5.13978 8.61062 5.13978C8.80254 5.13978 8.95802 5.29512 8.95802 5.48705V8.70294H12.0867C12.2786 8.70294 12.4302 8.76024 12.4302 8.95218C12.4302 9.14376 12.2786 9.39334 12.0867 9.39334H8.61618ZM15.3583 6.26755C15.1844 6.35074 14.9776 6.27756 14.8953 6.10531C14.0076 4.2571 12.3511 2.94845 10.3514 2.51384C8.63075 2.14033 6.8681 2.45826 5.38794 3.41032C3.90708 4.36204 2.88572 5.83294 2.51195 7.55308C1.74116 11.1038 4.00217 14.6197 7.55213 15.3912C9.27244 15.7644 11.0344 15.4461 12.5156 14.4947C12.6777 14.3905 12.8922 14.4378 12.9956 14.599C13.0993 14.7605 13.0525 14.9752 12.8915 15.0788C11.7011 15.8434 10.3469 16.238 8.96565 16.238C8.44682 16.238 7.92416 16.1824 7.40498 16.0695C3.48091 15.2172 0.981123 11.3303 1.83313 7.40568C2.24646 5.50431 3.37575 3.87807 5.01208 2.8259C6.64911 1.77407 8.59639 1.42231 10.4989 1.83517C12.7093 2.31535 14.5403 3.76208 15.521 5.80429C15.6043 5.97724 15.5315 6.1847 15.3583 6.26755Z" fill="black"/>
</svg>
