<svg width="12" height="12" viewBox="0 0 12 12" fill="currentColor" xmlns="http://www.w3.org/2000/svg">
<path fill-rule="evenodd" clip-rule="evenodd" d="M10.2696 3.0835H9.78348L8.79844 10.6092C8.76966 10.8283 8.55621 11 8.31236 11H3.93745C3.69361 11 3.48016 10.8283 3.45138 10.6094L2.46633 3.0835H1.98026C1.85316 3.0835 1.75 2.99017 1.75 2.87496C1.75 2.75996 1.85316 2.66663 1.98026 2.66663H4.5131V1.6252C4.5131 1.28041 4.82303 1 5.20388 1H7.04594C7.42679 1 7.73672 1.28041 7.73672 1.6252V2.66663H10.2696C10.3967 2.66663 10.4998 2.75996 10.4998 2.87496C10.4998 2.99017 10.3967 3.0835 10.2696 3.0835ZM7.2762 1.6252C7.2762 1.5102 7.17281 1.41666 7.04594 1.41666H5.20388C5.077 1.41666 4.97362 1.5102 4.97362 1.6252V2.66663H7.2762V1.6252ZM2.9303 3.0835L3.9089 10.56C3.90982 10.569 3.92778 10.5831 3.93745 10.5831H8.31236C8.32226 10.5831 8.33999 10.569 8.34115 10.56L9.31951 3.0835H2.9303Z" fill="currentColor"/>
</svg>
