<svg width="16" height="16" viewBox="0 0 16 16" fill="none" xmlns="http://www.w3.org/2000/svg">
<path fill-rule="evenodd" clip-rule="evenodd" d="M13.8348 6.18537L12.5743 7.44593C12.0376 7.98287 11.324 8.27871 10.5648 8.27871H9.9451C9.79176 8.27871 9.66732 8.15426 9.66732 8.00093C9.66732 7.84732 9.79176 7.72287 9.9451 7.72287H10.5648C11.1757 7.72287 11.7498 7.48509 12.1812 7.05315L13.442 5.79259C13.8737 5.36065 14.1118 4.78704 14.1118 4.17621C14.1118 3.56537 13.8737 2.99148 13.442 2.55954C13.0101 2.1276 12.4359 1.88954 11.8254 1.88954C11.2148 1.88954 10.6407 2.1276 10.2087 2.55954L8.94815 3.81982C8.51621 4.25176 8.27843 4.82621 8.27843 5.43676V6.05648C8.27843 6.20982 8.15398 6.33398 8.00065 6.33398C7.84732 6.33398 7.72287 6.20982 7.72287 6.05648V5.43676C7.72287 4.67787 8.01843 3.96426 8.55537 3.42704L9.81593 2.16676C10.3526 1.62982 11.0662 1.33398 11.8254 1.33398C12.5845 1.33398 13.2982 1.62982 13.8348 2.16676C14.3715 2.70315 14.6673 3.41704 14.6673 4.17621C14.6673 4.93537 14.3715 5.64898 13.8348 6.18537ZM7.72287 9.94537C7.72287 9.79176 7.84732 9.66759 8.00065 9.66759C8.15398 9.66759 8.27843 9.79176 8.27843 9.94537V10.5648C8.27843 11.3237 7.9826 12.0376 7.44593 12.5743L6.18537 13.8351C5.64871 14.3718 4.9351 14.6673 4.17593 14.6673C3.41676 14.6673 2.70315 14.3718 2.16648 13.8351C1.62954 13.2984 1.33398 12.5848 1.33398 11.8257C1.33398 11.0665 1.62954 10.3526 2.16648 9.81621L3.42704 8.55537C3.96371 8.01898 4.67732 7.72287 5.43648 7.72287H6.05621C6.20954 7.72287 6.33398 7.84732 6.33398 8.00093C6.33398 8.15426 6.20954 8.27871 6.05621 8.27871H5.43648C4.82565 8.27871 4.25148 8.51648 3.8201 8.94843L2.55926 10.209C2.12732 10.6409 1.88954 11.2148 1.88954 11.8257C1.88954 12.4365 2.12732 13.0104 2.55926 13.4423C2.99121 13.874 3.56537 14.112 4.17593 14.112C4.78648 14.112 5.36065 13.874 5.7926 13.4423L7.05315 12.1815C7.4851 11.7498 7.72287 11.1754 7.72287 10.5648V9.94537ZM6.74676 5.74343C6.70398 5.7676 6.6576 5.77843 6.61204 5.77843C6.51426 5.77843 6.41954 5.72704 6.36898 5.63565L4.9801 3.13565C4.90537 3.00148 4.95398 2.8326 5.08787 2.75787C5.22204 2.68315 5.39121 2.73204 5.46565 2.86593L6.85454 5.36593C6.92926 5.5001 6.88065 5.66898 6.74676 5.74343ZM5.75454 6.72482C5.70843 6.82815 5.60676 6.88954 5.50037 6.88954C5.46287 6.88954 5.42454 6.88204 5.38787 6.86593L2.88787 5.75482C2.7476 5.69232 2.68454 5.52815 2.74676 5.38787C2.80898 5.24787 2.97287 5.18482 3.11343 5.24704L5.61343 6.35815C5.75371 6.42037 5.81676 6.58454 5.75454 6.72482ZM9.25454 10.2579C9.38898 10.1832 9.55787 10.2318 9.63232 10.3659L11.0212 12.8659C11.0957 13.0001 11.0473 13.169 10.9134 13.2434C10.8707 13.2673 10.8243 13.2787 10.7787 13.2787C10.6809 13.2787 10.5865 13.227 10.5357 13.1357L9.14676 10.6357C9.07204 10.5018 9.12065 10.3326 9.25454 10.2579ZM10.2468 9.27676C10.309 9.13676 10.4729 9.07398 10.6134 9.13593L13.1134 10.247C13.2537 10.3093 13.3168 10.4734 13.2545 10.6137C13.2084 10.717 13.1068 10.7784 13.0004 10.7784C12.9629 10.7784 12.9245 10.7712 12.8879 10.7548L10.3879 9.64371C10.2476 9.58121 10.1845 9.41732 10.2468 9.27676Z" fill="#E65000"/>
</svg>
