<svg width="48" height="48" viewBox="0 0 48 48" fill="none" xmlns="http://www.w3.org/2000/svg">
<g id="upload-2">
<path id="Vector" fill-rule="evenodd" clip-rule="evenodd" d="M42.3333 44H5.66667C4.7475 44 4 43.252 4 42.3329V30.6664C4 30.2064 4.3725 29.8332 4.83333 29.8332C5.29417 29.8332 5.66667 30.2064 5.66667 30.6664V42.3329H42.3333V30.6664C42.3333 30.2064 42.7058 29.8332 43.1667 29.8332C43.6275 29.8332 44 30.2064 44 30.6664V42.3329C44 43.252 43.2517 44 42.3333 44ZM32.3333 14.8334C32.1067 14.8334 31.8808 14.7415 31.7167 14.5612L24.8333 6.98946V33.1666C24.8333 33.6275 24.4608 33.9998 24 33.9998C23.5392 33.9998 23.1667 33.6275 23.1667 33.1666V6.98946L16.2833 14.5612C15.9742 14.9018 15.4458 14.9252 15.1058 14.6171C14.7658 14.3074 14.7408 13.7807 15.05 13.4401L23.3833 4.27298C23.3875 4.26797 23.3942 4.2663 23.3983 4.26213C23.55 4.10185 23.7617 4 24 4C24.2383 4 24.45 4.10185 24.6017 4.26213C24.6058 4.2663 24.6125 4.26797 24.6167 4.27298L32.95 13.4401C33.2592 13.7807 33.2342 14.3074 32.8942 14.6171C32.7342 14.7624 32.5333 14.8334 32.3333 14.8334Z" fill="black"/>
</g>
</svg>
