<svg width="18" height="18" viewBox="0 0 18 18" fill="none" xmlns="http://www.w3.org/2000/svg">
<path fill-rule="evenodd" clip-rule="evenodd" d="M15.875 16.5H2.125C1.78031 16.5 1.5 16.2195 1.5 15.8748V11.4999C1.5 11.3274 1.63969 11.1875 1.8125 11.1875C1.98531 11.1875 2.125 11.3274 2.125 11.4999V15.8748H15.875V11.4999C15.875 11.3274 16.0147 11.1875 16.1875 11.1875C16.3603 11.1875 16.5 11.3274 16.5 11.4999V15.8748C16.5 16.2195 16.2194 16.5 15.875 16.5ZM12.125 5.56251C12.04 5.56251 11.9553 5.52807 11.8937 5.46045L9.3125 2.62105V12.4375C9.3125 12.6103 9.17281 12.7499 9 12.7499C8.82719 12.7499 8.6875 12.6103 8.6875 12.4375V2.62105L6.10625 5.46045C5.99031 5.58818 5.79219 5.59694 5.66469 5.48143C5.53719 5.36528 5.52781 5.16774 5.64375 5.04002L8.76875 1.60237C8.77031 1.60049 8.77281 1.59986 8.77437 1.5983C8.83125 1.53819 8.91062 1.5 9 1.5C9.08938 1.5 9.16875 1.53819 9.22563 1.5983C9.22719 1.59986 9.22969 1.60049 9.23125 1.60237L12.3563 5.04002C12.4722 5.16774 12.4628 5.36528 12.3353 5.48143C12.2753 5.5359 12.2 5.56251 12.125 5.56251Z" fill="black"/>
</svg>
