<svg width="16" height="16" viewBox="0 0 16 16" fill="none" xmlns="http://www.w3.org/2000/svg">
<path fill-rule="evenodd" clip-rule="evenodd" d="M13.3891 14.6667C13.1113 14.6667 13.1113 14.3892 13.1113 14.3892H2.55557C2.55557 14.3892 2.55557 14.6667 2.27778 14.6667C2 14.6667 2 14.5 2 14.3892V13.9617C2 11.2439 4.08004 8.90075 6.74093 8.38574C5.28229 7.92157 4.22227 6.55487 4.22227 4.94428C4.22227 2.95313 5.84202 1.33337 7.83345 1.33337C9.82461 1.33337 11.4446 2.95313 11.4446 4.94428C11.4446 6.55487 10.3846 7.92157 8.92598 8.38574C11.5869 8.90075 13.6669 11.2439 13.6669 13.9617V14.3892C13.6669 14.5425 13.667 14.6667 13.3891 14.6667ZM10.8891 4.94428C10.8891 3.25953 9.51821 1.88894 7.83345 1.88894C6.1487 1.88894 4.77784 3.25953 4.77784 4.94428C4.77784 6.62932 6.1487 8.00018 7.83345 8.00018C9.51821 8.00018 10.8891 6.62932 10.8891 4.94428ZM13.1113 13.9617C13.1113 11.23 10.6452 8.83325 7.83345 8.83325C5.02173 8.83325 2.55557 11.23 2.55557 13.9617V14.3892H13.1113V13.9617Z" fill="black"/>
</svg>
