<svg width="20" height="20" viewBox="0 0 20 20" fill="currentColor" xmlns="http://www.w3.org/2000/svg">
<path fill-rule="evenodd" clip-rule="evenodd" d="M18.3331 12.7779C18.3331 12.9695 18.1775 13.1248 17.9859 13.1248H17.2383L16.5921 17.0014C16.5644 17.1688 16.4196 17.2913 16.2498 17.2913H14.1665C13.9936 17.2913 13.8474 17.1646 13.8227 16.9934L13.4755 14.5685C13.4484 14.3789 13.58 14.2029 13.77 14.1754C13.9595 14.1494 14.1359 14.2799 14.163 14.4699L14.4675 16.5972H15.9557L16.6019 12.7206C16.6039 12.7067 16.6123 12.6959 16.6161 12.6827C16.6227 12.6602 16.63 12.6386 16.6407 12.6182C16.6515 12.598 16.6637 12.581 16.6775 12.5637C16.6914 12.5463 16.7053 12.5307 16.7223 12.5161C16.7394 12.5015 16.7578 12.49 16.7772 12.4793C16.7963 12.4685 16.815 12.4591 16.8362 12.4522C16.8584 12.4449 16.8807 12.4411 16.9039 12.4383C16.9178 12.4369 16.93 12.4303 16.9442 12.4303H17.6386V10.5904C17.6386 10.5842 17.6418 10.579 17.6421 10.5731C17.6418 10.5668 17.6386 10.5616 17.6386 10.5554C17.6386 9.11199 17.0001 7.56931 15.2081 7.56931C15.0165 7.56931 14.8609 7.41411 14.8609 7.22244C14.8609 7.03078 15.0165 6.87488 15.2081 6.87488C17.1064 6.87488 18.3331 8.31964 18.3331 10.5554C18.3331 10.5616 18.3299 10.5668 18.3296 10.5731C18.3299 10.579 18.3331 10.5842 18.3331 10.5904V12.7779ZM15.2081 6.87488C14.0595 6.87488 13.1248 5.94053 13.1248 4.79194C13.1248 3.643 14.0592 2.70865 15.2078 2.70865C16.3567 2.70865 17.2914 3.643 17.2914 4.79194C17.2914 5.94053 16.3571 6.87488 15.2081 6.87488ZM15.2078 3.40308C14.4422 3.40308 13.8193 4.02598 13.8193 4.79194C13.8193 5.55789 14.4422 6.18045 15.2078 6.18045C15.9737 6.18045 16.597 5.55789 16.597 4.79194C16.597 4.02598 15.9737 3.40308 15.2078 3.40308ZM13.4721 9.30573C13.4721 9.31129 13.4689 9.31615 13.4686 9.3217C13.4689 9.32761 13.4721 9.33212 13.4721 9.33802V12.4303C13.4721 12.622 13.3165 12.7779 13.1248 12.7779H12.0426L11.386 18.0292C11.3645 18.2028 11.2165 18.3333 11.0416 18.3333H8.95826C8.78327 18.3333 8.63535 18.2028 8.61383 18.0292L7.95724 12.7779H6.87497C6.68331 12.7779 6.52776 12.622 6.52776 12.4303V9.33802C6.52776 9.33212 6.53088 9.32761 6.53088 9.3217C6.53088 9.31615 6.52776 9.31129 6.52776 9.30573C6.52776 7.39154 8.08432 5.83463 9.99817 5.83358C8.85028 5.83289 7.91662 4.89853 7.91662 3.74995C7.91662 2.60101 8.85097 1.66666 9.99991 1.66666C11.1488 1.66666 12.0832 2.60101 12.0832 3.74995C12.0832 4.89853 11.1495 5.83289 10.0016 5.83358C11.9155 5.83463 13.4721 7.39154 13.4721 9.30573ZM11.3888 3.74995C11.3888 2.98434 10.7655 2.36143 9.99991 2.36143C9.23395 2.36143 8.61105 2.98434 8.61105 3.74995C8.61105 4.51625 9.23395 5.1395 9.99991 5.1395C10.7655 5.1395 11.3888 4.51625 11.3888 3.74995ZM9.99991 6.52801C8.46834 6.52801 7.22219 7.77382 7.22219 9.30573C7.22219 9.31129 7.21906 9.31615 7.21872 9.3217C7.21906 9.32761 7.22219 9.33212 7.22219 9.33802V12.0835H8.26383C8.28015 12.0835 8.29439 12.0904 8.31001 12.0928C8.33328 12.096 8.35515 12.0984 8.37668 12.106C8.39925 12.114 8.41869 12.1255 8.43918 12.1376C8.45688 12.1484 8.4739 12.1581 8.48952 12.1716C8.50758 12.1873 8.52181 12.2057 8.53605 12.2248C8.5489 12.2414 8.56105 12.2571 8.57077 12.2758C8.58154 12.2973 8.58709 12.3199 8.59334 12.3435C8.59751 12.3584 8.60619 12.3713 8.60827 12.3876L9.26485 17.6389H10.735L11.3915 12.3876C11.3936 12.3713 11.4023 12.3581 11.4065 12.3428C11.4127 12.3199 11.4179 12.2973 11.4287 12.2765C11.4388 12.2567 11.4516 12.24 11.4652 12.2223C11.4787 12.2046 11.4919 12.1876 11.5086 12.1727C11.5252 12.1578 11.544 12.147 11.5634 12.1359C11.5825 12.1248 11.6006 12.114 11.6214 12.1064C11.6436 12.0987 11.6662 12.096 11.6902 12.0925C11.7058 12.0904 11.7197 12.0835 11.736 12.0835H12.7776V9.33802C12.7776 9.33212 12.7808 9.32761 12.7808 9.3217C12.7808 9.31615 12.7776 9.31129 12.7776 9.30573C12.7776 7.77382 11.5315 6.52801 9.99991 6.52801ZM4.79203 6.87488C3.6431 6.87488 2.70839 5.94053 2.70839 4.79194C2.70839 3.643 3.6431 2.70865 4.79203 2.70865C5.94062 2.70865 6.87497 3.643 6.87497 4.79194C6.87497 5.94053 5.94062 6.87488 4.79203 6.87488ZM4.79203 3.40308C4.02607 3.40308 3.40282 4.02598 3.40282 4.79194C3.40282 5.55789 4.02607 6.18045 4.79203 6.18045C5.55764 6.18045 6.18054 5.55789 6.18054 4.79194C6.18054 4.02598 5.55764 3.40308 4.79203 3.40308ZM4.79168 6.87488C4.98335 6.87488 5.1389 7.03078 5.1389 7.22244C5.1389 7.41411 4.98335 7.56931 4.79168 7.56931C2.99971 7.56931 2.36118 9.11199 2.36118 10.5554C2.36118 10.5616 2.35805 10.5668 2.35771 10.5731C2.35805 10.579 2.36118 10.5842 2.36118 10.5904V12.4303H3.05561C3.0695 12.4303 3.08095 12.4366 3.0945 12.4383C3.11915 12.4411 3.14241 12.4449 3.16533 12.4525C3.18512 12.4591 3.20248 12.4678 3.22054 12.4779C3.24137 12.4893 3.26081 12.5015 3.27887 12.5175C3.29484 12.531 3.30803 12.5459 3.32123 12.5623C3.33581 12.58 3.34866 12.598 3.35942 12.6185C3.37019 12.639 3.37713 12.6602 3.38373 12.6824C3.38755 12.6959 3.39588 12.7067 3.39796 12.7206L4.04413 16.5972H5.53229L5.8368 14.4699C5.86423 14.2803 6.042 14.1494 6.2295 14.1754C6.41977 14.2029 6.55137 14.3789 6.52429 14.5685L6.17707 16.9934C6.15242 17.1646 6.00624 17.2913 5.83333 17.2913H3.75004C3.58025 17.2913 3.43546 17.1688 3.40768 17.0014L2.76152 13.1248H2.01396C1.8223 13.1248 1.66675 12.9695 1.66675 12.7779V10.5904C1.66675 10.5842 1.66987 10.579 1.67022 10.5731C1.66987 10.5668 1.66675 10.5616 1.66675 10.5554C1.66675 8.31964 2.89346 6.87488 4.79168 6.87488Z" fill="currentColor"/>
</svg>
