<svg width="19" height="18" viewBox="0 0 19 18" fill="currentColor" xmlns="http://www.w3.org/2000/svg">
<path fill-rule="evenodd" clip-rule="evenodd" d="M16.7907 9.00014H14.8372V10.9689C14.8372 11.1242 14.7125 11.2499 14.5581 11.2499C14.4038 11.2499 14.2791 11.1242 14.2791 10.9689V9.00014H12.3256C12.1713 9.00014 12.0465 8.87414 12.0465 8.7186C12.0465 8.56335 12.1713 8.43763 12.3256 8.43763H14.2791V6.46884C14.2791 6.31358 14.4038 6.18758 14.5581 6.18758C14.7125 6.18758 14.8372 6.31358 14.8372 6.46884V8.43763H16.7907C16.945 8.43763 17.0698 8.56335 17.0698 8.7186C17.0698 8.87414 16.945 9.00014 16.7907 9.00014ZM13.7209 15.0362V15.469C13.7209 15.6243 13.5962 15.75 13.4419 15.75H2.27907C2.12474 15.75 2 15.6243 2 15.469V15.0362C2 12.2841 4.08967 9.91169 6.76288 9.39052C5.29749 8.92055 4.23256 7.53677 4.23256 5.90604C4.23256 3.89 5.86009 2.25 7.86046 2.25C9.86084 2.25 11.4884 3.89 11.4884 5.90604C11.4884 7.53677 10.4234 8.92055 8.95805 9.39052C11.6313 9.91169 13.7209 12.2841 13.7209 15.0362ZM10.9302 5.90604C10.9302 4.20023 9.55302 2.81251 7.86046 2.81251C6.16791 2.81251 4.7907 4.20023 4.7907 5.90604C4.7907 7.61214 6.16791 9.00014 7.86046 9.00014C9.55302 9.00014 10.9302 7.61214 10.9302 5.90604ZM7.86046 9.84363C5.036 9.84363 2.55814 12.27 2.55814 15.0362V15.1875H13.1628V15.0362C13.1628 12.27 10.6849 9.84363 7.86046 9.84363Z" fill="currentColor"/>
</svg>
