<svg width="18" height="18" viewBox="0 0 18 18" fill="none" xmlns="http://www.w3.org/2000/svg">
<path fill-rule="evenodd" clip-rule="evenodd" d="M15.0628 16.5C14.7502 16.5 14.7503 16.1878 14.7503 16.1878H2.87501C2.87501 16.1878 2.87501 16.5 2.56251 16.5C2.25 16.5 2.25 16.3125 2.25 16.1878V15.7069C2.25 12.6493 4.59005 10.0133 7.58355 9.43392C5.94258 8.91172 4.75005 7.37418 4.75005 5.56227C4.75005 3.32223 6.57228 1.5 8.81264 1.5C11.0527 1.5 12.8752 3.32223 12.8752 5.56227C12.8752 7.37418 11.6827 8.91172 10.0417 9.43392C13.0352 10.0133 15.3753 12.6493 15.3753 15.7069V16.1878C15.3753 16.3603 15.3754 16.5 15.0628 16.5ZM12.2502 5.56227C12.2502 3.66692 10.708 2.12501 8.81264 2.12501C6.91728 2.12501 5.37506 3.66692 5.37506 5.56227C5.37506 7.45794 6.91728 9.00016 8.81264 9.00016C10.708 9.00016 12.2502 7.45794 12.2502 5.56227ZM14.7503 15.7069C14.7503 12.6337 11.9758 9.93736 8.81264 9.93736C5.64945 9.93736 2.87501 12.6337 2.87501 15.7069V16.1878H14.7503V15.7069Z" fill="black"/>
</svg>
