<svg width="16" height="16" viewBox="0 0 16 16" fill="none" xmlns="http://www.w3.org/2000/svg">
<path fill-rule="evenodd" clip-rule="evenodd" d="M13.2804 14H2.72483C1.95899 14 1.33594 13.3767 1.33594 12.6111V6.50018C1.33594 5.73437 1.95899 5.11133 2.72483 5.11133H13.2804C14.0462 5.11133 14.6693 5.73437 14.6693 6.50018V12.6111C14.6693 13.3767 14.0462 14 13.2804 14ZM14.1137 6.50018C14.1137 6.04047 13.7398 5.66659 13.2804 5.66659H2.72483C2.26538 5.66659 1.89149 6.04047 1.89149 6.50018V12.6111C1.89149 13.0709 2.26538 13.4445 2.72483 13.4445H13.2804C13.7398 13.4445 14.1137 13.0709 14.1137 12.6111V6.50018ZM12.7248 10.1112H9.94705C9.79372 10.1112 9.66927 9.98676 9.66927 9.83343V7.05572C9.66927 6.90239 9.79372 6.77795 9.94705 6.77795H12.7248C12.8782 6.77795 13.0026 6.90239 13.0026 7.05572V9.83343C13.0026 9.98676 12.8782 10.1112 12.7248 10.1112ZM12.447 7.33322H10.2248V9.55539H12.447V7.33322ZM7.72483 11.7778H3.28038C3.12705 11.7778 3.0026 11.6534 3.0026 11.5001C3.0026 11.3465 3.12705 11.222 3.28038 11.222H7.72483C7.87816 11.222 8.0026 11.3465 8.0026 11.5001C8.0026 11.6534 7.87816 11.7778 7.72483 11.7778ZM7.72483 10.1112H3.28038C3.12705 10.1112 3.0026 9.98676 3.0026 9.83343C3.0026 9.67983 3.12705 9.55539 3.28038 9.55539H7.72483C7.87816 9.55539 8.0026 9.67983 8.0026 9.83343C8.0026 9.98676 7.87816 10.1112 7.72483 10.1112ZM4.94705 7.88876H3.28038C3.12705 7.88876 3.0026 7.76432 3.0026 7.61099C3.0026 7.45766 3.12705 7.33322 3.28038 7.33322H4.94705C5.10038 7.33322 5.22483 7.45766 5.22483 7.61099C5.22483 7.76432 5.10038 7.88876 4.94705 7.88876ZM13.5582 4.27773H2.44705C2.29372 4.27773 2.16927 4.15357 2.16927 4.00024C2.16927 3.84663 2.29372 3.72219 2.44705 3.72219H13.5582C13.7115 3.72219 13.8359 3.84663 13.8359 4.00024C13.8359 4.15357 13.7115 4.27773 13.5582 4.27773ZM12.7248 2.88888H3.28038C3.12705 2.88888 3.0026 2.76471 3.0026 2.61138C3.0026 2.45778 3.12705 2.33334 3.28038 2.33334H12.7248C12.8782 2.33334 13.0026 2.45778 13.0026 2.61138C13.0026 2.76471 12.8782 2.88888 12.7248 2.88888Z" fill="black"/>
</svg>
