<svg width="16" height="16" viewBox="0 0 16 16" fill="currentColor" xmlns="http://www.w3.org/2000/svg">
<path fill-rule="evenodd" clip-rule="evenodd" d="M8.00016 15.5C3.86476 15.5 0.5 12.1356 0.5 8.00016C0.5 3.86444 3.86476 0.5 8.00016 0.5C12.1356 0.5 15.5003 3.86444 15.5003 8.00016C15.5003 12.1356 12.1356 15.5 8.00016 15.5ZM8.00016 1.12501C4.20914 1.12501 1.12501 4.20883 1.12501 8.00016C1.12501 11.7912 4.20914 14.875 8.00016 14.875C11.7912 14.875 14.8753 11.7912 14.8753 8.00016C14.8753 4.20883 11.7912 1.12501 8.00016 1.12501ZM8.00016 12.6874C7.65546 12.6874 7.37514 12.4071 7.37514 12.0627C7.37514 11.718 7.65546 11.4374 8.00016 11.4374C8.34454 11.4374 8.62517 11.718 8.62517 12.0627C8.62517 12.4071 8.34454 12.6874 8.00016 12.6874ZM8.00016 10.4999C7.82734 10.4999 7.68765 10.3602 7.68765 10.1877V4.56258C7.68765 4.39008 7.82734 4.25008 8.00016 4.25008C8.17297 4.25008 8.31266 4.39008 8.31266 4.56258V10.1877C8.31266 10.3602 8.17297 10.4999 8.00016 10.4999Z" fill="currentColor"/>
</svg>
