<svg width="18" height="18" viewBox="0 0 18 18" fill="none" xmlns="http://www.w3.org/2000/svg">
<path fill-rule="evenodd" clip-rule="evenodd" d="M9.00016 16.5C4.86476 16.5 1.5 13.1356 1.5 9.00016C1.5 4.86444 4.86476 1.5 9.00016 1.5C13.1356 1.5 16.5003 4.86444 16.5003 9.00016C16.5003 13.1356 13.1356 16.5 9.00016 16.5ZM9.00016 2.12501C5.20914 2.12501 2.12501 5.20883 2.12501 9.00016C2.12501 12.7912 5.20914 15.875 9.00016 15.875C12.7912 15.875 15.8753 12.7912 15.8753 9.00016C15.8753 5.20883 12.7912 2.12501 9.00016 2.12501ZM9.00016 13.6874C8.65546 13.6874 8.37514 13.4071 8.37514 13.0627C8.37514 12.718 8.65546 12.4374 9.00016 12.4374C9.34454 12.4374 9.62517 12.718 9.62517 13.0627C9.62517 13.4071 9.34454 13.6874 9.00016 13.6874ZM9.00016 11.4999C8.82734 11.4999 8.68765 11.3602 8.68765 11.1877V5.56258C8.68765 5.39008 8.82734 5.25008 9.00016 5.25008C9.17297 5.25008 9.31266 5.39008 9.31266 5.56258V11.1877C9.31266 11.3602 9.17297 11.4999 9.00016 11.4999Z" fill="black"/>
</svg>
