<svg width="20" height="20" viewBox="0 0 20 20" fill="none" xmlns="http://www.w3.org/2000/svg">
<path fill-rule="evenodd" clip-rule="evenodd" d="M9.99935 18.3333C5.40421 18.3333 1.66602 14.5951 1.66602 9.99996C1.66602 5.40482 5.40421 1.66663 9.99935 1.66663C14.5945 1.66663 18.3327 5.40482 18.3327 9.99996C18.3327 14.5951 14.5945 18.3333 9.99935 18.3333ZM9.99935 3.05551C6.17018 3.05551 3.0549 6.17079 3.0549 9.99996C3.0549 13.8291 6.17018 16.9444 9.99935 16.9444C13.8285 16.9444 16.9438 13.8291 16.9438 9.99996C16.9438 6.17079 13.8285 3.05551 9.99935 3.05551ZM9.99935 14.8611C9.81879 14.8611 9.63824 14.7847 9.50629 14.6597C9.3806 14.5277 9.3049 14.3472 9.3049 14.1666C9.3049 13.9791 9.3806 13.8055 9.50629 13.6736C9.76324 13.4166 10.2285 13.4166 10.4924 13.6736C10.6174 13.8055 10.6938 13.9791 10.6938 14.1666C10.6938 14.3472 10.6174 14.5277 10.4924 14.6597C10.3605 14.7847 10.1799 14.8611 9.99935 14.8611ZM9.99935 12.0833C9.61532 12.0833 9.3049 11.7722 9.3049 11.3888V5.83329C9.3049 5.44996 9.61532 5.13885 9.99935 5.13885C10.3834 5.13885 10.6938 5.44996 10.6938 5.83329V11.3888C10.6938 11.7722 10.3834 12.0833 9.99935 12.0833Z" fill="white"/>
</svg>
