<svg width="24" height="24" viewBox="0 0 24 24" fill="none" xmlns="http://www.w3.org/2000/svg">
<path fill-rule="evenodd" clip-rule="evenodd" d="M21.1671 21.3333C21.1613 21.3333 21.1563 21.3333 21.1504 21.3333H2.83274C2.53891 21.3333 2.26595 21.1773 2.11653 20.9231C1.96628 20.6697 1.96127 20.3542 2.10317 20.0958L11.262 3.39958C11.5542 2.86681 12.429 2.86681 12.7211 3.39958L21.809 19.9666C21.9284 20.1109 22.0002 20.2963 22.0002 20.4985C22.0002 20.9591 21.6271 21.3333 21.1671 21.3333ZM11.9916 5.53485L4.24096 19.6637H19.7422L11.9916 5.53485ZM11.9916 9.64598C12.4515 9.64598 12.8247 10.0193 12.8247 10.4808V14.6548C12.8247 15.1155 12.4515 15.4897 11.9916 15.4897C11.5316 15.4897 11.1593 15.1155 11.1593 14.6548V10.4808C11.1593 10.0193 11.5316 9.64598 11.9916 9.64598ZM12.5851 16.5661C12.7345 16.7247 12.8263 16.942 12.8263 17.1593C12.8263 17.3766 12.7345 17.593 12.5767 17.7516C12.4265 17.9018 12.2103 17.9941 11.9941 17.9941C11.7687 17.9941 11.5608 17.9018 11.4031 17.7516C11.2445 17.593 11.161 17.3766 11.161 17.1593C11.161 16.942 11.2445 16.7247 11.4031 16.5661C11.7103 16.2573 12.2771 16.2573 12.5851 16.5661Z" fill="#EF8B4D"/>
</svg>
