<svg width="20" height="21" viewBox="0 0 20 21" fill="none" xmlns="http://www.w3.org/2000/svg">
<rect y="0.5" width="20" height="20" rx="10" fill="white"/>
<mask id="path-2-inside-1_41069_63200" fill="white">
<path fill-rule="evenodd" clip-rule="evenodd" d="M9.9974 18.8333C5.4026 18.8333 1.66406 15.0951 1.66406 10.5003C1.66406 5.9052 5.4026 2.16666 9.9974 2.16666C14.5922 2.16666 18.3307 5.9052 18.3307 10.5003C18.3307 15.0951 14.5922 18.8333 9.9974 18.8333ZM9.9974 2.8611C5.78524 2.8611 2.35851 6.28784 2.35851 10.5003C2.35851 14.7125 5.78524 18.1389 9.9974 18.1389C14.2095 18.1389 17.6363 14.7125 17.6363 10.5003C17.6363 6.28784 14.2095 2.8611 9.9974 2.8611Z"/>
</mask>
<path fill-rule="evenodd" clip-rule="evenodd" d="M9.9974 18.8333C5.4026 18.8333 1.66406 15.0951 1.66406 10.5003C1.66406 5.9052 5.4026 2.16666 9.9974 2.16666C14.5922 2.16666 18.3307 5.9052 18.3307 10.5003C18.3307 15.0951 14.5922 18.8333 9.9974 18.8333ZM9.9974 2.8611C5.78524 2.8611 2.35851 6.28784 2.35851 10.5003C2.35851 14.7125 5.78524 18.1389 9.9974 18.1389C14.2095 18.1389 17.6363 14.7125 17.6363 10.5003C17.6363 6.28784 14.2095 2.8611 9.9974 2.8611Z" fill="black"/>
<path d="M9.9974 17.8333C5.95484 17.8333 2.66406 14.5428 2.66406 10.5003H0.664062C0.664062 15.6475 4.85037 19.8333 9.9974 19.8333V17.8333ZM2.66406 10.5003C2.66406 6.45746 5.95492 3.16666 9.9974 3.16666V1.16666C4.85029 1.16666 0.664062 5.35294 0.664062 10.5003H2.66406ZM9.9974 3.16666C14.0399 3.16666 17.3307 6.45746 17.3307 10.5003H19.3307C19.3307 5.35294 15.1445 1.16666 9.9974 1.16666V3.16666ZM17.3307 10.5003C17.3307 14.5428 14.04 17.8333 9.9974 17.8333V19.8333C15.1444 19.8333 19.3307 15.6475 19.3307 10.5003H17.3307ZM9.9974 1.8611C5.23293 1.8611 1.35851 5.73558 1.35851 10.5003H3.35851C3.35851 6.84009 6.33756 3.8611 9.9974 3.8611V1.8611ZM1.35851 10.5003C1.35851 15.2648 5.23302 19.1389 9.9974 19.1389V17.1389C6.33747 17.1389 3.35851 14.1601 3.35851 10.5003H1.35851ZM9.9974 19.1389C14.7618 19.1389 18.6363 15.2648 18.6363 10.5003H16.6363C16.6363 14.1601 13.6573 17.1389 9.9974 17.1389V19.1389ZM18.6363 10.5003C18.6363 5.73558 14.7619 1.8611 9.9974 1.8611V3.8611C13.6572 3.8611 16.6363 6.84009 16.6363 10.5003H18.6363Z" fill="black" mask="url(#path-2-inside-1_41069_63200)"/>
<path fill-rule="evenodd" clip-rule="evenodd" d="M9.78906 15.0833C8.06602 15.0833 6.66406 13.6832 6.66406 11.9624C6.66406 9.13482 9.38359 6.16191 9.49961 6.03688C9.64766 5.87658 9.93047 5.87658 10.0785 6.03688C10.1945 6.16191 12.9141 9.13482 12.9141 11.9624C12.9141 13.6832 11.5121 15.0833 9.78906 15.0833ZM9.78906 6.88749C9.1043 7.71893 7.44531 9.94324 7.44531 11.9624C7.44531 13.2621 8.49648 14.319 9.78906 14.319C11.0816 14.319 12.1328 13.2621 12.1328 11.9624C12.1328 9.94324 10.4738 7.71893 9.78906 6.88749Z" fill="black"/>
<path d="M9.78906 6.88749C9.1043 7.71893 7.44531 9.94324 7.44531 11.9624C7.44531 13.2621 8.49648 14.319 9.78906 14.319C11.0816 14.319 12.1328 13.2621 12.1328 11.9624C12.1328 9.94324 10.4738 7.71893 9.78906 6.88749Z" fill="white"/>
</svg>
