<svg width="20" height="20" viewBox="0 0 20 20" fill="currentColor" xmlns="http://www.w3.org/2000/svg">
<path fill-rule="evenodd" clip-rule="evenodd" d="M17.9878 18.3333H11.0521C10.8604 18.3333 10.7052 18.1781 10.7052 17.9861V9.30554C10.7052 9.11388 10.8604 8.95832 11.0521 8.95832H17.9878C18.1795 8.95832 18.3347 9.11388 18.3347 9.30554V17.9861C18.3347 18.1781 18.1795 18.3333 17.9878 18.3333ZM17.6409 9.65277H11.3989V17.6389H17.6409V9.65277ZM17.9878 7.56943H11.0521C10.8604 7.56943 10.7052 7.41388 10.7052 7.22221V2.01388C10.7052 1.82186 10.8604 1.66666 11.0521 1.66666H17.9878C18.1795 1.66666 18.3347 1.82186 18.3347 2.01388V7.22221C18.3347 7.41388 18.1795 7.56943 17.9878 7.56943ZM17.6409 2.3611H11.3989V6.87499H17.6409V2.3611ZM8.94963 18.3333H2.01387C1.8222 18.3333 1.66699 18.1781 1.66699 17.9861V12.7778C1.66699 12.5861 1.8222 12.4305 2.01387 12.4305H8.94963C9.1413 12.4305 9.29651 12.5861 9.29651 12.7778V17.9861C9.29651 18.1781 9.1413 18.3333 8.94963 18.3333ZM8.60276 13.1253H2.36074V17.6389H8.60276V13.1253ZM8.94963 11.0417H2.01387C1.8222 11.0417 1.66699 10.8864 1.66699 10.6948V2.01388C1.66699 1.82186 1.8222 1.66666 2.01387 1.66666H8.94963C9.1413 1.66666 9.29651 1.82186 9.29651 2.01388V10.6948C9.29651 10.8864 9.1413 11.0417 8.94963 11.0417ZM8.60276 2.3611H2.36074V10.3472H8.60276V2.3611Z" fill="currentColor"/>
</svg>
