<svg width="53" height="24" viewBox="0 0 53 24" fill="none" xmlns="http://www.w3.org/2000/svg">
<path d="M30.6643 0H27.9807C24.5558 0 22.8426 1.81519 22.841 5.44556V7.78742C22.841 8.6163 22.93 9.28814 23.1079 9.80293C23.2717 10.2977 23.5743 10.7362 23.9804 11.0669C24.3841 11.3933 25.0323 11.7924 25.9249 12.2643L29.9937 14.5211C30.4004 14.7573 30.7883 15.0239 31.1539 15.3186C31.3914 15.5231 31.5101 15.9215 31.5101 16.5136V18.2706C31.5101 19.5101 30.9439 20.1298 29.8115 20.1298H29.0516C27.7707 20.1298 27.1303 19.5101 27.1303 18.2706V14.6257L22.9199 16.5401H22.8387V18.1339C22.8329 18.8185 22.8974 19.5019 23.0313 20.1735C23.5681 22.7107 25.2171 23.9793 27.9784 23.9793H30.6167C34.0741 23.9793 35.8028 22.1936 35.8028 18.6222V15.4921C35.8028 14.3721 35.6984 13.6118 35.4896 13.2111C35.2792 12.8122 34.9815 12.4647 34.6183 12.1942C34.0089 11.766 33.3743 11.3743 32.7179 11.021L28.6571 8.84803C28.2498 8.61286 27.8619 8.34621 27.4969 8.05056C27.2591 7.84372 27.1396 7.44614 27.1396 6.85435V5.75582C27.1396 4.49181 27.7499 3.84947 28.9716 3.84947H29.6433C30.894 3.84947 31.5194 4.48722 31.5194 5.75582V8.44815L35.8121 6.49469V5.44556C35.8075 1.81519 34.0915 0 30.6643 0Z" fill="#1A227F"/>
<path d="M52.2092 6.49813V5.40075C52.2092 1.80025 50.4952 0 47.0672 0H44.2966C40.8694 0 39.1558 1.80025 39.1558 5.40075V18.5774C39.1558 22.1779 40.8694 23.9782 44.2966 23.9782H47.0672C49.9422 23.9782 51.6098 22.7096 52.07 20.1724C52.1641 19.6455 52.2107 19.1113 52.2092 18.5763V14.6257L47.9977 16.5401H47.9165V18.2637C47.9165 19.5032 47.3499 20.123 46.2168 20.123H45.1447C44.0116 20.123 43.4454 19.5032 43.4462 18.2637V5.711C43.4462 4.47075 44.0124 3.85023 45.1447 3.84947H45.994C47.2756 3.84947 47.9165 4.46998 47.9165 5.711V8.44815L52.2092 6.49813Z" fill="#1A227F"/>
<path d="M19.264 23.9793H19.2628L14.9747 22.0707V11.7506L19.264 13.6593V23.9793Z" fill="#1A227F"/>
<path d="M19.264 0L14.9747 1.90865V11.7506L19.264 9.842V0Z" fill="#1A227F"/>
<path d="M0 0V3.85062H4.11293V24L4.16166 23.9793L8.40337 22.0914V3.85062H12.5163V0H0Z" fill="#1A227F"/>
</svg>
