<svg width="20" height="16" viewBox="0 0 20 16" fill="none" xmlns="http://www.w3.org/2000/svg">
<path fill-rule="evenodd" clip-rule="evenodd" d="M19.1667 8.83333H0.833333C0.373333 8.83333 0 8.46 0 8C0 7.54 0.373333 7.16667 0.833333 7.16667H19.1667C19.6267 7.16667 20 7.54 20 8C20 8.46 19.6267 8.83333 19.1667 8.83333ZM19.1667 2.16667H0.833333C0.373333 2.16667 0 1.79333 0 1.33333C0 0.873333 0.373333 0.5 0.833333 0.5H19.1667C19.6267 0.5 20 0.873333 20 1.33333C20 1.79333 19.6267 2.16667 19.1667 2.16667ZM0.833333 13.8333H19.1667C19.6267 13.8333 20 14.2067 20 14.6667C20 15.1267 19.6267 15.5 19.1667 15.5H0.833333C0.373333 15.5 0 15.1267 0 14.6667C0 14.2067 0.373333 13.8333 0.833333 13.8333Z" fill="black"/>
</svg>
