<svg width="24" height="24" viewBox="0 0 24 24" fill="none" xmlns="http://www.w3.org/2000/svg">
<path d="M0 0H24V24H0V0Z" fill="black"/>
<path d="M13.4991 7H12.4928C11.2084 7 10.566 7.6807 10.5654 9.04209V9.92028C10.5654 10.2311 10.5987 10.4831 10.6655 10.6761C10.7269 10.8617 10.8404 11.0261 10.9926 11.1501C11.144 11.2725 11.3871 11.4221 11.7218 11.5991L13.2476 12.4454C13.4001 12.534 13.5456 12.6339 13.6827 12.7445C13.7718 12.8212 13.8163 12.9706 13.8163 13.1926V13.8515C13.8163 14.3163 13.604 14.5487 13.1793 14.5487H12.8944C12.414 14.5487 12.1739 14.3163 12.1739 13.8515V12.4846L10.595 13.2025H10.5645V13.8002C10.5623 14.0569 10.5865 14.3132 10.6367 14.5651C10.838 15.5165 11.4564 15.9922 12.4919 15.9922H13.4813C14.7778 15.9922 15.4261 15.3226 15.4261 13.9833V12.8095C15.4261 12.3895 15.3869 12.1044 15.3086 11.9542C15.2297 11.8046 15.1181 11.6743 14.9819 11.5728C14.7533 11.4123 14.5154 11.2654 14.2692 11.1329L12.7464 10.318C12.5937 10.2298 12.4482 10.1298 12.3114 10.019C12.2222 9.9414 12.1773 9.7923 12.1773 9.57038V9.15843C12.1773 8.68443 12.4062 8.44355 12.8643 8.44355H13.1162C13.5853 8.44355 13.8198 8.68271 13.8198 9.15843V10.1681L15.4296 9.43551V9.04209C15.4278 7.6807 14.7843 7 13.4991 7Z" fill="white"/>
<path d="M21.5785 9.4368V9.02528C21.5785 7.67509 20.9357 7 19.6502 7H18.6112C17.326 7 16.6834 7.67509 16.6834 9.02528V13.9665C16.6834 15.3167 17.326 15.9918 18.6112 15.9918H19.6502C20.7283 15.9918 21.3537 15.5161 21.5262 14.5646C21.5615 14.3671 21.579 14.1668 21.5785 13.9661V12.4846L19.9991 13.2025H19.9687V13.8489C19.9687 14.3137 19.7562 14.5461 19.3313 14.5461H18.9293C18.5043 14.5461 18.292 14.3137 18.2923 13.8489V9.14163C18.2923 8.67653 18.5046 8.44384 18.9293 8.44355H19.2477C19.7284 8.44355 19.9687 8.67624 19.9687 9.14163V10.1681L21.5785 9.4368Z" fill="white"/>
<path d="M9.224 15.9922L7.61552 15.2765V11.4065L9.224 12.1222V15.9922Z" fill="white"/>
<path d="M9.224 7L7.61552 7.71574V11.4065L9.224 10.6907V7Z" fill="white"/>
<path d="M2 7V8.44398H3.54235V16L3.56062 15.9922L5.15127 15.2843V8.44398H6.69361V7H2Z" fill="white"/>
<path d="M0 0V-0.5H-0.5V0H0ZM24 0H24.5V-0.5H24V0ZM24 24V24.5H24.5V24H24ZM0 24H-0.5V24.5H0V24ZM0 0.5H24V-0.5H0V0.5ZM23.5 0V24H24.5V0H23.5ZM24 23.5H0V24.5H24V23.5ZM0.5 24V0H-0.5V24H0.5Z" fill="black"/>
</svg>
